<?xml version="1.0" encoding="UTF-8" standalone="no"?><!DOCTYPE svg PUBLIC "-//W3C//DTD SVG 1.1//EN" "http://www.w3.org/Graphics/SVG/1.1/DTD/svg11.dtd"><svg width="100%" height="100%" viewBox="0 0 3267 1914" version="1.1" xmlns="http://www.w3.org/2000/svg" xmlns:xlink="http://www.w3.org/1999/xlink" xml:space="preserve" xmlns:serif="http://www.serif.com/" style="fill-rule:evenodd;clip-rule:evenodd;stroke-linejoin:round;stroke-miterlimit:2;"><rect id="Artboard1" x="0" y="0" width="3266.13" height="1913.18" style="fill:none;"/><g id="background_1_"><g id="background"><path d="M1381.02,735.371c-3.597,1.799 -6.68,0.643 -13.746,-3.211c-7.579,-3.983 -17.985,-9.507 -30.318,-3.34c-12.204,6.166 -14.003,17.856 -15.287,26.335c-1.157,7.965 -1.927,11.177 -5.525,12.975c-3.597,1.799 -6.68,0.642 -13.745,-3.211c-7.58,-3.983 -17.986,-9.507 -30.318,-3.341c-12.205,6.167 -14.003,17.857 -15.288,26.336c-1.156,7.965 -1.927,11.177 -5.524,12.975c-3.597,1.799 -6.68,0.642 -13.746,-3.212c-7.579,-3.982 -17.985,-9.506 -30.318,-3.34l8.093,16.059c3.598,-1.799 6.681,-0.643 13.746,3.211c5.139,2.698 11.562,6.167 19.013,6.167c3.597,-0 7.323,-0.771 11.305,-2.827c12.205,-6.166 14.003,-17.856 15.288,-26.335c1.156,-7.965 1.927,-11.177 5.524,-12.975c3.597,-1.799 6.68,-0.643 13.746,3.211c7.579,3.983 17.985,9.507 30.318,3.34c12.204,-6.166 14.003,-17.856 15.287,-26.335c1.157,-7.965 1.927,-11.177 5.524,-12.975c3.597,-1.799 6.681,-0.514 13.746,3.211c7.58,3.983 17.986,9.507 30.318,3.341l-8.093,-16.059Zm430.876,309.347l5.267,-17.215l-35.457,-10.791c2.184,-9.249 3.34,-19.013 3.34,-28.905c0,-70.528 -57.424,-127.952 -127.952,-127.952c-70.528,0 -127.953,57.424 -127.953,127.952c0,5.396 0.386,10.792 1.028,16.059c-13.874,-6.167 -29.033,-9.507 -45.22,-9.507c-16.187,0 -31.346,3.469 -45.092,9.507c0.643,-5.267 1.028,-10.663 1.028,-16.059c0,-70.528 -57.424,-127.952 -127.952,-127.952c-70.528,0 -127.953,57.424 -127.953,127.952c0,10.021 1.157,19.656 3.341,28.905l-35.457,10.791l5.267,17.215l35.585,-10.791c3.34,8.479 7.451,16.572 12.461,24.023l-27.363,21.454l11.048,14.131l27.107,-21.325c6.551,7.451 13.874,14.003 21.967,19.784l-19.912,29.675l15.031,10.021l20.169,-30.318c17.6,9.121 37.512,14.259 58.709,14.259c21.454,0 42.008,-5.138 60.507,-15.159c-0.128,1.799 -0.128,3.726 -0.128,5.524c-0,30.832 12.59,58.709 32.759,79.007c-20.94,13.746 -32.759,32.502 -32.759,52.8c-0,20.554 12.204,39.696 34.3,53.699c20.812,13.232 48.304,20.554 77.466,20.554c29.161,0 56.653,-7.322 77.465,-20.554c22.096,-14.003 34.3,-33.145 34.3,-53.699c0,-20.169 -11.819,-38.926 -32.759,-52.8c20.17,-20.298 32.759,-48.175 32.759,-79.007c0,-1.798 0,-3.725 -0.128,-5.524c18.499,10.021 39.053,15.159 60.507,15.159c21.069,0 41.11,-5.138 58.709,-14.259l20.17,30.318l15.03,-10.021l-19.784,-29.675c8.094,-5.781 15.416,-12.333 21.968,-19.784l27.106,21.325l11.049,-14.131l-27.364,-21.454c5.01,-7.58 9.121,-15.544 12.461,-24.023l35.329,10.791Zm-498.963,52.928c-60.636,0 -109.967,-49.331 -109.967,-109.967c-0,-23.638 7.579,-45.477 20.297,-63.462c-3.854,9.506 -6.038,19.912 -6.038,30.832c0,44.706 36.228,81.062 81.063,81.062c7.451,-0 14.645,-1.028 21.582,-2.955c-20.041,-5.396 -34.686,-23.766 -34.686,-45.477c0,-25.95 21.069,-47.147 47.147,-47.147c21.069,-0 38.925,13.874 44.963,33.016c1.414,-6.038 2.184,-12.205 2.184,-18.628c0,-35.457 -22.867,-65.646 -54.598,-76.566c55.112,5.91 98.148,52.671 98.148,109.325c0,9.506 -1.156,18.884 -3.597,28.006c-20.297,14.773 -35.456,36.356 -42.137,61.278c-19.013,13.489 -41.109,20.683 -64.361,20.683Zm265.796,140.028c0,14.26 -9.249,27.877 -25.95,38.54c-17.985,11.434 -42.137,17.728 -67.83,17.728c-25.822,0 -49.845,-6.294 -67.83,-17.728c-16.701,-10.663 -25.95,-24.28 -25.95,-38.54c-0,-15.287 10.534,-29.804 29.29,-40.467c18.242,12.975 40.467,20.555 64.49,20.555c24.023,-0 46.376,-7.58 64.49,-20.555c18.756,10.663 29.29,25.308 29.29,40.467Zm-93.78,-37.897c-51.643,-0 -93.78,-42.137 -93.78,-93.781c-0,-51.643 42.008,-93.78 93.78,-93.78c51.772,0 93.78,42.137 93.78,93.78c0,51.772 -42.136,93.781 -93.78,93.781Zm172.016,-102.131c-23.252,0 -45.477,-7.066 -64.104,-20.683c-6.68,-24.922 -21.84,-46.505 -42.137,-61.278c-2.441,-9.122 -3.597,-18.5 -3.597,-28.006c-0,-24.023 7.836,-46.248 20.94,-64.362c-4.111,9.764 -6.424,20.427 -6.424,31.732c0,44.706 36.228,81.062 81.063,81.062c7.451,-0 14.645,-1.028 21.582,-2.955c-20.041,-5.396 -34.686,-23.766 -34.686,-45.477c0,-25.95 21.069,-47.147 47.147,-47.147c21.069,-0 38.925,13.874 44.963,33.016c1.414,-6.038 2.184,-12.205 2.184,-18.628c0,-35.457 -22.738,-65.518 -54.341,-76.566c54.855,6.167 97.634,52.8 97.634,109.196c-0.257,60.765 -49.588,110.096 -110.224,110.096Zm83.247,-298.941c-2.955,-8.093 -7.066,-19.141 -20.298,-22.61c-13.232,-3.597 -22.353,3.983 -28.905,9.507c-6.166,5.138 -8.864,7.065 -12.847,5.909c-3.854,-1.028 -5.395,-3.982 -8.093,-11.562c-2.955,-8.093 -7.066,-19.141 -20.298,-22.61c-13.232,-3.597 -22.353,3.982 -28.905,9.507c-6.166,5.138 -8.864,7.065 -12.846,5.909c-3.854,-1.028 -5.396,-3.983 -8.094,-11.562c-2.954,-8.093 -7.065,-19.141 -20.426,-22.61l-4.625,17.343c3.854,1.028 5.396,3.982 8.094,11.562c2.955,8.093 7.065,19.141 20.426,22.61c13.36,3.468 22.353,-3.983 28.905,-9.507c6.166,-5.138 8.864,-7.065 12.847,-5.909c3.982,1.156 5.395,3.982 8.093,11.562c2.955,8.093 7.066,19.141 20.426,22.61c13.232,3.597 22.353,-3.982 28.905,-9.507c6.166,-5.138 8.864,-7.065 12.847,-5.909c3.982,1.028 5.395,3.982 8.093,11.562c2.955,8.093 7.066,19.141 20.426,22.61l4.625,-17.343c-4.111,-1.028 -5.524,-3.982 -8.35,-11.562Zm71.684,246.013l5.267,-17.215l-35.457,-10.791c2.184,-9.249 3.34,-19.013 3.34,-28.905c0,-70.528 -57.424,-127.952 -127.952,-127.952c-70.528,0 -127.953,57.424 -127.953,127.952c0,5.396 0.386,10.792 1.028,16.059c-13.874,-6.167 -29.033,-9.507 -45.22,-9.507c-16.187,0 -31.346,3.469 -45.092,9.507c0.643,-5.267 1.028,-10.663 1.028,-16.059c0,-70.528 -57.424,-127.952 -127.952,-127.952c-70.528,0 -127.953,57.424 -127.953,127.952c0,10.021 1.157,19.656 3.341,28.905l-35.457,10.791l5.267,17.215l35.585,-10.791c3.34,8.479 7.451,16.572 12.461,24.023l-27.363,21.454l11.048,14.131l27.107,-21.325c6.551,7.451 13.874,14.003 21.967,19.784l-19.912,29.675l15.031,10.021l20.169,-30.318c17.6,9.121 37.512,14.259 58.709,14.259c21.454,0 42.008,-5.138 60.507,-15.159c-0.128,1.799 -0.128,3.726 -0.128,5.524c-0,30.832 12.59,58.709 32.759,79.007c-20.94,13.746 -32.759,32.502 -32.759,52.8c-0,20.554 12.204,39.696 34.3,53.699c20.812,13.232 48.304,20.554 77.466,20.554c29.161,0 56.653,-7.322 77.465,-20.554c22.096,-14.003 34.3,-33.145 34.3,-53.699c0,-20.169 -11.819,-38.926 -32.759,-52.8c20.17,-20.298 32.759,-48.175 32.759,-79.007c0,-1.798 0,-3.725 -0.128,-5.524c18.499,10.021 39.053,15.159 60.507,15.159c21.069,0 41.11,-5.138 58.709,-14.259l20.17,30.318l15.03,-10.021l-19.784,-29.675c8.094,-5.781 15.416,-12.333 21.968,-19.784l27.106,21.325l11.049,-14.131l-27.364,-21.454c5.01,-7.58 9.121,-15.544 12.461,-24.023l35.329,10.791Zm-498.963,52.928c-60.636,0 -109.967,-49.331 -109.967,-109.967c-0,-23.638 7.579,-45.477 20.297,-63.462c-3.854,9.506 -6.038,19.912 -6.038,30.832c0,44.706 36.228,81.062 81.063,81.062c7.451,-0 14.645,-1.028 21.582,-2.955c-20.041,-5.396 -34.686,-23.766 -34.686,-45.477c0,-25.95 21.069,-47.147 47.147,-47.147c21.069,-0 38.925,13.874 44.963,33.016c1.414,-6.038 2.184,-12.205 2.184,-18.628c0,-35.457 -22.867,-65.646 -54.598,-76.566c55.112,5.91 98.148,52.671 98.148,109.325c0,9.506 -1.156,18.884 -3.597,28.006c-20.297,14.773 -35.456,36.356 -42.137,61.278c-19.013,13.489 -41.109,20.683 -64.361,20.683Zm265.796,140.028c0,14.26 -9.249,27.877 -25.95,38.54c-17.985,11.434 -42.137,17.728 -67.83,17.728c-25.822,0 -49.845,-6.294 -67.83,-17.728c-16.701,-10.663 -25.95,-24.28 -25.95,-38.54c-0,-15.287 10.534,-29.804 29.29,-40.467c18.242,12.975 40.467,20.555 64.49,20.555c24.023,-0 46.376,-7.58 64.49,-20.555c18.756,10.663 29.29,25.308 29.29,40.467Zm-93.78,-37.897c-51.643,-0 -93.78,-42.137 -93.78,-93.781c-0,-51.643 42.008,-93.78 93.78,-93.78c51.772,0 93.78,42.137 93.78,93.78c0,51.772 -42.136,93.781 -93.78,93.781Zm172.016,-102.131c-23.252,0 -45.477,-7.066 -64.104,-20.683c-6.68,-24.922 -21.84,-46.505 -42.137,-61.278c-2.441,-9.122 -3.597,-18.5 -3.597,-28.006c-0,-24.023 7.836,-46.248 20.94,-64.362c-4.111,9.764 -6.424,20.427 -6.424,31.732c0,44.706 36.228,81.062 81.063,81.062c7.451,-0 14.645,-1.028 21.582,-2.955c-20.041,-5.396 -34.686,-23.766 -34.686,-45.477c0,-25.95 21.069,-47.147 47.147,-47.147c21.069,-0 38.925,13.874 44.963,33.016c1.414,-6.038 2.184,-12.205 2.184,-18.628c0,-35.457 -22.738,-65.518 -54.341,-76.566c54.855,6.167 97.634,52.8 97.634,109.196c-0.257,60.765 -49.588,110.096 -110.224,110.096Zm83.247,-298.941c-2.955,-8.093 -7.066,-19.141 -20.298,-22.61c-13.232,-3.597 -22.353,3.983 -28.905,9.507c-6.166,5.138 -8.864,7.065 -12.847,5.909c-3.854,-1.028 -5.395,-3.982 -8.093,-11.562c-2.955,-8.093 -7.066,-19.141 -20.298,-22.61c-13.232,-3.597 -22.353,3.982 -28.905,9.507c-6.166,5.138 -8.864,7.065 -12.846,5.909c-3.854,-1.028 -5.396,-3.983 -8.094,-11.562c-2.954,-8.093 -7.065,-19.141 -20.426,-22.61l-4.625,17.343c3.854,1.028 5.396,3.982 8.094,11.562c2.955,8.093 7.065,19.141 20.426,22.61c13.36,3.468 22.353,-3.983 28.905,-9.507c6.166,-5.138 8.864,-7.065 12.847,-5.909c3.982,1.156 5.395,3.982 8.093,11.562c2.955,8.093 7.066,19.141 20.426,22.61c13.232,3.597 22.353,-3.982 28.905,-9.507c6.166,-5.138 8.864,-7.065 12.847,-5.909c3.982,1.028 5.395,3.982 8.093,11.562c2.955,8.093 7.066,19.141 20.426,22.61l4.625,-17.343c-4.111,-1.028 -5.524,-3.982 -8.35,-11.562Zm-359.192,-63.334c-3.597,1.799 -6.68,0.643 -13.746,-3.211c-7.579,-3.983 -17.985,-9.507 -30.318,-3.34c-12.204,6.166 -14.003,17.856 -15.287,26.335c-1.157,7.965 -1.927,11.177 -5.525,12.975c-3.597,1.799 -6.68,0.642 -13.745,-3.211c-7.58,-3.983 -17.986,-9.507 -30.318,-3.341c-12.205,6.167 -14.003,17.857 -15.288,26.336c-1.156,7.965 -1.927,11.177 -5.524,12.975c-3.597,1.799 -6.68,0.642 -13.746,-3.212c-7.579,-3.982 -17.985,-9.506 -30.318,-3.34l8.093,16.059c3.598,-1.799 6.681,-0.643 13.746,3.211c5.139,2.698 11.562,6.167 19.013,6.167c3.597,-0 7.323,-0.771 11.305,-2.827c12.205,-6.166 14.003,-17.856 15.288,-26.335c1.156,-7.965 1.927,-11.177 5.524,-12.975c3.597,-1.799 6.68,-0.643 13.746,3.211c7.579,3.983 17.985,9.507 30.318,3.34c12.204,-6.166 14.003,-17.856 15.287,-26.335c1.157,-7.965 1.927,-11.177 5.524,-12.975c3.597,-1.799 6.681,-0.514 13.746,3.211c7.58,3.983 17.986,9.507 30.318,3.341l-8.093,-16.059Zm-0,0c-3.597,1.799 -6.68,0.643 -13.746,-3.211c-7.579,-3.983 -17.985,-9.507 -30.318,-3.34c-12.204,6.166 -14.003,17.856 -15.287,26.335c-1.157,7.965 -1.927,11.177 -5.525,12.975c-3.597,1.799 -6.68,0.642 -13.745,-3.211c-7.58,-3.983 -17.986,-9.507 -30.318,-3.341c-12.205,6.167 -14.003,17.857 -15.288,26.336c-1.156,7.965 -1.927,11.177 -5.524,12.975c-3.597,1.799 -6.68,0.642 -13.746,-3.212c-7.579,-3.982 -17.985,-9.506 -30.318,-3.34l8.093,16.059c3.598,-1.799 6.681,-0.643 13.746,3.211c5.139,2.698 11.562,6.167 19.013,6.167c3.597,-0 7.323,-0.771 11.305,-2.827c12.205,-6.166 14.003,-17.856 15.288,-26.335c1.156,-7.965 1.927,-11.177 5.524,-12.975c3.597,-1.799 6.68,-0.643 13.746,3.211c7.579,3.983 17.985,9.507 30.318,3.34c12.204,-6.166 14.003,-17.856 15.287,-26.335c1.157,-7.965 1.927,-11.177 5.524,-12.975c3.597,-1.799 6.681,-0.514 13.746,3.211c7.58,3.983 17.986,9.507 30.318,3.341l-8.093,-16.059Zm430.876,309.347l5.267,-17.215l-35.457,-10.791c2.184,-9.249 3.34,-19.013 3.34,-28.905c0,-70.528 -57.424,-127.952 -127.952,-127.952c-70.528,0 -127.953,57.424 -127.953,127.952c0,5.396 0.386,10.792 1.028,16.059c-13.874,-6.167 -29.033,-9.507 -45.22,-9.507c-16.187,0 -31.346,3.469 -45.092,9.507c0.643,-5.267 1.028,-10.663 1.028,-16.059c0,-70.528 -57.424,-127.952 -127.952,-127.952c-70.528,0 -127.953,57.424 -127.953,127.952c0,10.021 1.157,19.656 3.341,28.905l-35.457,10.791l5.267,17.215l35.585,-10.791c3.34,8.479 7.451,16.572 12.461,24.023l-27.363,21.454l11.048,14.131l27.107,-21.325c6.551,7.451 13.874,14.003 21.967,19.784l-19.912,29.675l15.031,10.021l20.169,-30.318c17.6,9.121 37.512,14.259 58.709,14.259c21.454,0 42.008,-5.138 60.507,-15.159c-0.128,1.799 -0.128,3.726 -0.128,5.524c-0,30.832 12.59,58.709 32.759,79.007c-20.94,13.746 -32.759,32.502 -32.759,52.8c-0,20.554 12.204,39.696 34.3,53.699c20.812,13.232 48.304,20.554 77.466,20.554c29.161,0 56.653,-7.322 77.465,-20.554c22.096,-14.003 34.3,-33.145 34.3,-53.699c0,-20.169 -11.819,-38.926 -32.759,-52.8c20.17,-20.298 32.759,-48.175 32.759,-79.007c0,-1.798 0,-3.725 -0.128,-5.524c18.499,10.021 39.053,15.159 60.507,15.159c21.069,0 41.11,-5.138 58.709,-14.259l20.17,30.318l15.03,-10.021l-19.784,-29.675c8.094,-5.781 15.416,-12.333 21.968,-19.784l27.106,21.325l11.049,-14.131l-27.364,-21.454c5.01,-7.58 9.121,-15.544 12.461,-24.023l35.329,10.791Zm-498.963,52.928c-60.636,0 -109.967,-49.331 -109.967,-109.967c-0,-23.638 7.579,-45.477 20.297,-63.462c-3.854,9.506 -6.038,19.912 -6.038,30.832c0,44.706 36.228,81.062 81.063,81.062c7.451,-0 14.645,-1.028 21.582,-2.955c-20.041,-5.396 -34.686,-23.766 -34.686,-45.477c0,-25.95 21.069,-47.147 47.147,-47.147c21.069,-0 38.925,13.874 44.963,33.016c1.414,-6.038 2.184,-12.205 2.184,-18.628c0,-35.457 -22.867,-65.646 -54.598,-76.566c55.112,5.91 98.148,52.671 98.148,109.325c0,9.506 -1.156,18.884 -3.597,28.006c-20.297,14.773 -35.456,36.356 -42.137,61.278c-19.013,13.489 -41.109,20.683 -64.361,20.683Zm265.796,140.028c0,14.26 -9.249,27.877 -25.95,38.54c-17.985,11.434 -42.137,17.728 -67.83,17.728c-25.822,0 -49.845,-6.294 -67.83,-17.728c-16.701,-10.663 -25.95,-24.28 -25.95,-38.54c-0,-15.287 10.534,-29.804 29.29,-40.467c18.242,12.975 40.467,20.555 64.49,20.555c24.023,-0 46.376,-7.58 64.49,-20.555c18.756,10.663 29.29,25.308 29.29,40.467Zm-93.78,-37.897c-51.643,-0 -93.78,-42.137 -93.78,-93.781c-0,-51.643 42.008,-93.78 93.78,-93.78c51.772,0 93.78,42.137 93.78,93.78c0,51.772 -42.136,93.781 -93.78,93.781Zm172.016,-102.131c-23.252,0 -45.477,-7.066 -64.104,-20.683c-6.68,-24.922 -21.84,-46.505 -42.137,-61.278c-2.441,-9.122 -3.597,-18.5 -3.597,-28.006c-0,-24.023 7.836,-46.248 20.94,-64.362c-4.111,9.764 -6.424,20.427 -6.424,31.732c0,44.706 36.228,81.062 81.063,81.062c7.451,-0 14.645,-1.028 21.582,-2.955c-20.041,-5.396 -34.686,-23.766 -34.686,-45.477c0,-25.95 21.069,-47.147 47.147,-47.147c21.069,-0 38.925,13.874 44.963,33.016c1.414,-6.038 2.184,-12.205 2.184,-18.628c0,-35.457 -22.738,-65.518 -54.341,-76.566c54.855,6.167 97.634,52.8 97.634,109.196c-0.257,60.765 -49.588,110.096 -110.224,110.096Zm83.247,-298.941c-2.955,-8.093 -7.066,-19.141 -20.298,-22.61c-13.232,-3.597 -22.353,3.983 -28.905,9.507c-6.166,5.138 -8.864,7.065 -12.847,5.909c-3.854,-1.028 -5.395,-3.982 -8.093,-11.562c-2.955,-8.093 -7.066,-19.141 -20.298,-22.61c-13.232,-3.597 -22.353,3.982 -28.905,9.507c-6.166,5.138 -8.864,7.065 -12.846,5.909c-3.854,-1.028 -5.396,-3.983 -8.094,-11.562c-2.954,-8.093 -7.065,-19.141 -20.426,-22.61l-4.625,17.343c3.854,1.028 5.396,3.982 8.094,11.562c2.955,8.093 7.065,19.141 20.426,22.61c13.36,3.468 22.353,-3.983 28.905,-9.507c6.166,-5.138 8.864,-7.065 12.847,-5.909c3.982,1.156 5.395,3.982 8.093,11.562c2.955,8.093 7.066,19.141 20.426,22.61c13.232,3.597 22.353,-3.982 28.905,-9.507c6.166,-5.138 8.864,-7.065 12.847,-5.909c3.982,1.028 5.395,3.982 8.093,11.562c2.955,8.093 7.066,19.141 20.426,22.61l4.625,-17.343c-4.111,-1.028 -5.524,-3.982 -8.35,-11.562Zm71.684,246.013l5.267,-17.215l-35.457,-10.791c2.184,-9.249 3.34,-19.013 3.34,-28.905c0,-70.528 -57.424,-127.952 -127.952,-127.952c-70.528,0 -127.953,57.424 -127.953,127.952c0,5.396 0.386,10.792 1.028,16.059c-13.874,-6.167 -29.033,-9.507 -45.22,-9.507c-16.187,0 -31.346,3.469 -45.092,9.507c0.643,-5.267 1.028,-10.663 1.028,-16.059c0,-70.528 -57.424,-127.952 -127.952,-127.952c-70.528,0 -127.953,57.424 -127.953,127.952c0,10.021 1.157,19.656 3.341,28.905l-35.457,10.791l5.267,17.215l35.585,-10.791c3.34,8.479 7.451,16.572 12.461,24.023l-27.363,21.454l11.048,14.131l27.107,-21.325c6.551,7.451 13.874,14.003 21.967,19.784l-19.912,29.675l15.031,10.021l20.169,-30.318c17.6,9.121 37.512,14.259 58.709,14.259c21.454,0 42.008,-5.138 60.507,-15.159c-0.128,1.799 -0.128,3.726 -0.128,5.524c-0,30.832 12.59,58.709 32.759,79.007c-20.94,13.746 -32.759,32.502 -32.759,52.8c-0,20.554 12.204,39.696 34.3,53.699c20.812,13.232 48.304,20.554 77.466,20.554c29.161,0 56.653,-7.322 77.465,-20.554c22.096,-14.003 34.3,-33.145 34.3,-53.699c0,-20.169 -11.819,-38.926 -32.759,-52.8c20.17,-20.298 32.759,-48.175 32.759,-79.007c0,-1.798 0,-3.725 -0.128,-5.524c18.499,10.021 39.053,15.159 60.507,15.159c21.069,0 41.11,-5.138 58.709,-14.259l20.17,30.318l15.03,-10.021l-19.784,-29.675c8.094,-5.781 15.416,-12.333 21.968,-19.784l27.106,21.325l11.049,-14.131l-27.364,-21.454c5.01,-7.58 9.121,-15.544 12.461,-24.023l35.329,10.791Zm-498.963,52.928c-60.636,0 -109.967,-49.331 -109.967,-109.967c-0,-23.638 7.579,-45.477 20.297,-63.462c-3.854,9.506 -6.038,19.912 -6.038,30.832c0,44.706 36.228,81.062 81.063,81.062c7.451,-0 14.645,-1.028 21.582,-2.955c-20.041,-5.396 -34.686,-23.766 -34.686,-45.477c0,-25.95 21.069,-47.147 47.147,-47.147c21.069,-0 38.925,13.874 44.963,33.016c1.414,-6.038 2.184,-12.205 2.184,-18.628c0,-35.457 -22.867,-65.646 -54.598,-76.566c55.112,5.91 98.148,52.671 98.148,109.325c0,9.506 -1.156,18.884 -3.597,28.006c-20.297,14.773 -35.456,36.356 -42.137,61.278c-19.013,13.489 -41.109,20.683 -64.361,20.683Zm265.796,140.028c0,14.26 -9.249,27.877 -25.95,38.54c-17.985,11.434 -42.137,17.728 -67.83,17.728c-25.822,0 -49.845,-6.294 -67.83,-17.728c-16.701,-10.663 -25.95,-24.28 -25.95,-38.54c-0,-15.287 10.534,-29.804 29.29,-40.467c18.242,12.975 40.467,20.555 64.49,20.555c24.023,-0 46.376,-7.58 64.49,-20.555c18.756,10.663 29.29,25.308 29.29,40.467Zm-93.78,-37.897c-51.643,-0 -93.78,-42.137 -93.78,-93.781c-0,-51.643 42.008,-93.78 93.78,-93.78c51.772,0 93.78,42.137 93.78,93.78c0,51.772 -42.136,93.781 -93.78,93.781Zm172.016,-102.131c-23.252,0 -45.477,-7.066 -64.104,-20.683c-6.68,-24.922 -21.84,-46.505 -42.137,-61.278c-2.441,-9.122 -3.597,-18.5 -3.597,-28.006c-0,-24.023 7.836,-46.248 20.94,-64.362c-4.111,9.764 -6.424,20.427 -6.424,31.732c0,44.706 36.228,81.062 81.063,81.062c7.451,-0 14.645,-1.028 21.582,-2.955c-20.041,-5.396 -34.686,-23.766 -34.686,-45.477c0,-25.95 21.069,-47.147 47.147,-47.147c21.069,-0 38.925,13.874 44.963,33.016c1.414,-6.038 2.184,-12.205 2.184,-18.628c0,-35.457 -22.738,-65.518 -54.341,-76.566c54.855,6.167 97.634,52.8 97.634,109.196c-0.257,60.765 -49.588,110.096 -110.224,110.096Zm83.247,-298.941c-2.955,-8.093 -7.066,-19.141 -20.298,-22.61c-13.232,-3.597 -22.353,3.983 -28.905,9.507c-6.166,5.138 -8.864,7.065 -12.847,5.909c-3.854,-1.028 -5.395,-3.982 -8.093,-11.562c-2.955,-8.093 -7.066,-19.141 -20.298,-22.61c-13.232,-3.597 -22.353,3.982 -28.905,9.507c-6.166,5.138 -8.864,7.065 -12.846,5.909c-3.854,-1.028 -5.396,-3.983 -8.094,-11.562c-2.954,-8.093 -7.065,-19.141 -20.426,-22.61l-4.625,17.343c3.854,1.028 5.396,3.982 8.094,11.562c2.955,8.093 7.065,19.141 20.426,22.61c13.36,3.468 22.353,-3.983 28.905,-9.507c6.166,-5.138 8.864,-7.065 12.847,-5.909c3.982,1.156 5.395,3.982 8.093,11.562c2.955,8.093 7.066,19.141 20.426,22.61c13.232,3.597 22.353,-3.982 28.905,-9.507c6.166,-5.138 8.864,-7.065 12.847,-5.909c3.982,1.028 5.395,3.982 8.093,11.562c2.955,8.093 7.066,19.141 20.426,22.61l4.625,-17.343c-4.111,-1.028 -5.524,-3.982 -8.35,-11.562Zm-359.192,-63.334c-3.597,1.799 -6.68,0.643 -13.746,-3.211c-7.579,-3.983 -17.985,-9.507 -30.318,-3.34c-12.204,6.166 -14.003,17.856 -15.287,26.335c-1.157,7.965 -1.927,11.177 -5.525,12.975c-3.597,1.799 -6.68,0.642 -13.745,-3.211c-7.58,-3.983 -17.986,-9.507 -30.318,-3.341c-12.205,6.167 -14.003,17.857 -15.288,26.336c-1.156,7.965 -1.927,11.177 -5.524,12.975c-3.597,1.799 -6.68,0.642 -13.746,-3.212c-7.579,-3.982 -17.985,-9.506 -30.318,-3.34l8.093,16.059c3.598,-1.799 6.681,-0.643 13.746,3.211c5.139,2.698 11.562,6.167 19.013,6.167c3.597,-0 7.323,-0.771 11.305,-2.827c12.205,-6.166 14.003,-17.856 15.288,-26.335c1.156,-7.965 1.927,-11.177 5.524,-12.975c3.597,-1.799 6.68,-0.643 13.746,3.211c7.579,3.983 17.985,9.507 30.318,3.34c12.204,-6.166 14.003,-17.856 15.287,-26.335c1.157,-7.965 1.927,-11.177 5.524,-12.975c3.597,-1.799 6.681,-0.514 13.746,3.211c7.58,3.983 17.986,9.507 30.318,3.341l-8.093,-16.059Zm-0,0c-3.597,1.799 -6.68,0.643 -13.746,-3.211c-7.579,-3.983 -17.985,-9.507 -30.318,-3.34c-12.204,6.166 -14.003,17.856 -15.287,26.335c-1.157,7.965 -1.927,11.177 -5.525,12.975c-3.597,1.799 -6.68,0.642 -13.745,-3.211c-7.58,-3.983 -17.986,-9.507 -30.318,-3.341c-12.205,6.167 -14.003,17.857 -15.288,26.336c-1.156,7.965 -1.927,11.177 -5.524,12.975c-3.597,1.799 -6.68,0.642 -13.746,-3.212c-7.579,-3.982 -17.985,-9.506 -30.318,-3.34l8.093,16.059c3.598,-1.799 6.681,-0.643 13.746,3.211c5.139,2.698 11.562,6.167 19.013,6.167c3.597,-0 7.323,-0.771 11.305,-2.827c12.205,-6.166 14.003,-17.856 15.288,-26.335c1.156,-7.965 1.927,-11.177 5.524,-12.975c3.597,-1.799 6.68,-0.643 13.746,3.211c7.579,3.983 17.985,9.507 30.318,3.34c12.204,-6.166 14.003,-17.856 15.287,-26.335c1.157,-7.965 1.927,-11.177 5.524,-12.975c3.597,-1.799 6.681,-0.514 13.746,3.211c7.58,3.983 17.986,9.507 30.318,3.341l-8.093,-16.059Zm430.876,309.347l5.267,-17.215l-35.457,-10.791c2.184,-9.249 3.34,-19.013 3.34,-28.905c0,-70.528 -57.424,-127.952 -127.952,-127.952c-70.528,0 -127.953,57.424 -127.953,127.952c0,5.396 0.386,10.792 1.028,16.059c-13.874,-6.167 -29.033,-9.507 -45.22,-9.507c-16.187,0 -31.346,3.469 -45.092,9.507c0.643,-5.267 1.028,-10.663 1.028,-16.059c0,-70.528 -57.424,-127.952 -127.952,-127.952c-70.528,0 -127.953,57.424 -127.953,127.952c0,10.021 1.157,19.656 3.341,28.905l-35.457,10.791l5.267,17.215l35.585,-10.791c3.34,8.479 7.451,16.572 12.461,24.023l-27.363,21.454l11.048,14.131l27.107,-21.325c6.551,7.451 13.874,14.003 21.967,19.784l-19.912,29.675l15.031,10.021l20.169,-30.318c17.6,9.121 37.512,14.259 58.709,14.259c21.454,0 42.008,-5.138 60.507,-15.159c-0.128,1.799 -0.128,3.726 -0.128,5.524c-0,30.832 12.59,58.709 32.759,79.007c-20.94,13.746 -32.759,32.502 -32.759,52.8c-0,20.554 12.204,39.696 34.3,53.699c20.812,13.232 48.304,20.554 77.466,20.554c29.161,0 56.653,-7.322 77.465,-20.554c22.096,-14.003 34.3,-33.145 34.3,-53.699c0,-20.169 -11.819,-38.926 -32.759,-52.8c20.17,-20.298 32.759,-48.175 32.759,-79.007c0,-1.798 0,-3.725 -0.128,-5.524c18.499,10.021 39.053,15.159 60.507,15.159c21.069,0 41.11,-5.138 58.709,-14.259l20.17,30.318l15.03,-10.021l-19.784,-29.675c8.094,-5.781 15.416,-12.333 21.968,-19.784l27.106,21.325l11.049,-14.131l-27.364,-21.454c5.01,-7.58 9.121,-15.544 12.461,-24.023l35.329,10.791Zm-498.963,52.928c-60.636,0 -109.967,-49.331 -109.967,-109.967c-0,-23.638 7.579,-45.477 20.297,-63.462c-3.854,9.506 -6.038,19.912 -6.038,30.832c0,44.706 36.228,81.062 81.063,81.062c7.451,-0 14.645,-1.028 21.582,-2.955c-20.041,-5.396 -34.686,-23.766 -34.686,-45.477c0,-25.95 21.069,-47.147 47.147,-47.147c21.069,-0 38.925,13.874 44.963,33.016c1.414,-6.038 2.184,-12.205 2.184,-18.628c0,-35.457 -22.867,-65.646 -54.598,-76.566c55.112,5.91 98.148,52.671 98.148,109.325c0,9.506 -1.156,18.884 -3.597,28.006c-20.297,14.773 -35.456,36.356 -42.137,61.278c-19.013,13.489 -41.109,20.683 -64.361,20.683Zm265.796,140.028c0,14.26 -9.249,27.877 -25.95,38.54c-17.985,11.434 -42.137,17.728 -67.83,17.728c-25.822,0 -49.845,-6.294 -67.83,-17.728c-16.701,-10.663 -25.95,-24.28 -25.95,-38.54c-0,-15.287 10.534,-29.804 29.29,-40.467c18.242,12.975 40.467,20.555 64.49,20.555c24.023,-0 46.376,-7.58 64.49,-20.555c18.756,10.663 29.29,25.308 29.29,40.467Zm-93.78,-37.897c-51.643,-0 -93.78,-42.137 -93.78,-93.781c-0,-51.643 42.008,-93.78 93.78,-93.78c51.772,0 93.78,42.137 93.78,93.78c0,51.772 -42.136,93.781 -93.78,93.781Zm172.016,-102.131c-23.252,0 -45.477,-7.066 -64.104,-20.683c-6.68,-24.922 -21.84,-46.505 -42.137,-61.278c-2.441,-9.122 -3.597,-18.5 -3.597,-28.006c-0,-24.023 7.836,-46.248 20.94,-64.362c-4.111,9.764 -6.424,20.427 -6.424,31.732c0,44.706 36.228,81.062 81.063,81.062c7.451,-0 14.645,-1.028 21.582,-2.955c-20.041,-5.396 -34.686,-23.766 -34.686,-45.477c0,-25.95 21.069,-47.147 47.147,-47.147c21.069,-0 38.925,13.874 44.963,33.016c1.414,-6.038 2.184,-12.205 2.184,-18.628c0,-35.457 -22.738,-65.518 -54.341,-76.566c54.855,6.167 97.634,52.8 97.634,109.196c-0.257,60.765 -49.588,110.096 -110.224,110.096Zm83.247,-298.941c-2.955,-8.093 -7.066,-19.141 -20.298,-22.61c-13.232,-3.597 -22.353,3.983 -28.905,9.507c-6.166,5.138 -8.864,7.065 -12.847,5.909c-3.854,-1.028 -5.395,-3.982 -8.093,-11.562c-2.955,-8.093 -7.066,-19.141 -20.298,-22.61c-13.232,-3.597 -22.353,3.982 -28.905,9.507c-6.166,5.138 -8.864,7.065 -12.846,5.909c-3.854,-1.028 -5.396,-3.983 -8.094,-11.562c-2.954,-8.093 -7.065,-19.141 -20.426,-22.61l-4.625,17.343c3.854,1.028 5.396,3.982 8.094,11.562c2.955,8.093 7.065,19.141 20.426,22.61c13.36,3.468 22.353,-3.983 28.905,-9.507c6.166,-5.138 8.864,-7.065 12.847,-5.909c3.982,1.156 5.395,3.982 8.093,11.562c2.955,8.093 7.066,19.141 20.426,22.61c13.232,3.597 22.353,-3.982 28.905,-9.507c6.166,-5.138 8.864,-7.065 12.847,-5.909c3.982,1.028 5.395,3.982 8.093,11.562c2.955,8.093 7.066,19.141 20.426,22.61l4.625,-17.343c-4.111,-1.028 -5.524,-3.982 -8.35,-11.562Zm71.684,246.013l5.267,-17.215l-35.457,-10.791c2.184,-9.249 3.34,-19.013 3.34,-28.905c0,-70.528 -57.424,-127.952 -127.952,-127.952c-70.528,0 -127.953,57.424 -127.953,127.952c0,5.396 0.386,10.792 1.028,16.059c-13.874,-6.167 -29.033,-9.507 -45.22,-9.507c-16.187,0 -31.346,3.469 -45.092,9.507c0.643,-5.267 1.028,-10.663 1.028,-16.059c0,-70.528 -57.424,-127.952 -127.952,-127.952c-70.528,0 -127.953,57.424 -127.953,127.952c0,10.021 1.157,19.656 3.341,28.905l-35.457,10.791l5.267,17.215l35.585,-10.791c3.34,8.479 7.451,16.572 12.461,24.023l-27.363,21.454l11.048,14.131l27.107,-21.325c6.551,7.451 13.874,14.003 21.967,19.784l-19.912,29.675l15.031,10.021l20.169,-30.318c17.6,9.121 37.512,14.259 58.709,14.259c21.454,0 42.008,-5.138 60.507,-15.159c-0.128,1.799 -0.128,3.726 -0.128,5.524c-0,30.832 12.59,58.709 32.759,79.007c-20.94,13.746 -32.759,32.502 -32.759,52.8c-0,20.554 12.204,39.696 34.3,53.699c20.812,13.232 48.304,20.554 77.466,20.554c29.161,0 56.653,-7.322 77.465,-20.554c22.096,-14.003 34.3,-33.145 34.3,-53.699c0,-20.169 -11.819,-38.926 -32.759,-52.8c20.17,-20.298 32.759,-48.175 32.759,-79.007c0,-1.798 0,-3.725 -0.128,-5.524c18.499,10.021 39.053,15.159 60.507,15.159c21.069,0 41.11,-5.138 58.709,-14.259l20.17,30.318l15.03,-10.021l-19.784,-29.675c8.094,-5.781 15.416,-12.333 21.968,-19.784l27.106,21.325l11.049,-14.131l-27.364,-21.454c5.01,-7.58 9.121,-15.544 12.461,-24.023l35.329,10.791Zm-498.963,52.928c-60.636,0 -109.967,-49.331 -109.967,-109.967c-0,-23.638 7.579,-45.477 20.297,-63.462c-3.854,9.506 -6.038,19.912 -6.038,30.832c0,44.706 36.228,81.062 81.063,81.062c7.451,-0 14.645,-1.028 21.582,-2.955c-20.041,-5.396 -34.686,-23.766 -34.686,-45.477c0,-25.95 21.069,-47.147 47.147,-47.147c21.069,-0 38.925,13.874 44.963,33.016c1.414,-6.038 2.184,-12.205 2.184,-18.628c0,-35.457 -22.867,-65.646 -54.598,-76.566c55.112,5.91 98.148,52.671 98.148,109.325c0,9.506 -1.156,18.884 -3.597,28.006c-20.297,14.773 -35.456,36.356 -42.137,61.278c-19.013,13.489 -41.109,20.683 -64.361,20.683Zm265.796,140.028c0,14.26 -9.249,27.877 -25.95,38.54c-17.985,11.434 -42.137,17.728 -67.83,17.728c-25.822,0 -49.845,-6.294 -67.83,-17.728c-16.701,-10.663 -25.95,-24.28 -25.95,-38.54c-0,-15.287 10.534,-29.804 29.29,-40.467c18.242,12.975 40.467,20.555 64.49,20.555c24.023,-0 46.376,-7.58 64.49,-20.555c18.756,10.663 29.29,25.308 29.29,40.467Zm-93.78,-37.897c-51.643,-0 -93.78,-42.137 -93.78,-93.781c-0,-51.643 42.008,-93.78 93.78,-93.78c51.772,0 93.78,42.137 93.78,93.78c0,51.772 -42.136,93.781 -93.78,93.781Zm172.016,-102.131c-23.252,0 -45.477,-7.066 -64.104,-20.683c-6.68,-24.922 -21.84,-46.505 -42.137,-61.278c-2.441,-9.122 -3.597,-18.5 -3.597,-28.006c-0,-24.023 7.836,-46.248 20.94,-64.362c-4.111,9.764 -6.424,20.427 -6.424,31.732c0,44.706 36.228,81.062 81.063,81.062c7.451,-0 14.645,-1.028 21.582,-2.955c-20.041,-5.396 -34.686,-23.766 -34.686,-45.477c0,-25.95 21.069,-47.147 47.147,-47.147c21.069,-0 38.925,13.874 44.963,33.016c1.414,-6.038 2.184,-12.205 2.184,-18.628c0,-35.457 -22.738,-65.518 -54.341,-76.566c54.855,6.167 97.634,52.8 97.634,109.196c-0.257,60.765 -49.588,110.096 -110.224,110.096Zm-73.996,-330.158c2.955,8.093 7.065,19.141 20.426,22.61c13.36,3.468 22.353,-3.983 28.905,-9.507c6.166,-5.138 8.864,-7.065 12.847,-5.909c3.982,1.156 5.395,3.982 8.093,11.562c2.955,8.093 7.066,19.141 20.426,22.61c13.232,3.597 22.353,-3.982 28.905,-9.507c6.166,-5.138 8.864,-7.065 12.847,-5.909c3.982,1.028 5.395,3.982 8.093,11.562c2.955,8.093 7.066,19.141 20.426,22.61l4.625,-17.343c-3.854,-1.028 -5.396,-3.982 -8.094,-11.562c-2.954,-8.093 -7.065,-19.141 -20.297,-22.61c-13.232,-3.597 -22.353,3.983 -28.905,9.507c-6.166,5.138 -8.864,7.065 -12.847,5.909c-3.854,-1.028 -5.395,-3.982 -8.093,-11.562c-2.955,-8.093 -7.066,-19.141 -20.298,-22.61c-13.232,-3.597 -22.353,3.982 -28.905,9.507c-6.166,5.138 -8.864,7.065 -12.846,5.909c-3.854,-1.028 -5.396,-3.983 -8.094,-11.562c-2.954,-8.093 -7.065,-19.141 -20.426,-22.61l-4.625,17.343c3.597,1.028 5.011,3.982 7.837,11.562Zm-353.796,46.248c5.138,2.697 11.562,6.166 19.013,6.166c3.597,0 7.322,-0.771 11.305,-2.826c12.204,-6.167 14.003,-17.857 15.287,-26.336c1.157,-7.965 1.927,-11.176 5.524,-12.975c3.597,-1.798 6.681,-0.642 13.746,3.212c7.58,3.982 17.986,9.506 30.318,3.34c12.205,-6.166 14.003,-17.857 15.288,-26.336c1.156,-7.965 1.927,-11.176 5.524,-12.975c3.597,-1.798 6.68,-0.514 13.746,3.212c7.579,3.982 17.985,9.506 30.318,3.34l-8.094,-16.058c-3.597,1.798 -6.68,0.642 -13.745,-3.212c-7.58,-3.982 -17.986,-9.506 -30.319,-3.34c-12.204,6.166 -14.002,17.857 -15.287,26.336c-1.156,7.964 -1.927,11.176 -5.524,12.975c-3.597,1.798 -6.68,0.642 -13.746,-3.212c-7.579,-3.982 -17.985,-9.507 -30.318,-3.34c-12.204,6.166 -14.003,17.857 -15.287,26.335c-1.157,7.965 -1.927,11.177 -5.524,12.976c-3.598,1.798 -6.681,0.642 -13.746,-3.212c-7.58,-3.983 -17.986,-9.507 -30.318,-3.34l8.093,16.058c3.597,-1.799 6.552,-0.514 13.746,3.212Zm1372.28,-463.506c0,-119.603 -96.863,-216.466 -216.465,-216.466c-119.474,-0 -216.466,96.863 -216.466,216.466c-0,42.779 12.461,82.603 33.787,116.261l-410.45,0l-0,-28.904c-0,-38.797 -31.474,-70.4 -70.4,-70.4l-348.143,0c-52.157,-79.264 -141.827,-131.678 -243.829,-131.678c-161.097,0 -291.747,130.65 -291.747,291.747c0,13.36 0.9,26.592 2.698,39.439l-77.979,0c-67.83,0 -114.977,67.445 -91.725,131.036l224.302,616.381c-35.97,48.56 -57.296,108.554 -57.296,173.558c0,161.096 130.65,291.746 291.747,291.746c138.487,0 254.363,-96.478 284.167,-225.843l999.211,-0c42.522,-0 76.823,-26.464 90.954,-61.793c4.368,-9.249 6.937,-19.526 6.937,-30.318l-0,-924.7c-0,-3.34 -0.257,-6.68 -0.642,-9.891c55.24,-39.183 91.339,-103.673 91.339,-176.641Zm-146.708,95.45c-44.193,-27.363 -77.465,-39.182 -119.217,-39.182c-16.315,-0 -34.044,1.798 -54.213,5.267c38.155,-61.664 46.12,-102.002 34.044,-173.43c61.664,38.155 102.002,46.12 173.429,34.044c-38.154,61.407 -46.119,101.874 -34.043,173.301Zm-78.75,956.174c-0,29.033 -23.638,52.543 -52.543,52.543l-14.003,-0c1.927,-2.056 3.854,-4.368 5.524,-6.809c0.643,-1.028 1.285,-1.927 1.927,-2.955c5.653,-9.121 8.479,-19.27 8.608,-29.547c-0,-6.809 -1.157,-13.874 -3.597,-20.554l-100.718,-276.845l-148.764,-408.78c-2.826,-7.708 -7.194,-14.516 -12.589,-20.169l5.652,0c16.701,0 31.86,10.534 37.641,26.336l243.315,668.666l-0,-737.524c-0,-20.812 -9.121,-39.568 -23.51,-52.543l0.514,0c28.905,0 52.543,23.509 52.543,52.543l-0,755.638Zm-1309.97,262.2c-7.58,-110.353 -32.631,-163.666 -112.922,-239.718c110.352,-7.58 163.666,-32.631 239.718,-112.922c7.579,110.352 32.63,163.666 112.922,239.718c-110.224,7.579 -163.538,32.63 -239.718,112.922Zm-205.932,-958.23c7.58,-10.92 19.527,-17.086 32.759,-17.086l1124.98,0c16.701,0 31.86,10.534 37.641,26.336l146.708,402.998c-64.618,3.34 -124.869,30.19 -170.86,76.309c-48.946,49.203 -75.924,114.464 -75.924,183.964c0,25.95 3.726,51.515 11.305,76.052l-718.897,-0c-25.436,-43.55 -34.557,-91.211 -38.154,-164.951l-1.028,-21.711l-14.645,16.059c-40.338,44.32 -72.455,72.968 -108.425,91.468l-230.212,-632.825c-4.625,-12.461 -2.826,-25.822 4.753,-36.613Zm256.933,-59.608c-0,-14.517 5.781,-28.006 16.315,-38.026l3.982,-3.854l-1.67,-5.267c-1.156,-3.597 -1.156,-7.323 -0.385,-11.048l19.912,-85.687c3.597,-15.288 23.381,-26.978 46.12,-26.978l396.575,-0c22.096,-0 41.88,11.176 45.991,26.078l25.308,92.367l51.772,-0.256l554.974,-0c28.905,-0 52.542,23.509 52.542,52.542l0,635.523l-35.842,-98.277l0,-507.955c0,-26.336 -21.325,-47.661 -47.661,-47.661l-1048.03,-0c-24.666,-0 -45.092,18.884 -47.404,43.036l-32.374,-0l0,-24.537l-0.128,-0Zm571.931,-144.653l10.406,38.026c3.34,12.076 6.552,24.151 9.892,36.099l-26.335,0.128l-21.711,-79.007c-2.184,-7.964 -6.68,-15.159 -12.975,-21.068c19.912,1.542 36.87,12.076 40.723,25.822Zm473.399,323.735l-29.548,-81.319l61.921,-0l0,-17.986l-68.472,0l-6.295,-17.086c-8.351,-22.867 -30.19,-38.154 -54.598,-38.154l-897.722,-0c2.183,-14.132 14.516,-25.051 29.29,-25.051l1048.16,-0c16.315,-0 29.676,13.36 29.676,29.676l-0,458.624l-105.857,-290.719l25.822,-0l0,-17.985l-32.373,-0Zm23.509,629.099l-87.871,-0c-2.055,-12.975 -3.212,-26.207 -3.212,-39.568c0,-92.881 53.057,-177.54 136.046,-218.135l30.318,83.246c-46.505,47.018 -72.969,108.425 -75.281,174.457Zm82.218,-155.573l37.127,101.874c4.496,12.461 2.826,25.822 -4.882,36.741c-7.579,10.791 -19.527,17.086 -32.759,17.086l-63.59,0c2.055,-58.452 24.537,-113.05 64.104,-155.701Zm-191.286,116.005c0,13.232 1.028,26.464 2.955,39.568l-94.294,-0c-8.094,-24.409 -12.076,-49.974 -12.076,-76.052c-0,-64.619 25.179,-125.512 70.785,-171.246c44.192,-44.321 102.387,-69.5 164.565,-71.298l16.058,43.935c-90.183,43.293 -147.993,134.633 -147.993,235.093Zm-1124.72,-967.993c1.799,-6.68 6.038,-12.333 12.076,-15.801c3.982,-2.313 8.479,-3.469 12.975,-3.469c2.312,0 4.496,0.257 6.68,0.899c6.681,1.799 12.333,6.038 15.802,12.076c7.194,12.462 2.954,28.391 -9.378,35.585c-6.038,3.469 -12.975,4.497 -19.784,2.698c-6.809,-1.798 -12.333,-6.038 -15.801,-12.076c-3.469,-6.038 -4.24,-13.103 -2.57,-19.912Zm98.791,-86.329c1.284,-0.771 2.826,-1.156 4.239,-1.156c1.413,-0 2.955,0.385 4.239,1.027c1.285,0.771 2.441,1.799 3.212,3.084c2.313,4.11 1.028,9.249 -3.083,11.69c-4.111,2.312 -9.25,1.028 -11.69,-3.083c-2.313,-3.983 -1.028,-9.121 3.083,-11.562Zm532.107,406.981c2.955,8.093 7.065,19.141 20.426,22.61c13.36,3.468 22.353,-3.983 28.905,-9.507c6.166,-5.138 8.864,-7.065 12.847,-5.909c3.982,1.156 5.395,3.982 8.093,11.562c2.955,8.093 7.066,19.141 20.426,22.61c13.232,3.597 22.353,-3.982 28.905,-9.507c6.166,-5.138 8.864,-7.065 12.847,-5.909c3.982,1.028 5.395,3.982 8.093,11.562c2.955,8.093 7.066,19.141 20.426,22.61l4.625,-17.343c-3.854,-1.028 -5.396,-3.982 -8.094,-11.562c-2.954,-8.093 -7.065,-19.141 -20.297,-22.61c-13.232,-3.597 -22.353,3.983 -28.905,9.507c-6.166,5.138 -8.864,7.065 -12.847,5.909c-3.854,-1.028 -5.395,-3.982 -8.093,-11.562c-2.955,-8.093 -7.066,-19.141 -20.298,-22.61c-13.232,-3.597 -22.353,3.982 -28.905,9.507c-6.166,5.138 -8.864,7.065 -12.846,5.909c-3.854,-1.028 -5.396,-3.983 -8.094,-11.562c-2.954,-8.093 -7.065,-19.141 -20.426,-22.61l-4.625,17.343c3.597,1.028 5.011,3.982 7.837,11.562Zm-424.966,277.23l35.585,-10.791c3.34,8.479 7.451,16.572 12.461,24.023l-27.363,21.454l11.048,14.131l27.106,-21.325c6.552,7.451 13.874,14.003 21.968,19.784l-19.784,29.675l15.031,10.021l20.169,-30.318c17.6,9.121 37.512,14.259 58.709,14.259c21.454,0 42.008,-5.138 60.507,-15.159c-0.128,1.799 -0.128,3.726 -0.128,5.524c-0,30.832 12.59,58.709 32.759,79.007c-20.94,13.746 -32.759,32.502 -32.759,52.8c-0,20.554 12.204,39.696 34.3,53.699c20.812,13.232 48.304,20.554 77.466,20.554c29.161,0 56.653,-7.322 77.465,-20.554c22.096,-14.003 34.3,-33.145 34.3,-53.699c0,-20.169 -11.819,-38.926 -32.759,-52.8c20.17,-20.298 32.759,-48.175 32.759,-79.007c0,-1.798 0,-3.725 -0.128,-5.524c18.499,10.021 39.053,15.159 60.507,15.159c21.069,0 41.11,-5.138 58.709,-14.259l20.17,30.318l15.03,-10.021l-19.784,-29.675c8.094,-5.781 15.416,-12.333 21.968,-19.784l27.106,21.325l11.049,-14.131l-27.364,-21.454c5.01,-7.58 9.121,-15.544 12.461,-24.023l35.586,10.791l5.267,-17.215l-35.457,-10.791c2.184,-9.249 3.34,-19.013 3.34,-28.905c0,-70.528 -57.424,-127.952 -127.952,-127.952c-70.528,0 -127.953,57.424 -127.953,127.952c0,5.396 0.386,10.792 1.028,16.059c-13.874,-6.167 -29.033,-9.507 -45.22,-9.507c-16.187,0 -31.346,3.469 -45.092,9.507c0.643,-5.267 1.028,-10.663 1.028,-16.059c0,-70.528 -57.424,-127.952 -127.952,-127.952c-70.528,0 -127.953,57.424 -127.953,127.952c0,10.021 1.157,19.656 3.341,28.905l-35.457,10.791l4.882,17.215Zm420.726,192.956c0,14.26 -9.249,27.877 -25.95,38.54c-17.985,11.434 -42.137,17.728 -67.83,17.728c-25.822,0 -49.845,-6.294 -67.83,-17.728c-16.701,-10.663 -25.95,-24.28 -25.95,-38.54c-0,-15.287 10.534,-29.804 29.29,-40.467c18.242,12.975 40.467,20.555 64.49,20.555c24.023,-0 46.376,-7.58 64.49,-20.555c18.756,10.663 29.29,25.308 29.29,40.467Zm-31.602,-249.995c-0,-24.023 7.836,-46.248 20.94,-64.362c-4.111,9.764 -6.424,20.427 -6.424,31.732c0,44.706 36.228,81.062 81.063,81.062c7.451,-0 14.645,-1.028 21.582,-2.955c-20.041,-5.396 -34.686,-23.766 -34.686,-45.477c0,-25.95 21.069,-47.147 47.147,-47.147c21.069,-0 38.925,13.874 44.963,33.016c1.414,-6.038 2.184,-12.205 2.184,-18.628c0,-35.457 -22.738,-65.518 -54.341,-76.566c54.855,6.167 97.634,52.8 97.634,109.196c0,60.637 -49.331,109.968 -109.967,109.968c-23.252,-0 -45.477,-7.066 -64.104,-20.683c-6.681,-24.923 -21.84,-46.505 -42.137,-61.279c-2.698,-8.864 -3.854,-18.371 -3.854,-27.877Zm-62.178,24.537c51.644,0 93.78,42.137 93.78,93.78c0,51.644 -42.008,93.781 -93.78,93.781c-51.772,-0 -93.78,-42.137 -93.78,-93.781c-0,-51.643 42.008,-93.78 93.78,-93.78Zm-261.686,-87.999c-3.854,9.506 -6.038,19.912 -6.038,30.832c0,44.706 36.228,81.062 81.063,81.062c7.451,-0 14.645,-1.028 21.582,-2.955c-20.041,-5.396 -34.686,-23.766 -34.686,-45.477c0,-25.95 21.069,-47.147 47.147,-47.147c21.069,-0 38.925,13.874 44.963,33.016c1.414,-6.038 2.184,-12.205 2.184,-18.628c0,-35.457 -22.867,-65.646 -54.598,-76.566c55.112,5.91 98.148,52.671 98.148,109.325c0,9.506 -1.156,18.884 -3.597,28.006c-20.297,14.773 -35.456,36.356 -42.137,61.278c-18.756,13.489 -40.852,20.683 -64.104,20.683c-60.636,0 -109.967,-49.331 -109.967,-109.967c-0.257,-23.638 7.194,-45.477 20.04,-63.462Zm5.91,-110.481c5.138,2.697 11.562,6.166 19.013,6.166c3.597,0 7.322,-0.771 11.305,-2.826c12.204,-6.167 14.003,-17.857 15.287,-26.336c1.157,-7.965 1.927,-11.176 5.524,-12.975c3.597,-1.798 6.681,-0.642 13.746,3.212c7.58,3.982 17.986,9.506 30.318,3.34c12.205,-6.166 14.003,-17.857 15.288,-26.336c1.156,-7.965 1.927,-11.176 5.524,-12.975c3.597,-1.798 6.68,-0.514 13.746,3.212c7.579,3.982 17.985,9.506 30.318,3.34l-8.094,-16.058c-3.597,1.798 -6.68,0.642 -13.745,-3.212c-7.58,-3.982 -17.986,-9.506 -30.319,-3.34c-12.204,6.166 -14.002,17.857 -15.287,26.336c-1.156,7.964 -1.927,11.176 -5.524,12.975c-3.597,1.798 -6.68,0.642 -13.746,-3.212c-7.579,-3.982 -17.985,-9.507 -30.318,-3.34c-12.204,6.166 -14.003,17.857 -15.287,26.335c-1.157,7.965 -1.927,11.177 -5.524,12.976c-3.598,1.798 -6.681,0.642 -13.746,-3.212c-7.58,-3.983 -17.986,-9.507 -30.318,-3.34l8.093,16.058c3.597,-1.799 6.552,-0.514 13.746,3.212Zm151.847,-78.365c-3.597,1.799 -6.68,0.643 -13.746,-3.211c-7.579,-3.983 -17.985,-9.507 -30.318,-3.34c-12.204,6.166 -14.003,17.856 -15.287,26.335c-1.157,7.965 -1.927,11.177 -5.525,12.975c-3.597,1.799 -6.68,0.642 -13.745,-3.211c-7.58,-3.983 -17.986,-9.507 -30.318,-3.341c-12.205,6.167 -14.003,17.857 -15.288,26.336c-1.156,7.965 -1.927,11.177 -5.524,12.975c-3.597,1.799 -6.68,0.642 -13.746,-3.212c-7.579,-3.982 -17.985,-9.506 -30.318,-3.34l8.093,16.059c3.598,-1.799 6.681,-0.643 13.746,3.211c5.139,2.698 11.562,6.167 19.013,6.167c3.597,-0 7.323,-0.771 11.305,-2.827c12.205,-6.166 14.003,-17.856 15.288,-26.335c1.156,-7.965 1.927,-11.177 5.524,-12.975c3.597,-1.799 6.68,-0.643 13.746,3.211c7.579,3.983 17.985,9.507 30.318,3.34c12.204,-6.166 14.003,-17.856 15.287,-26.335c1.157,-7.965 1.927,-11.177 5.524,-12.975c3.597,-1.799 6.681,-0.514 13.746,3.211c7.58,3.983 17.986,9.507 30.318,3.341l-8.093,-16.059Zm359.192,63.334c-2.955,-8.093 -7.066,-19.141 -20.298,-22.61c-13.232,-3.597 -22.353,3.983 -28.905,9.507c-6.166,5.138 -8.864,7.065 -12.847,5.909c-3.854,-1.028 -5.395,-3.982 -8.093,-11.562c-2.955,-8.093 -7.066,-19.141 -20.298,-22.61c-13.232,-3.597 -22.353,3.982 -28.905,9.507c-6.166,5.138 -8.864,7.065 -12.846,5.909c-3.854,-1.028 -5.396,-3.983 -8.094,-11.562c-2.954,-8.093 -7.065,-19.141 -20.426,-22.61l-4.625,17.343c3.854,1.028 5.396,3.982 8.094,11.562c2.955,8.093 7.065,19.141 20.426,22.61c13.36,3.468 22.353,-3.983 28.905,-9.507c6.166,-5.138 8.864,-7.065 12.847,-5.909c3.982,1.156 5.395,3.982 8.093,11.562c2.955,8.093 7.066,19.141 20.426,22.61c13.232,3.597 22.353,-3.982 28.905,-9.507c6.166,-5.138 8.864,-7.065 12.847,-5.909c3.982,1.028 5.395,3.982 8.093,11.562c2.955,8.093 7.066,19.141 20.426,22.61l4.625,-17.343c-4.111,-1.028 -5.524,-3.982 -8.35,-11.562Zm71.684,246.013l5.267,-17.215l-35.457,-10.791c2.184,-9.249 3.34,-19.013 3.34,-28.905c0,-70.528 -57.424,-127.952 -127.952,-127.952c-70.528,0 -127.953,57.424 -127.953,127.952c0,5.396 0.386,10.792 1.028,16.059c-13.874,-6.167 -29.033,-9.507 -45.22,-9.507c-16.187,0 -31.346,3.469 -45.092,9.507c0.643,-5.267 1.028,-10.663 1.028,-16.059c0,-70.528 -57.424,-127.952 -127.952,-127.952c-70.528,0 -127.953,57.424 -127.953,127.952c0,10.021 1.157,19.656 3.341,28.905l-35.457,10.791l5.267,17.215l35.585,-10.791c3.34,8.479 7.451,16.572 12.461,24.023l-27.363,21.454l11.048,14.131l27.107,-21.325c6.551,7.451 13.874,14.003 21.967,19.784l-19.912,29.675l15.031,10.021l20.169,-30.318c17.6,9.121 37.512,14.259 58.709,14.259c21.454,0 42.008,-5.138 60.507,-15.159c-0.128,1.799 -0.128,3.726 -0.128,5.524c-0,30.832 12.59,58.709 32.759,79.007c-20.94,13.746 -32.759,32.502 -32.759,52.8c-0,20.554 12.204,39.696 34.3,53.699c20.812,13.232 48.304,20.554 77.466,20.554c29.161,0 56.653,-7.322 77.465,-20.554c22.096,-14.003 34.3,-33.145 34.3,-53.699c0,-20.169 -11.819,-38.926 -32.759,-52.8c20.17,-20.298 32.759,-48.175 32.759,-79.007c0,-1.798 0,-3.725 -0.128,-5.524c18.499,10.021 39.053,15.159 60.507,15.159c21.069,0 41.11,-5.138 58.709,-14.259l20.17,30.318l15.03,-10.021l-19.784,-29.675c8.094,-5.781 15.416,-12.333 21.968,-19.784l27.106,21.325l11.049,-14.131l-27.364,-21.454c5.01,-7.58 9.121,-15.544 12.461,-24.023l35.329,10.791Zm-498.963,52.928c-60.636,0 -109.967,-49.331 -109.967,-109.967c-0,-23.638 7.579,-45.477 20.297,-63.462c-3.854,9.506 -6.038,19.912 -6.038,30.832c0,44.706 36.228,81.062 81.063,81.062c7.451,-0 14.645,-1.028 21.582,-2.955c-20.041,-5.396 -34.686,-23.766 -34.686,-45.477c0,-25.95 21.069,-47.147 47.147,-47.147c21.069,-0 38.925,13.874 44.963,33.016c1.414,-6.038 2.184,-12.205 2.184,-18.628c0,-35.457 -22.867,-65.646 -54.598,-76.566c55.112,5.91 98.148,52.671 98.148,109.325c0,9.506 -1.156,18.884 -3.597,28.006c-20.297,14.773 -35.456,36.356 -42.137,61.278c-19.013,13.489 -41.109,20.683 -64.361,20.683Zm265.796,140.028c0,14.26 -9.249,27.877 -25.95,38.54c-17.985,11.434 -42.137,17.728 -67.83,17.728c-25.822,0 -49.845,-6.294 -67.83,-17.728c-16.701,-10.663 -25.95,-24.28 -25.95,-38.54c-0,-15.287 10.534,-29.804 29.29,-40.467c18.242,12.975 40.467,20.555 64.49,20.555c24.023,-0 46.376,-7.58 64.49,-20.555c18.756,10.663 29.29,25.308 29.29,40.467Zm-93.78,-37.897c-51.643,-0 -93.78,-42.137 -93.78,-93.781c-0,-51.643 42.008,-93.78 93.78,-93.78c51.772,0 93.78,42.137 93.78,93.78c0,51.772 -42.136,93.781 -93.78,93.781Zm172.016,-102.131c-23.252,0 -45.477,-7.066 -64.104,-20.683c-6.68,-24.922 -21.84,-46.505 -42.137,-61.278c-2.441,-9.122 -3.597,-18.5 -3.597,-28.006c-0,-24.023 7.836,-46.248 20.94,-64.362c-4.111,9.764 -6.424,20.427 -6.424,31.732c0,44.706 36.228,81.062 81.063,81.062c7.451,-0 14.645,-1.028 21.582,-2.955c-20.041,-5.396 -34.686,-23.766 -34.686,-45.477c0,-25.95 21.069,-47.147 47.147,-47.147c21.069,-0 38.925,13.874 44.963,33.016c1.414,-6.038 2.184,-12.205 2.184,-18.628c0,-35.457 -22.738,-65.518 -54.341,-76.566c54.855,6.167 97.634,52.8 97.634,109.196c-0.257,60.765 -49.588,110.096 -110.224,110.096Zm83.247,-298.941c-2.955,-8.093 -7.066,-19.141 -20.298,-22.61c-13.232,-3.597 -22.353,3.983 -28.905,9.507c-6.166,5.138 -8.864,7.065 -12.847,5.909c-3.854,-1.028 -5.395,-3.982 -8.093,-11.562c-2.955,-8.093 -7.066,-19.141 -20.298,-22.61c-13.232,-3.597 -22.353,3.982 -28.905,9.507c-6.166,5.138 -8.864,7.065 -12.846,5.909c-3.854,-1.028 -5.396,-3.983 -8.094,-11.562c-2.954,-8.093 -7.065,-19.141 -20.426,-22.61l-4.625,17.343c3.854,1.028 5.396,3.982 8.094,11.562c2.955,8.093 7.065,19.141 20.426,22.61c13.36,3.468 22.353,-3.983 28.905,-9.507c6.166,-5.138 8.864,-7.065 12.847,-5.909c3.982,1.156 5.395,3.982 8.093,11.562c2.955,8.093 7.066,19.141 20.426,22.61c13.232,3.597 22.353,-3.982 28.905,-9.507c6.166,-5.138 8.864,-7.065 12.847,-5.909c3.982,1.028 5.395,3.982 8.093,11.562c2.955,8.093 7.066,19.141 20.426,22.61l4.625,-17.343c-4.111,-1.028 -5.524,-3.982 -8.35,-11.562Zm71.684,246.013l5.267,-17.215l-35.457,-10.791c2.184,-9.249 3.34,-19.013 3.34,-28.905c0,-70.528 -57.424,-127.952 -127.952,-127.952c-70.528,0 -127.953,57.424 -127.953,127.952c0,5.396 0.386,10.792 1.028,16.059c-13.874,-6.167 -29.033,-9.507 -45.22,-9.507c-16.187,0 -31.346,3.469 -45.092,9.507c0.643,-5.267 1.028,-10.663 1.028,-16.059c0,-70.528 -57.424,-127.952 -127.952,-127.952c-70.528,0 -127.953,57.424 -127.953,127.952c0,10.021 1.157,19.656 3.341,28.905l-35.457,10.791l5.267,17.215l35.585,-10.791c3.34,8.479 7.451,16.572 12.461,24.023l-27.363,21.454l11.048,14.131l27.107,-21.325c6.551,7.451 13.874,14.003 21.967,19.784l-19.912,29.675l15.031,10.021l20.169,-30.318c17.6,9.121 37.512,14.259 58.709,14.259c21.454,0 42.008,-5.138 60.507,-15.159c-0.128,1.799 -0.128,3.726 -0.128,5.524c-0,30.832 12.59,58.709 32.759,79.007c-20.94,13.746 -32.759,32.502 -32.759,52.8c-0,20.554 12.204,39.696 34.3,53.699c20.812,13.232 48.304,20.554 77.466,20.554c29.161,0 56.653,-7.322 77.465,-20.554c22.096,-14.003 34.3,-33.145 34.3,-53.699c0,-20.169 -11.819,-38.926 -32.759,-52.8c20.17,-20.298 32.759,-48.175 32.759,-79.007c0,-1.798 0,-3.725 -0.128,-5.524c18.499,10.021 39.053,15.159 60.507,15.159c21.069,0 41.11,-5.138 58.709,-14.259l20.17,30.318l15.03,-10.021l-19.784,-29.675c8.094,-5.781 15.416,-12.333 21.968,-19.784l27.106,21.325l11.049,-14.131l-27.364,-21.454c5.01,-7.58 9.121,-15.544 12.461,-24.023l35.329,10.791Zm-498.963,52.928c-60.636,0 -109.967,-49.331 -109.967,-109.967c-0,-23.638 7.579,-45.477 20.297,-63.462c-3.854,9.506 -6.038,19.912 -6.038,30.832c0,44.706 36.228,81.062 81.063,81.062c7.451,-0 14.645,-1.028 21.582,-2.955c-20.041,-5.396 -34.686,-23.766 -34.686,-45.477c0,-25.95 21.069,-47.147 47.147,-47.147c21.069,-0 38.925,13.874 44.963,33.016c1.414,-6.038 2.184,-12.205 2.184,-18.628c0,-35.457 -22.867,-65.646 -54.598,-76.566c55.112,5.91 98.148,52.671 98.148,109.325c0,9.506 -1.156,18.884 -3.597,28.006c-20.297,14.773 -35.456,36.356 -42.137,61.278c-19.013,13.489 -41.109,20.683 -64.361,20.683Zm265.796,140.028c0,14.26 -9.249,27.877 -25.95,38.54c-17.985,11.434 -42.137,17.728 -67.83,17.728c-25.822,0 -49.845,-6.294 -67.83,-17.728c-16.701,-10.663 -25.95,-24.28 -25.95,-38.54c-0,-15.287 10.534,-29.804 29.29,-40.467c18.242,12.975 40.467,20.555 64.49,20.555c24.023,-0 46.376,-7.58 64.49,-20.555c18.756,10.663 29.29,25.308 29.29,40.467Zm-93.78,-37.897c-51.643,-0 -93.78,-42.137 -93.78,-93.781c-0,-51.643 42.008,-93.78 93.78,-93.78c51.772,0 93.78,42.137 93.78,93.78c0,51.772 -42.136,93.781 -93.78,93.781Zm172.016,-102.131c-23.252,0 -45.477,-7.066 -64.104,-20.683c-6.68,-24.922 -21.84,-46.505 -42.137,-61.278c-2.441,-9.122 -3.597,-18.5 -3.597,-28.006c-0,-24.023 7.836,-46.248 20.94,-64.362c-4.111,9.764 -6.424,20.427 -6.424,31.732c0,44.706 36.228,81.062 81.063,81.062c7.451,-0 14.645,-1.028 21.582,-2.955c-20.041,-5.396 -34.686,-23.766 -34.686,-45.477c0,-25.95 21.069,-47.147 47.147,-47.147c21.069,-0 38.925,13.874 44.963,33.016c1.414,-6.038 2.184,-12.205 2.184,-18.628c0,-35.457 -22.738,-65.518 -54.341,-76.566c54.855,6.167 97.634,52.8 97.634,109.196c-0.257,60.765 -49.588,110.096 -110.224,110.096Zm-275.945,-362.275c-3.597,1.799 -6.68,0.643 -13.746,-3.211c-7.579,-3.983 -17.985,-9.507 -30.318,-3.34c-12.204,6.166 -14.003,17.856 -15.287,26.335c-1.157,7.965 -1.927,11.177 -5.525,12.975c-3.597,1.799 -6.68,0.642 -13.745,-3.211c-7.58,-3.983 -17.986,-9.507 -30.318,-3.341c-12.205,6.167 -14.003,17.857 -15.288,26.336c-1.156,7.965 -1.927,11.177 -5.524,12.975c-3.597,1.799 -6.68,0.642 -13.746,-3.212c-7.579,-3.982 -17.985,-9.506 -30.318,-3.34l8.093,16.059c3.598,-1.799 6.681,-0.643 13.746,3.211c5.139,2.698 11.562,6.167 19.013,6.167c3.597,-0 7.323,-0.771 11.305,-2.827c12.205,-6.166 14.003,-17.856 15.288,-26.335c1.156,-7.965 1.927,-11.177 5.524,-12.975c3.597,-1.799 6.68,-0.643 13.746,3.211c7.579,3.983 17.985,9.507 30.318,3.34c12.204,-6.166 14.003,-17.856 15.287,-26.335c1.157,-7.965 1.927,-11.177 5.524,-12.975c3.597,-1.799 6.681,-0.514 13.746,3.211c7.58,3.983 17.986,9.507 30.318,3.341l-8.093,-16.059Zm-0,0c-3.597,1.799 -6.68,0.643 -13.746,-3.211c-7.579,-3.983 -17.985,-9.507 -30.318,-3.34c-12.204,6.166 -14.003,17.856 -15.287,26.335c-1.157,7.965 -1.927,11.177 -5.525,12.975c-3.597,1.799 -6.68,0.642 -13.745,-3.211c-7.58,-3.983 -17.986,-9.507 -30.318,-3.341c-12.205,6.167 -14.003,17.857 -15.288,26.336c-1.156,7.965 -1.927,11.177 -5.524,12.975c-3.597,1.799 -6.68,0.642 -13.746,-3.212c-7.579,-3.982 -17.985,-9.506 -30.318,-3.34l8.093,16.059c3.598,-1.799 6.681,-0.643 13.746,3.211c5.139,2.698 11.562,6.167 19.013,6.167c3.597,-0 7.323,-0.771 11.305,-2.827c12.205,-6.166 14.003,-17.856 15.288,-26.335c1.156,-7.965 1.927,-11.177 5.524,-12.975c3.597,-1.799 6.68,-0.643 13.746,3.211c7.579,3.983 17.985,9.507 30.318,3.34c12.204,-6.166 14.003,-17.856 15.287,-26.335c1.157,-7.965 1.927,-11.177 5.524,-12.975c3.597,-1.799 6.681,-0.514 13.746,3.211c7.58,3.983 17.986,9.507 30.318,3.341l-8.093,-16.059Zm359.192,63.334c-2.955,-8.093 -7.066,-19.141 -20.298,-22.61c-13.232,-3.597 -22.353,3.983 -28.905,9.507c-6.166,5.138 -8.864,7.065 -12.847,5.909c-3.854,-1.028 -5.395,-3.982 -8.093,-11.562c-2.955,-8.093 -7.066,-19.141 -20.298,-22.61c-13.232,-3.597 -22.353,3.982 -28.905,9.507c-6.166,5.138 -8.864,7.065 -12.846,5.909c-3.854,-1.028 -5.396,-3.983 -8.094,-11.562c-2.954,-8.093 -7.065,-19.141 -20.426,-22.61l-4.625,17.343c3.854,1.028 5.396,3.982 8.094,11.562c2.955,8.093 7.065,19.141 20.426,22.61c13.36,3.468 22.353,-3.983 28.905,-9.507c6.166,-5.138 8.864,-7.065 12.847,-5.909c3.982,1.156 5.395,3.982 8.093,11.562c2.955,8.093 7.066,19.141 20.426,22.61c13.232,3.597 22.353,-3.982 28.905,-9.507c6.166,-5.138 8.864,-7.065 12.847,-5.909c3.982,1.028 5.395,3.982 8.093,11.562c2.955,8.093 7.066,19.141 20.426,22.61l4.625,-17.343c-4.111,-1.028 -5.524,-3.982 -8.35,-11.562Zm71.684,246.013l5.267,-17.215l-35.457,-10.791c2.184,-9.249 3.34,-19.013 3.34,-28.905c0,-70.528 -57.424,-127.952 -127.952,-127.952c-70.528,0 -127.953,57.424 -127.953,127.952c0,5.396 0.386,10.792 1.028,16.059c-13.874,-6.167 -29.033,-9.507 -45.22,-9.507c-16.187,0 -31.346,3.469 -45.092,9.507c0.643,-5.267 1.028,-10.663 1.028,-16.059c0,-70.528 -57.424,-127.952 -127.952,-127.952c-70.528,0 -127.953,57.424 -127.953,127.952c0,10.021 1.157,19.656 3.341,28.905l-35.457,10.791l5.267,17.215l35.585,-10.791c3.34,8.479 7.451,16.572 12.461,24.023l-27.363,21.454l11.048,14.131l27.107,-21.325c6.551,7.451 13.874,14.003 21.967,19.784l-19.912,29.675l15.031,10.021l20.169,-30.318c17.6,9.121 37.512,14.259 58.709,14.259c21.454,0 42.008,-5.138 60.507,-15.159c-0.128,1.799 -0.128,3.726 -0.128,5.524c-0,30.832 12.59,58.709 32.759,79.007c-20.94,13.746 -32.759,32.502 -32.759,52.8c-0,20.554 12.204,39.696 34.3,53.699c20.812,13.232 48.304,20.554 77.466,20.554c29.161,0 56.653,-7.322 77.465,-20.554c22.096,-14.003 34.3,-33.145 34.3,-53.699c0,-20.169 -11.819,-38.926 -32.759,-52.8c20.17,-20.298 32.759,-48.175 32.759,-79.007c0,-1.798 0,-3.725 -0.128,-5.524c18.499,10.021 39.053,15.159 60.507,15.159c21.069,0 41.11,-5.138 58.709,-14.259l20.17,30.318l15.03,-10.021l-19.784,-29.675c8.094,-5.781 15.416,-12.333 21.968,-19.784l27.106,21.325l11.049,-14.131l-27.364,-21.454c5.01,-7.58 9.121,-15.544 12.461,-24.023l35.329,10.791Zm-498.963,52.928c-60.636,0 -109.967,-49.331 -109.967,-109.967c-0,-23.638 7.579,-45.477 20.297,-63.462c-3.854,9.506 -6.038,19.912 -6.038,30.832c0,44.706 36.228,81.062 81.063,81.062c7.451,-0 14.645,-1.028 21.582,-2.955c-20.041,-5.396 -34.686,-23.766 -34.686,-45.477c0,-25.95 21.069,-47.147 47.147,-47.147c21.069,-0 38.925,13.874 44.963,33.016c1.414,-6.038 2.184,-12.205 2.184,-18.628c0,-35.457 -22.867,-65.646 -54.598,-76.566c55.112,5.91 98.148,52.671 98.148,109.325c0,9.506 -1.156,18.884 -3.597,28.006c-20.297,14.773 -35.456,36.356 -42.137,61.278c-19.013,13.489 -41.109,20.683 -64.361,20.683Zm265.796,140.028c0,14.26 -9.249,27.877 -25.95,38.54c-17.985,11.434 -42.137,17.728 -67.83,17.728c-25.822,0 -49.845,-6.294 -67.83,-17.728c-16.701,-10.663 -25.95,-24.28 -25.95,-38.54c-0,-15.287 10.534,-29.804 29.29,-40.467c18.242,12.975 40.467,20.555 64.49,20.555c24.023,-0 46.376,-7.58 64.49,-20.555c18.756,10.663 29.29,25.308 29.29,40.467Zm-93.78,-37.897c-51.643,-0 -93.78,-42.137 -93.78,-93.781c-0,-51.643 42.008,-93.78 93.78,-93.78c51.772,0 93.78,42.137 93.78,93.78c0,51.772 -42.136,93.781 -93.78,93.781Zm172.016,-102.131c-23.252,0 -45.477,-7.066 -64.104,-20.683c-6.68,-24.922 -21.84,-46.505 -42.137,-61.278c-2.441,-9.122 -3.597,-18.5 -3.597,-28.006c-0,-24.023 7.836,-46.248 20.94,-64.362c-4.111,9.764 -6.424,20.427 -6.424,31.732c0,44.706 36.228,81.062 81.063,81.062c7.451,-0 14.645,-1.028 21.582,-2.955c-20.041,-5.396 -34.686,-23.766 -34.686,-45.477c0,-25.95 21.069,-47.147 47.147,-47.147c21.069,-0 38.925,13.874 44.963,33.016c1.414,-6.038 2.184,-12.205 2.184,-18.628c0,-35.457 -22.738,-65.518 -54.341,-76.566c54.855,6.167 97.634,52.8 97.634,109.196c-0.257,60.765 -49.588,110.096 -110.224,110.096Zm83.247,-298.941c-2.955,-8.093 -7.066,-19.141 -20.298,-22.61c-13.232,-3.597 -22.353,3.983 -28.905,9.507c-6.166,5.138 -8.864,7.065 -12.847,5.909c-3.854,-1.028 -5.395,-3.982 -8.093,-11.562c-2.955,-8.093 -7.066,-19.141 -20.298,-22.61c-13.232,-3.597 -22.353,3.982 -28.905,9.507c-6.166,5.138 -8.864,7.065 -12.846,5.909c-3.854,-1.028 -5.396,-3.983 -8.094,-11.562c-2.954,-8.093 -7.065,-19.141 -20.426,-22.61l-4.625,17.343c3.854,1.028 5.396,3.982 8.094,11.562c2.955,8.093 7.065,19.141 20.426,22.61c13.36,3.468 22.353,-3.983 28.905,-9.507c6.166,-5.138 8.864,-7.065 12.847,-5.909c3.982,1.156 5.395,3.982 8.093,11.562c2.955,8.093 7.066,19.141 20.426,22.61c13.232,3.597 22.353,-3.982 28.905,-9.507c6.166,-5.138 8.864,-7.065 12.847,-5.909c3.982,1.028 5.395,3.982 8.093,11.562c2.955,8.093 7.066,19.141 20.426,22.61l4.625,-17.343c-4.111,-1.028 -5.524,-3.982 -8.35,-11.562Zm71.684,246.013l5.267,-17.215l-35.457,-10.791c2.184,-9.249 3.34,-19.013 3.34,-28.905c0,-70.528 -57.424,-127.952 -127.952,-127.952c-70.528,0 -127.953,57.424 -127.953,127.952c0,5.396 0.386,10.792 1.028,16.059c-13.874,-6.167 -29.033,-9.507 -45.22,-9.507c-16.187,0 -31.346,3.469 -45.092,9.507c0.643,-5.267 1.028,-10.663 1.028,-16.059c0,-70.528 -57.424,-127.952 -127.952,-127.952c-70.528,0 -127.953,57.424 -127.953,127.952c0,10.021 1.157,19.656 3.341,28.905l-35.457,10.791l5.267,17.215l35.585,-10.791c3.34,8.479 7.451,16.572 12.461,24.023l-27.363,21.454l11.048,14.131l27.107,-21.325c6.551,7.451 13.874,14.003 21.967,19.784l-19.912,29.675l15.031,10.021l20.169,-30.318c17.6,9.121 37.512,14.259 58.709,14.259c21.454,0 42.008,-5.138 60.507,-15.159c-0.128,1.799 -0.128,3.726 -0.128,5.524c-0,30.832 12.59,58.709 32.759,79.007c-20.94,13.746 -32.759,32.502 -32.759,52.8c-0,20.554 12.204,39.696 34.3,53.699c20.812,13.232 48.304,20.554 77.466,20.554c29.161,0 56.653,-7.322 77.465,-20.554c22.096,-14.003 34.3,-33.145 34.3,-53.699c0,-20.169 -11.819,-38.926 -32.759,-52.8c20.17,-20.298 32.759,-48.175 32.759,-79.007c0,-1.798 0,-3.725 -0.128,-5.524c18.499,10.021 39.053,15.159 60.507,15.159c21.069,0 41.11,-5.138 58.709,-14.259l20.17,30.318l15.03,-10.021l-19.784,-29.675c8.094,-5.781 15.416,-12.333 21.968,-19.784l27.106,21.325l11.049,-14.131l-27.364,-21.454c5.01,-7.58 9.121,-15.544 12.461,-24.023l35.329,10.791Zm-498.963,52.928c-60.636,0 -109.967,-49.331 -109.967,-109.967c-0,-23.638 7.579,-45.477 20.297,-63.462c-3.854,9.506 -6.038,19.912 -6.038,30.832c0,44.706 36.228,81.062 81.063,81.062c7.451,-0 14.645,-1.028 21.582,-2.955c-20.041,-5.396 -34.686,-23.766 -34.686,-45.477c0,-25.95 21.069,-47.147 47.147,-47.147c21.069,-0 38.925,13.874 44.963,33.016c1.414,-6.038 2.184,-12.205 2.184,-18.628c0,-35.457 -22.867,-65.646 -54.598,-76.566c55.112,5.91 98.148,52.671 98.148,109.325c0,9.506 -1.156,18.884 -3.597,28.006c-20.297,14.773 -35.456,36.356 -42.137,61.278c-19.013,13.489 -41.109,20.683 -64.361,20.683Zm265.796,140.028c0,14.26 -9.249,27.877 -25.95,38.54c-17.985,11.434 -42.137,17.728 -67.83,17.728c-25.822,0 -49.845,-6.294 -67.83,-17.728c-16.701,-10.663 -25.95,-24.28 -25.95,-38.54c-0,-15.287 10.534,-29.804 29.29,-40.467c18.242,12.975 40.467,20.555 64.49,20.555c24.023,-0 46.376,-7.58 64.49,-20.555c18.756,10.663 29.29,25.308 29.29,40.467Zm-93.78,-37.897c-51.643,-0 -93.78,-42.137 -93.78,-93.781c-0,-51.643 42.008,-93.78 93.78,-93.78c51.772,0 93.78,42.137 93.78,93.78c0,51.772 -42.136,93.781 -93.78,93.781Zm172.016,-102.131c-23.252,0 -45.477,-7.066 -64.104,-20.683c-6.68,-24.922 -21.84,-46.505 -42.137,-61.278c-2.441,-9.122 -3.597,-18.5 -3.597,-28.006c-0,-24.023 7.836,-46.248 20.94,-64.362c-4.111,9.764 -6.424,20.427 -6.424,31.732c0,44.706 36.228,81.062 81.063,81.062c7.451,-0 14.645,-1.028 21.582,-2.955c-20.041,-5.396 -34.686,-23.766 -34.686,-45.477c0,-25.95 21.069,-47.147 47.147,-47.147c21.069,-0 38.925,13.874 44.963,33.016c1.414,-6.038 2.184,-12.205 2.184,-18.628c0,-35.457 -22.738,-65.518 -54.341,-76.566c54.855,6.167 97.634,52.8 97.634,109.196c-0.257,60.765 -49.588,110.096 -110.224,110.096Zm-275.945,-362.275c-3.597,1.799 -6.68,0.643 -13.746,-3.211c-7.579,-3.983 -17.985,-9.507 -30.318,-3.34c-12.204,6.166 -14.003,17.856 -15.287,26.335c-1.157,7.965 -1.927,11.177 -5.525,12.975c-3.597,1.799 -6.68,0.642 -13.745,-3.211c-7.58,-3.983 -17.986,-9.507 -30.318,-3.341c-12.205,6.167 -14.003,17.857 -15.288,26.336c-1.156,7.965 -1.927,11.177 -5.524,12.975c-3.597,1.799 -6.68,0.642 -13.746,-3.212c-7.579,-3.982 -17.985,-9.506 -30.318,-3.34l8.093,16.059c3.598,-1.799 6.681,-0.643 13.746,3.211c5.139,2.698 11.562,6.167 19.013,6.167c3.597,-0 7.323,-0.771 11.305,-2.827c12.205,-6.166 14.003,-17.856 15.288,-26.335c1.156,-7.965 1.927,-11.177 5.524,-12.975c3.597,-1.799 6.68,-0.643 13.746,3.211c7.579,3.983 17.985,9.507 30.318,3.34c12.204,-6.166 14.003,-17.856 15.287,-26.335c1.157,-7.965 1.927,-11.177 5.524,-12.975c3.597,-1.799 6.681,-0.514 13.746,3.211c7.58,3.983 17.986,9.507 30.318,3.341l-8.093,-16.059Zm-0,0c-3.597,1.799 -6.68,0.643 -13.746,-3.211c-7.579,-3.983 -17.985,-9.507 -30.318,-3.34c-12.204,6.166 -14.003,17.856 -15.287,26.335c-1.157,7.965 -1.927,11.177 -5.525,12.975c-3.597,1.799 -6.68,0.642 -13.745,-3.211c-7.58,-3.983 -17.986,-9.507 -30.318,-3.341c-12.205,6.167 -14.003,17.857 -15.288,26.336c-1.156,7.965 -1.927,11.177 -5.524,12.975c-3.597,1.799 -6.68,0.642 -13.746,-3.212c-7.579,-3.982 -17.985,-9.506 -30.318,-3.34l8.093,16.059c3.598,-1.799 6.681,-0.643 13.746,3.211c5.139,2.698 11.562,6.167 19.013,6.167c3.597,-0 7.323,-0.771 11.305,-2.827c12.205,-6.166 14.003,-17.856 15.288,-26.335c1.156,-7.965 1.927,-11.177 5.524,-12.975c3.597,-1.799 6.68,-0.643 13.746,3.211c7.579,3.983 17.985,9.507 30.318,3.34c12.204,-6.166 14.003,-17.856 15.287,-26.335c1.157,-7.965 1.927,-11.177 5.524,-12.975c3.597,-1.799 6.681,-0.514 13.746,3.211c7.58,3.983 17.986,9.507 30.318,3.341l-8.093,-16.059Zm359.192,63.334c-2.955,-8.093 -7.066,-19.141 -20.298,-22.61c-13.232,-3.597 -22.353,3.983 -28.905,9.507c-6.166,5.138 -8.864,7.065 -12.847,5.909c-3.854,-1.028 -5.395,-3.982 -8.093,-11.562c-2.955,-8.093 -7.066,-19.141 -20.298,-22.61c-13.232,-3.597 -22.353,3.982 -28.905,9.507c-6.166,5.138 -8.864,7.065 -12.846,5.909c-3.854,-1.028 -5.396,-3.983 -8.094,-11.562c-2.954,-8.093 -7.065,-19.141 -20.426,-22.61l-4.625,17.343c3.854,1.028 5.396,3.982 8.094,11.562c2.955,8.093 7.065,19.141 20.426,22.61c13.36,3.468 22.353,-3.983 28.905,-9.507c6.166,-5.138 8.864,-7.065 12.847,-5.909c3.982,1.156 5.395,3.982 8.093,11.562c2.955,8.093 7.066,19.141 20.426,22.61c13.232,3.597 22.353,-3.982 28.905,-9.507c6.166,-5.138 8.864,-7.065 12.847,-5.909c3.982,1.028 5.395,3.982 8.093,11.562c2.955,8.093 7.066,19.141 20.426,22.61l4.625,-17.343c-4.111,-1.028 -5.524,-3.982 -8.35,-11.562Zm71.684,246.013l5.267,-17.215l-35.457,-10.791c2.184,-9.249 3.34,-19.013 3.34,-28.905c0,-70.528 -57.424,-127.952 -127.952,-127.952c-70.528,0 -127.953,57.424 -127.953,127.952c0,5.396 0.386,10.792 1.028,16.059c-13.874,-6.167 -29.033,-9.507 -45.22,-9.507c-16.187,0 -31.346,3.469 -45.092,9.507c0.643,-5.267 1.028,-10.663 1.028,-16.059c0,-70.528 -57.424,-127.952 -127.952,-127.952c-70.528,0 -127.953,57.424 -127.953,127.952c0,10.021 1.157,19.656 3.341,28.905l-35.457,10.791l5.267,17.215l35.585,-10.791c3.34,8.479 7.451,16.572 12.461,24.023l-27.363,21.454l11.048,14.131l27.107,-21.325c6.551,7.451 13.874,14.003 21.967,19.784l-19.912,29.675l15.031,10.021l20.169,-30.318c17.6,9.121 37.512,14.259 58.709,14.259c21.454,0 42.008,-5.138 60.507,-15.159c-0.128,1.799 -0.128,3.726 -0.128,5.524c-0,30.832 12.59,58.709 32.759,79.007c-20.94,13.746 -32.759,32.502 -32.759,52.8c-0,20.554 12.204,39.696 34.3,53.699c20.812,13.232 48.304,20.554 77.466,20.554c29.161,0 56.653,-7.322 77.465,-20.554c22.096,-14.003 34.3,-33.145 34.3,-53.699c0,-20.169 -11.819,-38.926 -32.759,-52.8c20.17,-20.298 32.759,-48.175 32.759,-79.007c0,-1.798 0,-3.725 -0.128,-5.524c18.499,10.021 39.053,15.159 60.507,15.159c21.069,0 41.11,-5.138 58.709,-14.259l20.17,30.318l15.03,-10.021l-19.784,-29.675c8.094,-5.781 15.416,-12.333 21.968,-19.784l27.106,21.325l11.049,-14.131l-27.364,-21.454c5.01,-7.58 9.121,-15.544 12.461,-24.023l35.329,10.791Zm-498.963,52.928c-60.636,0 -109.967,-49.331 -109.967,-109.967c-0,-23.638 7.579,-45.477 20.297,-63.462c-3.854,9.506 -6.038,19.912 -6.038,30.832c0,44.706 36.228,81.062 81.063,81.062c7.451,-0 14.645,-1.028 21.582,-2.955c-20.041,-5.396 -34.686,-23.766 -34.686,-45.477c0,-25.95 21.069,-47.147 47.147,-47.147c21.069,-0 38.925,13.874 44.963,33.016c1.414,-6.038 2.184,-12.205 2.184,-18.628c0,-35.457 -22.867,-65.646 -54.598,-76.566c55.112,5.91 98.148,52.671 98.148,109.325c0,9.506 -1.156,18.884 -3.597,28.006c-20.297,14.773 -35.456,36.356 -42.137,61.278c-19.013,13.489 -41.109,20.683 -64.361,20.683Zm265.796,140.028c0,14.26 -9.249,27.877 -25.95,38.54c-17.985,11.434 -42.137,17.728 -67.83,17.728c-25.822,0 -49.845,-6.294 -67.83,-17.728c-16.701,-10.663 -25.95,-24.28 -25.95,-38.54c-0,-15.287 10.534,-29.804 29.29,-40.467c18.242,12.975 40.467,20.555 64.49,20.555c24.023,-0 46.376,-7.58 64.49,-20.555c18.756,10.663 29.29,25.308 29.29,40.467Zm-93.78,-37.897c-51.643,-0 -93.78,-42.137 -93.78,-93.781c-0,-51.643 42.008,-93.78 93.78,-93.78c51.772,0 93.78,42.137 93.78,93.78c0,51.772 -42.136,93.781 -93.78,93.781Zm172.016,-102.131c-23.252,0 -45.477,-7.066 -64.104,-20.683c-6.68,-24.922 -21.84,-46.505 -42.137,-61.278c-2.441,-9.122 -3.597,-18.5 -3.597,-28.006c-0,-24.023 7.836,-46.248 20.94,-64.362c-4.111,9.764 -6.424,20.427 -6.424,31.732c0,44.706 36.228,81.062 81.063,81.062c7.451,-0 14.645,-1.028 21.582,-2.955c-20.041,-5.396 -34.686,-23.766 -34.686,-45.477c0,-25.95 21.069,-47.147 47.147,-47.147c21.069,-0 38.925,13.874 44.963,33.016c1.414,-6.038 2.184,-12.205 2.184,-18.628c0,-35.457 -22.738,-65.518 -54.341,-76.566c54.855,6.167 97.634,52.8 97.634,109.196c-0.257,60.765 -49.588,110.096 -110.224,110.096Zm83.247,-298.941c-2.955,-8.093 -7.066,-19.141 -20.298,-22.61c-13.232,-3.597 -22.353,3.983 -28.905,9.507c-6.166,5.138 -8.864,7.065 -12.847,5.909c-3.854,-1.028 -5.395,-3.982 -8.093,-11.562c-2.955,-8.093 -7.066,-19.141 -20.298,-22.61c-13.232,-3.597 -22.353,3.982 -28.905,9.507c-6.166,5.138 -8.864,7.065 -12.846,5.909c-3.854,-1.028 -5.396,-3.983 -8.094,-11.562c-2.954,-8.093 -7.065,-19.141 -20.426,-22.61l-4.625,17.343c3.854,1.028 5.396,3.982 8.094,11.562c2.955,8.093 7.065,19.141 20.426,22.61c13.36,3.468 22.353,-3.983 28.905,-9.507c6.166,-5.138 8.864,-7.065 12.847,-5.909c3.982,1.156 5.395,3.982 8.093,11.562c2.955,8.093 7.066,19.141 20.426,22.61c13.232,3.597 22.353,-3.982 28.905,-9.507c6.166,-5.138 8.864,-7.065 12.847,-5.909c3.982,1.028 5.395,3.982 8.093,11.562c2.955,8.093 7.066,19.141 20.426,22.61l4.625,-17.343c-4.111,-1.028 -5.524,-3.982 -8.35,-11.562Zm71.684,246.013l5.267,-17.215l-35.457,-10.791c2.184,-9.249 3.34,-19.013 3.34,-28.905c0,-70.528 -57.424,-127.952 -127.952,-127.952c-70.528,0 -127.953,57.424 -127.953,127.952c0,5.396 0.386,10.792 1.028,16.059c-13.874,-6.167 -29.033,-9.507 -45.22,-9.507c-16.187,0 -31.346,3.469 -45.092,9.507c0.643,-5.267 1.028,-10.663 1.028,-16.059c0,-70.528 -57.424,-127.952 -127.952,-127.952c-70.528,0 -127.953,57.424 -127.953,127.952c0,10.021 1.157,19.656 3.341,28.905l-35.457,10.791l5.267,17.215l35.585,-10.791c3.34,8.479 7.451,16.572 12.461,24.023l-27.363,21.454l11.048,14.131l27.107,-21.325c6.551,7.451 13.874,14.003 21.967,19.784l-19.912,29.675l15.031,10.021l20.169,-30.318c17.6,9.121 37.512,14.259 58.709,14.259c21.454,0 42.008,-5.138 60.507,-15.159c-0.128,1.799 -0.128,3.726 -0.128,5.524c-0,30.832 12.59,58.709 32.759,79.007c-20.94,13.746 -32.759,32.502 -32.759,52.8c-0,20.554 12.204,39.696 34.3,53.699c20.812,13.232 48.304,20.554 77.466,20.554c29.161,0 56.653,-7.322 77.465,-20.554c22.096,-14.003 34.3,-33.145 34.3,-53.699c0,-20.169 -11.819,-38.926 -32.759,-52.8c20.17,-20.298 32.759,-48.175 32.759,-79.007c0,-1.798 0,-3.725 -0.128,-5.524c18.499,10.021 39.053,15.159 60.507,15.159c21.069,0 41.11,-5.138 58.709,-14.259l20.17,30.318l15.03,-10.021l-19.784,-29.675c8.094,-5.781 15.416,-12.333 21.968,-19.784l27.106,21.325l11.049,-14.131l-27.364,-21.454c5.01,-7.58 9.121,-15.544 12.461,-24.023l35.329,10.791Zm-498.963,52.928c-60.636,0 -109.967,-49.331 -109.967,-109.967c-0,-23.638 7.579,-45.477 20.297,-63.462c-3.854,9.506 -6.038,19.912 -6.038,30.832c0,44.706 36.228,81.062 81.063,81.062c7.451,-0 14.645,-1.028 21.582,-2.955c-20.041,-5.396 -34.686,-23.766 -34.686,-45.477c0,-25.95 21.069,-47.147 47.147,-47.147c21.069,-0 38.925,13.874 44.963,33.016c1.414,-6.038 2.184,-12.205 2.184,-18.628c0,-35.457 -22.867,-65.646 -54.598,-76.566c55.112,5.91 98.148,52.671 98.148,109.325c0,9.506 -1.156,18.884 -3.597,28.006c-20.297,14.773 -35.456,36.356 -42.137,61.278c-19.013,13.489 -41.109,20.683 -64.361,20.683Zm265.796,140.028c0,14.26 -9.249,27.877 -25.95,38.54c-17.985,11.434 -42.137,17.728 -67.83,17.728c-25.822,0 -49.845,-6.294 -67.83,-17.728c-16.701,-10.663 -25.95,-24.28 -25.95,-38.54c-0,-15.287 10.534,-29.804 29.29,-40.467c18.242,12.975 40.467,20.555 64.49,20.555c24.023,-0 46.376,-7.58 64.49,-20.555c18.756,10.663 29.29,25.308 29.29,40.467Zm-93.78,-37.897c-51.643,-0 -93.78,-42.137 -93.78,-93.781c-0,-51.643 42.008,-93.78 93.78,-93.78c51.772,0 93.78,42.137 93.78,93.78c0,51.772 -42.136,93.781 -93.78,93.781Zm172.016,-102.131c-23.252,0 -45.477,-7.066 -64.104,-20.683c-6.68,-24.922 -21.84,-46.505 -42.137,-61.278c-2.441,-9.122 -3.597,-18.5 -3.597,-28.006c-0,-24.023 7.836,-46.248 20.94,-64.362c-4.111,9.764 -6.424,20.427 -6.424,31.732c0,44.706 36.228,81.062 81.063,81.062c7.451,-0 14.645,-1.028 21.582,-2.955c-20.041,-5.396 -34.686,-23.766 -34.686,-45.477c0,-25.95 21.069,-47.147 47.147,-47.147c21.069,-0 38.925,13.874 44.963,33.016c1.414,-6.038 2.184,-12.205 2.184,-18.628c0,-35.457 -22.738,-65.518 -54.341,-76.566c54.855,6.167 97.634,52.8 97.634,109.196c-0.257,60.765 -49.588,110.096 -110.224,110.096Zm-275.945,-362.275c-3.597,1.799 -6.68,0.643 -13.746,-3.211c-7.579,-3.983 -17.985,-9.507 -30.318,-3.34c-12.204,6.166 -14.003,17.856 -15.287,26.335c-1.157,7.965 -1.927,11.177 -5.525,12.975c-3.597,1.799 -6.68,0.642 -13.745,-3.211c-7.58,-3.983 -17.986,-9.507 -30.318,-3.341c-12.205,6.167 -14.003,17.857 -15.288,26.336c-1.156,7.965 -1.927,11.177 -5.524,12.975c-3.597,1.799 -6.68,0.642 -13.746,-3.212c-7.579,-3.982 -17.985,-9.506 -30.318,-3.34l8.093,16.059c3.598,-1.799 6.681,-0.643 13.746,3.211c5.139,2.698 11.562,6.167 19.013,6.167c3.597,-0 7.323,-0.771 11.305,-2.827c12.205,-6.166 14.003,-17.856 15.288,-26.335c1.156,-7.965 1.927,-11.177 5.524,-12.975c3.597,-1.799 6.68,-0.643 13.746,3.211c7.579,3.983 17.985,9.507 30.318,3.34c12.204,-6.166 14.003,-17.856 15.287,-26.335c1.157,-7.965 1.927,-11.177 5.524,-12.975c3.597,-1.799 6.681,-0.514 13.746,3.211c7.58,3.983 17.986,9.507 30.318,3.341l-8.093,-16.059Z" style="fill:#ffcd00;fill-rule:nonzero;"/><path d="M2202.3,1118.07l-146.709,-402.998c-5.781,-15.802 -20.811,-26.336 -37.64,-26.336l-1125.11,0c-13.232,0 -25.179,6.166 -32.759,17.086c-7.579,10.92 -9.378,24.28 -4.881,36.613l230.34,632.696c35.97,-18.499 68.215,-47.147 108.425,-91.468l14.645,-16.058l1.028,21.711c3.469,73.868 12.718,121.4 38.154,164.95l718.897,0c-7.451,-24.537 -11.305,-49.973 -11.305,-76.052c0,-69.371 26.978,-134.761 75.924,-183.963c45.991,-45.991 106.242,-72.841 170.989,-76.181Zm-622.933,-379.489c13.232,3.597 17.343,14.645 20.426,22.61c2.826,7.579 4.239,10.534 8.093,11.562c3.854,1.028 6.681,-0.771 12.847,-5.909c6.552,-5.525 15.673,-13.104 28.905,-9.507c13.232,3.597 17.343,14.645 20.297,22.61c2.827,7.58 4.24,10.534 8.094,11.562c3.982,1.028 6.68,-0.771 12.846,-5.909c6.552,-5.524 15.673,-13.104 28.905,-9.507c13.232,3.597 17.343,14.645 20.298,22.61c2.826,7.58 4.239,10.534 8.093,11.562l-4.624,17.343c-13.232,-3.597 -17.343,-14.645 -20.426,-22.61c-2.827,-7.58 -4.24,-10.534 -8.094,-11.562c-3.982,-1.028 -6.552,0.771 -12.846,5.909c-6.552,5.525 -15.673,13.104 -28.905,9.507c-13.232,-3.597 -17.343,-14.517 -20.427,-22.61c-2.826,-7.58 -4.239,-10.534 -8.093,-11.562c-3.854,-1.028 -6.68,0.771 -12.847,5.909c-6.68,5.524 -15.672,12.975 -28.904,9.507c-13.232,-3.469 -17.343,-14.517 -20.427,-22.61c-2.826,-7.58 -4.239,-10.534 -8.093,-11.562l4.882,-17.343Zm-341.849,59.223c7.066,3.725 10.149,5.01 13.746,3.212c3.597,-1.799 4.368,-5.011 5.524,-12.976c1.285,-8.478 2.955,-20.169 15.288,-26.335c12.204,-6.167 22.61,-0.642 30.318,3.34c7.065,3.725 10.148,5.01 13.745,3.212c3.598,-1.799 4.368,-5.011 5.525,-12.975c1.284,-8.479 2.954,-20.17 15.287,-26.336c12.333,-6.166 22.739,-0.642 30.318,3.34c7.066,3.726 10.149,5.01 13.746,3.212l8.093,16.058c-12.204,6.166 -22.738,0.642 -30.318,-3.34c-7.065,-3.726 -10.149,-5.01 -13.746,-3.212c-3.597,1.799 -4.367,5.01 -5.524,12.975c-1.284,8.479 -2.954,20.17 -15.287,26.336c-12.204,6.166 -22.739,0.642 -30.318,-3.34c-7.066,-3.726 -10.149,-5.01 -13.746,-3.212c-3.597,1.799 -4.368,5.01 -5.524,12.975c-1.285,8.479 -2.955,20.169 -15.288,26.336c-3.982,2.055 -7.708,2.826 -11.305,2.826c-7.451,0 -13.874,-3.469 -19.013,-6.166c-7.065,-3.726 -10.148,-5.011 -13.746,-3.212l-8.093,-16.058c12.333,-6.167 22.739,-0.643 30.318,3.34Zm574.373,246.912l-35.585,-10.791c-3.341,8.479 -7.452,16.572 -12.462,24.023l27.364,21.454l-11.048,14.131l-27.107,-21.325c-6.552,7.451 -13.874,14.003 -21.968,19.784l19.784,29.675l-15.03,10.021l-20.17,-30.318c-17.599,9.121 -37.512,14.259 -58.709,14.259c-21.453,0 -42.008,-5.138 -60.507,-15.159c0.128,1.799 0.128,3.726 0.128,5.524c0,30.832 -12.589,58.709 -32.759,79.007c20.94,13.746 32.759,32.502 32.759,52.8c0,20.554 -12.204,39.696 -34.3,53.699c-20.812,13.232 -48.304,20.554 -77.465,20.554c-29.162,0 -56.654,-7.322 -77.465,-20.554c-22.097,-14.003 -34.301,-33.145 -34.301,-53.699c0,-20.169 11.819,-38.926 32.759,-52.8c-20.169,-20.298 -32.759,-48.175 -32.759,-79.007c0,-1.798 0,-3.725 0.128,-5.524c-18.499,10.021 -39.053,15.159 -60.507,15.159c-21.069,0 -41.109,-5.138 -58.709,-14.259l-20.169,30.318l-15.031,-10.021l19.784,-29.675c-8.093,-5.781 -15.416,-12.333 -21.968,-19.784l-27.106,21.325l-11.048,-14.131l27.363,-21.454c-5.01,-7.58 -9.121,-15.544 -12.461,-24.023l-35.585,10.791l-5.267,-17.215l35.456,-10.791c-2.184,-9.249 -3.34,-19.013 -3.34,-28.905c0,-70.528 57.424,-127.952 127.952,-127.952c70.528,0 127.953,57.424 127.953,127.952c-0,5.396 -0.386,10.792 -1.028,16.059c13.874,-6.167 29.033,-9.507 45.092,-9.507c16.058,0 31.345,3.469 45.22,9.507c-0.643,-5.267 -1.028,-10.663 -1.028,-16.059c0,-70.528 57.425,-127.952 127.952,-127.952c70.528,0 127.953,57.424 127.953,127.952c-0,10.021 -1.156,19.656 -3.34,28.905l35.456,10.791l-4.881,17.215Z" style="fill:#fff;fill-rule:nonzero;"/><path d="M1578.73,1237.67c0,14.26 -9.249,27.877 -25.95,38.54c-17.985,11.434 -42.137,17.728 -67.83,17.728c-25.822,0 -49.845,-6.294 -67.83,-17.728c-16.701,-10.663 -25.95,-24.28 -25.95,-38.54c-0,-15.287 10.534,-29.804 29.29,-40.467c18.242,12.975 40.467,20.555 64.49,20.555c24.023,-0 46.376,-7.58 64.49,-20.555c18.756,10.663 29.29,25.308 29.29,40.467Z" style="fill:#ff4500;fill-rule:nonzero;"/><path d="M1422.77,987.679c0,9.506 -1.156,18.884 -3.597,28.006c-20.297,14.773 -35.456,36.356 -42.137,61.278c-18.756,13.489 -40.852,20.683 -64.104,20.683c-60.636,0 -109.967,-49.331 -109.967,-109.967c-0,-23.638 7.579,-45.477 20.297,-63.462c-3.854,9.506 -6.038,19.912 -6.038,30.832c0,44.706 36.228,81.062 81.063,81.062c7.451,-0 14.645,-1.028 21.582,-2.955c-20.041,-5.396 -34.686,-23.766 -34.686,-45.477c0,-25.95 21.069,-47.147 47.147,-47.147c21.069,-0 38.925,13.874 44.963,33.016c1.414,-6.038 2.184,-12.205 2.184,-18.628c0,-35.457 -22.867,-65.646 -54.598,-76.566c54.855,5.91 97.891,52.671 97.891,109.325Z" style="fill:#fff;fill-rule:nonzero;"/><path d="M1766.93,987.679c0,60.636 -49.331,109.967 -109.967,109.967c-23.252,0 -45.477,-7.066 -64.104,-20.683c-6.68,-24.922 -21.84,-46.505 -42.137,-61.278c-2.441,-9.122 -3.597,-18.5 -3.597,-28.006c-0,-24.023 7.836,-46.248 20.94,-64.362c-4.111,9.764 -6.424,20.427 -6.424,31.732c0,44.706 36.228,81.062 81.063,81.062c7.451,-0 14.645,-1.028 21.582,-2.955c-20.041,-5.396 -34.686,-23.766 -34.686,-45.477c0,-25.95 21.069,-47.147 47.147,-47.147c21.069,-0 38.925,13.874 44.963,33.016c1.414,-6.038 2.184,-12.205 2.184,-18.628c0,-35.457 -22.738,-65.518 -54.341,-76.566c54.598,6.295 97.377,52.928 97.377,109.325Z" style="fill:#fff;fill-rule:nonzero;"/><path d="M1059.46,375.28c-4.111,2.313 -9.25,1.028 -11.69,-3.083c-2.313,-4.111 -1.028,-9.249 3.083,-11.69c1.284,-0.771 2.826,-1.156 4.239,-1.156c1.413,-0 2.955,0.385 4.239,1.027c1.285,0.771 2.441,1.799 3.212,3.084c2.313,4.239 0.899,9.378 -3.083,11.818Z" style="fill:#ff4500;fill-rule:nonzero;"/><path d="M990.35,476.126c-6.038,3.469 -12.975,4.497 -19.784,2.698c-6.808,-1.798 -12.332,-6.038 -15.801,-12.076c-3.469,-6.038 -4.368,-12.975 -2.698,-19.783c1.799,-6.681 6.038,-12.333 12.076,-15.802c3.982,-2.312 8.479,-3.468 12.975,-3.468c2.312,-0 4.496,0.257 6.68,0.899c6.681,1.798 12.333,6.038 15.802,12.076c7.322,12.204 3.211,28.262 -9.25,35.456Z" style="fill:#ff4500;fill-rule:nonzero;"/><path d="M2454.74,445.68c-44.193,-27.363 -77.465,-39.182 -119.217,-39.182c-16.315,-0 -34.044,1.798 -54.213,5.267c38.155,-61.664 46.12,-102.002 34.044,-173.43c61.664,38.155 102.002,46.12 173.429,34.044c-38.154,61.407 -46.119,101.874 -34.043,173.301Z" style="fill:#1fa2c3;fill-rule:nonzero;"/><path d="M1305.74,1551.13c-110.353,7.579 -163.666,32.63 -239.718,112.793c-7.58,-110.352 -32.631,-163.666 -112.922,-239.718c110.352,-7.579 163.666,-32.63 239.718,-112.922c7.708,110.353 32.759,163.666 112.922,239.847Z" style="fill:#1fa2c3;fill-rule:nonzero;"/><path d="M1578.73,1106c0,51.644 -42.008,93.781 -93.78,93.781c-51.772,-0 -93.78,-42.137 -93.78,-93.781c-0,-51.643 42.008,-93.78 93.78,-93.78c51.772,0 93.78,42.137 93.78,93.78Z" style="fill:#1fa2c3;fill-rule:nonzero;"/><path d="M2261.14,1279.94c-46.633,47.018 -73.097,108.425 -75.281,174.457l-87.871,-0c-2.055,-12.975 -3.212,-26.207 -3.212,-39.568c0,-92.881 53.057,-177.54 136.046,-218.135l30.318,83.246Z" style="fill:#ff4500;fill-rule:nonzero;"/><path d="M2274.76,675.378l-0,458.624l-105.857,-290.719l25.822,-0l0,-17.985l-32.373,-0l-29.548,-81.319l61.921,-0l0,-17.986l-68.472,0l-6.295,-17.086c-8.351,-22.867 -30.19,-38.154 -54.598,-38.154l-897.722,-0c2.183,-14.132 14.516,-25.051 29.29,-25.051l1048.16,-0c16.315,-0 29.676,13.36 29.676,29.676Z" style="fill:#fff;fill-rule:nonzero;"/><path d="M2300.32,1437.31c-7.579,10.791 -19.527,17.086 -32.759,17.086l-63.59,-0c2.055,-58.324 24.537,-112.794 64.104,-155.573l37.127,101.874c4.368,12.333 2.698,25.693 -4.882,36.613Z" style="fill:#ff4500;fill-rule:nonzero;"/><path d="M2076.79,1414.83c0,13.232 1.028,26.464 2.955,39.568l-94.294,-0c-8.094,-24.409 -12.076,-49.974 -12.076,-76.052c-0,-64.619 25.179,-125.512 70.785,-171.246c44.192,-44.321 102.387,-69.5 164.565,-71.298l16.058,43.935c-90.183,43.293 -147.993,134.633 -147.993,235.093Z" style="fill:#ff4500;fill-rule:nonzero;"/><path d="M2375.99,646.216l-0,755.638c-0,29.033 -23.638,52.543 -52.543,52.543l-14.003,-0c1.927,-2.056 3.854,-4.368 5.524,-6.809c0.643,-1.028 1.285,-1.927 1.927,-2.955c5.653,-9.121 8.479,-19.27 8.608,-29.547c-0,-6.809 -1.157,-13.874 -3.597,-20.554l-100.718,-276.845l-148.764,-408.78c-2.826,-7.708 -7.194,-14.516 -12.589,-20.169l5.652,0c16.701,0 31.86,10.534 37.641,26.336l243.315,668.666l-0,-737.524c-0,-20.812 -9.121,-39.568 -23.51,-52.543l0.514,0c29.034,0 52.543,23.509 52.543,52.543Z" style="fill:#fff;fill-rule:nonzero;"/><path d="M2328.45,646.216l0,635.522l-35.842,-98.277l0,-508.083c0,-26.336 -21.325,-47.661 -47.661,-47.661l-1048.03,-0c-24.666,-0 -45.092,18.884 -47.404,43.036l-32.374,-0l0,-24.537c0,-14.517 5.781,-28.006 16.316,-38.026l3.982,-3.854l-1.67,-5.267c-1.156,-3.597 -1.156,-7.323 -0.386,-11.048l19.913,-85.687c3.597,-15.288 23.381,-26.978 46.119,-26.978l396.575,-0c22.097,-0 41.88,11.176 45.991,26.078l25.308,92.367l51.772,-0.256l554.974,-0c28.905,0.128 52.414,23.637 52.414,52.671Z" style="fill:#fff;fill-rule:nonzero;"/><path d="M1709.25,575.688l-26.335,0.128l-21.711,-79.007c-2.184,-7.964 -6.68,-15.159 -12.975,-21.068c19.912,1.67 36.87,12.204 40.595,25.822l10.406,38.026c3.34,11.947 6.68,24.023 10.02,36.099Z" style="fill:#fff;fill-rule:nonzero;"/></g></g><g id="general"><g id="general_4_"><g id="document_3_"><path d="M2292.74,675.378l-0,509.625l-17.985,0l-0,-509.625c-0,-16.316 -13.361,-29.676 -29.676,-29.676l-1048.16,-0c-14.774,-0 -27.107,10.919 -29.29,25.051c-0.257,1.541 -0.386,3.083 -0.386,4.625l0,4.367l-17.985,0l-0,-4.367c-0,-1.542 0.128,-3.084 0.257,-4.625c2.312,-24.152 22.738,-43.036 47.404,-43.036l1048.16,-0c26.207,-0 47.661,21.325 47.661,47.661Z" style="fill-rule:nonzero;"/><rect x="2122.52" y="725.993" width="72.198" height="17.985"/><rect x="2161.06" y="825.298" width="33.658" height="17.985"/></g><path id="main_3_" d="M2323.44,575.688l-595.569,-0c-3.726,-13.618 -7.451,-27.235 -11.177,-40.853l-10.406,-38.026c-6.294,-23.123 -32.373,-39.31 -63.333,-39.31l-441.539,-0c-31.474,-0 -58.195,17.214 -63.719,40.852l-19.912,85.687c-1.157,5.01 -1.285,10.02 -0.514,14.902c-11.819,12.975 -18.242,29.547 -18.242,47.276l-0,24.537l-206.189,-0c-19.27,-0 -36.484,8.992 -47.532,24.794c-11.048,15.673 -13.618,35.071 -6.937,53.185l230.853,634.238l2.827,7.836l16.957,-6.166l-3.34,-9.378l-230.34,-632.825c-4.496,-12.461 -2.826,-25.822 4.882,-36.613c7.579,-10.92 19.527,-17.086 32.759,-17.086l1124.98,0c16.7,0 31.859,10.534 37.64,26.336l146.709,402.998c-64.619,3.34 -124.87,30.19 -170.861,76.309c-48.945,49.203 -75.923,114.464 -75.923,183.964c-0,25.95 3.725,51.515 11.305,76.052l-724.036,-0l0,17.985l1080.79,0c38.925,0 70.528,-31.603 70.528,-70.528l-0,-755.638c-0.129,-38.926 -31.732,-70.528 -70.657,-70.528Zm-634.495,-74.125l10.406,38.026c3.34,12.076 6.552,24.151 9.892,36.099l-26.335,0.128l-21.711,-79.007c-2.184,-7.964 -6.68,-15.159 -12.975,-21.068c19.912,1.542 36.87,12.076 40.723,25.822Zm-571.931,169.19l-0,-24.537c-0,-14.517 5.781,-28.006 16.315,-38.026l3.982,-3.854l-1.67,-5.267c-1.156,-3.597 -1.156,-7.323 -0.385,-11.048l19.912,-85.687c3.597,-15.288 23.381,-26.978 46.12,-26.978l396.575,-0c22.096,-0 41.88,11.176 45.991,26.078l25.308,92.367l51.772,-0.256l554.974,-0c28.905,-0 52.542,23.509 52.542,52.542l0,635.523l-35.842,-98.277l-17.985,-49.459l-105.856,-290.72l-6.552,-17.985l-29.547,-81.319l-6.552,-17.985l-6.295,-17.086c-8.35,-22.867 -30.189,-38.155 -54.598,-38.155l-948.209,0l-0,0.129Zm868.432,783.644c-8.094,-24.409 -12.076,-49.974 -12.076,-76.052c-0,-64.619 25.179,-125.512 70.785,-171.246c44.192,-44.321 102.387,-69.5 164.565,-71.298l16.058,43.935c-90.183,43.293 -147.864,134.633 -147.864,235.093c-0,13.232 1.027,26.464 2.954,39.568l-94.422,-0Zm112.536,-0c-2.055,-12.975 -3.212,-26.207 -3.212,-39.568c0,-92.881 53.057,-177.54 136.046,-218.135l30.318,83.246c-46.633,47.018 -73.097,108.425 -75.281,174.457l-87.871,-0Zm202.334,-17.086c-7.579,10.791 -19.527,17.086 -32.759,17.086l-63.59,-0c2.055,-58.324 24.537,-112.794 64.104,-155.573l37.127,101.874c4.368,12.333 2.698,25.693 -4.882,36.613Zm75.667,-35.457c-0,29.033 -23.638,52.543 -52.543,52.543l-14.003,-0c1.927,-2.056 3.854,-4.368 5.524,-6.809c0.643,-1.028 1.285,-1.927 1.927,-2.955c5.653,-9.121 8.479,-19.27 8.608,-29.547c-0,-6.809 -1.157,-13.874 -3.597,-20.554l-100.718,-276.845l-148.764,-408.78c-2.826,-7.708 -7.194,-14.516 -12.589,-20.169l5.652,0c16.701,0 31.86,10.534 37.641,26.336l243.315,668.666l-0,-737.524c-0,-20.812 -9.121,-39.568 -23.51,-52.543l0.514,0c28.905,0 52.543,23.509 52.543,52.543l-0,755.638Z" style="fill-rule:nonzero;"/><g id="face_3_"><g id="eyes_3_"><path d="M1440.75,987.679c-0,5.396 -0.386,10.791 -1.028,16.058c-0.899,6.68 -2.184,13.361 -4.111,19.913l-17.214,-5.011c0.257,-0.899 0.513,-1.927 0.77,-2.826c2.441,-9.121 3.597,-18.499 3.597,-28.006c0,-56.653 -43.036,-103.415 -98.148,-109.324c31.731,10.919 54.598,41.109 54.598,76.566c0,6.423 -0.77,12.589 -2.184,18.627c-6.037,-19.141 -23.894,-33.016 -44.963,-33.016c-25.95,0 -47.147,21.069 -47.147,47.147c0,21.711 14.645,39.953 34.686,45.477c-6.809,1.927 -14.131,2.955 -21.582,2.955c-44.707,0 -81.062,-36.227 -81.062,-81.062c-0,-10.92 2.183,-21.325 6.037,-30.832c-12.718,17.985 -20.297,39.825 -20.297,63.462c-0,60.636 49.331,109.968 109.967,109.968c23.252,-0 45.348,-7.066 64.105,-20.684c0.77,-0.642 1.67,-1.156 2.44,-1.798l10.92,14.26c-5.396,4.111 -11.177,7.836 -17.086,11.048c-18.499,10.02 -39.054,15.159 -60.508,15.159c-21.068,-0 -41.109,-5.139 -58.709,-14.26l-20.169,30.318l-15.03,-10.02l19.783,-29.676c-8.093,-5.781 -15.416,-12.333 -21.967,-19.784l-27.107,21.326l-11.048,-14.132l27.364,-21.454c-5.011,-7.579 -9.122,-15.544 -12.462,-24.023l-35.585,10.791l-5.267,-17.214l35.457,-10.791c-2.184,-9.25 -3.34,-19.013 -3.34,-28.905c-0,-70.528 57.424,-127.952 127.952,-127.952c71.042,-0.129 128.338,57.167 128.338,127.695Z" style="fill-rule:nonzero;"/><path d="M1776.31,1033.8c-3.341,8.479 -7.452,16.572 -12.462,24.024l27.364,21.453l-11.048,14.132l-27.107,-21.326c-6.552,7.451 -13.874,14.003 -21.968,19.784l19.784,29.676l-15.03,10.02l-20.17,-30.318c-17.599,9.121 -37.512,14.26 -58.709,14.26c-21.453,-0 -42.008,-5.139 -60.507,-15.159c-5.91,-3.212 -11.691,-6.809 -17.086,-11.048l10.919,-14.26c0.771,0.642 1.67,1.285 2.441,1.799c18.756,13.488 40.853,20.683 64.105,20.683c60.636,-0 109.967,-49.331 109.967,-109.968c0,-56.525 -42.779,-103.158 -97.634,-109.196c31.731,11.048 54.341,41.109 54.341,76.566c-0,6.423 -0.771,12.59 -2.184,18.628c-6.038,-19.142 -23.895,-33.016 -44.963,-33.016c-25.95,-0 -47.147,21.068 -47.147,47.147c-0,21.711 14.645,39.953 34.686,45.477c-6.809,1.927 -14.132,2.955 -21.583,2.955c-44.706,-0 -81.062,-36.228 -81.062,-81.062c0,-11.305 2.312,-21.968 6.423,-31.732c-13.103,18.114 -20.94,40.339 -20.94,64.362c0,9.506 1.157,18.884 3.597,28.006c0.257,1.027 0.514,1.927 0.771,2.826l-17.214,5.01c-1.927,-6.423 -3.34,-13.104 -4.111,-19.912c-0.643,-5.267 -1.028,-10.663 -1.028,-16.059c0,-70.527 57.425,-127.952 127.952,-127.952c70.528,0 127.953,57.425 127.953,127.952c-0,10.021 -1.156,19.656 -3.34,28.905l35.456,10.792l-5.267,17.214l-35.199,-10.663Z" style="fill-rule:nonzero;"/></g><path id="nose_3_" d="M1596.58,1100.47c-0.385,-8.093 -1.67,-15.93 -3.725,-23.509c-6.68,-24.922 -21.84,-46.505 -42.137,-61.278c-6.423,-4.625 -13.232,-8.736 -20.555,-11.948c-13.874,-6.166 -29.033,-9.506 -45.22,-9.506c-16.187,-0 -31.346,3.468 -45.092,9.506c-7.322,3.212 -14.259,7.194 -20.554,11.948c-20.298,14.773 -35.457,36.356 -42.137,61.278c-2.056,7.579 -3.34,15.416 -3.726,23.509c-0.128,1.799 -0.128,3.726 -0.128,5.524c-0,30.832 12.59,58.709 32.759,79.007c4.496,4.496 9.249,8.607 14.517,12.204c18.242,12.975 40.466,20.555 64.49,20.555c24.023,-0 46.376,-7.58 64.49,-20.555c5.138,-3.725 10.02,-7.708 14.516,-12.204c20.17,-20.298 32.759,-48.175 32.759,-79.007c-0.128,-1.798 -0.257,-3.725 -0.257,-5.524Zm-111.637,99.305c-51.643,-0 -93.78,-42.137 -93.78,-93.781c-0,-51.643 42.008,-93.78 93.78,-93.78c51.772,0 93.78,42.137 93.78,93.78c0,51.772 -42.136,93.781 -93.78,93.781Z" style="fill-rule:nonzero;"/><path d="M1596.71,1237.67c-0,20.555 -12.205,39.696 -34.301,53.699c-20.811,13.232 -48.303,20.555 -77.465,20.555c-29.162,-0 -56.653,-7.323 -77.465,-20.555c-22.096,-14.003 -34.301,-33.144 -34.301,-53.699c0,-20.169 11.819,-38.925 32.759,-52.799c3.469,-2.313 7.194,-4.497 11.177,-6.424l8.093,16.059c-1.67,0.77 -3.211,1.67 -4.753,2.569c-18.628,10.663 -29.29,25.308 -29.29,40.467c-0,14.26 9.249,27.877 25.95,38.54c17.985,11.433 42.137,17.728 67.83,17.728c25.822,-0 49.845,-6.295 67.83,-17.728c16.701,-10.663 25.95,-24.28 25.95,-38.54c0,-15.288 -10.534,-29.804 -29.29,-40.467c-1.541,-0.899 -3.083,-1.799 -4.753,-2.569l8.093,-16.059c3.983,1.927 7.708,4.111 11.177,6.424c20.94,13.874 32.759,32.63 32.759,52.799Z" style="fill-rule:nonzero;"/><g id="brows_3_"><path d="M1748.43,810.267l-4.624,17.343c-13.232,-3.597 -17.343,-14.645 -20.427,-22.61c-2.826,-7.58 -4.239,-10.534 -8.093,-11.562c-3.982,-1.028 -6.552,0.771 -12.847,5.909c-6.551,5.525 -15.672,13.104 -28.904,9.507c-13.232,-3.597 -17.343,-14.517 -20.427,-22.61c-2.826,-7.58 -4.239,-10.534 -8.093,-11.562c-3.854,-1.028 -6.68,0.771 -12.847,5.909c-6.68,5.524 -15.672,12.975 -28.904,9.507c-13.233,-3.469 -17.343,-14.517 -20.427,-22.61c-2.826,-7.58 -4.239,-10.534 -8.093,-11.562l4.625,-17.343c13.232,3.597 17.343,14.645 20.426,22.61c2.826,7.579 4.239,10.534 8.093,11.562c3.854,1.028 6.681,-0.771 12.847,-5.909c6.552,-5.525 15.673,-13.104 28.905,-9.507c13.232,3.597 17.343,14.645 20.297,22.61c2.827,7.58 4.24,10.534 8.094,11.562c3.982,1.028 6.68,-0.771 12.846,-5.909c6.552,-5.524 15.673,-13.104 28.905,-9.507c13.232,3.597 17.343,14.645 20.298,22.61c2.955,7.58 4.368,10.534 8.35,11.562Z" style="fill-rule:nonzero;"/><path d="M1389.11,751.43c-12.204,6.166 -22.738,0.642 -30.318,-3.341c-7.065,-3.725 -10.149,-5.01 -13.746,-3.211c-3.597,1.798 -4.367,5.01 -5.524,12.975c-1.284,8.479 -2.954,20.169 -15.287,26.335c-12.204,6.167 -22.739,0.643 -30.318,-3.34c-7.066,-3.725 -10.149,-5.01 -13.746,-3.211c-3.597,1.798 -4.368,5.01 -5.524,12.975c-1.285,8.479 -2.955,20.169 -15.288,26.335c-3.982,2.056 -7.708,2.827 -11.305,2.827c-7.451,-0 -13.874,-3.469 -19.013,-6.167c-7.065,-3.725 -10.148,-5.01 -13.746,-3.211l-8.093,-16.059c12.333,-6.166 22.61,-0.642 30.318,3.34c7.066,3.726 10.149,5.011 13.746,3.212c3.597,-1.798 4.368,-5.01 5.524,-12.975c1.285,-8.479 2.955,-20.169 15.288,-26.336c12.204,-6.166 22.61,-0.642 30.318,3.341c7.065,3.725 10.148,5.01 13.745,3.211c3.598,-1.798 4.368,-5.01 5.525,-12.975c1.284,-8.479 2.954,-20.169 15.287,-26.335c12.333,-6.167 22.739,-0.643 30.318,3.34c7.066,3.725 10.149,5.01 13.746,3.211l8.093,16.059Z" style="fill-rule:nonzero;"/></g></g><g id="stars_3_"><path d="M1333.36,1552.29c-32.374,-29.419 -56.268,-54.47 -74.125,-79.906c-4.111,-5.909 -7.965,-11.947 -11.562,-17.985c-25.436,-43.55 -34.557,-91.211 -38.154,-164.951l-1.028,-21.711l-14.645,16.059c-40.339,44.32 -72.455,72.968 -108.426,91.468c-5.395,2.826 -10.791,5.267 -16.315,7.579c-36.87,15.416 -79.007,21.839 -137.973,24.666l-21.711,1.027l16.059,14.645c94.551,86.073 117.675,135.147 123.713,262.842l1.027,21.711l14.646,-16.058c86.072,-94.551 135.146,-117.675 262.841,-123.713l21.711,-1.028l-16.058,-14.645Zm-267.338,111.766c-7.58,-110.353 -32.631,-163.666 -112.922,-239.718c110.352,-7.58 163.666,-32.631 239.718,-112.922c7.579,110.352 32.63,163.666 112.922,239.718c-110.224,7.579 -163.538,32.63 -239.718,112.922Z" style="fill-rule:nonzero;"/><path d="M2527.06,246.429l-21.325,4.239c-87.1,17.6 -124.099,10.277 -198.224,-38.797l-18.113,-11.947l4.368,21.325c17.599,87.101 10.277,124.099 -38.797,198.095l-11.948,18.114l21.326,-4.239c87.1,-17.6 124.098,-10.278 198.095,38.797l18.113,12.075l-4.239,-21.325c-17.6,-87.1 -10.277,-124.098 38.797,-198.223l11.947,-18.114Zm-72.326,199.251c-44.193,-27.363 -77.465,-39.182 -119.217,-39.182c-16.315,-0 -34.044,1.798 -54.213,5.267c38.155,-61.664 46.12,-102.002 34.044,-173.43c61.664,38.155 102.002,46.12 173.429,34.044c-38.154,61.407 -46.119,101.874 -34.043,173.301Z" style="fill-rule:nonzero;"/></g><g id="circles_3_"><path d="M1015.27,431.42c-5.91,-10.149 -15.416,-17.471 -26.721,-20.426c-11.305,-2.955 -23.253,-1.413 -33.402,4.496c-20.94,12.205 -28.134,39.183 -15.929,60.123c5.909,10.148 15.416,17.471 26.721,20.426c3.725,1.027 7.579,1.541 11.305,1.541c7.708,0 15.159,-2.055 21.967,-6.038c21.197,-12.075 28.263,-39.053 16.059,-60.122Zm-24.923,44.706c-6.038,3.469 -12.975,4.497 -19.784,2.698c-6.808,-1.798 -12.332,-6.038 -15.801,-12.076c-3.469,-6.038 -4.368,-12.975 -2.698,-19.783c1.799,-6.681 6.038,-12.333 12.076,-15.802c3.982,-2.312 8.479,-3.468 12.975,-3.468c2.312,-0 4.496,0.257 6.68,0.899c6.681,1.798 12.333,6.038 15.802,12.076c7.322,12.204 3.211,28.262 -9.25,35.456Z" style="fill-rule:nonzero;"/><path d="M1078.09,354.597c-7.323,-12.589 -23.51,-16.957 -36.228,-9.635c-12.718,7.323 -16.957,23.638 -9.635,36.228c4.882,8.479 13.874,13.232 22.996,13.232c4.496,-0 9.121,-1.156 13.232,-3.597c8.478,-4.882 13.232,-13.875 13.232,-22.996c-0,-4.496 -1.157,-9.121 -3.597,-13.232Zm-18.628,20.683c-4.111,2.313 -9.25,1.028 -11.69,-3.083c-2.313,-4.111 -1.028,-9.249 3.083,-11.69c1.284,-0.771 2.826,-1.156 4.239,-1.156c1.413,-0 2.955,0.385 4.239,1.027c1.285,0.771 2.441,1.799 3.212,3.084c2.313,4.239 0.899,9.378 -3.083,11.818Z" style="fill-rule:nonzero;"/></g></g></g></svg>