<svg width="627" height="379" viewBox="0 0 627 379" fill="none" xmlns="http://www.w3.org/2000/svg">
<path fill-rule="evenodd" clip-rule="evenodd" d="M622.881 95.8844C622.881 44.9113 581.497 3.52832 530.525 3.52832H122.298C71.3258 3.52832 29.9424 44.9113 29.9424 95.8844V280.595C29.9424 331.567 71.3258 372.951 122.298 372.951H531.218C581.808 372.951 622.881 331.879 622.881 281.288V95.8844Z" fill="#69574D"/>
<mask id="mask0_2645_33375" style="mask-type:luminance" maskUnits="userSpaceOnUse" x="29" y="3" width="594" height="370">
<path d="M622.883 95.8853C622.883 44.9123 581.5 3.5293 530.527 3.5293H122.299C71.3263 3.5293 29.9434 44.9123 29.9434 95.8853V280.597C29.9434 331.569 71.3263 372.952 122.299 372.952H531.22C581.81 372.952 622.883 331.88 622.883 281.289V95.8853Z" fill="white"/>
</mask>
<g mask="url(#mask0_2645_33375)">
<path fill-rule="evenodd" clip-rule="evenodd" d="M472.886 421.586C466.824 430.339 454.796 432.522 446.043 426.46C437.291 420.397 435.107 408.369 441.17 399.617C449.705 387.295 458.718 370.399 462.582 353.294C464.712 343.869 465.372 334.381 462.478 325.935C459.033 315.881 452.984 309.836 445.49 308.261C432.804 305.593 418.602 313.799 410.817 327.782C396.216 354.008 396.335 385.966 391.748 414.789C390.075 425.304 380.18 432.482 369.666 430.809C359.151 429.136 351.973 419.241 353.646 408.727C358.92 375.579 360.316 339.175 377.108 309.014C393.832 278.974 426.172 264.774 453.428 270.504C472.561 274.527 490.181 287.761 498.976 313.428C510.837 348.04 492.158 393.764 472.886 421.586Z" fill="#54463E"/>
<path fill-rule="evenodd" clip-rule="evenodd" d="M255.447 398.291C255.929 408.927 247.685 417.953 237.049 418.435C226.413 418.917 217.387 410.674 216.905 400.038C216.094 382.139 226.371 365.58 234.333 350.278C260.614 299.767 320.746 257.756 379.551 283.612C428.719 305.232 449.456 362.025 458.729 410.243C460.74 420.698 453.883 430.819 443.427 432.83C432.972 434.841 422.852 427.985 420.841 417.529C413.775 380.789 401.486 335.404 364.021 318.931C324.506 301.556 286.22 334.144 268.56 368.086C265.451 374.06 261.597 380.167 258.622 386.54C256.861 390.315 255.26 394.152 255.447 398.291Z" fill="#54463E"/>
<path fill-rule="evenodd" clip-rule="evenodd" d="M243.408 -36.9255C241.323 -47.3665 248.108 -57.5355 258.548 -59.6205C268.989 -61.7055 279.158 -54.9215 281.243 -44.4805C291.119 4.9755 346.239 49.0065 394.822 54.5495C421.722 57.6185 451.702 50.1285 476.07 34.9865C499.309 20.5475 517.651 -0.988503 521.748 -27.8645C523.353 -38.3905 533.201 -45.6325 543.726 -44.0285C554.251 -42.4235 561.494 -32.5755 559.889 -22.0505C548.509 52.6025 461.705 101.011 390.449 92.8825C327.211 85.6685 256.262 27.4475 243.408 -36.9255Z" fill="#54463E"/>
<path fill-rule="evenodd" clip-rule="evenodd" d="M392.151 -35.8382C393.284 -46.4252 402.799 -54.1002 413.385 -52.9672C423.972 -51.8342 431.647 -42.3192 430.514 -31.7322C425.927 11.1168 460.615 47.7668 502.296 67.2808C544.077 86.8408 594.784 90.0518 625.278 59.2718C632.772 51.7088 644.996 51.6518 652.564 59.1448C660.124 66.6388 660.184 78.8628 652.684 86.4258C611.243 128.258 542.72 128.807 485.937 102.223C429.053 75.5918 385.892 22.6398 392.151 -35.8382Z" fill="#54463E"/>
<path fill-rule="evenodd" clip-rule="evenodd" d="M-22.2742 231.864C-31.9672 236.271 -43.4132 231.98 -47.8202 222.287C-52.2272 212.595 -47.9362 201.149 -38.2442 196.742C-4.90417 181.582 33.3858 179.037 63.8428 188.531C86.3878 195.558 104.778 209.06 115.428 228.247C126.51 248.214 129.68 274.933 117.824 308.452C111.005 327.728 96.0288 346.131 82.0148 360.655C74.6218 368.317 62.3988 368.535 54.7368 361.142C47.0758 353.749 46.8568 341.526 54.2498 333.865C64.6458 323.091 76.3918 309.885 81.4498 295.586C88.6338 275.278 88.4078 259.068 81.6928 246.971C75.7338 236.234 64.9778 229.297 52.3618 225.365C30.0818 218.42 2.11383 220.774 -22.2742 231.864Z" fill="#54463E"/>
<path fill-rule="evenodd" clip-rule="evenodd" d="M20.9789 307.918C12.7009 314.613 0.543925 313.327 -6.15108 305.049C-12.8461 296.77 -11.5601 284.613 -3.28209 277.918C20.5889 258.614 49.6709 236.758 60.1689 206.916C70.1229 178.617 64.8819 144.549 49.7289 116.779C35.0419 89.8632 10.7639 68.4662 -19.8031 65.6582C-30.4061 64.6842 -38.2231 55.2862 -37.2491 44.6842C-36.2751 34.0812 -26.8771 26.2642 -16.2751 27.2382C27.1399 31.2252 62.7369 60.0712 83.5959 98.2982C103.989 135.669 109.96 181.637 96.5639 219.718C83.7589 256.121 50.0979 284.369 20.9789 307.918Z" fill="#54463E"/>
<path fill-rule="evenodd" clip-rule="evenodd" d="M637.376 136.845C627.335 121.079 602.976 118.19 589.918 131.508Z" fill="#FAFAFA"/>
<path fill-rule="evenodd" clip-rule="evenodd" d="M604.788 139.706C602.031 114.439 579.983 89.2628 552.361 98.8888C540.663 102.966 534.034 112.322 526.777 121.484" fill="#FAFAFA"/>
<path fill-rule="evenodd" clip-rule="evenodd" d="M567.523 137.182C565.121 121.762 559.879 103.503 549.874 91.0882C533.57 70.8552 506.568 60.3872 483.866 76.1232C477.282 80.6862 473.485 88.2952 468.993 94.7152" fill="#FAFAFA"/>
<path fill-rule="evenodd" clip-rule="evenodd" d="M508.789 120.95C508.661 96.1085 477.082 61.5695 452.269 82.8415C449.198 85.4755 446.49 88.7255 444.405 92.1895C440.23 99.1235 439.371 106.753 438.783 114.651" fill="#FAFAFA"/>
<path fill-rule="evenodd" clip-rule="evenodd" d="M472.191 125.62C466.277 99.5767 430.127 84.0437 409.502 103.111C394.331 117.136 393.379 137.898 395.596 157.324" fill="#FAFAFA"/>
<path fill-rule="evenodd" clip-rule="evenodd" d="M450.093 157.163C423.984 130.21 367.568 129.704 342.048 158.234C321.709 180.972 311.252 226.076 339.588 247.266" fill="#FAFAFA"/>
<path fill-rule="evenodd" clip-rule="evenodd" d="M355.308 216.99C337.694 241.969 339.531 279.473 372.715 290.417C398.154 298.806 429.084 285.059 443.651 263.492" fill="#FAFAFA"/>
<path fill-rule="evenodd" clip-rule="evenodd" d="M419.625 264.522C409.574 301.807 447.097 341.259 482.306 345.83C506.163 348.928 532.219 339.075 550.831 325.007" fill="#FAFAFA"/>
<path fill-rule="evenodd" clip-rule="evenodd" d="M506.845 312.093C503.663 322.24 507.146 337.155 511.381 346.549C526.373 379.799 558.867 396.288 594.593 385.688C619.325 378.35 636.655 358.484 649.173 337.048C674.213 294.165 685.333 242.431 669.603 194.288C664.543 178.813 662.003 157.039 648.853 145.783C630.1 129.732 606.502 132.834 584.093 126.54C576.304 124.353 567.98 122.162 560.819 118.339C548.692 111.864 537.741 102.517 524.184 98.7509C490.357 89.3529 456.943 111.288 429.977 128.315C422.86 132.809 415.628 137.225 409.183 142.672C382.638 165.108 350.63 208.805 371.757 245.077C382.477 263.48 408.106 259.591 423.397 271.663C432.059 278.502 440.499 288.004 447.208 296.728C452.027 302.995 456.289 310.843 462.841 315.461C467.798 318.954 473.386 319.807 479.28 320.385" fill="#FAFAFA"/>
<path fill-rule="evenodd" clip-rule="evenodd" d="M335.126 223.202C325.195 226.922 315.842 232.189 305.777 235.535C301.327 237.015 295.338 239.994 294.537 245.206C293.411 252.528 304.844 253.36 309.675 254.273C325.66 257.296 350.564 258.381 364.282 251.405" fill="#FAFAFA"/>
<path fill-rule="evenodd" clip-rule="evenodd" d="M313.668 382.937C312.445 373.565 314.075 363.829 312.505 354.494C309.774 338.244 302.335 324.043 293.1 310.573C289.532 305.367 286.629 300.21 282.383 295.477C264.106 275.103 238.462 266.19 213.516 257.13C189.906 248.555 165.296 241.976 140.27 239.193C128.231 237.854 113.632 236.722 102.382 242.29C89.9541 248.442 83.4081 261.54 77.4471 273.374C75.2411 277.753 72.4681 281.772 70.5511 286.308C68.6481 290.809 67.5061 295.566 65.3951 299.999C62.5351 306.006 58.6851 311.161 56.7341 317.641C54.6281 324.637 54.8421 331.703 53.3711 338.796C51.3941 348.33 43.1641 362.865 49.1781 372.171C54.0861 379.765 64.4241 382.549 72.4341 385.113C87.1201 389.813 101.993 393.614 116.805 397.864C127.294 400.874 137.641 404.161 148.433 405.976C161.672 408.202 175.194 409.143 188.542 410.496C217.181 413.398 247.15 415.231 275.748 411.464C286.722 410.018 299.716 408.839 309.011 402.437" fill="#EEFD07"/>
<path fill-rule="evenodd" clip-rule="evenodd" d="M173.388 416.691C172.891 409.632 173.883 402.257 174.092 395.177C174.249 389.859 173.676 384.587 173.609 379.285C173.443 366.34 173.634 353.545 170.362 340.903C166.653 326.571 161.866 311.794 153.958 299.183C149.082 291.409 142.765 282.759 135.407 277.19C129.748 272.907 124.109 269.345 117.496 266.712C106.041 262.153 92.4791 259.576 81.8791 267.611C75.5511 272.407 72.4191 281.499 69.4081 288.529C67.5441 292.882 64.9831 296.961 63.3061 301.382C60.7371 308.161 59.7831 315.37 57.8821 322.34C56.1271 328.777 53.7501 334.9 52.4031 341.492C51.1321 347.709 47.7761 352.756 45.6401 358.639C42.5611 367.118 41.2321 380.052 44.6581 388.478C47.1921 394.711 53.5321 399.415 59.0301 402.802C71.3801 410.41 86.1421 415.701 100.189 419.14C109.389 421.391 118.972 421.532 128.35 422.616C139.128 423.861 149.908 426.227 160.806 425.64" fill="#E1EF15"/>
</g>
<path fill-rule="evenodd" clip-rule="evenodd" d="M509.78 315.747C507.891 319.973 531.662 323.586 541.79 325.131C550.203 326.415 559.222 327.575 567.786 327.238C572.846 327.039 580.086 327.01 584.389 324.075C591.465 319.249 596.204 311.396 600.448 304.166C605.026 296.37 609.072 288.531 613.422 280.611C615.503 276.822 616.858 272.821 618.731 268.949C622.31 261.547 627.461 254.308 625.964 245.829C624.711 238.731 626.148 237.196 622.279 227.472C618.596 218.214 621.173 223.237 615.054 203.39C614.861 202.766 610.914 214.601 610.223 215.544C606.523 220.594 603.404 225.665 597.195 228.073C590.67 230.604 582.911 229.004 576.11 229.58C569.15 230.17 562.985 232.867 557.578 237.268C548.213 244.891 540.638 256.216 533.837 266.292C531.461 269.81 512.674 312.564 509.78 315.747Z" fill="#DE5535"/>
<mask id="mask1_2645_33375" style="mask-type:luminance" maskUnits="userSpaceOnUse" x="509" y="203" width="118" height="125">
<path d="M509.78 315.747C507.891 319.973 531.662 323.586 541.79 325.131C550.203 326.415 559.222 327.575 567.786 327.238C572.846 327.039 580.086 327.01 584.389 324.075C591.465 319.249 596.204 311.396 600.448 304.166C605.026 296.37 609.072 288.531 613.422 280.611C615.503 276.822 616.858 272.821 618.731 268.949C622.31 261.547 627.461 254.308 625.964 245.829C624.711 238.731 626.148 237.196 622.279 227.472C618.596 218.214 621.173 223.237 615.054 203.39C614.861 202.766 610.914 214.601 610.223 215.544C606.523 220.594 603.404 225.665 597.195 228.073C590.67 230.604 582.911 229.004 576.11 229.58C569.15 230.17 562.985 232.867 557.578 237.268C548.213 244.891 540.638 256.216 533.837 266.292C531.461 269.81 512.674 312.564 509.78 315.747Z" fill="white"/>
</mask>
<g mask="url(#mask1_2645_33375)">
<path fill-rule="evenodd" clip-rule="evenodd" d="M613.949 205.015C614.184 207.606 613.531 209.963 612.687 212.392C609.602 221.272 602.457 227.029 593.386 229.319C587.587 230.783 581.835 230.208 575.987 230.821C574.643 230.962 573.307 231.208 571.963 231.362C571.081 231.463 570.228 231.607 569.381 231.879C566.354 232.854 559.553 236.318 562.587 240.609C563.76 242.27 566.015 242.747 567.861 243.251C571.538 244.254 575.269 245.088 578.989 245.914C584.028 247.034 589.157 248.092 594.047 249.768C600.374 251.937 606.378 254.898 612.472 257.622C617.67 259.946 623.899 262.212 629.239 258.727C634.946 255.003 636.53 250.245 635.992 243.61C635.843 241.775 635.159 240.064 634.877 238.254C634.582 236.351 634.594 234.437 634.155 232.551C631.823 222.52 626.348 209.696 616.315 205" fill="#CD5F46"/>
</g>
<path fill-rule="evenodd" clip-rule="evenodd" d="M267.01 90.656C254.353 86.609 238.957 91.196 226.346 93.498C216.094 95.369 206.287 97.948 196.209 100.554C192.934 101.401 189.812 102.617 186.587 103.618C184.065 104.402 181.574 105.183 179.096 106.098C172.204 108.646 157.374 113.414 155.547 122.266C155.236 123.773 156.278 125.539 156.788 126.892C157.942 129.959 159.037 133.133 159.972 136.271C161.303 140.742 163.371 145.689 163.806 150.329C164.375 156.406 163.06 163.14 162.405 169.201C161.94 173.507 160.421 180.843 156.45 183.443C154.865 184.482 152.764 184.596 150.928 184.531C140.841 184.175 138.357 174.562 136.996 166.115C136.743 164.545 137.704 159.52 137.006 158.377C136.799 158.037 134.645 158.147 134.256 158.13C131.695 158.02 129.105 158.02 126.716 156.98C122.967 155.349 123.034 151.771 120.546 149.097C117.251 145.553 109.257 145.846 105.237 147.191C92.782 151.36 85.098 161.48 85.491 174.749C85.569 177.383 85.38 180.239 86.289 182.757C89.468 191.562 96.6229 196.82 106.019 196.789C109.68 196.776 113.254 196.212 116.888 195.901C118.316 195.779 119.916 195.258 120.838 196.59C123.393 200.281 122.67 206.764 122.982 210.925C123.429 216.887 124.424 222.883 124.631 228.852C124.829 234.546 124.286 240.08 125.624 245.697C128.797 259.023 151.304 281.142 161.114 290.037" fill="#F4838D"/>
<path fill-rule="evenodd" clip-rule="evenodd" d="M143.291 270.338C148.76 278.986 155.998 285.937 164.089 292.494C171.328 298.362 181.505 304.724 189.649 309.167C196.295 312.793 202.571 315.733 210.077 317.424C219.375 319.519 233.396 321.756 240.459 313.388C247.293 305.291 248.92 290.557 247.181 280.248C246.406 275.651 244.604 271.089 244.232 266.433C244.182 265.809 245.481 266.588 246.107 266.566C247.45 266.518 248.747 266.209 250.029 265.82C253.882 264.651 257.342 262.896 260.808 260.881C267.486 256.999 271.93 251.932 277.417 246.748C281.219 243.156 285.878 240.507 289.292 236.48C301.15 222.497 298.774 201.768 297.384 185.016C296.89 179.053 297.52 172.996 296.984 167.036C296.315 159.595 291.839 152.68 290.273 145.329C288.604 137.493 288.214 129.22 286.184 121.471C284.889 116.523 282.084 111.882 280.193 107.134C276.144 96.9651 269.933 88.7641 258.03 89.6621C253.294 90.0191 248.656 91.8541 244.3 93.6671" fill="#F4838D"/>
<path fill-rule="evenodd" clip-rule="evenodd" d="M178.51 92.9966C184.5 93.0446 190.514 91.2416 196.369 90.1576C202.384 89.0436 208.502 88.2156 214.365 86.4016C223.181 83.6746 231.127 79.7996 239.45 75.9356C250.239 70.9276 260.128 62.8166 258.351 49.6636C257.968 46.8316 256.509 43.7826 255.202 41.2646C254.127 39.1926 253.658 36.6356 252.272 34.7696C248.636 29.8716 243.094 27.9006 238.299 24.5106C234.383 21.7426 230.999 17.7586 226.361 16.1566C224.361 15.4656 222.211 15.5326 220.121 15.5056C215.22 15.4436 209.876 15.7446 206.472 19.7856C204.393 22.2536 203.618 26.5526 203.372 29.7006" fill="black"/>
<path fill-rule="evenodd" clip-rule="evenodd" d="M119.295 105.17C126.523 104.084 133.84 102.638 141.077 101.802C151.76 100.569 161.983 99.5271 172.076 95.7051C178.498 93.2721 184.991 91.0791 189.382 85.4611C195.761 77.3001 198.212 66.1841 201.66 56.6071C203.05 52.7461 205.26 49.2931 206.864 45.5271C207.979 42.9111 208.288 40.0371 208.763 37.2581C209.637 32.1411 210.744 27.3651 209.136 22.2251C207.436 16.7951 201.229 13.7501 196.765 11.0741C192.043 8.24312 187.084 4.6991 181.832 2.9421C177.238 1.4051 172.108 1.57211 167.333 1.53011C163.736 1.49911 160.266 1.21312 156.684 1.85012C151.797 2.71912 145.109 7.80311 143.316 12.4951C142.562 14.4701 142.044 16.6011 141.541 18.6551C141.433 19.0971 141.326 20.7241 140.971 21.0451C140.541 21.4341 138.136 20.3291 137.556 20.1161C134.163 18.8721 130.704 18.5291 127.239 17.5881C122.219 16.2251 118.538 17.8011 114.033 19.8641C111.53 21.0111 109.224 21.9771 107.337 24.0921C105.252 26.4271 102.2 29.8931 101.787 33.1641C101.504 35.4041 102.413 37.9221 103.08 40.0441C103.737 42.1311 104.751 44.1941 106.138 45.8951C106.648 46.5191 107.206 47.1011 107.734 47.7091C107.995 48.0101 108.87 48.5311 108.486 48.6371C107.623 48.8741 105.95 48.0921 105.115 47.8871C103.542 47.5011 101.97 47.4881 100.372 47.7091C91.4486 48.9421 82.5376 54.1741 77.2526 61.4761C73.8986 66.1091 71.4616 73.0401 74.5106 78.5221C75.9126 81.0421 78.5276 83.1591 80.7316 84.9401C82.6596 86.4991 86.0766 89.1971 88.8356 89.0151C89.2256 88.9891 88.1056 88.7331 87.7346 88.6111C87.0016 88.3681 86.2226 88.1511 85.4516 88.0841C83.2806 87.8941 81.2696 89.2711 79.7466 90.6811C75.6566 94.4671 75.9406 99.7341 80.4126 103.321C83.6326 105.903 87.2666 106.577 91.0946 107.776C95.6986 109.218 101.422 111.815 106.316 111.616C117.683 111.153 127.613 103.922 138.218 100.783" fill="black"/>
<path fill-rule="evenodd" clip-rule="evenodd" d="M146.387 94.4434C143.954 93.3864 141.228 93.5324 138.627 93.6194C132.254 93.8324 124.464 95.6754 119.004 99.1224C116.757 100.54 115.264 102.36 113.96 104.632C113.171 106.006 112.508 107.736 113.701 109.14C114.463 110.037 116.034 110.294 117.108 110.59C121.432 111.781 126.659 110.018 130.818 108.855C140.664 106.1 150.002 102.211 159.63 98.8864C164.731 97.1254 170.307 96.7764 174.92 93.6614C176.489 92.6024 177.713 91.0254 178.939 89.6084" fill="black"/>
<path fill-rule="evenodd" clip-rule="evenodd" d="M79.9174 94.7108C76.8224 93.9428 73.0644 96.5378 74.5804 99.9388C75.3154 101.588 77.2904 102.712 78.8904 103.349C83.1294 105.037 87.5804 105.388 91.2714 102.343" fill="black"/>
<path fill-rule="evenodd" clip-rule="evenodd" d="M82.8095 134.714C87.4975 131.655 94.1315 131.257 99.4715 130.13C108.754 128.171 118.05 126.189 127.288 124.054C130.609 123.287 134.061 123.177 137.352 122.367C141.701 121.295 146.173 120.836 150.514 119.801C150.937 119.7 154.129 118.623 154.539 119.005C155.812 120.192 156.011 122.366 156.357 123.941C156.865 126.261 157.649 128.6 158.404 130.85C162.01 141.598 163.039 154.261 162.1 165.505C161.695 170.354 161.132 176.127 157.557 179.82C153.143 184.38 144.087 182.221 140.902 177.21C137.111 171.247 137.658 163.956 137.384 157.227C137.368 156.84 136.693 157.577 136.355 157.766C135.641 158.166 134.946 158.585 134.164 158.839C131.925 159.566 129.212 159.576 127.071 158.539C124.709 157.395 123.48 154.419 123.026 151.964C122.672 150.048 123.257 148.533 121.251 147.482C118.892 146.244 115.792 146.177 113.185 146.216C107.06 146.308 100.235 147.112 94.9635 150.571C92.5205 152.173 90.5385 156.93 87.5675 157.31C78.6605 158.45 76.8405 146.816 79.0295 140.615" fill="black"/>
<path fill-rule="evenodd" clip-rule="evenodd" d="M437.868 233.612C436.611 236.297 438.669 239.289 441.61 239.375C444.463 239.459 447.398 237.694 449.408 235.827C453.311 232.201 457.131 228.517 460.527 224.421C461.814 222.869 463.445 221.225 463.869 219.17C464.498 216.119 461.684 214.658 458.967 214.877C454.989 215.197 451.916 217.932 449.225 220.609" fill="#001944"/>
<path fill-rule="evenodd" clip-rule="evenodd" d="M494.015 173.415C489.649 175.539 484.876 180.175 485.679 185.522C486.036 187.901 487.031 189.905 487.88 192.127C488.145 192.82 488.316 193.537 488.506 194.252C488.606 194.625 488.487 195.52 488.839 195.361C490.461 194.628 491.75 192.7 492.971 191.481C496.15 188.307 499.135 184.942 502.06 181.533C503.1 180.32 504.174 179.125 505.171 177.875C505.279 177.739 505.925 176.768 506.057 176.794C507.651 177.105 509.081 177.822 510.752 177.893C514.485 178.053 517.726 175.672 520.35 173.291C523.7 170.252 526.11 166.346 525.907 161.733C525.842 160.255 525.451 158.652 524.841 157.297C524.618 156.804 523.707 156.394 523.975 155.924C524.481 155.034 526.312 152.884 527.043 152.154C529.034 150.167 530.77 147.997 532.583 145.845C538.146 139.242 542.693 133.551 548.277 126.988C548.674 126.521 549.088 126.021 549.513 125.501C551.521 123.043 553.78 120.121 555.741 117.983C557.157 116.44 558.06 114.025 557.984 115.001C557.839 116.843 555.818 113.571 554.63 112.821C550.621 110.295 547.84 111.554 543.972 113.218" fill="#001944"/>
<path fill-rule="evenodd" clip-rule="evenodd" d="M584.446 64.8536C580.727 66.9546 575.444 71.7086 576.775 76.6236C577.466 79.1746 579.022 81.3026 580.763 83.2426C580.85 83.3386 582.271 85.0056 582.297 84.9796C585.561 81.5926 587.42 79.1456 590.465 75.5206C591.181 74.6676 593.105 72.5316 593.765 71.6376C593.828 71.5516 594.238 70.9257 594.293 70.9417C595.337 71.2417 596.222 71.9636 597.462 72.0966C603.592 72.7566 607.76 69.2636 611.148 64.6426C613.6 61.2986 613.857 57.1117 613.112 53.1837C612.876 51.9437 612.559 50.7426 611.881 49.6736C611.662 49.3276 611.412 49.0166 611.114 48.7356C610.972 48.6016 615.768 42.6656 617.77 39.9586C621.431 35.0086 627.136 29.6876 622.741 23.2646C621.904 22.0406 620.795 21.1266 619.641 20.2236" fill="#001944"/>
<path fill-rule="evenodd" clip-rule="evenodd" d="M616.884 17.8557C612.144 11.5067 601.945 12.1337 595.365 14.7507C587.995 17.6817 581.685 22.8157 575.449 27.6017C567.603 33.6217 558.873 40.0547 549.991 44.4757C542.648 48.1297 534.558 51.3317 526.845 54.0387C521.627 55.8707 516.238 57.2967 511.393 60.0457C490.889 71.6757 475.915 91.1687 460.766 108.701C455.089 115.271 449.428 121.744 444.057 128.564C440.23 133.423 436.483 137.758 434.223 143.686C432.06 149.359 433.612 155.105 433.8 160.923C433.992 166.847 432.988 173.169 431.978 178.999C431.296 182.931 430.446 186.727 428.044 190.011C423.742 195.896 414.711 201.186 418.223 209.693C421.821 218.41 428.255 225.31 438.292 225.006C440.446 224.941 442.47 224.124 444.48 223.432C446.755 222.648 448.86 221.809 450.85 220.416C463.853 211.312 471.281 198.68 478.859 185.08C480.76 181.67 483.8 179.025 485.78 175.572C491.721 165.209 500.772 157.522 508.909 149.109C518.495 139.198 525.091 126.954 534.361 116.733C543.987 106.118 555.863 94.4667 565.439 83.8567C569.742 79.0887 574.848 75.0647 578.535 69.8497C580.943 66.4437 584.1 62.1077 586.697 58.8187C590.271 54.2927 593.119 50.4107 596.622 45.8407C601.933 38.9107 608.901 35.7977 613.658 28.5227" fill="#426CAF"/>
<path fill-rule="evenodd" clip-rule="evenodd" d="M595.384 39.1222C594.535 37.8552 593.281 37.0192 591.934 36.3342C590.681 35.6962 589.515 35.0502 588.091 34.8842C585.148 34.5432 582.66 36.1302 580.734 38.1862C578.182 40.9092 576.139 44.0012 573.781 46.9012C571.558 49.6352 568.816 52.4682 568.161 56.0382C567.583 59.1902 568.796 63.1352 571.784 64.6372C572.681 65.0892 573.668 65.4682 574.635 65.7422C574.838 65.7992 575.648 65.8702 575.797 66.1002" fill="#FFE523"/>
<path fill-rule="evenodd" clip-rule="evenodd" d="M615.391 15.1382C612.268 11.4062 607.919 9.82024 603.656 12.9062C602.075 14.0502 601.129 15.6102 599.919 17.0772C597.988 19.4192 596.036 22.2102 596.615 25.4172C597.21 28.7232 600.472 30.9472 603.186 32.4532" fill="#FFE523"/>
<path fill-rule="evenodd" clip-rule="evenodd" d="M432.165 218.82C430.524 216.647 428.646 214.593 426.774 212.615C425.638 211.414 424.382 210.298 423.17 209.172C421.326 207.459 416.982 205.775 416.329 209.57C416.165 210.522 416.382 211.472 416.586 212.398C417.548 216.763 421.327 221.09 424.484 224.088C425.978 225.506 428.567 228.461 430.693 226.196C430.967 225.904 431.13 225.54 431.281 225.174" fill="#EF3E24"/>
<path fill-rule="evenodd" clip-rule="evenodd" d="M484.713 188.172C494.205 178.129 503.467 167.858 512.264 157.202C518.419 149.746 524.189 142.935 529.959 136.148C534.524 130.778 538.691 126.544 543.039 121.276C545.028 118.866 549.733 113.964 550.97 111.043C551.436 109.944 547.82 107.639 547.505 109.05C546.672 112.776 545.882 100.048 543.029 102.707C535.3 109.91 528.761 118.444 522.55 125.548C511.66 138.004 504.006 148.654 493.123 159.437C489.433 163.092 486.06 167.947 482.347 171.577C470.5 183.16 476.945 182.146 484.713 188.172Z" fill="#315FAC"/>
<path fill-rule="evenodd" clip-rule="evenodd" d="M451.096 196.379C447.938 199.284 445.119 203.236 443.053 204.865C440.488 206.887 437.712 210.066 435.633 212.59C432.52 216.369 429.396 218.411 428.175 223.414C427.137 227.666 428.459 231.742 431.051 235.092C432.754 237.295 435.305 238.703 438.127 237.767C442.43 236.339 446.086 231.721 448.877 228.444C451.419 225.458 454.387 222.851 457.003 219.94C458.368 218.421 459.459 216.715 460.883 215.234" fill="#315FAC"/>
<path fill-rule="evenodd" clip-rule="evenodd" d="M563.947 74.2391C568.469 69.0241 572.275 65.2691 575.206 61.8201C579.418 56.8631 581.055 55.2311 586.499 48.5861C588.657 45.9531 591.014 43.0651 593.244 40.4771C594.353 39.1881 596.411 36.7041 597.444 35.3551C599.189 33.0791 599.864 31.9231 601.694 29.7191C604.462 26.3871 607.075 22.9701 609.794 19.6221C610.736 18.4621 611.389 17.1191 612.425 16.0271C612.854 15.5751 614.142 14.1321 614.553 13.6651C615.352 12.7561 618.883 14.2121 620.974 16.5651C622.112 17.8451 622.856 18.5211 622.514 20.5211C622.033 23.3251 618.151 27.6781 616.46 29.7381C614.041 32.6851 612.492 34.5271 610.229 37.5891C606.235 42.9951 602.642 46.4581 598.581 51.7891C597.285 53.4911 594.368 56.8991 593.006 58.5491C589.867 62.3501 586.617 66.4541 583.171 69.9581C580.562 72.6131 578.611 75.5431 575.998 78.1981" fill="#315FAC"/>
<path fill-rule="evenodd" clip-rule="evenodd" d="M564.265 75.1846C555.782 74.4486 548.181 75.8766 542.671 82.8236C541.055 84.8616 539.991 87.5436 539.333 90.0416C535.959 102.853 543.467 115.634 556.679 118.22C562.216 119.303 568.548 118.869 573.985 117.383C576.289 116.753 578.635 116.001 580.43 114.336C583.129 111.831 584.619 107.854 585.404 104.342C587.7 94.0716 583.546 81.4166 572.955 77.4736" fill="#1C1933"/>
<path fill-rule="evenodd" clip-rule="evenodd" d="M467.964 181.386C465.571 181.112 462.76 181.088 460.44 181.829C449.927 185.182 445.803 198.228 449.173 207.968C451.175 213.756 457.071 217.675 462.696 219.413C466.185 220.491 470.422 220.832 473.941 219.786C484.093 216.771 492.845 204.209 489.743 193.712C488.014 187.86 484.026 184.969 478.959 182.235" fill="#1C1933"/>
<path fill-rule="evenodd" clip-rule="evenodd" d="M567.061 87.635C563.495 85.073 559.481 85.545 556.515 86.809C548.733 90.126 548.279 101.45 555.471 105.772C561.57 109.438 571.285 106.238 572.422 98.689C572.893 95.557 571.711 90.975 567.061 87.635Z" fill="#262250"/>
<path fill-rule="evenodd" clip-rule="evenodd" d="M470.856 192.537C464.79 189.677 457.289 194.884 457.543 201.478C457.695 205.438 460.211 208.122 463.519 210.019C464.836 210.774 466.428 211.361 467.946 211.502C473.98 212.066 478.268 205.884 477.488 200.301C477.133 197.754 476.523 195.21 470.856 192.537Z" fill="#262250"/>
<path fill-rule="evenodd" clip-rule="evenodd" d="M491.388 295.624C496.908 301.367 500.456 309.007 506.289 314.531C508.541 316.664 511.397 319.353 514.788 318.889C518.852 318.332 521.205 311.254 523.022 308.466C529.928 297.873 535.682 286.59 542.967 276.2C547.354 269.943 552.657 263.975 556.648 257.5C560.279 251.609 563.339 243.375 569.248 239.281C572.569 236.979 576.79 236.174 580.648 235.256C583.283 234.628 585.999 234.496 588.653 233.976C593.921 232.942 599.803 232.48 604.805 230.39C611.84 227.45 618.588 219.705 616.86 211.754C616.347 209.392 615.608 207.256 614.368 205.171C612.537 202.093 610.22 198.551 607.666 196.002C598.582 186.934 584.178 183.091 571.749 185.752C566.232 186.933 561.02 190.956 555.428 191.224C550.4 191.466 545.114 190.896 540.119 190.244C538.245 189.999 535.548 188.99 535.037 191.717C533.454 200.169 546.42 202.385 552.23 201.876C558.294 201.344 562.821 198.389 568.575 197.092C580.166 194.479 593.921 196.531 600.152 207.73C601.483 210.123 602.712 212.922 602.556 215.727C602.323 219.927 599.516 225.876 594.448 224.814C592.112 224.325 590.009 222.843 588.152 221.412C578.221 213.752 571.555 202.169 560.603 195.767C557.278 193.824 553.619 192.084 549.939 190.936C548.812 190.584 546.603 189.332 545.972 190.781C545.161 192.643 546.966 194.766 548.084 196.044C550.661 198.989 554.021 200.51 557.26 202.586C558.68 203.497 560.719 205.029 560.78 206.902C560.86 209.32 559.516 210.963 557.241 211.767C554.323 212.799 551.18 212.826 548.15 213.312C544.339 213.924 539.925 215.621 536.087 214.932C527.688 213.423 520.924 210.022 512.072 212.204C505.583 213.804 497.732 216.498 492.447 220.777C486.837 225.319 482.579 231.903 478.771 237.928C476.439 241.619 473.444 245.045 471.848 249.173C467.816 259.604 472.222 270.634 479.119 278.68" fill="#FFB41D"/>
<path fill-rule="evenodd" clip-rule="evenodd" d="M561.305 190.283C556.146 189.494 547.413 189.041 542.908 192.325C534.791 198.242 544.626 206.83 551.012 207.978C554.205 208.551 558.321 208.846 561.109 206.722C564.029 204.498 566.325 198.581 564.324 195.379C562.44 192.366 558.784 191.045 555.422 190.796" fill="#FFB41D"/>
<path fill-rule="evenodd" clip-rule="evenodd" d="M540.91 189.464C532.914 189.86 523.927 187.538 516.414 191.334C510.48 194.331 507.161 200.371 503.621 205.659C500.827 209.833 497.377 213.602 494.492 217.744C492.538 220.55 489.356 223.311 488.92 226.876C488.365 231.418 492.377 235.555 496.135 237.46C500.682 239.765 505.778 240.402 510.764 241.071C524.807 242.955 539.558 240.063 551.234 231.878C558.361 226.881 566.614 216.88 564.25 207.256C563.76 205.262 562.14 203.59 561.09 201.888" fill="#FFB41D"/>
<path fill-rule="evenodd" clip-rule="evenodd" d="M521.39 232.763C523.155 231.009 526.596 230.722 529.013 230.111C530.66 229.695 532.317 229.516 534.017 229.601C535.702 229.685 537.905 230.016 539.203 231.192C541.066 232.88 538.926 235.513 537.278 236.248C533.978 237.72 529.276 236.679 525.907 235.731C524.718 235.397 523.818 235.269 522.311 234.562C521.343 234.108 521.215 233.831 521.39 232.763Z" fill="#315FAA"/>
<path fill-rule="evenodd" clip-rule="evenodd" d="M516.619 240.237C516.454 238.616 516.139 237.064 515.404 235.593C514.602 233.986 513.366 231.985 511.795 231.028C509.101 229.387 505.002 230.204 502.49 231.826C500.455 233.14 499.279 234.87 497.835 236.74C495.656 239.56 493.516 242.008 492.546 245.501C491.832 248.071 490.878 250.877 492.267 253.421C493.243 255.209 494.675 257.103 496.711 257.709C498.634 258.281 500.842 257.847 502.676 258.695C504.93 259.739 506.105 261.969 507.899 263.548C510.589 265.913 515.361 266.566 518.419 264.588C521.164 262.812 521.141 259.426 518.983 257.186C517.988 256.154 516.531 255.73 515.532 254.713C514.364 253.523 514.268 251.367 515.533 250.205C515.861 249.903 516.257 249.658 516.654 249.46C519.498 248.039 521.24 251.227 523.106 252.655C524.292 253.563 526.146 254.165 527.633 253.815C528.313 253.655 528.964 253.332 529.561 252.976C530.112 252.647 530.735 252.28 531.131 251.761C533.306 248.91 531.211 245.468 528.92 243.475C526.858 241.681 524.171 240.919 521.481 240.69C520.364 240.595 518.112 240.283 516.619 240.237Z" fill="#315FAA"/>
<path fill-rule="evenodd" clip-rule="evenodd" d="M583.391 278.638C585.046 280.105 588.277 279.26 590.602 278.799C592.314 278.459 594.1 277.759 595.758 277.22C597.599 276.622 599.822 275.077 600.622 273.258C601.072 272.234 601.136 270.896 600.198 270.128C599.825 269.822 599.331 269.595 598.89 269.402C597.535 268.811 596.142 268.824 594.715 269.029C591.4 269.505 588.623 271.408 586.232 273.69C585.052 274.817 582.435 276.799 583.391 278.638Z" fill="#315FAA"/>
<path fill-rule="evenodd" clip-rule="evenodd" d="M578.04 285.219C576.815 283.016 574.68 280.486 572.323 279.453C568.167 277.63 563.208 279.706 560.071 282.545C557.611 284.772 556.583 287.595 555.739 290.688C554.939 293.618 554.248 297.475 556.184 300.159C557.212 301.583 558.751 302.858 560.457 303.383C562.513 304.016 564.645 303.891 566.676 304.673C568.759 305.476 570.247 307.169 572.015 308.457C574.096 309.973 576.443 310.81 579.034 310.643C579.938 310.584 580.718 310.467 581.531 310.048C582.415 309.592 583.294 309.017 584.014 308.327C586.4 306.038 585.541 303.164 583.075 301.407C580.894 299.854 575.535 299.646 575.968 295.822C576.014 295.416 576.131 295.021 576.298 294.648C577.242 292.547 579.567 292.12 581.538 292.948C582.796 293.477 583.746 294.527 584.993 295.03C586.815 295.765 589.4 295.567 590.835 294.118C591.3 293.648 591.562 292.913 591.801 292.309C592.278 291.104 591.867 289.574 591.275 288.493C589.06 284.454 581.801 284.61 578.04 285.219Z" fill="#315FAA"/>
<path fill-rule="evenodd" clip-rule="evenodd" d="M455.672 125.809C453.119 127.712 450.972 130.379 448.352 133.275C447.266 134.476 445.872 136.27 445.183 137.767C442.41 143.794 441.611 175.681 449.053 171.844C452.078 170.284 474.197 146.284 474.727 141.484C475.235 136.895 462.622 120.63 455.672 125.809Z" fill="#97B5E9"/>
<path fill-rule="evenodd" clip-rule="evenodd" d="M481.886 96.7371C477.115 100.386 465.308 112.962 464.083 115.425C461.416 120.786 475.464 135.686 482.206 133.438C486.026 132.165 500.034 113.291 500.527 111.81C501.277 109.555 500.654 106.795 500.985 104.436C501.247 102.569 505.14 99.1182 503.599 97.5102C500.864 94.6562 486.703 93.0531 481.886 96.7371Z" fill="#97B5E9"/>
<path fill-rule="evenodd" clip-rule="evenodd" d="M519.531 62.5454C513.892 64.2574 507.956 66.2074 503.393 70.1094C498.583 74.2224 484.59 89.4734 487.785 90.4224C488.228 90.5544 508.612 89.8724 511.409 88.8084C513.929 87.8504 535.115 64.0424 535.515 63.6544C536.837 62.3734 541.522 57.2984 536.704 57.5764C536.125 57.6104 529.508 59.1764 528.215 59.8544" fill="#97B5E9"/>
<path fill-rule="evenodd" clip-rule="evenodd" d="M511.832 95.5755C506.409 92.0855 499.612 95.7345 496.621 101.427C495.07 104.376 494.018 107.852 496.437 110.682C498.269 112.823 501.814 112.448 504.255 111.914C509.567 110.751 515.151 106.843 516.355 101.237C516.612 100.036 516.382 98.9545 516.329 97.7505C516.264 96.2705 516.962 94.3515 515.73 93.1655C513.764 91.2745 512.526 94.2415 511.832 95.5755Z" fill="#1C1C1C"/>
<path fill-rule="evenodd" clip-rule="evenodd" d="M325.325 163.457C323.221 160.961 322.052 157.814 320.702 154.879C317.507 147.929 315.089 140.71 311.974 133.754C308.659 126.353 305.538 118.863 302.213 111.465C298.813 103.898 295.04 96.1917 290.945 88.9757C287.602 83.0867 283.583 77.2427 281.342 70.8267C279.614 65.8807 275.601 61.3207 278.403 55.9697C280.395 52.1667 287.145 49.5807 290.898 48.5927C293.667 47.8647 298.862 46.3217 301.77 46.2607C305.284 46.1887 305.241 48.9747 306.644 51.7687C308.898 56.2577 309.743 59.2977 312.813 63.3377C315.268 66.5687 319.333 70.1787 322.712 72.2567C330.697 77.1687 339.689 79.6307 349.027 77.4497C362.932 74.2027 368.128 61.6237 365.686 48.2727C364.557 42.1027 360.89 35.3607 361.524 28.8667C361.742 26.6257 365.391 25.9267 367.04 25.6707C371.476 24.9817 375.919 24.5057 380.361 23.8737C382.464 23.5747 385.168 22.6697 387.23 23.6087C390.208 24.9647 391.461 28.8757 392.312 31.7437C394.474 39.0237 395.155 46.7697 397.226 54.0507C400.173 64.4097 402.466 74.6127 404.784 85.1037C406.114 91.1277 407.774 97.1597 408.498 103.302C410.594 121.078 411.918 138.882 413.12 156.721C413.536 162.89 414.046 166.673 414.215 172.98C414.314 176.669 414.657 180.972 415.12 187.686C415.343 190.928 415.878 194.665 413.327 197.111C411.411 198.949 406.741 198.889 404.185 199.228C403.535 199.314 402.173 199.672 401.617 199.246C399.099 197.315 398.029 193.157 396.765 190.398C392.767 181.67 386.066 170.484 374.526 173.869C369.536 175.332 364.913 178.685 362.758 183.517C360.271 189.092 361.385 194.545 361.9 200.293C362.046 201.924 363.322 205.707 362.713 207.202C361.572 210.002 356.844 210.425 354.326 210.942C349.489 211.933 343.538 214.47 340.838 209.049C340.101 207.567 339.641 205.956 339.028 204.421C338.352 202.727 337.868 200.939 337.394 199.176" fill="#FE609D"/>
<mask id="mask2_2645_33375" style="mask-type:luminance" maskUnits="userSpaceOnUse" x="277" y="23" width="139" height="190">
<path d="M325.325 163.457C323.221 160.961 322.052 157.814 320.702 154.879C317.507 147.929 315.089 140.71 311.974 133.754C308.659 126.353 305.538 118.863 302.213 111.465C298.813 103.898 295.04 96.1917 290.945 88.9757C287.602 83.0867 283.583 77.2427 281.342 70.8267C279.614 65.8807 275.601 61.3207 278.403 55.9697C280.395 52.1667 287.145 49.5807 290.898 48.5927C293.667 47.8647 298.862 46.3217 301.77 46.2607C305.284 46.1887 305.241 48.9747 306.644 51.7687C308.898 56.2577 309.743 59.2977 312.813 63.3377C315.268 66.5687 319.333 70.1787 322.712 72.2567C330.697 77.1687 339.689 79.6307 349.027 77.4497C362.932 74.2027 368.128 61.6237 365.686 48.2727C364.557 42.1027 360.89 35.3607 361.524 28.8667C361.742 26.6257 365.391 25.9267 367.04 25.6707C371.476 24.9817 375.919 24.5057 380.361 23.8737C382.464 23.5747 385.168 22.6697 387.23 23.6087C390.208 24.9647 391.461 28.8757 392.312 31.7437C394.474 39.0237 395.155 46.7697 397.226 54.0507C400.173 64.4097 402.466 74.6127 404.784 85.1037C406.114 91.1277 407.774 97.1597 408.498 103.302C410.594 121.078 411.918 138.882 413.12 156.721C413.536 162.89 414.046 166.673 414.215 172.98C414.314 176.669 414.657 180.972 415.12 187.686C415.343 190.928 415.878 194.665 413.327 197.111C411.411 198.949 406.741 198.889 404.185 199.228C403.535 199.314 402.173 199.672 401.617 199.246C399.099 197.315 398.029 193.157 396.765 190.398C392.767 181.67 386.066 170.484 374.526 173.869C369.536 175.332 364.913 178.685 362.758 183.517C360.271 189.092 361.385 194.545 361.9 200.293C362.046 201.924 363.322 205.707 362.713 207.202C361.572 210.002 356.844 210.425 354.326 210.942C349.489 211.933 343.538 214.47 340.838 209.049C340.101 207.567 339.641 205.956 339.028 204.421C338.352 202.727 337.868 200.939 337.394 199.176" fill="white"/>
</mask>
<g mask="url(#mask2_2645_33375)">
<path fill-rule="evenodd" clip-rule="evenodd" d="M332.176 118.94C336.862 114.325 341.566 109.65 345.689 104.619C347.036 102.975 348.294 101.23 349.445 99.4385C349.83 98.4235 350.546 96.6465 351.065 96.0255C352.8 93.9515 355.049 92.9105 358.099 93.4215C359.905 93.7235 362.322 94.8745 363.992 97.8105C365.488 100.44 366.841 106.663 367.148 107.988C369.167 116.683 370.694 125.682 371.768 134.549C371.807 134.871 371.843 135.193 371.877 135.515C378.735 128.762 384.124 118.921 387.606 111.104C388.403 109.313 389.683 108.159 391.276 107.47C392.506 106.937 394.172 106.576 396.226 107.198C396.914 107.406 398.126 107.933 399.406 109.011C401.11 110.445 403.848 113.677 404 113.913C407.119 118.772 408.515 124.605 410.973 129.793C416.833 142.164 423.734 153.919 429.59 166.234C431.253 169.732 429.763 173.923 426.265 175.586C422.767 177.25 418.575 175.76 416.911 172.262C411.053 159.94 404.15 148.18 398.286 135.802C397.009 133.104 396.102 130.19 395.021 127.367C388.544 138.513 379.382 149.846 368.916 154.533C366.776 155.491 365.018 155.256 363.64 154.786C362.311 154.332 361.152 153.535 360.234 152.312C359.573 151.432 358.801 146.625 358.801 146.625C358.801 146.625 358.815 147.219 358.841 147.434C358.727 146.491 358.613 145.553 358.531 144.606C358.29 141.818 358.17 139.016 357.833 136.237C357.014 129.472 355.917 122.625 354.52 115.915C348.875 122.417 342.437 128.423 336.414 134.504C335.333 135.594 331.776 139.668 329.291 141.057C326.955 142.363 324.729 142.495 323.012 142.107C321.22 141.703 319.029 140.604 317.854 137.641C317.582 136.954 317.286 135.817 317.215 134.392C317.126 132.616 317.418 129.073 317.457 128.61C317.741 122.055 318.608 115.461 318.617 108.897C318.307 109.094 318.009 109.273 317.724 109.429C308.507 114.488 299.105 119.69 289.289 123.475C285.675 124.869 281.61 123.066 280.216 119.452C278.822 115.838 280.625 111.772 284.239 110.378C293.474 106.817 302.3 101.883 310.971 97.1235C312.382 96.3495 314.183 94.7505 316.013 93.5525C318.362 92.0145 320.802 90.9955 322.929 90.7545C325.582 90.4555 329.179 91.4025 331.023 95.8945C332.183 98.7215 332.617 106.141 332.635 106.939C332.723 110.931 332.474 114.936 332.176 118.94Z" fill="#FE498F"/>
<path fill-rule="evenodd" clip-rule="evenodd" d="M323.893 185.728C321.122 188.435 316.674 188.382 313.968 185.61C311.262 182.839 311.315 178.391 314.086 175.685C324.057 165.948 339.515 163.554 353.222 167.48C367.047 171.441 378.773 181.696 381.484 196C382.206 199.806 379.701 203.482 375.896 204.203C372.09 204.925 368.414 202.42 367.693 198.614C365.974 189.55 358.117 183.485 349.356 180.975C340.477 178.432 330.353 179.421 323.893 185.728Z" fill="#FE498F"/>
<path fill-rule="evenodd" clip-rule="evenodd" d="M350.159 59.2346C347.471 56.4446 347.553 51.9986 350.342 49.3106C353.132 46.6226 357.579 46.7046 360.267 49.4936C364.605 53.9956 372.171 56.0986 379.417 55.8986C386.215 55.7116 393.012 53.5446 396.236 48.1026C398.21 44.7696 402.519 43.6666 405.852 45.6416C409.185 47.6156 410.287 51.9246 408.313 55.2576C402.736 64.6706 391.562 69.6066 379.803 69.9306C368.494 70.2416 356.93 66.2606 350.159 59.2346Z" fill="#FE498F"/>
<path fill-rule="evenodd" clip-rule="evenodd" d="M311.704 56.9209C313.348 53.4129 317.531 51.9009 321.038 53.5459C324.545 55.1899 326.058 59.3729 324.413 62.8799C321.372 69.3659 316.591 75.0719 310.678 79.1899C307.499 81.4029 303.121 80.6189 300.907 77.4409C298.694 74.2619 299.478 69.8839 302.656 67.6699C306.553 64.9569 309.7 61.1939 311.704 56.9209Z" fill="#FE498F"/>
</g>
<path fill-rule="evenodd" clip-rule="evenodd" d="M343.176 125.559C334.197 120.859 324.137 127.472 322.55 136.887C321.842 141.084 322.357 146.646 326.01 149.351C331.321 153.284 338.986 154.421 344.797 150.631C352.39 145.677 356.608 135.421 343.176 125.559Z" fill="#774A9C"/>
<path fill-rule="evenodd" clip-rule="evenodd" d="M358.158 122.162C356.145 127.937 356.712 138.698 363.01 141.846C365.651 143.166 368.982 143.078 371.861 143.136C379.472 143.29 387.44 140.213 393.723 136.109C395.714 134.809 398.006 133.365 399.37 131.368C400.42 129.83 400.454 127.888 400.294 126.107C399.909 121.832 398.274 115.481 393.953 113.564C388.022 110.932 381.359 112.041 375.34 113.478C372.719 114.103 370.193 114.784 367.922 116.31" fill="#FAAE0B"/>
<mask id="mask3_2645_33375" style="mask-type:luminance" maskUnits="userSpaceOnUse" x="357" y="111" width="44" height="33">
<path d="M358.158 122.162C356.145 127.937 356.712 138.698 363.01 141.846C365.651 143.166 368.982 143.078 371.861 143.136C379.472 143.29 387.44 140.213 393.723 136.109C395.714 134.809 398.006 133.365 399.37 131.368C400.42 129.83 400.454 127.888 400.294 126.107C399.909 121.832 398.274 115.481 393.953 113.564C388.022 110.932 381.359 112.041 375.34 113.478C372.719 114.103 370.193 114.784 367.922 116.31" fill="white"/>
</mask>
<g mask="url(#mask3_2645_33375)">
<path fill-rule="evenodd" clip-rule="evenodd" d="M366.021 122.711C366.101 128.625 367.322 134.851 368.604 140.608C368.88 141.845 369.436 146.558 371.774 145.373C373.91 144.29 373.479 140.125 373.477 138.228C373.47 131.881 371.497 125.98 370.703 119.771" fill="#FAFAFA"/>
<path fill-rule="evenodd" clip-rule="evenodd" d="M377.74 119.682C378.071 123.029 378.409 126.319 378.898 129.647C379.19 131.634 379.41 133.598 379.86 135.558C380.375 137.803 380.846 140.923 382.42 142.71C383.198 143.594 384.187 143.109 384.87 142.285C385.657 141.336 385.663 139.897 385.62 138.732C385.366 131.776 383.947 124.563 382.368 117.803" fill="#FAFAFA"/>
<path fill-rule="evenodd" clip-rule="evenodd" d="M388.556 115.832C390.56 121.256 390.517 127.256 391.608 132.903C391.972 134.787 392.088 137.973 393.724 139.31C394.493 139.939 395.483 139.126 395.86 138.445C396.687 136.95 396.437 134.956 396.347 133.329C396.112 129.063 395.906 124.705 395.035 120.511C394.588 118.358 393.768 116.325 393.131 114.228" fill="#FAFAFA"/>
</g>
<path fill-rule="evenodd" clip-rule="evenodd" d="M370.854 105.78C369.671 108.601 367.3 110.996 365.211 113.169C363.23 115.229 361.403 117.417 359.331 119.401C357.944 120.729 355.992 122.166 354.895 123.761C354.756 123.963 358.488 122.697 359.709 122.844C362.511 123.18 366.674 127.082 366.845 126.797C368.213 124.526 370.918 123.099 371.858 122.689C373.866 121.814 379.589 123.992 380 124.214C380.046 124.239 383.375 119.572 385.473 118.797C387.763 117.951 392.18 119.404 392.348 119.174C393.963 116.969 394.844 115.784 396.093 115.104C396.669 114.79 401.394 114.902 400.702 114.896C400.096 114.891 383.29 107.457 378.358 105.179C375.387 103.806 373.521 101.261 370.854 105.78Z" fill="#ED2736"/>
<path fill-rule="evenodd" clip-rule="evenodd" d="M344.338 123.572C352.932 125.489 355.836 134.3 353.084 142.652C350.777 149.653 342.628 153.847 335.787 153.992C333.425 154.044 330.671 153.695 328.561 152.499C327.044 151.64 325.926 150.617 324.81 149.258C323.341 147.468 322.156 145.077 321.836 142.85C320.859 136.03 323.832 129.138 329.435 125.441C335.702 121.305 338.828 122.344 344.338 123.572ZM342.593 131.395C339.375 130.677 337.511 129.715 333.849 132.13C330.778 134.158 329.235 137.973 329.771 141.712C329.895 142.58 330.433 143.476 331.006 144.172C331.462 144.728 331.894 145.175 332.514 145.526C333.41 146.034 334.612 146.001 335.616 145.979C339.404 145.899 344.194 144.02 345.471 140.144C346.679 136.479 346.364 132.236 342.593 131.395Z" fill="#583773"/>
<path fill-rule="evenodd" clip-rule="evenodd" d="M214.457 196.252C211.309 195.034 207.854 193.596 204.45 193.388C195.292 192.827 184.582 197.23 179.693 205.207C178.413 207.297 176.997 209.82 176.864 212.333C176.756 214.378 177.769 216.512 178.295 218.468C181.124 228.983 190.753 237.864 200.529 241.931C210.192 245.951 221.428 248.984 231.906 249.252C237.913 249.406 243.973 248.432 249.829 247.211C254.567 246.224 260.197 245.513 264.398 242.985C275.146 236.516 287.238 220.141 276.379 208.721C271.359 203.442 265.607 206.263 259.623 207.876C257.235 208.52 254.56 208.594 252.104 208.861C243.805 209.761 234.732 206.454 227.26 203.111" fill="#ED2736"/>
<path fill-rule="evenodd" clip-rule="evenodd" d="M195.916 193.396C195.247 196.619 193.706 200.616 194.323 203.93C194.819 206.592 196.58 208.103 198.661 209.63C202.754 212.635 208.41 214.011 213.281 212.009C214.899 211.345 216.226 210.167 217.513 209.015C221.232 205.688 222.747 200.406 218.114 197.153C217.14 196.47 215.96 196.142 214.825 195.835C212.407 195.181 210.181 194.139 207.696 193.703" fill="white"/>
<path fill-rule="evenodd" clip-rule="evenodd" d="M219.312 198.789C216.541 204.06 214.526 213.308 219.218 218.142C220.345 219.304 222.081 220.02 223.539 220.635C224.901 221.21 226.117 221.903 227.639 221.98C235.027 222.355 241.031 216.138 240.883 208.746" fill="white"/>
<path fill-rule="evenodd" clip-rule="evenodd" d="M239.623 207.931C239.265 210.092 239.133 212.282 238.804 214.447C238.59 215.854 238.119 217.488 238.683 218.877C240.879 224.285 249.938 225.4 254.201 222.28C258.2 219.353 257.963 212.312 255.282 208.645" fill="white"/>
<path fill-rule="evenodd" clip-rule="evenodd" d="M254.838 208.96C255.291 212.684 256.063 216.22 259.28 218.537C260.446 219.377 262.181 219.553 263.563 219.541C264.804 219.529 266.115 219.458 267.287 219.018C272.536 217.047 272.05 210.269 270.318 206.042" fill="white"/>
<path fill-rule="evenodd" clip-rule="evenodd" d="M182.621 228.232C183.735 226.863 185.143 225.938 186.481 224.814C187.934 223.593 189.146 222.247 190.821 221.303C198.101 217.202 210.215 217.927 213.767 226.834C215.61 231.454 213.189 236.079 211.598 240.377C211.285 241.222 210.735 244.043 209.767 244.428C208.764 244.827 207.543 244.491 206.552 244.219C204.49 243.653 202.543 242.847 200.598 241.964C197.897 240.737 195.46 239.087 193.059 237.353" fill="white"/>
<path fill-rule="evenodd" clip-rule="evenodd" d="M208.26 245.184C210.06 241.697 212.591 239.018 215.126 236.079C219.714 230.761 227.597 228.099 232.871 233.989C235.81 237.27 236.122 240.89 235.166 244.947C234.957 245.832 234.877 247.626 234.003 248.158C232.966 248.79 231.531 248.821 230.359 248.804C227.875 248.768 225.432 248.427 222.962 248.197" fill="white"/>
<path fill-rule="evenodd" clip-rule="evenodd" d="M230.971 249.59C231.71 246.488 232.92 243.691 234.501 240.934C236.476 237.493 240.856 232.351 245.446 233.664C249.263 234.756 251.377 238.622 252.419 242.126C252.794 243.387 253.534 245.128 252.694 246.356C251.094 248.695 247.046 248.66 244.622 249.125" fill="white"/>
<path fill-rule="evenodd" clip-rule="evenodd" d="M250.979 247.647C250.88 244.504 250.095 241.386 251.491 238.391C253.333 234.441 256.643 230.92 261.372 231.605C264.087 231.998 265.734 233.966 267.153 236.092C267.563 236.705 268.535 237.851 268.216 238.671C267.955 239.341 267.264 239.866 266.745 240.334C265.12 241.802 262.712 243.112 260.754 244.061" fill="white"/>
<path fill-rule="evenodd" clip-rule="evenodd" d="M261.185 133.192C258.774 133.035 253.861 133.602 251.986 133.867C246.421 134.653 240.212 138.151 237.198 143.144C234.519 147.581 233.884 154.748 238.963 157.769C239.927 158.342 240.99 158.766 242.088 159.005C248.159 160.325 255 158.302 260.618 156.049C263.606 154.851 266.652 153.502 268.995 151.19C270.172 150.028 271.404 148.7 272.205 147.246C272.785 146.193 273.167 145.048 273.41 143.873C273.606 142.93 273.717 142.003 273.601 141.041C272.891 135.153 263.45 133.339 261.185 133.192Z" fill="white"/>
<path fill-rule="evenodd" clip-rule="evenodd" d="M211.358 145.27C201.793 142.165 191.418 144.627 184.219 151.601C180.831 154.883 178.123 160.487 179.999 165.237C180.704 167.025 182.154 168.666 183.58 169.911C184.641 170.837 185.833 171.731 187.156 172.246C193.483 174.705 200.876 172.371 206.896 170.102C210.164 168.87 213.434 167.368 216.043 164.987C217.625 163.543 219.601 161.862 220.493 159.871C223.06 154.144 218.845 147.7 211.358 145.27Z" fill="white"/>
<path fill-rule="evenodd" clip-rule="evenodd" d="M200.222 150.639C203.708 150.884 207.389 154.075 205.638 158.148C204.486 160.828 202.119 162.319 199.314 162.598C197.988 162.73 196.716 162.58 195.524 161.931C191.95 159.984 191.911 154.948 194.56 152.35C196.019 150.919 198.198 150.354 200.222 150.639Z" fill="black"/>
<path fill-rule="evenodd" clip-rule="evenodd" d="M248.889 141.656C249.883 140.179 251.39 139.013 253.102 138.602C254.426 138.285 256.101 138.533 257.488 139.309C259.017 140.165 260.112 141.602 260.375 143.156C260.572 144.321 260.375 145.641 259.938 146.728C259.459 147.917 258.736 148.942 257.689 149.704C255.138 151.56 252.177 151.145 250.158 149.7C249.067 148.919 248.279 147.841 247.893 146.682C247.735 146.319 247.647 145.919 247.644 145.5C247.642 145.477 247.64 145.454 247.638 145.431C247.545 144.191 247.846 142.838 248.889 141.656Z" fill="black"/>
<path fill-rule="evenodd" clip-rule="evenodd" d="M236.414 165.516C235.487 164.902 235.233 163.65 235.847 162.723C236.461 161.796 237.713 161.542 238.64 162.156C242.161 164.489 244.67 167.491 246.769 171.116C248.422 173.971 249.504 177.464 249.576 180.786C249.639 183.651 249.341 186.727 248.16 189.371C247.163 191.602 245.427 194.548 243.438 196.021C238.668 199.554 231.044 197.67 227.705 193.064C224.551 188.712 223.724 182.671 225.782 177.682C226.206 176.653 227.385 176.162 228.413 176.586C229.441 177.01 229.932 178.189 229.508 179.218C227.972 182.943 228.614 187.449 230.969 190.698C233.113 193.657 237.975 195.052 241.039 192.782C242.531 191.677 243.732 189.4 244.48 187.727C245.422 185.619 245.596 183.158 245.547 180.874C245.488 178.214 244.604 175.422 243.28 173.136C241.501 170.063 239.399 167.494 236.414 165.516Z" fill="black"/>
<path fill-rule="evenodd" clip-rule="evenodd" d="M260.473 205.548C266.559 203.251 272.498 202.287 277.934 207.189C279.153 208.288 280.112 209.76 280.98 211.138C282.149 212.995 282.378 215.206 282.402 217.343C282.431 220.087 282.12 222.758 281.328 225.392C278.222 235.712 267.391 243.994 257.775 247.661C242.202 253.6 223.243 251.308 207.779 246.296C201.467 244.251 195.176 241.954 189.752 237.997C184.577 234.222 180.054 229.511 177.615 223.45C173.732 213.8 176.415 202.926 184.804 196.629C190.684 192.216 200.246 190.02 207.448 191.768C214.157 193.396 220.775 197.577 226.933 200.58C233.897 203.977 242.242 207.715 250.16 207.627C253.657 207.588 257.148 206.592 260.473 205.548ZM262.623 209.049C262.502 209.118 262.372 209.174 262.234 209.218C262.088 209.264 261.941 209.31 261.795 209.356C261.769 209.366 261.743 209.377 261.716 209.387C261.616 209.425 261.514 209.454 261.412 209.476C257.797 210.6 253.999 211.616 250.205 211.658C241.683 211.754 232.662 207.858 225.167 204.202C219.257 201.32 212.935 197.248 206.498 195.686C200.365 194.198 192.23 196.095 187.223 199.853C180.318 205.036 178.157 214.001 181.354 221.945C183.508 227.297 187.558 231.407 192.127 234.741C197.204 238.444 203.114 240.548 209.021 242.462C223.659 247.205 241.599 249.516 256.339 243.895C264.902 240.629 274.702 233.419 277.468 224.229C278.142 221.99 278.396 219.72 278.371 217.387C278.356 215.984 278.337 214.505 277.569 213.286C276.893 212.213 276.184 211.038 275.235 210.182C271.307 206.641 267.011 207.459 262.623 209.049Z" fill="black"/>
<path fill-rule="evenodd" clip-rule="evenodd" d="M192.817 200.589C193.024 199.496 194.079 198.776 195.172 198.983C196.265 199.189 196.984 200.244 196.778 201.337C195.928 205.833 199.102 209.124 202.952 210.465C206.87 211.829 211.642 211.273 214.034 207.571C214.637 206.637 215.886 206.368 216.82 206.972C217.754 207.575 218.023 208.824 217.419 209.758C213.989 215.068 207.245 216.228 201.627 214.271C195.941 212.291 191.562 207.227 192.817 200.589Z" fill="black"/>
<path fill-rule="evenodd" clip-rule="evenodd" d="M214.652 208.462C214.617 207.35 215.49 206.419 216.602 206.383C217.714 206.347 218.645 207.221 218.681 208.333C218.763 210.881 218.36 213.288 219.819 215.541C223.491 221.212 231.791 222.64 235.619 216.405C236.202 215.457 237.444 215.16 238.392 215.742C239.339 216.324 239.636 217.566 239.054 218.514C233.578 227.432 221.687 225.842 216.436 217.732C214.548 214.817 214.758 211.759 214.652 208.462Z" fill="black"/>
<path fill-rule="evenodd" clip-rule="evenodd" d="M235.712 217.27C235.375 216.21 235.963 215.076 237.024 214.74C238.084 214.404 239.218 214.992 239.554 216.052C240.271 218.313 240.796 220.323 242.867 221.72C247.505 224.847 253.965 222.898 254.748 217.155C254.898 216.052 255.915 215.28 257.017 215.43C258.119 215.58 258.892 216.597 258.742 217.699C257.538 226.529 247.743 229.869 240.614 225.062C237.71 223.103 236.717 220.441 235.712 217.27Z" fill="black"/>
<path fill-rule="evenodd" clip-rule="evenodd" d="M256.033 218.479C255.255 217.684 255.268 216.407 256.063 215.629C256.858 214.851 258.135 214.864 258.913 215.659C260.324 217.099 262.268 218.296 264.363 218.173C266.417 218.051 268.254 216.323 267.556 214.275C267.198 213.222 267.761 212.076 268.814 211.717C269.867 211.359 271.013 211.922 271.372 212.975C272.956 217.625 269.265 221.921 264.6 222.196C261.341 222.389 258.228 220.72 256.033 218.479Z" fill="black"/>
<path fill-rule="evenodd" clip-rule="evenodd" d="M186.909 226.274C186.126 227.064 184.849 227.069 184.059 226.286C183.269 225.502 183.264 224.225 184.047 223.435C188.38 219.066 194.496 216.251 200.754 216.894C204.15 217.244 207.925 218.177 210.673 220.298C216.362 224.688 217.696 232.453 214.904 238.763C214.454 239.78 213.262 240.24 212.245 239.79C211.228 239.34 210.768 238.148 211.218 237.131C213.277 232.478 212.406 226.726 208.211 223.489C206.04 221.813 203.024 221.18 200.341 220.904C195.296 220.385 190.403 222.751 186.909 226.274Z" fill="black"/>
<path fill-rule="evenodd" clip-rule="evenodd" d="M215.263 239.773C214.689 240.725 213.449 241.031 212.496 240.457C211.544 239.882 211.238 238.641 211.813 237.689C213.941 234.163 217.087 230.247 221.244 229.064C225.784 227.773 229.912 228.919 232.6 231.457C235.318 234.022 236.64 238.051 235.345 242.676C235.046 243.747 233.933 244.374 232.861 244.075C231.79 243.775 231.164 242.661 231.464 241.59C232.291 238.633 231.571 236.027 229.833 234.387C228.067 232.72 225.33 232.092 222.347 232.94C219.146 233.851 216.902 237.058 215.263 239.773Z" fill="black"/>
<path fill-rule="evenodd" clip-rule="evenodd" d="M235.785 243.171C235.362 244.2 234.184 244.693 233.155 244.271C232.126 243.849 231.633 242.671 232.055 241.641C233.367 238.443 234.946 235.167 237.9 233.13C243.595 229.205 250.397 232.484 252.746 238.343C253.16 239.376 252.658 240.55 251.625 240.964C250.593 241.378 249.419 240.876 249.005 239.843C247.594 236.325 243.607 234.092 240.188 236.449C237.889 238.034 236.806 240.682 235.785 243.171Z" fill="black"/>
<path fill-rule="evenodd" clip-rule="evenodd" d="M253.305 239.794C253.079 240.883 252.011 241.584 250.922 241.358C249.833 241.132 249.133 240.064 249.359 238.975C250.046 235.665 252.733 232.435 255.936 230.879C259.426 229.183 263.425 229.367 266.274 232.938C266.968 233.807 266.825 235.077 265.956 235.77C265.086 236.464 263.817 236.321 263.123 235.452C261.635 233.586 259.521 233.619 257.697 234.505C255.586 235.53 253.758 237.613 253.305 239.794Z" fill="black"/>
<path fill-rule="evenodd" clip-rule="evenodd" d="M265.145 92.1282C264.022 90.8902 264.115 88.9742 265.353 87.8512C266.59 86.7272 268.507 86.8202 269.63 88.0582C282.566 102.313 286.416 121.389 290.595 139.496C294.152 154.905 298.709 171.581 300.266 188.118C301.868 205.142 300.297 222.013 291.543 237.312C286.992 245.265 279.804 251.792 272.501 257.162C267.91 260.538 263.117 264.134 257.896 266.53C251.738 269.357 245.399 270.444 238.794 271.733C228.892 273.666 219.159 274.85 209.091 273.689C198.263 272.44 184.699 269.294 176.839 261.098C175.682 259.892 175.722 257.973 176.928 256.817C178.134 255.66 180.053 255.7 181.21 256.906C188.142 264.135 200.235 266.571 209.785 267.672C219.225 268.761 228.349 267.602 237.633 265.789C243.76 264.593 249.657 263.648 255.37 261.026C260.22 258.8 264.648 255.42 268.913 252.283C275.551 247.402 282.15 241.533 286.286 234.304C294.4 220.125 295.721 204.464 294.236 188.685C292.705 172.417 288.193 156.017 284.694 140.858C280.743 123.743 277.373 105.603 265.145 92.1282Z" fill="black"/>
<path fill-rule="evenodd" clip-rule="evenodd" d="M119.934 145.15C121.569 145.496 122.616 147.104 122.271 148.739C121.925 150.374 120.317 151.421 118.682 151.075C111.076 149.468 101.781 150.106 95.8935 155.828C85.9165 165.526 84.1755 185.281 99.4395 190.413C103.575 191.804 108.552 192.084 112.878 191.782C117.734 191.444 123.162 190.864 127.593 188.721C129.097 187.993 130.909 188.624 131.637 190.128C132.365 191.633 131.734 193.445 130.23 194.173C125.124 196.643 118.895 197.434 113.3 197.824C108.215 198.179 102.37 197.788 97.5095 196.154C77.7305 189.503 78.7445 164.052 91.6725 151.485C98.9965 144.366 110.471 143.15 119.934 145.15Z" fill="black"/>
<path fill-rule="evenodd" clip-rule="evenodd" d="M122.324 175.663C123.989 175.8 125.23 177.264 125.093 178.93C124.956 180.595 123.492 181.836 121.826 181.699C117.779 181.365 113.791 180.723 111.242 177.199C106.229 170.271 110.617 159.241 119.501 159.095C121.172 159.067 122.551 160.402 122.579 162.073C122.607 163.744 121.272 165.123 119.601 165.15C117.66 165.182 116.279 166.472 115.614 168.075C114.887 169.83 114.95 171.993 116.149 173.649C116.866 174.642 117.891 175.021 118.973 175.256C120.049 175.489 121.191 175.57 122.324 175.663Z" fill="black"/>
<path fill-rule="evenodd" clip-rule="evenodd" d="M121.965 158.82C123.484 159.517 124.152 161.316 123.456 162.835C122.759 164.354 120.96 165.022 119.441 164.326C114.45 162.038 108.68 161.84 105.394 166.886C104.481 168.286 102.604 168.683 101.204 167.771C99.8027 166.859 99.4067 164.981 100.319 163.581C105.419 155.749 114.219 155.269 121.965 158.82Z" fill="black"/>
<path fill-rule="evenodd" clip-rule="evenodd" d="M127.562 235.411C127.594 237.082 126.264 238.465 124.593 238.497C122.922 238.529 121.539 237.199 121.507 235.528C121.276 223.572 122.679 209.919 118.979 198.328C118.471 196.736 119.351 195.031 120.943 194.522C122.536 194.014 124.241 194.894 124.749 196.487C128.621 208.619 127.321 222.897 127.562 235.411Z" fill="black"/>
<path fill-rule="evenodd" clip-rule="evenodd" d="M257.957 64.773C257.588 65.822 256.436 66.374 255.387 66.004C254.338 65.634 253.786 64.482 254.156 63.433C255.057 60.876 255.956 58.173 256.08 55.443C256.647 42.923 247.976 33.573 238.686 26.604C232.61 22.046 225.224 17.803 217.399 17.737C213.941 17.707 211.048 18.484 208.963 20.203C206.928 21.882 205.724 24.446 205.43 27.849C205.285 29.523 205.22 31.314 205.692 32.943C206.285 34.986 207.63 36.573 208.898 38.237C209.573 39.122 209.402 40.388 208.517 41.062C207.633 41.736 206.367 41.565 205.693 40.681C204.122 38.619 202.555 36.596 201.821 34.066C201.212 31.965 201.227 29.66 201.414 27.501C201.818 22.839 203.61 19.393 206.398 17.094C209.136 14.836 212.891 13.668 217.434 13.706C226.11 13.78 234.367 18.325 241.104 23.379C251.429 31.124 260.737 41.712 260.107 55.626C259.965 58.747 258.988 61.85 257.957 64.773Z" fill="black"/>
<path fill-rule="evenodd" clip-rule="evenodd" d="M208.072 18.4956C208.796 19.3396 208.698 20.6136 207.853 21.3376C207.009 22.0616 205.736 21.9636 205.012 21.1186C194.435 8.78263 176.326 1.90061 160.167 4.61161C157.73 5.02061 155.313 5.43561 153.061 6.49961C149.992 7.94861 147.032 10.4986 145.283 13.5616C143.661 16.4016 143.102 19.7076 144.721 22.9266C145.699 24.8726 147.123 26.3456 148.707 27.7986C149.527 28.5506 149.582 29.8266 148.83 30.6466C148.078 31.4656 146.802 31.5206 145.983 30.7696C144.033 28.9806 142.324 27.1316 141.12 24.7366C136.701 15.9476 143.57 6.52362 151.34 2.85462C153.929 1.63162 156.697 1.1066 159.5 0.6366C177 -2.2994 196.618 5.13561 208.072 18.4956Z" fill="black"/>
<path fill-rule="evenodd" clip-rule="evenodd" d="M145.46 22.3085C146.384 22.9275 146.633 24.1795 146.014 25.1045C145.395 26.0285 144.142 26.2765 143.218 25.6585C134.222 19.6365 121.093 17.8155 111.632 23.7915C107.712 26.2675 105.131 29.6115 104.372 33.2745C103.629 36.8585 104.681 40.6955 107.771 44.2105C108.922 45.5205 110.249 46.6845 111.836 47.4255C116.644 49.6715 121.831 50.9665 127.013 51.9385C128.106 52.1435 128.827 53.1985 128.622 54.2915C128.417 55.3845 127.363 56.1055 126.27 55.9005C120.757 54.8665 115.245 53.4665 110.131 51.0775C108.038 50.1005 106.262 48.5985 104.743 46.8715C100.684 42.2535 99.4492 37.1655 100.425 32.4565C101.384 27.8275 104.527 23.5115 109.479 20.3835C120.254 13.5785 135.215 15.4515 145.46 22.3085Z" fill="black"/>
<path fill-rule="evenodd" clip-rule="evenodd" d="M112.664 47.6146C113.734 47.9186 114.355 49.0346 114.051 50.1046C113.747 51.1746 112.632 51.7966 111.562 51.4926C99.0104 47.9246 84.0344 53.7476 76.8204 64.6016C75.3454 66.8196 73.8714 70.0576 74.2654 72.7986C75.2784 79.8406 82.8914 85.6866 89.6804 86.2886C93.8564 86.6596 97.5704 86.5356 101.72 85.8336C102.816 85.6476 103.857 86.3876 104.043 87.4846C104.228 88.5816 103.489 89.6226 102.392 89.8076C97.8884 90.5696 93.8564 90.7056 89.3244 90.3036C80.8774 89.5546 71.5354 82.1336 70.2764 73.3716C69.7504 69.7146 71.4964 65.3286 73.4634 62.3696C81.6004 50.1276 98.5064 43.5906 112.664 47.6146Z" fill="black"/>
<path fill-rule="evenodd" clip-rule="evenodd" d="M85.497 85.2194C86.609 85.1914 87.535 86.0704 87.563 87.1824C87.591 88.2944 86.712 89.2204 85.6 89.2494C80.711 89.3744 76.562 93.8804 76.831 98.7294C76.892 99.8404 76.041 100.791 74.93 100.853C73.82 100.914 72.868 100.063 72.806 98.9524C72.417 91.9314 78.418 85.4004 85.497 85.2194Z" fill="black"/>
<path fill-rule="evenodd" clip-rule="evenodd" d="M121.092 142.42C121.452 141.367 122.598 140.804 123.651 141.163C124.703 141.523 125.266 142.669 124.907 143.722C123.764 147.071 123.859 150.863 125.724 153.964C127.512 156.933 131.66 159.026 134.765 156.994C135.868 156.272 136.949 155.283 137.779 154.255C139.172 152.531 139.707 150.253 140.238 148.141C140.51 147.063 141.606 146.408 142.685 146.679C143.764 146.951 144.419 148.047 144.147 149.126C143.476 151.79 142.672 154.611 140.915 156.788C139.83 158.131 138.415 159.422 136.972 160.367C131.981 163.633 125.143 160.815 122.271 156.042C119.788 151.916 119.571 146.876 121.092 142.42Z" fill="black"/>
<path fill-rule="evenodd" clip-rule="evenodd" d="M134.421 158.94C134.418 157.828 135.318 156.922 136.43 156.918C137.543 156.915 138.448 157.815 138.452 158.927C138.472 165.304 138.691 171.951 142.94 177.092C144.021 178.4 145.151 179.918 146.76 180.589C151.163 182.426 156.397 179.922 158.444 175.744C161.221 170.077 160.827 162.682 160.36 156.626C159.489 145.319 158.507 132.702 153.696 122.237C153.231 121.226 153.675 120.029 154.685 119.564C155.696 119.099 156.894 119.543 157.358 120.553C162.364 131.442 163.473 144.552 164.379 156.316C164.897 163.038 165.146 171.227 162.063 177.518C159.123 183.52 151.535 186.948 145.208 184.31C143.001 183.389 141.317 181.455 139.833 179.66C134.97 173.776 134.445 166.239 134.421 158.94Z" fill="black"/>
<path fill-rule="evenodd" clip-rule="evenodd" d="M83.4959 132.69C84.5639 132.377 85.6839 132.99 85.9969 134.057C86.3099 135.125 85.6969 136.245 84.6299 136.558C83.0609 137.018 82.1078 138.343 81.2908 139.696C79.5568 142.568 79.6138 146.275 80.8388 149.535C82.0708 152.813 84.5039 155.687 87.7329 156.792C88.7859 157.152 89.3479 158.299 88.9869 159.352C88.6269 160.404 87.4799 160.966 86.4279 160.606C82.0889 159.121 78.7209 155.357 77.0659 150.953C75.4029 146.53 75.4869 141.51 77.8409 137.612C79.1779 135.398 80.9299 133.442 83.4959 132.69Z" fill="black"/>
<path fill-rule="evenodd" clip-rule="evenodd" d="M95.2993 243.679C97.0003 242.272 99.5243 242.511 100.931 244.212C102.338 245.914 102.099 248.437 100.398 249.844C94.0563 255.089 89.8883 261.725 85.1723 268.315C73.1473 285.117 65.2133 304.332 60.2943 324.292C58.0093 333.566 57.0233 338.612 55.9393 348.045C55.6873 350.238 53.7023 351.814 51.5083 351.562C49.3153 351.31 47.7393 349.325 47.9913 347.132C49.1213 337.301 50.1453 332.042 52.5263 322.378C57.6873 301.434 66.0493 281.289 78.6663 263.659C83.7893 256.502 88.4123 249.376 95.2993 243.679Z" fill="black"/>
<path fill-rule="evenodd" clip-rule="evenodd" d="M265.696 287.869C263.325 286.456 262.548 283.385 263.961 281.014C265.374 278.644 268.445 277.866 270.816 279.279C282.433 286.204 290.653 296.99 297.72 308.24C307.859 324.379 315.372 338.895 318.343 355.779C319.472 362.192 319.981 366.59 319.698 373.894C319.591 376.651 317.266 378.803 314.508 378.696C311.751 378.59 309.599 376.264 309.706 373.507C309.955 367.058 309.491 363.175 308.495 357.512C305.744 341.879 298.64 328.503 289.253 313.559C283.021 303.639 275.939 293.975 265.696 287.869Z" fill="black"/>
<path fill-rule="evenodd" clip-rule="evenodd" d="M157.345 319.763C156.272 317.22 157.465 314.285 160.007 313.212C162.55 312.139 165.485 313.332 166.558 315.874C171.559 327.722 174.979 339.89 176.928 352.367C178.194 360.473 178.531 365.288 178.589 373.653C178.609 376.413 176.384 378.669 173.624 378.688C170.865 378.707 168.609 376.482 168.59 373.723C168.535 365.937 168.226 361.455 167.047 353.911C165.224 342.235 162.024 330.849 157.345 319.763Z" fill="black"/>
<path fill-rule="evenodd" clip-rule="evenodd" d="M495.423 296.46C496.338 297.858 495.946 299.737 494.548 300.652C493.149 301.567 491.271 301.175 490.356 299.776C484.508 290.84 477.878 282.117 471.804 273.302C470.253 271.052 468.018 268.316 466.608 265.44C465.435 263.048 464.814 260.553 465.151 258.105C465.788 253.497 468.044 249.12 470.811 244.99C473.309 241.262 476.215 237.735 478.417 234.374C481.824 229.172 485.986 223.91 489.897 219.049C490.945 217.747 492.853 217.541 494.155 218.589C495.457 219.636 495.664 221.544 494.616 222.846C490.825 227.557 486.785 232.652 483.483 237.693C481.271 241.07 478.353 244.615 475.843 248.361C473.602 251.705 471.666 255.202 471.151 258.933C470.917 260.628 471.722 262.311 472.672 263.933C473.942 266.102 475.596 268.132 476.791 269.866C482.892 278.72 489.549 287.483 495.423 296.46Z" fill="black"/>
<path fill-rule="evenodd" clip-rule="evenodd" d="M556.9 329.931C555.282 329.511 554.31 327.856 554.73 326.239C555.15 324.621 556.804 323.649 558.422 324.069C561.851 324.959 565.607 324.374 569.109 324.31C571.535 324.266 574.402 324.513 577.239 324.531C579.622 324.546 581.988 324.428 583.924 323.616C585.39 323.001 586.449 321.912 587.38 320.703C588.585 319.139 589.575 317.365 590.642 315.743C594.771 309.467 598.508 302.781 601.634 295.945C602.329 294.425 604.127 293.755 605.647 294.45C607.167 295.145 607.836 296.944 607.141 298.464C603.888 305.579 599.999 312.539 595.701 319.072C593.166 322.925 590.774 327.31 586.267 329.201C581.376 331.253 574.367 330.272 569.219 330.366C565.18 330.439 560.854 330.957 556.9 329.931Z" fill="black"/>
<path fill-rule="evenodd" clip-rule="evenodd" d="M535.733 192.747C534.07 192.573 532.862 191.082 533.035 189.419C533.209 187.757 534.7 186.55 536.362 186.723C540.697 187.176 545.146 187.133 549.506 187.361C552.494 187.517 555.776 188.07 558.759 187.617C560.341 187.377 561.751 186.209 563.166 185.531C566.573 183.901 570.146 182.32 573.886 181.66C583.678 179.932 595.61 182.461 604.588 188.489C610.756 192.63 615.524 198.398 617.438 205.474C617.875 207.088 616.919 208.753 615.306 209.189C613.692 209.626 612.028 208.67 611.592 207.057C609.662 199.92 603.991 194.552 597.187 191.193C590.18 187.734 581.927 186.391 574.938 187.624C571.736 188.189 568.697 189.6 565.78 190.996C563.851 191.919 561.824 193.279 559.668 193.606C556.29 194.119 552.572 193.586 549.189 193.409C544.726 193.175 540.171 193.211 535.733 192.747Z" fill="black"/>
<path fill-rule="evenodd" clip-rule="evenodd" d="M425.868 197.989C424.729 199.212 422.812 199.281 421.588 198.142C420.365 197.003 420.296 195.086 421.435 193.862C424.113 190.986 427.72 186.587 429.157 182.736C430.252 179.801 430.041 176.521 430.215 173.452C430.425 169.729 431.203 165.937 431.082 162.2C431.028 160.53 432.34 159.13 434.011 159.076C435.681 159.022 437.081 160.334 437.135 162.005C437.262 165.919 436.482 169.895 436.261 173.794C436.054 177.456 436.138 181.351 434.832 184.853C433.144 189.376 429.012 194.612 425.868 197.989Z" fill="black"/>
<path fill-rule="evenodd" clip-rule="evenodd" d="M524.976 57.3624C523.423 57.9814 521.66 57.2234 521.041 55.6714C520.422 54.1184 521.18 52.3554 522.733 51.7364C530.166 48.7734 538.465 47.0224 545.67 43.4784C551.165 40.7744 556.096 36.3434 561.213 32.9744C568.629 28.0924 576.49 23.4324 583.564 18.0704C584.896 17.0614 586.797 17.3224 587.807 18.6544C588.816 19.9864 588.555 21.8874 587.223 22.8974C580.043 28.3394 572.07 33.0774 564.543 38.0334C559.22 41.5374 554.06 46.0994 548.343 48.9124C540.999 52.5254 532.552 54.3414 524.976 57.3624Z" fill="black"/>
<path fill-rule="evenodd" clip-rule="evenodd" d="M556.194 121.755C554.626 121.179 553.819 119.438 554.395 117.869C554.971 116.3 556.712 115.493 558.281 116.069C562.465 117.604 567.562 116.367 571.957 113.894C576.454 111.364 580.29 107.477 581.592 103.32C584.228 94.9076 580.906 84.4056 573.134 79.7386C570.157 77.9506 566.536 77.4136 563.116 77.1716C559.086 76.8876 555.588 77.8216 552.009 79.6156C550.515 80.3646 548.694 79.7596 547.945 78.2646C547.196 76.7706 547.801 74.9496 549.296 74.2006C553.882 71.9026 558.378 70.7656 563.543 71.1306C567.894 71.4376 572.464 72.2716 576.252 74.5466C586.347 80.6096 590.795 94.2026 587.372 105.13C585.663 110.583 580.825 115.854 574.927 119.173C568.926 122.549 561.907 123.851 556.194 121.755Z" fill="black"/>
<path fill-rule="evenodd" clip-rule="evenodd" d="M474.429 222.759C472.795 223.109 471.184 222.067 470.834 220.432C470.484 218.798 471.526 217.187 473.161 216.837C485.251 214.247 490.305 199.921 482.861 190.183C477.496 183.164 466.336 182.451 459.097 186.774C457.662 187.631 455.801 187.162 454.945 185.727C454.088 184.292 454.557 182.431 455.992 181.575C465.66 175.801 480.507 177.131 487.673 186.505C497.802 199.756 490.881 219.234 474.429 222.759Z" fill="black"/>
<path fill-rule="evenodd" clip-rule="evenodd" d="M353.929 208.477C355.547 208.057 357.202 209.029 357.622 210.646C358.042 212.264 357.07 213.918 355.452 214.339C353.703 214.793 350.646 215.523 347.838 215.574C345.407 215.618 343.155 215.109 341.604 213.967C339.543 212.449 338.135 209.752 337.251 207.442C336.539 205.581 335.947 203.642 335.386 201.73C334.534 198.827 333.641 195.941 332.794 193.037C329.792 182.747 325.555 173.043 321.495 163.177C320.859 161.631 321.597 159.86 323.143 159.224C324.688 158.588 326.459 159.326 327.096 160.872C331.238 170.937 335.545 180.843 338.608 191.341C339.454 194.242 340.346 197.125 341.197 200.025C341.713 201.783 342.252 203.567 342.907 205.278C343.408 206.587 344.027 208.23 345.196 209.09C345.814 209.546 346.758 209.536 347.728 209.519C350.017 209.477 352.503 208.848 353.929 208.477Z" fill="black"/>
<path fill-rule="evenodd" clip-rule="evenodd" d="M365.436 30.1479C365.43 30.8259 365.642 31.5729 365.846 32.3189C366.31 34.0129 367 35.6879 367.379 36.9969C369.134 43.0619 370.187 49.3549 369.946 55.6689C369.882 57.3389 368.474 58.6429 366.804 58.5789C365.134 58.5149 363.83 57.1079 363.894 55.4379C364.111 49.7699 363.137 44.1238 361.561 38.6798C361.085 37.0358 360.156 34.8339 359.712 32.7119C359.301 30.7479 359.299 28.8319 359.902 27.2209C360.135 26.5999 360.708 25.7679 361.803 25.1249C363.165 24.3259 366.165 23.4899 366.92 23.1829C371.142 21.4629 375.375 19.9379 379.88 19.1469C383.21 18.5609 386.69 18.6978 388.975 21.6368C390.663 23.8078 391.529 26.5708 392.576 29.0548C394.732 34.1748 396.271 39.3459 397.657 44.7399C400.652 56.3959 404.199 67.3589 405.744 79.3549C405.957 81.0129 404.785 82.5319 403.127 82.7449C401.47 82.9589 399.951 81.7859 399.737 80.1289C398.225 68.3839 394.723 57.6589 391.791 46.2469C390.48 41.1439 389.034 36.2489 386.994 31.4059C386.148 29.3969 385.559 27.1099 384.194 25.3539C383.889 24.9619 383.444 24.9129 383.005 24.8989C382.325 24.8769 381.617 24.9898 380.929 25.1108C376.85 25.8278 373.026 27.2348 369.204 28.7918C368.725 28.9868 366.499 29.7739 365.436 30.1479Z" fill="black"/>
<path fill-rule="evenodd" clip-rule="evenodd" d="M235.223 128.651C233.402 130.562 230.373 130.635 228.463 128.814C226.553 126.994 226.478 123.965 228.299 122.055C236.29 113.668 251.426 110.111 262.484 112.943C265.04 113.597 266.583 116.204 265.929 118.761C265.274 121.317 262.668 122.861 260.112 122.207C252.075 120.149 241.03 122.557 235.223 128.651Z" fill="black"/>
<path fill-rule="evenodd" clip-rule="evenodd" d="M180.919 142.703C178.999 144.514 175.97 144.425 174.16 142.505C172.349 140.585 172.438 137.557 174.358 135.746C179.725 130.684 185.768 128.323 192.798 126.46C196.824 125.393 201.743 124.496 205.915 125.509C208.48 126.131 210.056 128.719 209.434 131.283C208.811 133.847 206.224 135.424 203.66 134.802C200.976 134.15 197.838 135.017 195.247 135.703C189.818 137.143 185.064 138.793 180.919 142.703Z" fill="black"/>
<path fill-rule="evenodd" clip-rule="evenodd" d="M257.085 65.2693C251.646 63.0613 245.55 67.2443 240.621 69.0943C230.511 72.8863 219.575 74.8563 209.296 78.2733C195.623 82.8193 181.171 84.0943 167.087 86.4923C162.614 87.2543 158.337 88.9472 153.906 89.8772C140.998 92.5862 127.927 94.6343 114.981 97.1413C106.35 98.8133 97.193 99.2663 88.843 102.274C80.529 105.269 75.9241 118.145 79.1261 126.029C80.6641 129.817 84.475 133.108 87.978 135.049C93.256 137.975 99.244 136.826 104.83 135.888C108.033 135.349 111.352 135.422 114.525 134.788C119.978 133.699 125.28 131.648 130.788 130.813C133.676 130.376 136.705 130.325 139.548 129.671C143.068 128.86 146.481 127.431 150.046 126.823C159.326 125.241 168.574 124.073 177.685 121.584C186.964 119.051 196.14 115.787 205.462 113.453C209.07 112.549 212.835 112.369 216.438 111.364C223.95 109.267 231.802 107.62 239.26 105.601C242.91 104.612 245.821 103.214 249.485 102.189C255.634 100.468 264.403 95.9493 267.833 90.3313C272.002 83.5033 268.668 74.6122 263.719 69.1792" fill="#EF3E24"/>
<path fill-rule="evenodd" clip-rule="evenodd" d="M88.5456 107.399C87.1896 105.434 85.2556 103.762 83.1256 102.682C80.6406 101.422 78.2106 99.9587 75.3116 100.094C70.9946 100.294 65.4716 105.635 64.4616 109.663C63.6886 112.744 64.2426 115.888 64.5596 118.977C64.8746 122.038 64.6426 124.294 66.3466 127.044C68.2486 130.113 71.8566 131.653 75.2596 132.439C78.5126 133.191 81.3096 131.838 84.3416 130.88" fill="#EF3E24"/>
<path fill-rule="evenodd" clip-rule="evenodd" d="M65.3835 112.521C63.4925 111.65 61.2375 111.505 59.1905 111.388C52.2855 110.996 46.4805 113.069 40.4535 116.299C35.4975 118.956 30.7965 121.572 26.0775 124.654C24.3535 125.78 22.3735 126.62 20.8205 127.986C13.0805 134.794 7.7555 146.084 12.5615 156.043C14.9565 161.007 18.6835 162.061 23.8885 162.361C30.9485 162.769 39.1535 160.443 43.1735 154.006C45.5865 150.144 45.0345 143.911 41.6875 140.723C40.1565 139.265 36.7915 138.195 36.4965 135.806C36.1785 133.225 39.0525 130.374 40.7305 128.764C43.1315 126.462 45.9315 125.718 48.9605 124.646C50.6825 124.037 52.6525 123.216 54.5295 123.443C57.5585 123.81 58.5055 127.67 62.1395 126.476C62.9645 126.205 63.7075 125.718 64.4505 125.28C65.2935 124.782 66.1285 124.347 66.8725 123.699" fill="#EF3E24"/>
<path fill-rule="evenodd" clip-rule="evenodd" d="M67.7198 126.027C62.4038 122.342 57.1868 127.367 52.9228 130.151C51.1718 131.295 49.2278 132.331 47.3818 133.312C44.6068 134.788 41.6178 135.607 38.7218 136.788C35.5508 138.081 32.7358 139.303 32.4588 143.186C32.2418 146.21 32.8028 149.903 34.7758 152.348C37.6588 155.922 44.4828 155.587 48.1838 153.798C50.7358 152.564 52.6288 150.419 54.8608 148.724C60.4938 144.448 65.8728 140.21 69.9568 134.302C71.5378 132.016 72.6598 129.412 74.1328 127.056" fill="#EF3E24"/>
<path fill-rule="evenodd" clip-rule="evenodd" d="M73.8928 103.746C69.4558 100.166 64.0188 98.5235 58.6848 96.8125C56.0498 95.9675 53.4978 94.7334 50.8098 94.0764C44.6078 92.5584 38.0338 91.8895 31.6688 91.6135C26.7828 91.4015 17.6728 91.7335 17.9988 98.7945C18.1238 101.502 20.5758 103.951 23.2638 104.218C25.3648 104.427 27.7008 103.864 29.8028 103.67C33.6498 103.316 38.1407 103.173 41.9637 103.882C45.7967 104.592 50.5038 106.418 53.6028 108.856C54.9948 109.951 55.2878 111.823 56.4818 113.106C58.5608 115.341 62.4428 115.751 65.3228 115.725" fill="#EF3E24"/>
<path fill-rule="evenodd" clip-rule="evenodd" d="M26.1423 91.9915C21.2303 90.5955 15.7423 90.8915 11.0753 93.1605C4.76229 96.2295 0.575298 104.522 2.2143 111.245C2.7993 113.645 4.5063 115.6 6.2313 117.293C10.3423 121.327 16.5003 125.997 22.3963 126.734C26.4133 127.237 30.7983 122.765 33.9413 120.885C34.5573 120.517 37.5723 118.76 37.1723 118.1C36.0533 116.252 33.4283 116.085 31.5503 115.627C28.0393 114.772 24.4463 113.962 21.6453 111.527C18.8413 109.088 19.1443 104.718 21.4093 102.057" fill="#EF3E24"/>
<mask id="mask4_2645_33375" style="mask-type:luminance" maskUnits="userSpaceOnUse" x="78" y="64" width="192" height="73">
<path d="M257.085 65.2693C251.646 63.0613 245.55 67.2443 240.621 69.0943C230.511 72.8863 219.575 74.8563 209.296 78.2733C195.623 82.8193 181.171 84.0943 167.087 86.4923C162.614 87.2543 158.337 88.9472 153.906 89.8772C140.998 92.5862 127.927 94.6343 114.981 97.1413C106.35 98.8133 97.193 99.2663 88.843 102.274C80.529 105.269 75.9241 118.145 79.1261 126.029C80.6641 129.817 84.475 133.108 87.978 135.049C93.256 137.975 99.244 136.826 104.83 135.888C108.033 135.349 111.352 135.422 114.525 134.788C119.978 133.699 125.28 131.648 130.788 130.813C133.676 130.376 136.705 130.325 139.548 129.671C143.068 128.86 146.481 127.431 150.046 126.823C159.326 125.241 168.574 124.073 177.685 121.584C186.964 119.051 196.14 115.787 205.462 113.453C209.07 112.549 212.835 112.369 216.438 111.364C223.95 109.267 231.802 107.62 239.26 105.601C242.91 104.612 245.821 103.214 249.485 102.189C255.634 100.468 264.403 95.9493 267.833 90.3313C272.002 83.5033 268.668 74.6122 263.719 69.1792" fill="white"/>
</mask>
<g mask="url(#mask4_2645_33375)">
<path fill-rule="evenodd" clip-rule="evenodd" d="M198.855 64.8474C199.439 61.3164 202.779 58.9234 206.31 59.5064C209.841 60.0904 212.233 63.4304 211.65 66.9614C209.664 78.9794 212.18 92.2094 222.372 99.8684C227.299 103.57 233.173 106.257 238.869 108.524C242.194 109.847 243.82 113.621 242.496 116.946C241.173 120.271 237.399 121.896 234.074 120.573C227.328 117.889 220.417 114.62 214.582 110.235C200.435 99.6064 196.098 81.5274 198.855 64.8474Z" fill="#CB301A"/>
<path fill-rule="evenodd" clip-rule="evenodd" d="M137.986 78.2429C135.628 75.5499 135.901 71.4499 138.593 69.0929C141.286 66.7349 145.386 67.0079 147.743 69.6999C158.432 81.9099 156.136 98.5449 149.553 112.04C141.609 128.325 131.887 143.719 113.622 149.885C110.232 151.03 106.549 149.206 105.405 145.816C104.26 142.425 106.083 138.743 109.474 137.598C124.258 132.607 131.467 119.536 137.897 106.355C142.264 97.4019 145.077 86.3419 137.986 78.2429Z" fill="#CB301A"/>
<path fill-rule="evenodd" clip-rule="evenodd" d="M213.767 132.463C214.127 136.024 211.528 139.207 207.968 139.567C204.407 139.927 201.224 137.328 200.864 133.767C200.134 126.538 198.641 119.266 193.668 113.611C190.378 109.87 185.295 107.016 180.184 106.262C175.927 105.634 171.576 106.562 168.745 110.429C163.397 117.735 164.196 130.385 165.564 138.908C166.131 142.442 163.723 145.771 160.19 146.338C156.656 146.905 153.327 144.497 152.76 140.963C150.917 129.485 151.079 112.608 158.281 102.769C164.224 94.6488 173.138 92.1128 182.077 93.4318C190.161 94.6248 198.204 99.1298 203.407 105.048C210.216 112.791 212.766 122.564 213.767 132.463Z" fill="#CB301A"/>
<path fill-rule="evenodd" clip-rule="evenodd" d="M236.379 54.1799C237.139 50.6829 240.594 48.4599 244.092 49.2189C247.589 49.9779 249.812 53.4339 249.053 56.9309C247.717 63.0819 251.351 70.3449 258.061 70.5729C261.775 70.6989 264.942 68.7949 267.725 66.4639C270.469 64.1659 274.562 64.5279 276.86 67.2709C279.157 70.0149 278.796 74.1079 276.052 76.4059C270.815 80.7929 264.61 83.7709 257.621 83.5329C242.749 83.0279 233.42 67.8139 236.379 54.1799Z" fill="#CB301A"/>
<path fill-rule="evenodd" clip-rule="evenodd" d="M98.1673 90.0869C99.3713 86.7179 103.085 84.9599 106.455 86.1649C109.825 87.3699 111.583 91.0839 110.378 94.4529C109.628 96.5499 108.566 99.0569 109.447 101.226C109.55 101.481 109.887 101.467 110.148 101.521C110.613 101.617 111.146 101.665 111.511 101.371C112.116 100.88 112.321 100.124 112.538 99.3669C112.849 98.2819 113.026 97.1209 113.183 95.9579C113.562 93.1579 113.853 90.3479 114.547 87.9869C115.557 84.5539 119.164 82.5859 122.597 83.5959C126.03 84.6049 127.998 88.2118 126.989 91.6448C126.098 94.6758 126.097 98.5889 125.252 102.012C124.324 105.771 122.614 109.068 119.669 111.451C116.361 114.128 111.754 115.095 107.524 114.221C103.083 113.303 99.1923 110.443 97.4313 106.105C95.3653 101.017 96.4093 95.0039 98.1673 90.0869Z" fill="#CB301A"/>
</g>
<path fill-rule="evenodd" clip-rule="evenodd" d="M85.7813 102.297C86.6133 103.035 86.6893 104.31 85.9513 105.142C85.2133 105.974 83.9383 106.051 83.1063 105.312C79.4993 102.114 73.1373 101.769 69.8753 105.598C67.1523 108.793 65.3903 113.465 65.3053 117.98C65.2253 122.264 66.6753 126.437 70.4973 128.889C71.5303 129.553 72.7103 129.845 73.8923 130.139C76.3143 130.742 78.0643 130.967 80.2383 129.779C81.2143 129.245 82.4393 129.604 82.9733 130.58C83.5073 131.556 83.1483 132.781 82.1723 133.315C78.9983 135.051 76.4563 134.931 72.9183 134.05C71.3093 133.649 69.7273 133.185 68.3203 132.282C63.2553 129.032 61.1693 123.581 61.2753 117.905C61.3773 112.46 63.5243 106.836 66.8073 102.983C71.4873 97.4902 80.6063 97.7082 85.7813 102.297Z" fill="#EF3E24"/>
<path fill-rule="evenodd" clip-rule="evenodd" d="M56.0237 110.077C57.1327 109.99 58.1038 110.819 58.1908 111.928C58.2788 113.037 57.4497 114.008 56.3407 114.096C51.5637 114.472 46.8877 116.273 42.4647 118.041C32.0547 122.202 21.9297 128.562 15.9387 138.343C13.6247 142.121 12.2467 147.201 12.8067 151.642C13.3177 155.702 15.5597 159.192 20.4447 160.293C25.3247 161.393 31.3497 159.235 35.9477 157.675C40.6827 156.069 44.7388 153.77 49.0228 151.234C53.5218 148.571 57.4457 144.738 60.9467 140.892C62.1567 139.563 63.6767 138.481 64.7567 137.03C65.4217 136.138 66.6847 135.953 67.5777 136.618C68.4697 137.282 68.6537 138.546 67.9897 139.438C66.8307 140.994 65.2257 142.179 63.9277 143.606C60.1617 147.743 55.9157 151.838 51.0757 154.703C46.5467 157.384 42.2488 159.794 37.2428 161.493C32.0098 163.268 25.1127 165.477 19.5587 164.225C12.7127 162.683 9.52375 157.835 8.80675 152.146C8.13875 146.837 9.73575 140.754 12.5018 136.238C18.9468 125.714 29.7677 118.775 40.9687 114.298C45.7627 112.382 50.8467 110.486 56.0237 110.077Z" fill="black"/>
<path fill-rule="evenodd" clip-rule="evenodd" d="M56.5135 125.211C57.2485 124.376 58.5225 124.293 59.3585 125.028C60.1935 125.762 60.2754 127.037 59.5414 127.872C56.3944 131.451 52.0855 133.657 47.8035 135.567C40.7985 138.691 34.1564 140.809 26.5164 141.308C25.4064 141.381 24.4464 140.539 24.3734 139.429C24.3014 138.319 25.1434 137.359 26.2534 137.286C33.4014 136.819 39.6074 134.809 46.1614 131.886C49.9194 130.209 53.7525 128.352 56.5135 125.211Z" fill="black"/>
<path fill-rule="evenodd" clip-rule="evenodd" d="M51.0724 120.964C52.1274 120.614 53.2694 121.186 53.6194 122.242C53.9694 123.298 53.3964 124.439 52.3404 124.79C47.4384 126.416 41.6744 130.63 38.2524 134.565C36.9734 136.035 36.1204 137.764 34.9354 139.29C34.2534 140.169 32.9864 140.328 32.1074 139.646C31.2294 138.963 31.0704 137.696 31.7524 136.818C32.9824 135.233 33.8824 133.447 35.2104 131.92C39.0574 127.497 45.5604 122.792 51.0724 120.964Z" fill="black"/>
<path fill-rule="evenodd" clip-rule="evenodd" d="M67.9554 98.334C68.9484 98.835 69.3484 100.048 68.8474 101.041C68.3454 102.034 67.1324 102.433 66.1394 101.932C61.0994 99.389 55.4174 98.216 49.9434 97.017C44.7334 95.876 39.6054 95.101 34.3264 94.389C27.3494 93.449 20.0244 92.676 13.2454 95.14C8.13238 96.998 3.53638 102.796 4.06938 108.417C4.33038 111.173 6.02339 113.991 7.72139 116.102C11.6424 120.978 17.1174 122.67 22.7854 124.647C23.8354 125.014 24.3904 126.164 24.0244 127.214C23.6574 128.264 22.5074 128.819 21.4574 128.453C15.0664 126.223 9.00137 124.126 4.58037 118.628C2.42037 115.943 0.388384 112.302 0.0563837 108.797C-0.638616 101.46 5.19437 93.777 11.8694 91.351C19.2644 88.663 27.2524 89.369 34.8644 90.394C40.2534 91.121 45.4874 91.915 50.8054 93.079C56.6064 94.35 62.6144 95.639 67.9554 98.334Z" fill="black"/>
<path fill-rule="evenodd" clip-rule="evenodd" d="M23.9366 97.9398C25.0256 97.7138 26.0936 98.4148 26.3186 99.5038C26.5446 100.593 25.8436 101.661 24.7546 101.886C20.6986 102.727 20.2076 107.805 22.9886 110.452C27.4216 114.671 33.7426 114.783 39.4836 115.209C40.5926 115.292 41.4266 116.259 41.3436 117.368C41.2616 118.478 40.2936 119.311 39.1846 119.229C32.5446 118.735 25.3376 118.252 20.2096 113.372C15.1616 108.568 16.5726 99.4658 23.9366 97.9398Z" fill="black"/>
<path fill-rule="evenodd" clip-rule="evenodd" d="M21.0143 106.085C19.9043 106.156 18.9463 105.312 18.8753 104.202C18.8043 103.092 19.6473 102.133 20.7573 102.062C32.8503 101.289 46.6523 102.362 57.4263 108.555C58.3903 109.11 58.7233 110.343 58.1693 111.307C57.6143 112.271 56.3813 112.604 55.4173 112.05C45.3163 106.243 32.3533 105.36 21.0143 106.085Z" fill="black"/>
<path fill-rule="evenodd" clip-rule="evenodd" d="M173.148 126.545C170.958 126.856 168.927 125.331 168.616 123.141C168.304 120.951 169.829 118.921 172.019 118.609C190.055 116.044 207.739 111.272 225.177 106.157C234.685 103.369 244.903 100.803 253.892 96.5519C258.495 94.3749 262.783 90.2539 264.94 85.5069C266.857 81.2869 266.984 76.5129 263.545 72.3989C262.127 70.7019 262.353 68.1729 264.05 66.7539C265.747 65.3359 268.276 65.5619 269.695 67.2589C280.574 80.2719 270.261 97.6759 257.319 103.797C247.958 108.225 237.334 110.945 227.433 113.849C209.627 119.072 191.565 123.926 173.148 126.545Z" fill="black"/>
<path fill-rule="evenodd" clip-rule="evenodd" d="M92.2187 89.2155C94.2337 88.3035 96.6107 89.1985 97.5237 91.2136C98.4357 93.2276 97.5407 95.6045 95.5257 96.5175C89.6887 99.1615 86.1597 106.322 86.0277 112.489C85.9917 114.165 85.8207 116.055 86.6627 117.556C87.7447 119.485 87.0577 121.929 85.1287 123.012C83.1987 124.094 80.7547 123.407 79.6717 121.478C78.1377 118.742 77.9487 115.372 78.0137 112.317C78.2067 103.317 83.7007 93.0745 92.2187 89.2155Z" fill="black"/>
<path fill-rule="evenodd" clip-rule="evenodd" d="M78.9753 92.0275C81.1873 92.0055 83.0003 93.7845 83.0213 95.9965C83.0423 98.2085 81.2633 100.022 79.0513 100.043C69.7843 100.131 61.0163 109.301 64.1233 118.639C64.8223 120.738 63.6853 123.009 61.5863 123.708C59.4873 124.406 57.2163 123.269 56.5183 121.17C51.7233 106.764 64.6773 92.1635 78.9753 92.0275Z" fill="black"/>
<path fill-rule="evenodd" clip-rule="evenodd" d="M49.11 275.138C48.793 275.128 48.543 274.862 48.553 274.545C48.563 274.228 48.829 273.978 49.146 273.988C50.048 274.011 50.94 274.133 51.798 274.337C52.685 274.549 53.536 274.85 54.325 275.225C55.086 275.585 55.804 276.018 56.46 276.56C57.092 277.081 57.664 277.704 58.161 278.464C58.537 279.037 58.875 279.623 59.172 280.229C59.471 280.84 59.727 281.472 59.936 282.133C60.079 282.585 60.168 283.146 60.352 283.644C60.44 283.881 60.549 284.104 60.729 284.262C61.01 284.512 61.035 284.943 60.785 285.223C60.535 285.503 60.105 285.528 59.824 285.278C59.558 285.038 59.357 284.738 59.206 284.4C58.941 283.809 58.841 283.089 58.671 282.524C58.49 281.923 58.266 281.348 58.003 280.792C57.737 280.23 57.433 279.686 57.093 279.152C56.678 278.5 56.197 277.962 55.665 277.511C55.093 277.027 54.465 276.641 53.8 276.315C53.088 275.967 52.32 275.685 51.518 275.483C50.739 275.288 49.93 275.168 49.11 275.138Z" fill="white"/>
<path fill-rule="evenodd" clip-rule="evenodd" d="M49.3164 275.113C48.9744 275.114 48.6944 274.838 48.6934 274.495C48.6914 274.153 48.9684 273.873 49.3104 273.872C49.9314 273.858 50.5444 273.711 51.1384 273.502C52.0994 273.162 53.0074 272.648 53.8134 272.182C55.4094 271.281 56.6344 269.884 57.5774 268.277C58.5224 266.667 59.1874 264.841 59.5864 263.031C59.6684 262.649 60.0454 262.405 60.4274 262.487C60.8094 262.569 61.0534 262.945 60.9714 263.328C60.5634 265.292 59.8834 267.287 58.8604 269.031C57.7854 270.863 56.3354 272.415 54.5024 273.421C53.6124 273.896 52.6084 274.415 51.5544 274.747C50.8244 274.977 50.0714 275.122 49.3164 275.113Z" fill="white"/>
<path fill-rule="evenodd" clip-rule="evenodd" d="M59.8495 263.42C59.7675 263.111 59.9525 262.794 60.2615 262.712C60.5705 262.631 60.8875 262.815 60.9695 263.124C61.3465 264.419 61.8335 265.61 62.4705 266.717C63.0895 267.794 63.8575 268.789 64.8575 269.698C65.3495 270.151 65.8795 270.594 66.4305 270.991C66.9805 271.386 67.5515 271.735 68.1285 271.997L72.1645 273.453C72.5545 273.625 72.7315 274.082 72.5595 274.473C72.3875 274.863 71.9305 275.04 71.5395 274.868L67.4995 273.364C66.8395 273.055 66.1855 272.649 65.5585 272.187C64.9655 271.749 64.3955 271.261 63.8665 270.763C62.7735 269.723 61.9235 268.602 61.2765 267.375C60.6325 266.155 60.1865 264.837 59.8495 263.42Z" fill="white"/>
<path fill-rule="evenodd" clip-rule="evenodd" d="M61.0157 285.049C60.9767 285.367 60.6877 285.593 60.3697 285.555C60.0517 285.516 59.8247 285.226 59.8637 284.908C60.0077 283.601 60.5197 282.222 61.2517 280.926C61.9417 279.703 62.8317 278.556 63.7897 277.614C64.9137 276.506 66.5077 275.372 68.0877 274.569C69.3257 273.94 70.5627 273.524 71.5787 273.447C72.0267 273.421 72.4107 273.763 72.4367 274.21C72.4637 274.658 72.1217 275.042 71.6747 275.068C70.6327 275.113 69.3127 275.605 68.0317 276.289C66.8067 276.943 65.6187 277.774 64.7317 278.598C63.8347 279.434 62.9947 280.458 62.3377 281.557C61.6607 282.688 61.1707 283.895 61.0157 285.049Z" fill="white"/>
<path fill-rule="evenodd" clip-rule="evenodd" d="M60.8237 264.032C59.5337 266.928 58.1336 269.607 55.5336 271.566C54.6136 272.259 53.7037 273.022 52.7037 273.599C52.3537 273.796 52.0036 273.981 51.6636 274.176C51.4636 274.288 50.9437 274.318 51.0637 274.508C51.4237 275.038 52.9237 275.218 53.5037 275.37C54.8937 275.741 56.8036 276.519 57.6536 277.745C58.5336 279.019 59.1836 280.32 59.7836 281.747C59.9736 282.216 60.1037 282.705 60.2637 283.185C60.3137 283.327 60.3637 283.47 60.3937 283.616C60.4137 283.707 60.3837 283.937 60.4637 283.888C60.9137 283.609 61.1737 282.992 61.4437 282.562C62.1037 281.502 62.7237 280.345 63.4537 279.331C64.5337 277.809 66.0737 277.007 67.4837 275.844C68.1237 275.31 68.8236 274.829 69.5336 274.4C69.6836 274.313 70.3237 274.094 70.3937 273.927C70.4137 273.858 69.8837 273.561 69.8237 273.531C69.1037 273.12 68.3237 272.817 67.5637 272.482C65.6437 271.629 63.9037 270.775 62.6837 269.013" fill="white"/>
<path fill-rule="evenodd" clip-rule="evenodd" d="M123.389 324.257C123.379 324.573 123.114 324.823 122.796 324.813C122.48 324.803 122.229 324.538 122.239 324.22C122.291 322.414 122.539 320.626 122.954 318.906C123.383 317.131 123.992 315.428 124.745 313.849C125.468 312.339 126.332 310.91 127.413 309.609C128.446 308.366 129.679 307.237 131.182 306.262C132.339 305.509 133.519 304.833 134.738 304.24C135.966 303.645 137.232 303.136 138.556 302.722C139.496 302.43 140.659 302.247 141.694 301.868C142.295 301.648 142.851 301.361 143.256 300.905C143.506 300.624 143.935 300.599 144.216 300.85C144.497 301.098 144.522 301.529 144.272 301.81C143.847 302.284 143.309 302.637 142.71 302.908C141.523 303.444 140.079 303.641 138.948 303.988C137.681 304.372 136.473 304.85 135.301 305.408C134.125 305.97 132.988 306.613 131.871 307.329C130.476 308.222 129.328 309.26 128.366 310.404C127.342 311.621 126.525 312.959 125.837 314.375C125.109 315.875 124.52 317.497 124.101 319.188C123.695 320.825 123.448 322.531 123.389 324.257Z" fill="white"/>
<path fill-rule="evenodd" clip-rule="evenodd" d="M123.29 323.855C123.29 324.197 123.015 324.476 122.672 324.479C122.329 324.481 122.05 324.203 122.048 323.861C122.03 322.516 121.734 321.184 121.291 319.894C120.597 317.874 119.54 315.959 118.578 314.262C116.673 310.861 113.726 308.228 110.309 306.223C106.935 304.242 103.099 302.871 99.302 302.046C98.9203 301.964 98.676 301.586 98.7581 301.205C98.8402 300.823 99.2158 300.579 99.5996 300.661C103.55 301.494 107.555 302.882 111.064 304.94C114.705 307.077 117.808 309.935 119.817 313.572C120.79 315.354 121.849 317.365 122.537 319.479C122.999 320.905 123.294 322.377 123.29 323.855Z" fill="white"/>
<path fill-rule="evenodd" clip-rule="evenodd" d="M99.7904 301.647C99.4805 301.729 99.1623 301.544 99.0823 301.236C99.0002 300.926 99.1849 300.608 99.4927 300.528C102.214 299.771 104.726 298.796 107.058 297.484C109.346 296.197 111.456 294.58 113.389 292.481C114.342 291.45 115.275 290.342 116.111 289.187C116.958 288.019 117.705 286.804 118.266 285.574C118.475 285.117 118.688 284.577 118.902 283.99C119.696 281.821 120.513 279.04 121.281 277.289C121.453 276.899 121.909 276.723 122.299 276.895C122.691 277.067 122.867 277.523 122.695 277.915C121.929 279.637 121.114 282.377 120.322 284.513C120.09 285.139 119.86 285.714 119.633 286.205C119.025 287.516 118.221 288.813 117.307 290.059C116.431 291.255 115.452 292.405 114.454 293.47C112.39 295.666 110.153 297.363 107.717 298.679C105.272 299.996 102.631 300.932 99.7904 301.647Z" fill="white"/>
<path fill-rule="evenodd" clip-rule="evenodd" d="M144.263 300.446C144.581 300.485 144.807 300.774 144.768 301.092C144.729 301.41 144.44 301.638 144.122 301.599C141.519 301.295 138.779 300.259 136.206 298.785C133.763 297.384 131.473 295.586 129.595 293.65C127.387 291.376 125.129 288.162 123.543 284.977C122.328 282.537 121.513 280.107 121.379 278.11C121.353 277.663 121.695 277.279 122.143 277.252C122.59 277.225 122.974 277.568 123.001 278.016C123.114 280.251 124.183 283.081 125.673 285.821C127.069 288.382 128.836 290.861 130.58 292.708C132.349 294.584 134.519 296.331 136.838 297.7C139.245 299.12 141.815 300.134 144.263 300.446Z" fill="white"/>
<path fill-rule="evenodd" clip-rule="evenodd" d="M122.081 280.66C120.004 286.033 117.04 290.836 112.443 294.423C110.411 296.008 108.184 297.321 106.165 298.899C105.976 299.047 101.648 300.808 101.691 300.901C102.454 302.499 107.725 303.097 109.192 303.985C111.692 305.496 114.027 307.466 116.119 309.51C117.843 311.195 119.222 313.496 120.706 316.981C121.217 318.177 122.984 320.285 123.019 320.281C124.234 320.133 125.176 315.977 125.804 315.07C127.651 312.412 128.989 309.635 131.167 307.191C132.64 305.539 134.947 304.502 136.944 303.636C137.732 303.294 142.323 302.425 142.857 301.598C142.994 301.383 141.209 298.081 139.596 298.98C138.473 299.608 135.503 297.256 136.671 298.198C137.603 298.949 134.816 296.864 133.728 296.389" fill="white"/>
</svg>
