<?xml version="1.0" encoding="UTF-8" standalone="no"?><!DOCTYPE svg PUBLIC "-//W3C//DTD SVG 1.1//EN" "http://www.w3.org/Graphics/SVG/1.1/DTD/svg11.dtd"><svg width="100%" height="100%" viewBox="0 0 3267 1914" version="1.1" xmlns="http://www.w3.org/2000/svg" xmlns:xlink="http://www.w3.org/1999/xlink" xml:space="preserve" xmlns:serif="http://www.serif.com/" style="fill-rule:evenodd;clip-rule:evenodd;stroke-linejoin:round;stroke-miterlimit:2;"><rect id="Artboard1" x="0" y="0" width="3266.13" height="1913.18" style="fill:none;"/><clipPath id="_clip1"><rect id="Flower.svg" x="844.581" y="133.764" width="1576.97" height="1645.65"/></clipPath><g clip-path="url(#_clip1)"><g id="background"><g id="background_1_"><path d="M2421.55,645.456c-0,-205.456 -166.512,-371.968 -371.968,-371.968c-46.26,0 -90.396,8.497 -131.228,23.838c-67.029,-98.656 -180.083,-163.562 -308.242,-163.562c-153.886,-0 -285.939,93.464 -342.584,226.698c-35.403,-75.527 -112.11,-127.688 -200.971,-127.688c-122.613,0 -221.978,99.365 -221.978,221.86c0,106.209 74.583,194.953 174.302,216.784c-43.31,60.894 -68.8,135.358 -68.8,215.605c-0,155.538 95.47,288.889 231.064,344.354c-14.162,20.298 -25.019,43.782 -31.391,69.626c-3.422,13.807 -5.311,27.614 -6.019,41.067l-123.674,0c-29.149,0 -51.925,25.255 -48.975,54.285c10.975,109.16 54.639,204.276 116.24,264.697l0,65.142c0,29.266 23.72,53.104 53.105,53.104l203.096,0c29.266,0 53.104,-23.72 53.104,-53.104l0,-65.142c18.41,-17.937 35.167,-39.061 49.919,-62.663c47.204,21.714 99.836,33.869 155.301,33.869c48.856,-0 95.588,-9.441 138.426,-26.671c19.59,55.465 72.34,95.235 134.532,95.235c78.712,-0 142.556,-63.844 142.556,-142.557c-0,-22.54 -5.193,-43.9 -14.515,-62.781c15.341,1.888 31.036,2.95 46.85,2.95c205.456,0 371.968,-166.512 371.968,-371.968c-0,-91.694 -33.161,-175.599 -88.154,-240.505c54.757,-64.906 88.036,-148.811 88.036,-240.505Zm-365.832,756.564c-25.018,-3.777 -48.974,-13.571 -71.514,-29.031c11.211,-36.937 12.037,-78.241 2.478,-122.73c-4.956,-22.776 -12.627,-46.614 -23.012,-71.043c21.36,23.13 42.956,42.248 64.788,56.881c40.477,27.143 81.309,39.416 121.314,36.465c37.528,-2.832 72.931,-18.763 105.266,-47.44c19.471,-17.347 37.291,-39.179 52.75,-64.197c-5.9,27.732 -16.639,56.055 -31.981,83.669c-21.478,38.471 -50.626,73.756 -84.495,102.315c-42.484,35.757 -87.328,56.055 -122.967,56.055c-4.366,-0 -8.614,-0.354 -12.627,-0.944Zm-85.675,-39.77c-0.354,-0.354 -0.826,-0.59 -1.18,-0.944c-0.708,-0.59 -1.534,-1.298 -2.242,-1.888c-1.063,-0.944 -2.125,-1.77 -3.069,-2.714c-0.826,-0.708 -1.534,-1.416 -2.242,-2.006c-1.062,-0.944 -2.124,-1.889 -3.068,-2.951c-0.708,-0.708 -1.534,-1.416 -2.242,-2.124c-1.062,-1.062 -2.125,-2.124 -3.187,-3.068c-0.708,-0.708 -1.416,-1.416 -2.124,-2.124c-1.18,-1.18 -2.242,-2.361 -3.422,-3.541c-0.59,-0.59 -1.18,-1.298 -1.77,-1.888c-1.534,-1.652 -3.069,-3.422 -4.603,-5.074c-0.118,-0.236 -0.354,-0.354 -0.472,-0.59c-1.652,-1.888 -3.304,-3.895 -4.956,-5.901c-0.59,-0.59 -1.062,-1.298 -1.652,-2.006c-1.062,-1.416 -2.242,-2.714 -3.305,-4.13c-0.59,-0.826 -1.298,-1.652 -1.888,-2.479c-0.944,-1.298 -2.006,-2.596 -2.95,-3.894c-0.708,-0.944 -1.298,-1.77 -2.006,-2.714c-0.944,-1.298 -1.888,-2.596 -2.832,-3.894c-0.708,-0.945 -1.299,-1.889 -2.007,-2.833c-0.944,-1.298 -1.888,-2.596 -2.714,-4.012c-0.708,-0.944 -1.298,-1.888 -2.006,-2.95c-0.944,-1.416 -1.77,-2.715 -2.714,-4.131c-0.59,-0.944 -1.298,-2.006 -1.888,-2.95c-0.944,-1.416 -1.889,-2.95 -2.833,-4.484c-0.59,-0.944 -1.18,-1.888 -1.77,-2.833c-0.944,-1.652 -2.006,-3.422 -2.95,-5.074c-0.472,-0.826 -0.944,-1.652 -1.416,-2.478c-1.416,-2.596 -2.95,-5.075 -4.367,-7.789c-0.826,-1.534 -1.652,-3.068 -2.478,-4.602c-10.739,-20.062 -20.77,-42.13 -29.974,-66.204c-0,-0.118 -0.118,-0.118 -0.118,-0.236c-0.708,-1.77 -1.298,-3.422 -2.007,-5.192c0,-0.118 -0.118,-0.236 -0.118,-0.472c-0.708,-1.771 -1.298,-3.541 -2.006,-5.429c0,-0.118 -0.118,-0.236 -0.118,-0.236c-0.59,-1.77 -1.298,-3.54 -1.888,-5.31c0,-0.118 -0.118,-0.354 -0.118,-0.472c-0.59,-1.771 -1.298,-3.541 -1.888,-5.311c-0.118,-0.236 -0.118,-0.354 -0.118,-0.472c-0.59,-1.77 -1.18,-3.54 -1.77,-5.31c-0.118,-0.236 -0.118,-0.354 -0.236,-0.59c-0.59,-1.653 -1.18,-3.423 -1.652,-5.075c-0.118,-0.236 -0.236,-0.59 -0.236,-0.826c-0.59,-1.77 -1.063,-3.422 -1.653,-5.192c-0.118,-0.236 -0.236,-0.59 -0.236,-0.827c-0.59,-1.77 -1.062,-3.422 -1.652,-5.192c-0.118,-0.236 -0.236,-0.59 -0.236,-0.944c-0.472,-1.652 -1.062,-3.304 -1.534,-4.956c-0.118,-0.355 -0.236,-0.827 -0.354,-1.181c-0.472,-1.652 -1.062,-3.422 -1.534,-5.074c-0.118,-0.354 -0.236,-0.826 -0.354,-1.18c-0.472,-1.652 -0.944,-3.304 -1.416,-4.957c-0.118,-0.472 -0.236,-0.944 -0.354,-1.416c-0.472,-1.652 -0.944,-3.186 -1.416,-4.838c-0.118,-0.472 -0.236,-1.062 -0.472,-1.534c-0.472,-1.652 -0.944,-3.305 -1.417,-4.957c-0.118,-0.472 -0.236,-0.944 -0.354,-1.416c-0.472,-1.652 -0.826,-3.186 -1.298,-4.838c-0.118,-0.59 -0.354,-1.18 -0.472,-1.652c-0.472,-1.534 -0.826,-3.187 -1.298,-4.839c-0.118,-0.59 -0.354,-1.18 -0.472,-1.77c-0.472,-1.534 -0.826,-3.186 -1.18,-4.72c-0.118,-0.59 -0.354,-1.18 -0.472,-1.888c-0.354,-1.535 -0.826,-3.187 -1.18,-4.721c-0.118,-0.59 -0.354,-1.298 -0.472,-1.888c-0.354,-1.652 -0.708,-3.186 -1.18,-4.838c-0.118,-0.709 -0.354,-1.417 -0.472,-2.243l-16.05,3.777l0,0.118c23.72,100.426 28.087,187.754 12.863,259.504c-0.472,2.36 -1.062,4.603 -1.534,6.963c-14.633,63.253 -44.372,112.463 -88.271,146.096c-1.062,0.826 -2.125,1.653 -3.305,2.479c-0.354,0.236 -0.708,0.472 -1.18,0.826c-0.708,0.59 -1.534,1.062 -2.242,1.652c-0.472,0.354 -0.944,0.59 -1.416,0.944c-0.708,0.472 -1.416,0.944 -2.124,1.416c-0.472,0.354 -1.062,0.59 -1.534,0.944c-0.708,0.472 -1.416,0.826 -2.125,1.298c-0.59,0.354 -1.18,0.59 -1.652,0.944c-0.708,0.354 -1.416,0.826 -2.124,1.18c-0.59,0.354 -1.18,0.59 -1.77,0.944c-0.708,0.355 -1.416,0.709 -2.124,1.063c-0.59,0.354 -1.18,0.59 -1.888,0.944c-0.708,0.354 -1.416,0.708 -2.243,1.062c-0.59,0.236 -1.298,0.59 -1.888,0.826c-0.472,0.236 -0.944,0.472 -1.416,0.708c-48.502,-1.298 -94.88,-12.155 -134.177,-31.627c-42.248,-20.888 -74.819,-51.216 -94.173,-87.681c-29.148,-55.111 -43.191,-152.706 55.347,-304.585c0,-0.118 0.118,-0.118 0.118,-0.236l-13.807,-8.969l-0.118,0.118c-32.925,50.745 -67.148,90.75 -101.607,119.073c-27.26,22.422 -54.757,37.527 -82.017,45.08c0,-0.118 0,-0.236 0.118,-0.354c0.118,-0.59 0.236,-1.063 0.354,-1.653c0.236,-1.416 0.59,-2.95 0.944,-4.366c0.118,-0.708 0.354,-1.416 0.472,-2.124c0.236,-1.298 0.59,-2.596 0.944,-3.776c0.236,-0.827 0.354,-1.535 0.59,-2.361c0.354,-1.18 0.59,-2.36 0.944,-3.658c0.236,-0.826 0.473,-1.652 0.709,-2.36c0.354,-1.18 0.708,-2.36 1.062,-3.54c0.236,-0.827 0.472,-1.535 0.708,-2.361c0.354,-1.298 0.826,-2.478 1.18,-3.776c0.236,-0.708 0.472,-1.416 0.708,-2.124c0.472,-1.416 0.944,-2.832 1.416,-4.367c0.118,-0.472 0.354,-1.062 0.472,-1.534c0.708,-2.006 1.416,-3.894 2.124,-5.9c0.118,-0.354 0.354,-0.826 0.472,-1.18c0.59,-1.534 1.18,-3.069 1.77,-4.603c0.236,-0.708 0.59,-1.416 0.826,-2.124c0.473,-1.18 1.063,-2.478 1.535,-3.776c0.354,-0.708 0.708,-1.534 0.944,-2.242c0.472,-1.181 1.062,-2.361 1.534,-3.541c0.354,-0.826 0.708,-1.534 1.062,-2.36c0.472,-1.18 1.062,-2.36 1.652,-3.422c0.354,-0.826 0.708,-1.534 1.062,-2.36c0.59,-1.181 1.18,-2.361 1.77,-3.541c0.354,-0.708 0.708,-1.416 1.062,-2.242c0.708,-1.298 1.299,-2.596 2.007,-3.776c0.354,-0.59 0.59,-1.18 0.944,-1.77c1.062,-1.889 2.006,-3.777 3.068,-5.665c18.528,-32.571 42.838,-61.601 72.222,-86.501l-9.913,-13.218c-49.092,32.807 -103.731,51.689 -157.897,54.521c-53.341,2.832 -101.135,-10.031 -138.308,-37.291c-1.888,-1.416 -3.777,-2.832 -5.665,-4.366c-0.59,-0.472 -1.18,-0.945 -1.77,-1.417c-1.298,-1.062 -2.478,-2.006 -3.776,-3.068c-0.708,-0.59 -1.416,-1.18 -2.006,-1.888c-1.063,-0.944 -2.243,-1.888 -3.305,-2.95c-0.708,-0.708 -1.416,-1.416 -2.124,-2.124c-1.062,-0.945 -2.006,-2.007 -2.95,-2.951c-0.708,-0.708 -1.416,-1.534 -2.124,-2.242c-0.944,-0.944 -1.889,-2.006 -2.715,-2.95c-0.708,-0.826 -1.416,-1.652 -2.124,-2.478c-0.826,-0.944 -1.77,-2.007 -2.596,-3.069c-0.708,-0.826 -1.416,-1.77 -2.124,-2.596c-0.826,-1.062 -1.652,-2.006 -2.478,-3.068c-0.708,-0.944 -1.417,-1.77 -2.007,-2.714c-0.59,-0.826 -1.298,-1.652 -1.888,-2.479c-10.857,-47.912 -12.509,-95.942 -4.72,-139.252c8.497,-46.968 28.204,-87.209 57.117,-116.24c26.316,-26.552 60.303,-44.253 100.899,-52.868c45.315,-9.441 99.01,-7.435 159.431,6.136l0.236,0l3.659,-16.167c-78.713,-17.702 -135.476,-44.844 -169.109,-80.955c0.236,-0 0.354,-0.118 0.59,-0.118c2.36,-0.354 4.602,-0.59 6.963,-0.826c0.354,-0 0.708,-0.118 0.944,-0.118c2.36,-0.236 4.838,-0.472 7.198,-0.708l0.708,-0c2.479,-0.236 4.957,-0.354 7.435,-0.472l0.354,-0c2.478,-0.118 5.075,-0.236 7.553,-0.236l0.354,-0c2.478,-0 5.074,-0.118 7.552,-0.118l0.708,-0c2.479,-0 4.839,-0 7.317,0.118l1.062,-0c2.36,0.118 4.721,0.118 7.199,0.236l1.18,-0c2.36,0.118 4.72,0.236 7.081,0.472c0.472,-0 0.826,-0 1.298,0.118c2.36,0.118 4.72,0.354 6.962,0.59c0.472,-0 0.826,0.118 1.18,0.118c2.361,0.236 4.721,0.472 7.081,0.708c0.354,-0 0.708,0.118 1.18,0.118c2.36,0.236 4.72,0.59 7.081,0.944c0.354,-0 0.708,0.118 0.944,0.118c2.478,0.354 4.838,0.708 7.316,1.062c0.236,0 0.472,0.118 0.708,0.118c2.479,0.354 5.075,0.826 7.553,1.298l0.236,0c2.478,0.472 4.957,0.944 7.435,1.416c0.236,0 0.472,0.118 0.59,0.118c2.36,0.472 4.838,0.944 7.198,1.416c0.236,0 0.591,0.118 0.945,0.236c2.36,0.472 4.602,1.063 6.962,1.535c0.354,0.118 0.708,0.118 1.062,0.236c2.242,0.472 4.485,1.062 6.727,1.652c0.354,0.118 0.708,0.236 1.18,0.236c2.242,0.59 4.484,1.18 6.609,1.77c0.354,0.118 0.826,0.236 1.18,0.354c2.242,0.59 4.366,1.18 6.608,1.77c0.354,0.118 0.708,0.236 1.062,0.354c2.242,0.59 4.367,1.298 6.609,1.888c0.354,0.118 0.59,0.236 0.944,0.236c2.242,0.708 4.484,1.416 6.608,2.125c0.237,0.118 0.473,0.118 0.709,0.236c2.242,0.708 4.484,1.416 6.726,2.242c0.118,-0 0.236,0.118 0.354,0.118c2.242,0.708 4.485,1.534 6.727,2.36c0.118,-0 0.236,0.118 0.236,0.118c2.242,0.826 4.366,1.534 6.608,2.36c0.236,0.118 0.354,0.118 0.59,0.236c2.125,0.826 4.131,1.534 6.255,2.36c0.236,0.118 0.472,0.236 0.826,0.236c2.006,0.826 4.012,1.535 5.901,2.361c0.236,0.118 0.59,0.236 0.826,0.354c1.888,0.826 3.894,1.534 5.782,2.36c0.236,0.118 0.59,0.236 0.944,0.354c1.888,0.826 3.776,1.534 5.547,2.36c0.236,0.118 0.59,0.236 0.826,0.354c1.888,0.826 3.658,1.652 5.428,2.478c0.236,0.118 0.472,0.236 0.708,0.354c1.77,0.826 3.659,1.652 5.429,2.597c0.236,0.118 0.354,0.118 0.59,0.236c1.77,0.826 3.658,1.77 5.428,2.596c0.118,-0 0.236,0.118 0.236,0.118c1.888,0.944 3.659,1.77 5.429,2.714c1.888,0.944 3.776,2.006 5.782,3.068c4.839,2.597 9.677,5.311 14.397,8.261l8.615,-14.043c-8.733,-5.547 -17.229,-11.329 -25.372,-17.466c-44.372,-32.925 -80.719,-73.874 -103.967,-117.656c-26.906,-50.626 -35.167,-102.669 -23.248,-146.451c0.354,-1.298 0.708,-2.596 1.18,-3.894c0.118,-0.472 0.354,-0.944 0.472,-1.416c0.236,-0.826 0.472,-1.652 0.826,-2.478c0.236,-0.59 0.472,-1.18 0.59,-1.77c0.236,-0.708 0.472,-1.416 0.708,-2.007c0.236,-0.708 0.472,-1.298 0.708,-2.006c0.236,-0.59 0.472,-1.18 0.708,-1.888c0.236,-0.708 0.591,-1.416 0.827,-2.006c0.236,-0.59 0.472,-1.18 0.708,-1.77c0.236,-0.708 0.59,-1.416 0.944,-2.124c0.236,-0.59 0.472,-1.18 0.708,-1.653c0.354,-0.708 0.708,-1.416 1.062,-2.124c0.236,-0.59 0.472,-1.062 0.708,-1.652c0.354,-0.708 0.708,-1.416 1.062,-2.124c0.236,-0.59 0.59,-1.062 0.826,-1.534c0.354,-0.708 0.826,-1.416 1.18,-2.124c0.236,-0.472 0.59,-1.062 0.826,-1.534c0.354,-0.709 0.826,-1.417 1.298,-2.125c0.236,-0.472 0.59,-0.944 0.826,-1.534c0.472,-0.708 0.826,-1.416 1.299,-2.124c0.354,-0.472 0.59,-0.944 0.944,-1.416c0.472,-0.708 0.944,-1.416 1.416,-2.124c0.354,-0.472 0.59,-0.944 0.944,-1.416c0.472,-0.708 0.944,-1.417 1.416,-2.125c0.354,-0.472 0.59,-0.944 0.944,-1.416c0.472,-0.708 1.062,-1.416 1.534,-2.124c0.354,-0.472 0.708,-0.944 1.062,-1.416c0.472,-0.708 1.062,-1.416 1.534,-2.006c0.354,-0.472 0.708,-0.944 1.062,-1.416c0.473,-0.708 1.063,-1.416 1.653,-2.007c0.354,-0.472 0.708,-0.944 1.062,-1.416c0.59,-0.708 1.062,-1.298 1.652,-2.006c0.354,-0.472 0.708,-0.944 1.18,-1.416c0.59,-0.59 1.18,-1.298 1.652,-1.888c0.354,-0.472 0.826,-0.944 1.18,-1.416c0.59,-0.59 1.18,-1.298 1.77,-1.888c0.472,-0.472 0.826,-0.944 1.298,-1.416c0.591,-0.591 1.181,-1.299 1.771,-1.889c0.472,-0.472 0.826,-0.944 1.298,-1.416c0.59,-0.59 1.18,-1.18 1.888,-1.77c0.472,-0.472 0.944,-0.944 1.416,-1.298c0.59,-0.59 1.298,-1.18 1.888,-1.77c0.472,-0.472 0.944,-0.944 1.416,-1.416c0.59,-0.59 1.298,-1.18 1.888,-1.77c0.473,-0.473 0.945,-0.945 1.535,-1.417c0.59,-0.59 1.298,-1.18 1.888,-1.652c0.472,-0.472 1.062,-0.944 1.534,-1.416c0.59,-0.59 1.298,-1.062 2.006,-1.652c0.59,-0.472 1.062,-0.944 1.652,-1.416c0.708,-0.59 1.298,-1.062 2.006,-1.652c0.59,-0.472 1.18,-0.944 1.771,-1.298c0.708,-0.59 1.298,-1.062 2.006,-1.535c0.59,-0.472 1.18,-0.944 1.77,-1.416c0.708,-0.472 1.416,-1.062 2.124,-1.534c0.59,-0.472 1.18,-0.944 1.888,-1.416c0.708,-0.472 1.416,-0.944 2.124,-1.416c0.59,-0.472 1.299,-0.944 1.889,-1.298c0.708,-0.472 1.416,-0.944 2.124,-1.416c0.708,-0.472 1.298,-0.944 2.006,-1.298c0.708,-0.472 1.416,-0.944 2.124,-1.416c0.708,-0.473 1.416,-0.945 2.124,-1.299c0.708,-0.472 1.416,-0.944 2.124,-1.298c0.591,-0.354 1.181,-0.708 1.771,-1.062c74.464,-26.198 140.786,-22.776 186.81,9.795c23.484,16.521 41.657,40.714 54.284,71.632c13.926,34.341 21.006,77.297 21.006,127.923l16.522,0c-0,-49.682 6.844,-92.166 20.416,-126.271c11.092,-27.968 26.788,-50.508 46.732,-67.029l0.118,0.118c0.354,0.354 0.59,0.826 0.944,1.18c0.472,0.59 0.944,1.18 1.534,1.888c0.354,0.472 0.708,0.944 1.062,1.298c0.472,0.59 0.944,1.18 1.416,1.77c0.354,0.472 0.708,0.944 1.062,1.416c0.472,0.59 0.944,1.18 1.298,1.77c0.354,0.472 0.708,0.944 1.062,1.417c0.472,0.59 0.826,1.18 1.298,1.888c0.354,0.472 0.708,1.062 1.062,1.534c0.473,0.59 0.827,1.298 1.181,1.888c0.354,0.472 0.708,1.062 1.062,1.534c0.354,0.59 0.826,1.298 1.18,2.006c0.354,0.59 0.708,1.062 0.944,1.652c0.354,0.708 0.826,1.299 1.18,2.007c0.354,0.59 0.59,1.062 0.944,1.652c0.354,0.708 0.708,1.298 1.18,2.006c0.354,0.59 0.59,1.062 0.944,1.652c0.354,0.708 0.708,1.416 1.062,2.124c0.354,0.59 0.59,1.18 0.944,1.77c0.354,0.708 0.708,1.417 1.062,2.243c0.237,0.59 0.591,1.062 0.827,1.652c0.354,0.708 0.708,1.534 1.062,2.36c0.236,0.59 0.472,1.062 0.826,1.652c0.354,0.826 0.708,1.652 1.062,2.478c0.236,0.472 0.472,1.062 0.708,1.534c0.354,0.945 0.826,1.889 1.18,2.833c0.236,0.472 0.354,0.944 0.59,1.298c0.472,1.298 1.062,2.596 1.534,3.776c0,0.118 0.118,0.236 0.118,0.354c0.59,1.416 1.062,2.832 1.652,4.367c0.118,0.354 0.236,0.826 0.472,1.18c0.354,1.062 0.826,2.124 1.18,3.186c0.236,0.59 0.354,1.062 0.591,1.652c0.354,0.944 0.708,1.888 0.944,2.832c0.236,0.59 0.354,1.18 0.59,1.77c0.236,0.945 0.59,1.771 0.826,2.715c0.236,0.59 0.354,1.298 0.59,1.888c0.236,0.944 0.59,1.77 0.826,2.596c0.236,0.708 0.354,1.298 0.59,2.006c0.236,0.826 0.472,1.77 0.826,2.596c0.236,0.709 0.354,1.417 0.59,2.125c0.236,0.944 0.472,1.77 0.708,2.714c0.236,0.708 0.354,1.416 0.59,2.124c0.236,0.944 0.472,1.77 0.708,2.714c0.236,0.708 0.354,1.416 0.472,2.124c0.236,0.945 0.472,1.771 0.708,2.715c0.118,0.708 0.354,1.416 0.472,2.242c0.236,0.944 0.354,1.888 0.59,2.832c0.118,0.708 0.354,1.416 0.472,2.242c0.236,0.944 0.354,1.889 0.59,2.833c0.118,0.708 0.236,1.534 0.473,2.242c0.236,0.944 0.354,1.888 0.59,2.95c0.118,0.708 0.236,1.416 0.354,2.242c0.118,0.944 0.354,2.006 0.472,3.069c0.118,0.708 0.236,1.416 0.354,2.124c0.236,1.062 0.354,2.124 0.472,3.186c0.118,0.708 0.236,1.416 0.354,2.124c0.236,1.18 0.354,2.36 0.59,3.658c0.118,0.591 0.118,1.181 0.236,1.771c0.236,1.77 0.472,3.54 0.708,5.428c5.782,46.85 4.248,100.073 -4.367,145.979c-1.416,7.434 -3.068,14.869 -4.838,22.304l16.049,4.012c0.473,-1.888 0.945,-3.776 1.535,-5.664c13.335,-49.329 34.695,-93.819 62.073,-130.402c5.31,-7.08 10.857,-13.807 16.521,-20.18c3.423,-3.894 6.963,-7.552 10.385,-11.092c34.105,-34.223 72.223,-54.521 111.284,-58.888c8.379,-0.944 16.993,-1.18 25.726,-0.59l0.118,0c1.18,0.118 2.36,0.236 3.658,0.236l0.237,0c1.18,0.118 2.36,0.236 3.54,0.354l0.354,0c1.18,0.118 2.242,0.236 3.422,0.354c0.118,0 0.354,0 0.472,0.118c1.062,0.118 2.242,0.354 3.304,0.473c0.236,-0 0.355,0.118 0.591,0.118c1.062,0.118 2.124,0.354 3.186,0.59c0.236,-0 0.472,0.118 0.708,0.118c1.062,0.236 2.006,0.354 3.068,0.59c0.236,-0 0.59,0.118 0.826,0.236c0.944,0.236 2.006,0.354 2.95,0.59c0.354,0.118 0.591,0.118 0.945,0.236c0.944,0.236 1.888,0.472 2.832,0.708c0.354,0.118 0.708,0.236 1.062,0.236c0.944,0.236 1.77,0.472 2.714,0.708c0.354,0.118 0.708,0.236 1.18,0.354c0.944,0.236 1.77,0.472 2.596,0.708c0.472,0.118 0.827,0.236 1.299,0.354c0.826,0.236 1.652,0.472 2.596,0.826c0.472,0.118 0.944,0.236 1.298,0.472c0.826,0.236 1.652,0.59 2.478,0.826c0.472,0.118 0.944,0.354 1.416,0.472c0.826,0.236 1.534,0.59 2.36,0.826c0.472,0.236 1.063,0.354 1.535,0.59c0.708,0.236 1.534,0.59 2.242,0.826c0.472,0.236 1.062,0.472 1.652,0.59c0.708,0.236 1.416,0.591 2.242,0.827c0.59,0.236 1.062,0.472 1.652,0.708c0.708,0.236 1.416,0.59 2.124,0.944c0.59,0.236 1.181,0.472 1.771,0.826c0.708,0.354 1.416,0.59 2.124,0.944c0.59,0.236 1.18,0.59 1.77,0.826c0.708,0.354 1.298,0.59 2.006,0.944c0.59,0.236 1.18,0.59 1.77,0.944c0.708,0.354 1.298,0.59 2.006,0.944c0.59,0.354 1.299,0.59 1.889,0.944c0.59,0.354 1.298,0.708 1.888,1.062c0.59,0.354 1.298,0.708 1.888,0.944c0.59,0.354 1.298,0.708 1.888,1.062c0.59,0.355 1.298,0.709 1.888,1.063c0.59,0.354 1.298,0.708 1.888,1.062c0.59,0.354 1.298,0.708 1.889,1.18c0.59,0.354 1.18,0.708 1.888,1.062c0.708,0.354 1.298,0.826 2.006,1.18c0.59,0.354 1.18,0.708 1.77,1.062c0.708,0.354 1.298,0.826 2.006,1.18c0.472,0.236 0.944,0.59 1.298,0.826c48.503,59.005 65.85,118.837 48.739,168.637c-9.441,27.732 -29.503,52.278 -59.714,73.048c-33.751,23.248 -80.129,41.54 -137.836,54.521l-0.236,-0l3.659,16.167c62.427,-14.043 117.538,-15.813 163.798,-5.192c38.825,8.851 71.278,26.316 96.65,51.806c-1.18,1.416 -2.478,2.833 -3.658,4.249c-0.118,0.118 -0.236,0.236 -0.354,0.472c-1.416,1.534 -2.95,3.186 -4.484,4.72c-0.472,0.472 -1.063,0.944 -1.535,1.534c-1.062,1.062 -2.124,2.124 -3.186,3.069c-0.59,0.59 -1.298,1.18 -2.006,1.77c-0.944,0.944 -2.006,1.77 -2.95,2.714c-0.708,0.59 -1.416,1.298 -2.242,1.888c-0.945,0.826 -2.007,1.652 -2.951,2.478c-0.826,0.59 -1.534,1.298 -2.36,1.888c-0.944,0.827 -2.006,1.535 -2.95,2.361c-0.826,0.59 -1.652,1.298 -2.478,1.888c-1.063,0.708 -2.007,1.534 -3.069,2.242c-0.826,0.59 -1.77,1.18 -2.596,1.77c-1.062,0.708 -2.124,1.416 -3.186,2.124c-0.944,0.59 -1.77,1.18 -2.714,1.771c-1.063,0.708 -2.243,1.416 -3.305,2.124c-0.944,0.59 -1.888,1.18 -2.832,1.652c-1.18,0.708 -2.242,1.298 -3.422,2.006c-0.944,0.59 -1.888,1.062 -2.832,1.652c-1.181,0.708 -2.361,1.298 -3.659,1.888c-0.944,0.472 -1.888,1.062 -2.832,1.534c-1.298,0.59 -2.478,1.299 -3.776,1.889c-0.944,0.472 -1.889,0.944 -2.833,1.416c-1.298,0.59 -2.714,1.298 -4.13,1.888c-0.944,0.472 -1.888,0.826 -2.832,1.298c-1.534,0.708 -3.068,1.298 -4.721,2.006c-0.826,0.354 -1.534,0.708 -2.36,0.944c-2.36,0.944 -4.838,1.888 -7.198,2.833c-40.006,15.105 -87.092,22.657 -135.83,21.831l-0.826,16.522c22.776,2.006 44.844,6.136 65.731,12.155c3.187,0.944 6.373,1.888 9.559,2.95c4.721,1.534 9.441,3.186 14.043,4.839c70.925,26.434 126.271,75.644 150.345,137.245c0.591,1.535 1.181,3.069 1.653,4.485c0.118,0.354 0.236,0.708 0.354,1.062c0.472,1.18 0.826,2.36 1.18,3.54c0.118,0.472 0.354,1.062 0.472,1.534c0.354,0.944 0.708,2.007 0.944,3.069c0.236,0.59 0.354,1.18 0.472,1.77c0.236,0.944 0.59,1.888 0.826,2.832c0.118,0.59 0.354,1.298 0.472,1.888c0.236,0.944 0.472,1.888 0.708,2.832c0.118,0.59 0.354,1.299 0.472,2.007c0.236,0.944 0.472,1.77 0.708,2.714c0.118,0.708 0.236,1.298 0.472,2.006c0.236,0.944 0.354,1.77 0.59,2.714c0.118,0.708 0.236,1.416 0.354,2.124c0.118,0.945 0.354,1.771 0.472,2.715c0.118,0.708 0.236,1.416 0.354,2.124c0.118,0.944 0.236,1.77 0.472,2.714c0.118,0.708 0.236,1.416 0.354,2.124c0.118,0.944 0.236,1.77 0.354,2.714c0.118,0.709 0.118,1.417 0.236,2.125c0.118,0.944 0.237,1.77 0.355,2.714c0.118,0.708 0.118,1.534 0.236,2.242c0.118,0.826 0.118,1.77 0.236,2.596c-0,0.708 0.118,1.534 0.118,2.243c0.118,0.826 0.118,1.77 0.118,2.596c-0,0.826 0.118,1.534 0.118,2.36c-0,0.826 0.118,1.77 0.118,2.596c-0,0.826 -0,1.534 0.118,2.36l-0,6.845c-17.938,39.061 -41.776,72.34 -68.8,96.414c-29.503,26.199 -61.602,40.714 -95.471,43.31c-77.768,5.783 -159.077,-52.75 -234.958,-169.463l-0.118,-0.118l-13.807,8.969c36.465,56.173 60.303,109.514 70.924,158.252c7.317,39.179 7.199,75.644 -1.652,108.333Zm-57.943,249.238c-16.168,-0 -29.149,-13.099 -29.149,-29.149c0,-16.049 13.099,-29.148 29.149,-29.148c16.049,-0 29.148,13.099 29.148,29.148c0,16.168 -13.099,29.149 -29.148,29.149Zm-91.576,-53.459c-8.143,0 -14.633,-6.608 -14.633,-14.633c-0,-8.143 6.608,-14.633 14.633,-14.633c8.025,-0 14.633,6.608 14.633,14.633c0.118,8.025 -6.49,14.633 -14.633,14.633Zm-220.207,-19.944c-40.478,-1.18 -81.427,-9.912 -118.364,-25.49c-31.155,-13.099 -58.297,-30.446 -80.719,-51.57c-24.428,-22.894 -42.602,-49.801 -54.167,-80.011c-13.217,-34.459 -17.466,-73.284 -12.509,-112.582c31.863,-7.435 63.961,-24.31 95.352,-50.154c13.689,-11.329 27.378,-24.31 40.95,-39.062c-45.552,107.39 -30.683,181.972 -6.019,228.586c20.888,39.534 55.937,72.34 101.371,94.762c30.092,14.87 64.079,25.019 99.837,29.975c-20.298,4.366 -42.484,6.255 -65.732,5.546Zm-180.202,-34.104c-16.639,50.508 -45.08,93.228 -80.601,121.432l-196.605,0c-58.297,-46.024 -94.88,-128.159 -97.004,-217.965l294.553,0c12.155,24.31 28.677,46.378 49.329,65.732c9.794,9.205 20.297,17.583 31.626,25.372l-1.298,5.429Zm-267.057,223.157l0,-85.322l177.724,0l-0,85.322l-177.724,-0Zm75.763,-363.236c-1.534,8.851 -2.715,17.938 -3.423,27.025l-26.434,-0c0.708,-10.503 2.006,-21.124 3.776,-31.509c9.441,-54.757 32.571,-106.799 68.682,-154.711c29.031,-38.472 58.061,-63.136 70.452,-73.757l0.236,-0.118c4.249,-3.54 8.379,-7.08 12.628,-10.267c11.801,-3.776 23.366,-8.378 34.931,-13.571c-11.211,13.335 -21.36,27.615 -30.211,42.484c-0.59,0.944 -1.062,1.888 -1.652,2.714l-0.472,0.472c-46.968,47.322 -111.402,112.11 -128.513,211.238Zm-272.958,-960.839c70.806,0.472 108.097,-13.335 161.32,-59.949c-0.472,70.806 13.335,108.097 59.949,161.32c-70.688,-0.472 -108.097,13.453 -161.32,59.949c0.59,-70.688 -13.335,-107.979 -59.949,-161.32Zm116.358,593.238c-17.229,-43.9 -22.068,-96.179 -13.335,-149.873c5.664,-34.459 16.875,-67.856 32.453,-96.651c16.403,-30.21 36.819,-54.52 60.657,-72.34c20.534,-15.223 44.962,-26.08 72.812,-32.099c21.36,25.962 52.633,47.676 93.582,65.26c-25.726,-0.59 -49.918,1.416 -72.222,6.136c-43.9,9.205 -80.601,28.441 -109.277,57.353c-31.155,31.391 -52.515,74.583 -61.602,124.973c-5.546,30.565 -6.49,63.608 -3.068,97.241Zm553.232,-745.235c63.962,0 118.364,17.466 153.295,49.446c0.944,0.826 1.77,1.652 2.715,2.479c-21.714,18.173 -38.826,42.719 -50.863,73.048c-5.428,13.689 -9.913,28.676 -13.217,44.844c-3.54,-16.876 -8.261,-32.453 -14.043,-46.614c-13.807,-33.987 -33.987,-60.422 -60.067,-78.949c-32.335,-22.894 -73.403,-32.807 -119.781,-29.621c32.099,-9.44 66.322,-14.515 100.073,-14.751l1.888,0l0,0.118Zm672.894,330.193c28.205,66.557 30.329,129.339 6.019,176.779c-2.478,4.838 -5.311,9.559 -8.379,14.161c-27.378,-26.906 -61.955,-45.316 -103.023,-54.639c-23.602,-5.428 -49.21,-7.788 -76.825,-7.08c19.944,-8.497 37.764,-18.056 53.105,-28.677c33.161,-22.776 55.347,-50.154 65.968,-81.309c14.515,-42.365 7.198,-90.514 -20.416,-139.252c34.813,32.925 64.552,75.291 83.551,120.017Z" style="fill:#ff4500;fill-rule:nonzero;"/><path d="M1421.53,1498.55l-1.416,5.31c-16.639,50.509 -45.08,93.229 -80.601,121.433l-196.605,0c-58.297,-46.024 -94.88,-128.159 -97.004,-217.965l294.553,0c12.155,24.31 28.677,46.378 49.329,65.732c9.912,9.323 20.415,17.701 31.744,25.49Z" style="fill:#1fa2c3;fill-rule:nonzero;"/><path d="M1389.67,1106.99c-11.211,13.335 -21.36,27.615 -30.211,42.484c-0.59,0.944 -1.062,1.888 -1.652,2.714l-0.472,0.472c-46.968,47.322 -111.402,112.11 -128.513,211.238c-1.534,8.851 -2.715,17.938 -3.423,27.025l-26.434,-0c0.708,-10.503 2.006,-21.124 3.776,-31.509c9.441,-54.757 32.571,-106.799 68.682,-154.711c29.031,-38.472 58.061,-63.136 70.452,-73.757l0.236,-0.118c4.249,-3.54 8.379,-7.08 12.628,-10.267c11.801,-3.894 23.484,-8.378 34.931,-13.571Z" style="fill:#fff;fill-rule:nonzero;"/><path d="M1814.99,1529.9c7.462,-3.091 16.029,0.458 19.12,7.92c3.091,7.462 -0.458,16.029 -7.919,19.12c-7.462,3.09 -16.029,-0.458 -19.12,-7.92c-3.091,-7.462 0.458,-16.029 7.919,-19.12Z" style="fill:#1fa2c3;"/><path d="M1941.25,1582.34c0,16.05 -13.099,29.149 -29.148,29.149c-16.168,-0 -29.149,-13.099 -29.149,-29.149c0,-16.049 13.099,-29.148 29.149,-29.148c16.049,-0 29.148,13.099 29.148,29.148Z" style="fill:#1fa2c3;fill-rule:nonzero;"/><path d="M1177.25,504.434c-70.688,-0.472 -108.097,13.453 -161.32,59.949c0.472,-70.806 -13.335,-108.097 -59.949,-161.32c70.806,0.472 108.097,-13.335 161.32,-59.949c-0.59,70.806 13.335,108.097 59.949,161.32Z" style="fill:#1fa2c3;fill-rule:nonzero;"/><path d="M1796.57,859.999c-0,19.589 -15.932,35.521 -35.521,35.521c-19.59,-0 -35.521,-15.932 -35.521,-35.521c-0,-19.59 15.931,-35.521 35.521,-35.521c19.589,-0 35.521,15.931 35.521,35.521Z" style="fill:#ff4500;fill-rule:nonzero;"/><path d="M1956,799.696c-0,49.446 -40.242,89.687 -89.57,89.687c-19.708,0 -38.825,-6.49 -54.403,-18.409c0.708,-3.541 1.18,-7.199 1.18,-10.857c0,-23.012 -14.987,-42.484 -35.639,-49.446c-0.472,-3.659 -0.708,-7.317 -0.708,-10.857c0,-20.298 6.845,-38.944 18.174,-54.049c-4.957,9.559 -7.671,20.298 -7.671,31.745c0,38.235 31.037,69.272 69.272,69.272c3.776,-0 7.317,-0.236 10.975,-0.826c-6.845,-7.199 -10.975,-16.994 -10.975,-27.733c0,-22.422 18.174,-40.713 40.714,-40.713c10.738,-0 20.415,4.13 27.732,10.857c0.59,-3.541 0.826,-7.199 0.826,-10.857c0,-32.217 -21.95,-59.241 -51.688,-67.03c45.67,3.776 81.781,42.365 81.781,89.216Z" style="fill:#fff;fill-rule:nonzero;"/><path d="M1745.47,799.696c0,3.658 -0.236,7.316 -0.708,10.856c-20.769,6.845 -35.639,26.435 -35.639,49.447c0,3.776 0.354,7.316 1.18,10.857c-15.577,11.919 -34.695,18.409 -54.402,18.409c-49.447,0 -89.57,-40.241 -89.57,-89.687c-0,-3.541 0.236,-6.963 0.59,-10.503c5.664,32.57 33.987,57.353 68.21,57.353c3.776,-0 7.316,-0.236 10.975,-0.826c-6.845,-7.199 -10.975,-16.994 -10.975,-27.733c-0,-22.422 18.173,-40.713 40.713,-40.713c10.739,-0 20.416,4.13 27.733,10.857c0.59,-3.541 0.826,-7.199 0.826,-10.857c-0,-32.571 -22.422,-59.832 -52.633,-67.266c1.416,-0 2.833,-0.118 4.249,-0.118c49.21,0.236 89.451,40.477 89.451,89.924Z" style="fill:#fff;fill-rule:nonzero;"/><path d="M1903.25,968.332c-8.969,-16.993 -26.316,-22.186 -46.614,-22.186c-16.403,0 -34.577,3.305 -51.806,6.491c-15.106,2.832 -29.385,5.428 -41.068,5.428l-0.354,0c-12.155,0 -26.67,-2.714 -41.894,-5.664c-17.465,-3.305 -35.167,-6.609 -50.98,-6.609c-20.18,0 -37.291,5.429 -46.732,23.366c-6.491,12.509 -7.199,22.658 -2.006,31.155c8.26,13.453 31.508,23.72 67.148,29.62c31.154,5.075 62.545,5.429 74.7,5.311c15.223,-0.118 45.198,-1.062 74.464,-6.255c35.876,-6.254 59.124,-16.757 67.266,-30.328c4.957,-8.261 4.249,-18.174 -2.124,-30.329Zm-139.724,41.304c-31.037,-0 -61.247,-7.553 -89.806,-22.304l7.553,-14.633c26.198,13.571 53.813,20.415 82.135,20.415c28.322,0 55.937,-6.844 82.135,-20.415l7.553,14.633c-28.323,14.869 -58.533,22.304 -89.57,22.304Z" style="fill:#ff4500;fill-rule:nonzero;"/><path d="M2312.87,1109.83c-0,-0.826 -0,-1.534 -0.118,-2.36c-0,-0.826 -0,-1.77 -0.119,-2.596c0,-0.826 -0.118,-1.534 -0.118,-2.36c0,-0.944 -0.118,-1.77 -0.118,-2.596c0,-0.709 -0.118,-1.535 -0.118,-2.243c0,-0.944 -0.118,-1.77 -0.236,-2.596c-0.118,-0.708 -0.118,-1.534 -0.236,-2.242c-0.118,-0.944 -0.236,-1.77 -0.354,-2.714c-0.118,-0.708 -0.118,-1.416 -0.236,-2.124c-0.118,-0.945 -0.236,-1.771 -0.354,-2.715c-0.118,-0.708 -0.236,-1.416 -0.354,-2.124c-0.118,-0.944 -0.236,-1.77 -0.472,-2.714c-0.118,-0.708 -0.236,-1.416 -0.354,-2.124c-0.118,-0.944 -0.354,-1.77 -0.472,-2.715c-0.118,-0.708 -0.236,-1.416 -0.354,-2.124c-0.236,-0.944 -0.354,-1.77 -0.59,-2.714c-0.118,-0.708 -0.236,-1.298 -0.472,-2.006c-0.236,-0.944 -0.472,-1.77 -0.708,-2.714c-0.118,-0.59 -0.354,-1.299 -0.472,-2.007c-0.236,-0.944 -0.472,-1.888 -0.708,-2.832c-0.118,-0.59 -0.354,-1.298 -0.472,-1.888c-0.236,-0.944 -0.59,-1.888 -0.826,-2.832c-0.118,-0.59 -0.354,-1.18 -0.472,-1.77c-0.354,-1.062 -0.59,-2.007 -0.944,-3.069c-0.118,-0.472 -0.354,-1.062 -0.472,-1.534c-0.354,-1.18 -0.826,-2.36 -1.18,-3.54c-0.118,-0.354 -0.236,-0.708 -0.354,-1.062c-0.591,-1.534 -1.063,-3.068 -1.653,-4.485c-24.074,-61.601 -79.539,-110.811 -150.345,-137.245c-4.602,-1.771 -9.322,-3.305 -14.043,-4.839c-3.186,-1.062 -6.372,-2.006 -9.559,-2.95c-20.887,-6.019 -42.955,-10.149 -65.731,-12.155l0.826,-16.522c48.856,0.826 95.824,-6.726 135.829,-21.831c2.479,-0.945 4.839,-1.889 7.199,-2.833c0.826,-0.354 1.534,-0.708 2.36,-0.944c1.534,-0.708 3.187,-1.298 4.721,-2.006c0.944,-0.472 1.888,-0.826 2.832,-1.298c1.416,-0.59 2.714,-1.298 4.13,-1.888c0.944,-0.472 1.888,-0.944 2.833,-1.416c1.298,-0.59 2.596,-1.298 3.776,-1.889c0.944,-0.472 1.888,-1.062 2.832,-1.534c1.18,-0.59 2.478,-1.298 3.658,-1.888c0.945,-0.59 1.889,-1.062 2.833,-1.652c1.18,-0.708 2.36,-1.298 3.422,-2.006c0.944,-0.59 1.888,-1.18 2.832,-1.652c1.062,-0.708 2.242,-1.416 3.304,-2.124c0.945,-0.591 1.771,-1.181 2.715,-1.771c1.062,-0.708 2.124,-1.416 3.186,-2.124c0.826,-0.59 1.77,-1.18 2.596,-1.77c1.062,-0.708 2.124,-1.416 3.068,-2.242c0.827,-0.59 1.653,-1.18 2.479,-1.888c1.062,-0.826 2.006,-1.534 2.95,-2.361c0.826,-0.59 1.652,-1.298 2.36,-1.888c0.944,-0.826 2.006,-1.652 2.95,-2.478c0.708,-0.59 1.535,-1.18 2.243,-1.888c0.944,-0.826 2.006,-1.77 2.95,-2.714c0.708,-0.59 1.298,-1.18 2.006,-1.77c1.062,-1.063 2.124,-2.007 3.186,-3.069c0.472,-0.472 1.062,-0.944 1.534,-1.534c1.535,-1.534 2.951,-3.186 4.485,-4.72c0.118,-0.118 0.236,-0.236 0.354,-0.472c1.298,-1.416 2.478,-2.833 3.658,-4.249c-25.372,-25.608 -57.943,-43.073 -96.65,-51.806c-46.26,-10.503 -101.371,-8.851 -163.798,5.192l-3.659,-16.167l0.236,-0c57.707,-12.981 104.085,-31.273 137.836,-54.521c30.093,-20.652 50.273,-45.316 59.713,-73.048c16.994,-49.8 -0.236,-109.632 -48.738,-168.637c-0.472,-0.236 -0.944,-0.59 -1.298,-0.826c-0.708,-0.354 -1.298,-0.826 -2.006,-1.18c-0.59,-0.354 -1.18,-0.708 -1.77,-1.062c-0.708,-0.354 -1.298,-0.826 -2.006,-1.18c-0.59,-0.354 -1.18,-0.708 -1.889,-1.062c-0.708,-0.354 -1.298,-0.708 -1.888,-1.18c-0.59,-0.354 -1.298,-0.708 -1.888,-1.062c-0.59,-0.354 -1.298,-0.708 -1.888,-1.063c-0.59,-0.354 -1.298,-0.708 -1.888,-1.062c-0.59,-0.354 -1.298,-0.708 -1.888,-0.944c-0.59,-0.354 -1.298,-0.708 -1.889,-1.062c-0.59,-0.354 -1.298,-0.59 -1.888,-0.944c-0.708,-0.354 -1.298,-0.59 -2.006,-0.944c-0.59,-0.236 -1.18,-0.59 -1.77,-0.944c-0.708,-0.354 -1.298,-0.59 -2.006,-0.944c-0.59,-0.236 -1.18,-0.59 -1.77,-0.826c-0.708,-0.354 -1.416,-0.59 -2.125,-0.944c-0.59,-0.236 -1.18,-0.472 -1.77,-0.826c-0.708,-0.354 -1.416,-0.59 -2.124,-0.944c-0.59,-0.236 -1.062,-0.472 -1.652,-0.708c-0.708,-0.236 -1.416,-0.591 -2.242,-0.827c-0.472,-0.236 -1.062,-0.472 -1.652,-0.59c-0.708,-0.236 -1.534,-0.59 -2.243,-0.826c-0.472,-0.236 -1.062,-0.354 -1.534,-0.59c-0.826,-0.236 -1.534,-0.59 -2.36,-0.826c-0.472,-0.118 -0.944,-0.354 -1.416,-0.472c-0.826,-0.236 -1.652,-0.59 -2.478,-0.826c-0.472,-0.118 -0.944,-0.354 -1.298,-0.472c-0.826,-0.236 -1.652,-0.59 -2.597,-0.826c-0.354,-0.118 -0.826,-0.236 -1.298,-0.354c-0.944,-0.236 -1.77,-0.472 -2.596,-0.708c-0.354,-0.118 -0.708,-0.236 -1.18,-0.354c-0.944,-0.236 -1.77,-0.472 -2.714,-0.708c-0.354,-0.118 -0.708,-0.118 -1.062,-0.236c-0.944,-0.236 -1.888,-0.472 -2.833,-0.708c-0.354,-0.118 -0.59,-0.118 -0.944,-0.236c-0.944,-0.236 -2.006,-0.472 -2.95,-0.59c-0.236,-0 -0.59,-0.118 -0.826,-0.236c-1.062,-0.236 -2.006,-0.354 -3.068,-0.59c-0.236,-0 -0.472,-0.118 -0.708,-0.118c-1.062,-0.236 -2.124,-0.354 -3.187,-0.59c-0.236,-0 -0.354,-0.118 -0.59,-0.118c-1.062,-0.237 -2.242,-0.355 -3.304,-0.473c-0.118,0 -0.354,0 -0.472,-0.118c-1.18,-0.118 -2.242,-0.236 -3.422,-0.354l-0.354,0c-1.18,-0.118 -2.36,-0.236 -3.541,-0.354l-0.236,0c-1.18,-0.118 -2.36,-0.236 -3.658,-0.236l-0.118,0c-8.733,-0.59 -17.229,-0.354 -25.726,0.59c-38.944,4.367 -77.179,24.665 -111.284,58.888c-3.54,3.54 -6.962,7.198 -10.385,11.092c-5.782,6.491 -11.329,13.218 -16.521,20.18c-27.496,36.583 -48.738,81.073 -62.073,130.402c-0.473,1.888 -1.063,3.776 -1.535,5.664l-16.049,-4.012c1.888,-7.317 3.422,-14.87 4.838,-22.304c8.497,-45.906 10.149,-99.129 4.367,-145.979c-0.236,-1.77 -0.472,-3.658 -0.708,-5.428c-0.118,-0.59 -0.118,-1.18 -0.236,-1.771c-0.236,-1.18 -0.354,-2.36 -0.59,-3.658c-0.118,-0.708 -0.236,-1.416 -0.354,-2.124c-0.118,-1.062 -0.354,-2.124 -0.472,-3.186c-0.118,-0.708 -0.236,-1.416 -0.354,-2.124c-0.118,-0.945 -0.354,-2.007 -0.472,-3.069c-0.119,-0.708 -0.237,-1.416 -0.355,-2.242c-0.236,-0.944 -0.354,-2.006 -0.59,-2.95c-0.118,-0.708 -0.236,-1.534 -0.472,-2.242c-0.236,-0.944 -0.354,-1.889 -0.59,-2.833c-0.118,-0.708 -0.354,-1.416 -0.472,-2.242c-0.236,-0.944 -0.354,-1.888 -0.59,-2.832c-0.118,-0.708 -0.354,-1.416 -0.472,-2.242c-0.236,-0.944 -0.472,-1.77 -0.708,-2.715c-0.118,-0.708 -0.354,-1.416 -0.472,-2.124c-0.236,-0.944 -0.472,-1.77 -0.708,-2.714c-0.236,-0.708 -0.354,-1.416 -0.59,-2.124c-0.236,-0.944 -0.472,-1.77 -0.708,-2.714c-0.236,-0.708 -0.354,-1.416 -0.59,-2.125c-0.236,-0.944 -0.472,-1.77 -0.826,-2.596c-0.236,-0.708 -0.354,-1.416 -0.59,-2.006c-0.236,-0.944 -0.59,-1.77 -0.826,-2.596c-0.236,-0.59 -0.354,-1.298 -0.59,-1.888c-0.236,-0.944 -0.59,-1.77 -0.826,-2.715c-0.236,-0.59 -0.354,-1.18 -0.59,-1.77c-0.355,-0.944 -0.591,-1.888 -0.945,-2.832c-0.236,-0.59 -0.354,-1.062 -0.59,-1.652c-0.354,-1.062 -0.708,-2.124 -1.18,-3.186c-0.118,-0.354 -0.236,-0.826 -0.472,-1.18c-0.59,-1.417 -1.062,-2.833 -1.652,-4.367c0,-0.118 -0.118,-0.236 -0.118,-0.354c-0.472,-1.298 -1.062,-2.596 -1.534,-3.776c-0.236,-0.472 -0.354,-0.944 -0.59,-1.298c-0.354,-0.944 -0.826,-1.888 -1.18,-2.833c-0.236,-0.59 -0.472,-1.062 -0.708,-1.534c-0.354,-0.826 -0.708,-1.652 -1.062,-2.478c-0.236,-0.59 -0.472,-1.062 -0.826,-1.652c-0.354,-0.826 -0.708,-1.534 -1.063,-2.36c-0.236,-0.59 -0.59,-1.18 -0.826,-1.652c-0.354,-0.708 -0.708,-1.417 -1.062,-2.243c-0.236,-0.59 -0.59,-1.18 -0.944,-1.77c-0.354,-0.708 -0.708,-1.416 -1.062,-2.124c-0.354,-0.59 -0.59,-1.18 -0.944,-1.652c-0.354,-0.708 -0.708,-1.416 -1.18,-2.006c-0.354,-0.59 -0.59,-1.062 -0.944,-1.652c-0.354,-0.708 -0.826,-1.298 -1.18,-2.007c-0.354,-0.59 -0.708,-1.062 -0.944,-1.652c-0.354,-0.59 -0.826,-1.298 -1.18,-2.006c-0.354,-0.472 -0.708,-1.062 -1.063,-1.534c-0.354,-0.59 -0.826,-1.298 -1.18,-1.888c-0.354,-0.472 -0.708,-1.062 -1.062,-1.534c-0.472,-0.59 -0.826,-1.18 -1.298,-1.888c-0.354,-0.473 -0.708,-0.945 -1.062,-1.417c-0.472,-0.59 -0.826,-1.18 -1.298,-1.77c-0.354,-0.472 -0.708,-0.944 -1.062,-1.416c-0.472,-0.59 -0.944,-1.18 -1.416,-1.77c-0.354,-0.472 -0.708,-0.944 -1.062,-1.298c-0.472,-0.59 -1.062,-1.298 -1.534,-1.888c-0.354,-0.354 -0.709,-0.826 -0.945,-1.18l-0.118,-0.118c-19.943,16.521 -35.639,38.943 -46.732,67.029c-13.571,34.105 -20.415,76.471 -20.415,126.271l-16.522,0c0,-50.508 -7.08,-93.582 -21.006,-127.923c-12.627,-30.918 -30.8,-55.111 -54.284,-71.632c-46.024,-32.453 -112.346,-35.993 -186.81,-9.795c-0.591,0.354 -1.181,0.708 -1.771,1.062c-0.708,0.472 -1.416,0.944 -2.124,1.298c-0.708,0.472 -1.416,0.944 -2.124,1.299c-0.708,0.472 -1.416,0.944 -2.124,1.416c-0.708,0.472 -1.298,0.944 -2.006,1.298c-0.708,0.472 -1.416,0.944 -2.125,1.416c-0.59,0.472 -1.298,0.944 -1.888,1.298c-0.708,0.472 -1.416,0.944 -2.124,1.416c-0.59,0.472 -1.18,0.944 -1.888,1.416c-0.708,0.472 -1.416,0.944 -2.124,1.534c-0.59,0.472 -1.18,0.944 -1.77,1.416c-0.708,0.473 -1.417,1.063 -2.007,1.535c-0.59,0.472 -1.18,0.944 -1.77,1.298c-0.708,0.59 -1.298,1.062 -2.006,1.652c-0.59,0.472 -1.062,0.944 -1.652,1.416c-0.708,0.59 -1.298,1.062 -2.006,1.652c-0.59,0.472 -1.062,0.944 -1.534,1.416c-0.708,0.59 -1.298,1.18 -1.888,1.652c-0.473,0.472 -1.063,0.944 -1.535,1.417c-0.708,0.59 -1.298,1.18 -1.888,1.77c-0.472,0.472 -0.944,0.944 -1.416,1.416c-0.59,0.59 -1.298,1.18 -1.888,1.77c-0.472,0.472 -0.944,0.944 -1.416,1.298c-0.59,0.59 -1.298,1.18 -1.888,1.77c-0.472,0.472 -0.826,0.944 -1.298,1.416c-0.591,0.59 -1.181,1.18 -1.771,1.889c-0.472,0.472 -0.826,0.944 -1.298,1.416c-0.59,0.59 -1.18,1.298 -1.77,1.888c-0.472,0.472 -0.826,0.944 -1.18,1.416c-0.59,0.59 -1.18,1.298 -1.652,1.888c-0.354,0.472 -0.708,0.944 -1.18,1.416c-0.59,0.708 -1.062,1.298 -1.652,2.006c-0.354,0.472 -0.708,0.944 -1.062,1.417c-0.591,0.708 -1.063,1.298 -1.653,2.006c-0.354,0.472 -0.708,0.944 -1.062,1.416c-0.472,0.708 -1.062,1.416 -1.534,2.006c-0.354,0.472 -0.708,0.944 -1.062,1.416c-0.472,0.708 -1.062,1.416 -1.534,2.124c-0.354,0.472 -0.59,0.944 -0.944,1.416c-0.472,0.708 -0.944,1.417 -1.416,2.125c-0.354,0.472 -0.59,0.944 -0.944,1.416c-0.472,0.708 -0.944,1.416 -1.416,2.124c-0.355,0.472 -0.591,0.944 -0.945,1.416c-0.472,0.708 -0.826,1.416 -1.298,2.124c-0.236,0.472 -0.59,0.944 -0.826,1.534c-0.472,0.708 -0.826,1.416 -1.298,2.125c-0.236,0.472 -0.59,1.062 -0.826,1.534c-0.354,0.708 -0.826,1.416 -1.18,2.124c-0.236,0.472 -0.59,1.062 -0.826,1.534c-0.354,0.708 -0.708,1.416 -1.062,2.124c-0.236,0.59 -0.472,1.062 -0.708,1.652c-0.354,0.708 -0.708,1.416 -1.062,2.124c-0.236,0.591 -0.472,1.181 -0.708,1.653c-0.354,0.708 -0.59,1.416 -0.944,2.124c-0.237,0.59 -0.473,1.18 -0.709,1.77c-0.236,0.708 -0.59,1.416 -0.826,2.006c-0.236,0.59 -0.472,1.18 -0.708,1.888c-0.236,0.708 -0.472,1.298 -0.708,2.006c-0.236,0.709 -0.472,1.299 -0.708,2.007c-0.236,0.59 -0.472,1.18 -0.59,1.77c-0.236,0.826 -0.472,1.652 -0.826,2.478c-0.118,0.472 -0.354,0.944 -0.472,1.416c-0.354,1.298 -0.826,2.596 -1.18,3.894c-11.919,43.782 -3.658,95.825 23.248,146.451c23.248,43.782 59.595,84.731 103.967,117.656c8.261,6.137 16.757,11.919 25.372,17.466l-8.615,14.043c-4.72,-2.832 -9.558,-5.546 -14.397,-8.261c-1.888,-1.062 -3.776,-2.124 -5.782,-3.068c-1.771,-0.944 -3.541,-1.888 -5.429,-2.714c-0.118,-0 -0.236,-0.118 -0.236,-0.118c-1.77,-0.826 -3.54,-1.77 -5.428,-2.596c-0.236,-0.118 -0.354,-0.118 -0.59,-0.236c-1.771,-0.826 -3.541,-1.653 -5.429,-2.597c-0.236,-0.118 -0.472,-0.236 -0.708,-0.354c-1.77,-0.826 -3.658,-1.652 -5.428,-2.478c-0.236,-0.118 -0.59,-0.236 -0.826,-0.354c-1.771,-0.826 -3.659,-1.652 -5.547,-2.36c-0.236,-0.118 -0.59,-0.236 -0.944,-0.354c-1.888,-0.826 -3.776,-1.652 -5.783,-2.36c-0.236,-0.118 -0.59,-0.236 -0.826,-0.354c-2.006,-0.826 -3.894,-1.535 -5.9,-2.361c-0.236,-0.118 -0.472,-0.236 -0.826,-0.236c-2.006,-0.826 -4.131,-1.534 -6.255,-2.36c-0.236,-0.118 -0.354,-0.118 -0.59,-0.236c-2.124,-0.826 -4.366,-1.652 -6.608,-2.36c-0.118,-0 -0.118,-0.118 -0.236,-0.118c-2.243,-0.826 -4.485,-1.534 -6.727,-2.36c-0.118,-0 -0.236,-0.118 -0.354,-0.118c-2.242,-0.708 -4.484,-1.534 -6.727,-2.242c-0.236,-0.118 -0.472,-0.118 -0.708,-0.236c-2.242,-0.709 -4.366,-1.417 -6.608,-2.125c-0.354,-0.118 -0.59,-0.236 -0.944,-0.236c-2.124,-0.708 -4.367,-1.298 -6.609,-1.888c-0.354,-0.118 -0.708,-0.236 -1.062,-0.354c-2.124,-0.59 -4.366,-1.18 -6.608,-1.77c-0.355,-0.118 -0.827,-0.236 -1.181,-0.354c-2.242,-0.59 -4.484,-1.18 -6.608,-1.77c-0.354,-0.118 -0.826,-0.236 -1.18,-0.236c-2.242,-0.59 -4.485,-1.062 -6.727,-1.652c-0.354,-0.118 -0.708,-0.118 -1.062,-0.236c-2.242,-0.59 -4.602,-1.062 -6.963,-1.535c-0.354,0 -0.59,-0.118 -0.944,-0.236c-2.36,-0.472 -4.838,-1.062 -7.198,-1.416c-0.236,0 -0.354,-0.118 -0.59,-0.118c-2.479,-0.472 -4.957,-0.944 -7.435,-1.416l-0.236,0c-2.478,-0.472 -4.956,-0.826 -7.553,-1.298c-0.236,0 -0.472,-0.118 -0.708,-0.118c-2.478,-0.354 -4.838,-0.708 -7.316,-1.062c-0.354,-0 -0.708,-0.118 -0.944,-0.118c-2.361,-0.354 -4.721,-0.59 -7.081,-0.944c-0.354,-0 -0.708,-0.118 -1.18,-0.118c-2.36,-0.236 -4.721,-0.472 -7.081,-0.708c-0.354,-0 -0.826,-0.118 -1.18,-0.118c-2.36,-0.236 -4.72,-0.472 -6.962,-0.59c-0.472,-0 -0.826,-0 -1.299,-0.118c-2.36,-0.236 -4.72,-0.354 -7.08,-0.472l-1.18,-0c-2.36,-0.118 -4.721,-0.236 -7.199,-0.236l-1.062,-0c-2.478,-0 -4.838,-0.118 -7.317,-0.118l-0.708,-0c-2.478,-0 -5.074,-0 -7.552,0.118l-0.354,-0c-2.597,0.118 -5.075,0.118 -7.553,0.236l-0.354,-0c-2.478,0.118 -4.956,0.236 -7.435,0.472l-0.708,-0c-2.36,0.236 -4.838,0.354 -7.198,0.708c-0.354,-0 -0.708,0.118 -0.944,0.118c-2.361,0.236 -4.721,0.59 -6.963,0.826c-0.236,-0 -0.354,-0 -0.59,0.118c33.633,36.111 90.396,63.253 169.109,80.955l-3.659,16.167l-0.236,0c-60.421,-13.571 -114.116,-15.577 -159.432,-6.136c-40.595,8.497 -74.582,26.316 -100.898,52.868c-28.795,29.031 -48.621,69.272 -57.117,116.24c-7.789,43.31 -6.255,91.458 4.72,139.252c0.59,0.827 1.18,1.653 1.888,2.479c0.708,0.944 1.298,1.888 2.006,2.714c0.827,1.062 1.653,2.006 2.479,3.068c0.708,0.826 1.416,1.77 2.124,2.596c0.826,1.062 1.77,2.007 2.596,3.069c0.708,0.826 1.416,1.652 2.124,2.478c0.944,0.944 1.888,2.006 2.715,2.95c0.708,0.708 1.416,1.534 2.124,2.242l5.074,5.075c1.062,1.062 2.124,2.006 3.304,2.95c0.708,0.59 1.417,1.298 2.007,1.888c1.18,1.062 2.478,2.124 3.776,3.068c0.59,0.472 1.18,0.945 1.77,1.417c1.888,1.534 3.776,2.95 5.665,4.366c37.173,27.26 84.967,40.123 138.308,37.291c54.166,-2.832 108.805,-21.714 157.897,-54.521l9.913,13.218c-29.384,24.9 -53.695,53.93 -72.222,86.501c-1.062,1.888 -2.124,3.776 -3.068,5.665c-0.354,0.59 -0.709,1.18 -0.945,1.77c-0.708,1.298 -1.298,2.596 -2.006,3.776c-0.354,0.708 -0.708,1.416 -1.062,2.242c-0.59,1.18 -1.18,2.36 -1.77,3.541c-0.354,0.708 -0.708,1.534 -1.062,2.36c-0.59,1.18 -1.062,2.242 -1.652,3.422c-0.354,0.826 -0.708,1.534 -1.062,2.36c-0.472,1.18 -1.062,2.36 -1.534,3.541c-0.354,0.708 -0.708,1.534 -0.944,2.242c-0.473,1.298 -1.063,2.478 -1.535,3.776c-0.236,0.708 -0.59,1.416 -0.826,2.124c-0.59,1.534 -1.18,3.069 -1.77,4.603c-0.118,0.354 -0.354,0.826 -0.472,1.18c-0.708,2.006 -1.416,3.894 -2.124,5.9c-0.118,0.472 -0.354,1.062 -0.472,1.534c-0.472,1.417 -0.944,2.833 -1.416,4.367c-0.236,0.708 -0.472,1.416 -0.708,2.124c-0.354,1.298 -0.826,2.478 -1.18,3.776c-0.236,0.826 -0.472,1.534 -0.708,2.361c-0.354,1.18 -0.709,2.36 -1.063,3.54c-0.236,0.826 -0.472,1.652 -0.708,2.36c-0.354,1.18 -0.708,2.478 -0.944,3.658c-0.236,0.826 -0.354,1.534 -0.59,2.361c-0.354,1.298 -0.59,2.596 -0.944,3.776c-0.118,0.708 -0.354,1.416 -0.472,2.124c-0.354,1.416 -0.59,2.95 -0.944,4.366c-0.118,0.59 -0.236,1.063 -0.354,1.653c0,0.118 0,0.236 -0.118,0.354c27.26,-7.553 54.757,-22.776 82.017,-45.08c34.459,-28.323 68.682,-68.328 101.607,-119.073l0.118,-0.118l14.751,8.851c0,0.118 -0.118,0.118 -0.118,0.236c-98.538,151.879 -84.495,249.356 -55.347,304.585c19.236,36.465 51.807,66.793 94.173,87.681c39.297,19.354 85.675,30.329 134.177,31.627c0.472,-0.236 0.944,-0.472 1.416,-0.708c0.59,-0.236 1.298,-0.59 1.888,-0.826c0.708,-0.354 1.535,-0.708 2.243,-1.062c0.59,-0.354 1.18,-0.59 1.888,-0.944c0.708,-0.354 1.416,-0.708 2.124,-1.063c0.59,-0.354 1.18,-0.59 1.77,-0.944c0.708,-0.354 1.416,-0.826 2.124,-1.18c0.59,-0.354 1.18,-0.59 1.652,-0.944c0.709,-0.354 1.417,-0.826 2.125,-1.298c0.59,-0.354 1.062,-0.59 1.534,-0.944c0.708,-0.472 1.416,-0.944 2.124,-1.416c0.472,-0.354 0.944,-0.59 1.416,-0.944c0.826,-0.472 1.534,-1.062 2.242,-1.652c0.354,-0.236 0.708,-0.472 1.18,-0.826c1.062,-0.826 2.243,-1.653 3.305,-2.479c43.899,-33.751 73.52,-82.843 88.271,-146.096c0.472,-2.242 1.062,-4.603 1.534,-6.963c15.106,-71.75 10.857,-158.96 -12.863,-259.504l0,-0.118l16.05,-3.777c0.118,0.708 0.354,1.416 0.472,2.243c0.354,1.652 0.708,3.186 1.18,4.838c0.118,0.59 0.354,1.298 0.472,1.888c0.354,1.534 0.826,3.186 1.18,4.721c0.118,0.59 0.354,1.18 0.472,1.888c0.354,1.534 0.826,3.186 1.18,4.72c0.118,0.59 0.354,1.18 0.472,1.77c0.472,1.652 0.826,3.187 1.298,4.839c0.118,0.59 0.236,1.18 0.472,1.652c0.472,1.652 0.826,3.186 1.298,4.838c0.118,0.472 0.236,0.944 0.354,1.416c0.473,1.652 0.945,3.305 1.417,4.957c0.118,0.472 0.236,1.062 0.472,1.534c0.472,1.652 0.944,3.186 1.416,4.838c0.118,0.472 0.236,0.944 0.354,1.416c0.472,1.653 0.944,3.305 1.416,4.957c0.118,0.354 0.236,0.826 0.354,1.18c0.472,1.652 0.944,3.422 1.534,5.074c0.118,0.354 0.236,0.826 0.354,1.181c0.472,1.652 1.062,3.304 1.534,4.956c0.118,0.354 0.236,0.59 0.236,0.944c0.59,1.77 1.062,3.54 1.652,5.192c0.118,0.237 0.118,0.591 0.236,0.827c0.59,1.77 1.063,3.422 1.653,5.192c0.118,0.236 0.236,0.59 0.236,0.826c0.59,1.77 1.062,3.422 1.652,5.075c0.118,0.236 0.118,0.354 0.236,0.59c0.59,1.77 1.18,3.54 1.77,5.31c-0,0.236 0.118,0.354 0.118,0.472c0.59,1.77 1.18,3.54 1.888,5.311c0,0.118 0.118,0.354 0.118,0.472c0.59,1.77 1.298,3.54 1.888,5.31c0,0.118 0.118,0.236 0.118,0.236c0.708,1.77 1.298,3.658 2.006,5.429c0,0.118 0.118,0.236 0.118,0.472c0.709,1.77 1.299,3.422 2.007,5.192c-0,0.118 -0,0.118 0.118,0.236c9.204,24.074 19.235,46.142 29.974,66.204c0.826,1.534 1.652,3.068 2.478,4.602c1.417,2.596 2.951,5.193 4.367,7.789c0.472,0.826 0.944,1.652 1.416,2.478c0.944,1.77 2.006,3.422 2.95,5.074c0.59,0.945 1.18,1.889 1.77,2.833c0.944,1.534 1.889,2.95 2.833,4.484c0.59,0.944 1.298,2.006 1.888,2.95c0.944,1.416 1.77,2.833 2.714,4.131c0.708,0.944 1.298,2.006 2.006,2.95c0.944,1.298 1.888,2.714 2.714,4.012c0.708,0.944 1.299,1.888 2.007,2.833c0.944,1.298 1.888,2.596 2.832,3.894c0.708,0.944 1.298,1.77 2.006,2.714c0.944,1.298 2.006,2.596 2.95,3.894c0.59,0.827 1.298,1.653 1.888,2.479c1.063,1.416 2.243,2.714 3.305,4.13c0.472,0.708 1.062,1.298 1.652,2.006c1.652,2.006 3.304,3.895 4.956,5.901c0.118,0.236 0.354,0.354 0.472,0.59c1.534,1.77 3.069,3.422 4.603,5.074c0.59,0.59 1.18,1.298 1.77,1.888c1.062,1.18 2.242,2.361 3.422,3.541c0.708,0.708 1.416,1.416 2.124,2.124c1.062,1.062 2.125,2.124 3.187,3.068c0.708,0.708 1.416,1.416 2.242,2.124c1.062,0.944 2.124,1.888 3.068,2.951c0.708,0.708 1.534,1.416 2.242,2.006c1.062,0.944 2.124,1.77 3.069,2.714c0.708,0.708 1.534,1.298 2.242,1.888c0.354,0.354 0.826,0.708 1.18,0.944c8.733,-32.807 8.969,-69.272 0.472,-108.569c-10.503,-48.856 -34.341,-102.079 -70.924,-158.252l13.807,-8.969l0.118,0.118c75.881,116.712 157.19,175.364 234.958,169.463c33.869,-2.596 66.086,-17.111 95.471,-43.31c27.024,-24.074 50.862,-57.353 68.799,-96.414l0,-4.248c0.237,-0.59 0.237,-1.417 0.237,-2.243Zm-411.502,-537.536l92.638,92.638l-11.801,11.683l-92.638,-92.638l11.801,-11.683Zm-184.922,-20.416l4.602,15.813l-125.799,36.466l-4.602,-15.814l125.799,-36.465Zm203.095,455.402c-23.484,39.297 -116.83,44.371 -155.773,44.607l-3.658,0c-14.398,0 -44.254,-0.708 -73.875,-5.546c-41.185,-6.845 -67.62,-19.354 -78.595,-37.291c-8.378,-13.572 -7.788,-29.503 1.535,-47.44c22.304,-42.838 73.874,-33.161 115.296,-25.373c14.515,2.715 28.204,5.311 38.943,5.311l0.236,-0c10.149,-0 23.72,-2.478 37.999,-5.075c20.18,-3.776 43.192,-7.906 63.608,-6.49c25.018,1.77 42.601,12.037 52.396,30.682c4.957,9.323 7.317,18.056 7.317,26.317c0.236,7.198 -1.652,13.925 -5.429,20.298Zm81.192,-164.979l-34.105,-7.67c-3.069,8.732 -7.199,16.993 -12.392,24.546l27.615,21.36l-10.149,13.099l-27.85,-21.478c-6.137,6.608 -13.1,12.391 -20.77,17.229l13.335,32.571l-15.341,6.255l-12.745,-31.037c-12.864,5.664 -27.143,8.733 -42.13,8.733c-21.832,-0 -42.956,-6.727 -60.657,-19.118c-9.087,15.105 -25.727,25.254 -44.608,25.254c-18.882,0 -35.521,-10.149 -44.608,-25.254c-17.702,12.391 -38.943,19.118 -60.657,19.118c-14.988,-0 -29.149,-3.069 -42.13,-8.733l-12.509,31.037l-15.341,-6.255l13.335,-32.571c-7.671,-4.838 -14.634,-10.621 -20.77,-17.229l-27.85,21.478l-10.149,-13.099l27.614,-21.36c-5.074,-7.553 -9.323,-15.814 -12.391,-24.546l-34.105,7.67l-3.658,-16.049l33.515,-7.553c-1.062,-6.136 -1.653,-12.509 -1.653,-18.999c0,-58.534 47.677,-106.092 106.092,-106.092c54.048,0 98.656,40.478 105.265,92.756c6.608,-52.16 51.334,-92.756 105.265,-92.756c58.533,0 106.091,47.558 106.091,106.092c0,6.49 -0.59,12.863 -1.652,18.999l33.515,7.553l-3.422,16.049Z" style="fill:#fff;fill-rule:nonzero;"/><path d="M1318.39,710.598c-25.726,-0.59 -49.918,1.416 -72.222,6.136c-43.9,9.205 -80.601,28.441 -109.277,57.353c-31.155,31.391 -52.515,74.583 -61.602,124.973c-5.546,30.683 -6.608,63.726 -3.186,97.359c-17.229,-43.9 -22.068,-96.179 -13.335,-149.873c5.664,-34.459 16.875,-67.856 32.453,-96.651c16.403,-30.21 36.819,-54.52 60.657,-72.34c20.534,-15.223 44.962,-26.08 72.812,-32.099c21.36,25.726 52.751,47.558 93.7,65.142Z" style="fill:#ffcd00;fill-rule:nonzero;"/><path d="M1666.17,1532.66c-20.298,4.248 -42.484,6.137 -65.732,5.428c-40.478,-1.18 -81.427,-9.912 -118.364,-25.49c-31.155,-13.099 -58.297,-30.446 -80.719,-51.57c-24.428,-22.894 -42.602,-49.801 -54.167,-80.011c-13.217,-34.459 -17.466,-73.284 -12.509,-112.582c31.863,-7.435 63.961,-24.31 95.352,-50.154c13.689,-11.329 27.378,-24.31 40.95,-39.062c-45.552,107.39 -30.683,181.972 -6.019,228.586c20.888,39.534 55.937,72.34 101.371,94.762c29.974,15.106 63.961,25.137 99.837,30.093Z" style="fill:#ffcd00;fill-rule:nonzero;"/><path d="M2304.37,758.156c-2.478,4.838 -5.311,9.559 -8.379,14.161c-27.378,-26.906 -61.955,-45.316 -103.023,-54.639c-23.602,-5.428 -49.21,-7.788 -76.825,-7.08c19.944,-8.497 37.764,-18.056 53.105,-28.677c33.161,-22.776 55.347,-50.154 65.968,-81.309c14.515,-42.365 7.198,-90.514 -20.416,-139.252c34.813,32.925 64.434,75.291 83.433,120.017c28.323,66.439 30.447,129.221 6.137,176.779Z" style="fill:#ffcd00;fill-rule:nonzero;"/><path d="M2307.79,1161.04c-5.9,27.732 -16.639,56.055 -31.981,83.669c-21.478,38.471 -50.626,73.756 -84.495,102.315c-42.484,35.757 -87.328,56.055 -122.967,56.055c-4.366,-0 -8.496,-0.354 -12.627,-0.944c-25.018,-3.777 -48.974,-13.571 -71.514,-29.031c11.211,-36.937 12.037,-78.241 2.478,-122.73c-4.956,-22.776 -12.627,-46.614 -23.012,-71.043c21.36,23.13 42.956,42.248 64.788,56.881c40.477,27.143 81.309,39.416 121.314,36.465c37.528,-2.832 72.931,-18.763 105.266,-47.44c19.589,-17.347 37.409,-39.179 52.75,-64.197Z" style="fill:#ffcd00;fill-rule:nonzero;"/><path d="M1781.47,302.991c-21.714,18.173 -38.826,42.719 -50.863,73.048c-5.428,13.689 -9.913,28.676 -13.217,44.844c-3.54,-16.876 -8.261,-32.453 -14.043,-46.614c-13.807,-33.987 -33.987,-60.422 -60.067,-78.949c-32.335,-22.894 -73.403,-32.807 -119.781,-29.621c32.099,-9.44 66.322,-14.515 100.073,-14.751l1.77,0c63.962,0 118.364,17.466 153.295,49.446c1.062,0.944 1.888,1.77 2.833,2.597Z" style="fill:#ffcd00;fill-rule:nonzero;"/><rect x="1153.06" y="1641.82" width="177.723" height="85.321" style="fill:#1fa2c3;"/></g></g><g id="general"><g id="general_3_"><path id="pot_2_" d="M1422.24,1496.19l-0.708,2.36l-1.416,5.31c-16.639,50.509 -45.08,93.229 -80.601,121.433l-196.605,0c-58.297,-46.024 -94.88,-128.159 -97.004,-217.965l297.858,0l-0,-16.521l-314.38,-0l0,8.26c0,99.837 40.95,192.121 107.154,242.039l-0,102.433l210.766,0l-0,-103.495c39.179,-30.092 70.57,-76.588 88.626,-131.345l0.236,-0.944l2.006,-7.317l-15.932,-4.248Zm-91.457,230.946l-177.724,-0l0,-85.322l177.724,0l-0,85.322Z" style="fill-rule:nonzero;"/><g id="face_2_"><path id="nose_2_" d="M1777.45,810.552c-4.956,-1.652 -10.267,-2.596 -15.813,-2.596l-1.062,0c-5.547,0 -10.857,0.944 -15.814,2.596c-20.769,6.845 -35.639,26.435 -35.639,49.447c0,3.776 0.354,7.316 1.18,10.857c1.18,5.664 3.305,11.093 6.255,15.813c9.087,15.105 25.726,25.254 44.608,25.254c18.881,0 35.521,-10.149 44.608,-25.254c2.95,-4.838 5.074,-10.149 6.254,-15.931c0.708,-3.541 1.18,-7.199 1.18,-10.857c-0.118,-22.894 -14.987,-42.484 -35.757,-49.329Zm-16.403,84.968c-19.59,-0 -35.521,-15.932 -35.521,-35.521c-0,-19.59 15.931,-35.521 35.521,-35.521c19.589,-0 35.521,15.931 35.521,35.521c-0,19.589 -15.932,35.521 -35.521,35.521Z" style="fill-rule:nonzero;"/><g id="eyes_2_"><path d="M1761.99,799.696c-0,2.714 -0.118,5.546 -0.354,8.26c-0.118,1.652 -0.236,3.305 -0.472,5.075c-0.236,1.888 -0.472,3.776 -0.826,5.664l-16.286,-2.95c0.354,-1.652 0.59,-3.422 0.708,-5.074c0.472,-3.659 0.708,-7.317 0.708,-10.857c0,-49.447 -40.241,-89.57 -89.569,-89.57c-1.416,-0 -2.833,-0 -4.249,0.118c30.211,7.434 52.633,34.695 52.633,67.266c-0,3.776 -0.236,7.316 -0.826,10.857c-7.317,-6.727 -16.994,-10.857 -27.733,-10.857c-22.422,-0 -40.713,18.173 -40.713,40.713c-0,10.739 4.13,20.416 10.975,27.733c-3.541,0.59 -7.199,0.826 -10.975,0.826c-34.223,-0 -62.546,-24.783 -68.21,-57.353c-0.354,3.422 -0.59,6.962 -0.59,10.503c-0,49.446 40.241,89.687 89.57,89.687c19.707,0 38.825,-6.49 54.402,-18.409c1.298,-1.062 2.715,-2.124 4.013,-3.187l10.739,12.51c-2.715,2.36 -5.547,4.602 -8.497,6.608c-17.702,12.391 -38.943,19.118 -60.657,19.118c-14.988,-0 -29.149,-3.068 -42.13,-8.733l-12.627,30.565l-15.341,-6.255l13.335,-32.571c-7.671,-4.838 -14.634,-10.621 -20.77,-17.229l-27.85,21.478l-10.149,-13.099l27.614,-21.36c-5.074,-7.553 -9.323,-15.814 -12.391,-24.546l-34.105,7.67l-3.658,-16.049l33.515,-7.553c-1.062,-6.136 -1.653,-12.509 -1.653,-18.999c0,-58.534 47.677,-106.092 106.092,-106.092c54.048,0 98.656,40.478 105.265,92.756c0.708,4.249 1.062,8.733 1.062,13.336Z" style="fill-rule:nonzero;"/><path d="M1966.62,834.627c-3.069,8.732 -7.199,16.993 -12.392,24.546l27.615,21.36l-10.149,13.099l-27.85,-21.478c-6.137,6.608 -13.1,12.391 -20.77,17.229l13.335,32.571l-15.341,6.255l-12.745,-31.037c-12.864,5.664 -27.143,8.733 -42.13,8.733c-21.832,-0 -42.956,-6.727 -60.657,-19.118c-2.951,-2.006 -5.783,-4.248 -8.497,-6.608l10.739,-12.51c1.298,1.181 2.596,2.243 4.012,3.187c15.577,11.919 34.695,18.409 54.403,18.409c49.446,0 89.57,-40.241 89.57,-89.687c-0,-46.851 -36.112,-85.322 -81.899,-89.216c29.738,7.788 51.688,34.813 51.688,67.03c-0,3.776 -0.236,7.316 -0.826,10.857c-7.317,-6.727 -16.994,-10.857 -27.732,-10.857c-22.422,-0 -40.714,18.173 -40.714,40.713c0,10.739 4.13,20.416 10.975,27.733c-3.54,0.59 -7.199,0.826 -10.975,0.826c-38.235,-0 -69.272,-31.037 -69.272,-69.272c0,-11.447 2.832,-22.186 7.671,-31.745c-11.447,14.987 -18.174,33.751 -18.174,54.049c0,3.658 0.236,7.316 0.708,10.856c0.236,1.653 0.472,3.423 0.708,5.075l-16.285,2.95c-0.354,-1.888 -0.59,-3.776 -0.826,-5.546c-0.236,-1.652 -0.354,-3.305 -0.472,-5.075c-0.236,-2.714 -0.354,-5.546 -0.354,-8.26c-0,-4.485 0.236,-8.969 0.826,-13.454c6.608,-52.16 51.334,-92.756 105.265,-92.756c58.533,0 106.091,47.558 106.091,106.092c0,6.49 -0.59,12.863 -1.652,18.999l33.515,7.553l-3.659,16.049l-33.75,-7.552Z" style="fill-rule:nonzero;"/></g><g id="mouth_2_"><g><path d="M1917.88,960.661c-9.795,-18.527 -27.378,-28.912 -52.396,-30.682c-20.416,-1.416 -43.428,2.714 -63.608,6.49c-14.397,2.597 -27.85,5.075 -37.999,5.075l-0.236,-0c-10.739,-0 -24.428,-2.596 -38.943,-5.311c-41.422,-7.788 -92.992,-17.347 -115.296,25.373c-9.323,17.819 -9.795,33.75 -1.534,47.44c10.974,17.937 37.409,30.446 78.594,37.291c29.621,4.838 59.477,5.546 73.875,5.546l3.658,0c39.061,-0.354 132.407,-5.31 155.773,-44.607c3.777,-6.255 5.665,-13.1 5.665,-20.298c-0.236,-8.261 -2.714,-16.994 -7.553,-26.317Zm-12.509,38.118c-8.142,13.571 -31.39,24.074 -67.266,30.328c-29.266,5.075 -59.241,6.137 -74.464,6.255c-12.037,0.118 -43.546,-0.236 -74.7,-5.311c-35.64,-5.9 -58.888,-16.167 -67.148,-29.62c-5.193,-8.379 -4.485,-18.646 2.006,-31.155c9.323,-17.937 26.434,-23.366 46.732,-23.366c15.813,0 33.515,3.304 50.98,6.609c15.224,2.832 29.739,5.546 41.894,5.664l0.354,0c11.565,0 25.844,-2.596 41.068,-5.428c17.229,-3.186 35.521,-6.491 51.806,-6.491c20.298,0 37.645,5.193 46.614,22.186c6.373,12.037 7.081,21.95 2.124,30.329Z" style="fill-rule:nonzero;"/></g><path d="M1853.33,987.332c-28.559,14.751 -58.769,22.304 -89.806,22.304c-31.037,-0 -61.129,-7.553 -89.806,-22.304l7.553,-14.633c26.198,13.571 53.813,20.415 82.135,20.415c28.322,0 55.937,-6.844 82.135,-20.415l7.789,14.633Z" style="fill-rule:nonzero;"/></g><g id="brows_2_"><path d="M1721.04,567.805l-125.799,36.466l-4.602,-15.814l125.799,-36.583l4.602,15.931Z" style="fill-rule:nonzero;"/><path d="M1901.36,572.262l-11.683,11.682l92.624,92.624l11.683,-11.682l-92.624,-92.624Z"/></g></g><path id="main_2_" d="M2312.04,1028.16c-21.477,-49.8 -62.073,-91.458 -114.115,-120.134c-0.708,-0.472 -1.535,-0.826 -2.243,-1.18c-5.546,-2.95 -11.211,-5.783 -16.993,-8.497c-15.931,-7.435 -32.807,-13.689 -50.39,-18.646c26.198,-3.776 51.098,-10.03 73.992,-18.645c6.727,-2.596 13.335,-5.311 19.59,-8.261c2.478,-1.18 5.074,-2.36 7.552,-3.658c2.479,-1.18 4.839,-2.478 7.317,-3.776c1.18,-0.591 2.36,-1.299 3.54,-2.007c25.962,-14.515 47.44,-32.57 63.254,-53.222l4.248,-5.547l-0.118,-0.118c4.248,-6.136 8.143,-12.391 11.447,-18.881c26.552,-51.925 24.664,-119.663 -5.546,-190.823c-27.497,-64.906 -76.707,-124.973 -131.582,-160.73l-1.062,-0.708c-29.974,-19.354 -60.775,-31.273 -90.868,-35.167c-13.689,-1.77 -27.26,-2.006 -40.477,-0.59c-2.951,0.354 -5.901,0.708 -8.851,1.18c-44.018,7.317 -86.502,32.807 -123.321,74.111c-17.701,19.825 -33.397,42.483 -46.85,67.501c-3.068,5.783 -6.018,11.683 -8.969,17.584c0.709,-11.683 1.063,-23.366 0.945,-35.049c-0.118,-19.472 -1.299,-38.707 -3.541,-56.999c-1.77,-14.751 -4.366,-28.913 -7.552,-42.248c-10.385,-43.782 -27.969,-79.775 -51.689,-105.501l-0.118,-0.118l-4.956,-5.428l-0.118,0.118c-1.652,-1.534 -3.187,-3.069 -4.839,-4.603c-38.353,-35.049 -97.358,-54.166 -166.394,-53.812c-65.024,0.354 -131.936,18.409 -183.742,49.564l-0.708,0.472c-14.043,8.497 -26.788,17.819 -38.117,27.85c-2.479,2.243 -4.957,4.485 -7.317,6.845c-1.18,1.18 -2.36,2.36 -3.54,3.54c-23.012,23.366 -38.826,50.037 -46.732,78.949c-11.447,41.894 -6.137,90.278 14.751,138.19c2.95,6.845 6.254,13.689 9.913,20.416c15.577,29.266 36.583,57.235 61.837,82.607c3.658,3.658 7.317,7.199 11.093,10.739c-2.006,-0.708 -3.894,-1.416 -5.9,-2.124c-61.602,-22.304 -139.371,-37.055 -208.525,-23.366l-13.099,2.596l0.236,0.354c-27.024,6.845 -50.98,18.056 -71.514,33.279c-50.862,37.763 -87.209,103.259 -99.6,179.611c-12.51,76.471 1.534,150.817 38.353,204.276l0.944,1.298c12.391,17.702 27.378,33.043 44.49,45.552c40.241,29.503 91.812,43.546 148.929,40.478c12.037,-0.59 24.192,-2.007 36.229,-4.131c2.124,-0.354 4.248,-0.826 6.254,-1.18c-15.223,13.689 -37.291,35.285 -59.477,64.67c-37.645,50.036 -61.837,104.439 -71.75,161.91c-1.888,11.329 -3.304,22.776 -4.13,34.341c-0.236,2.596 -0.354,5.192 -0.472,7.906l16.521,0.708c0.118,-2.832 0.354,-5.782 0.472,-8.614c0.708,-10.503 2.006,-21.124 3.776,-31.509c9.441,-54.757 32.571,-106.799 68.682,-154.711c29.031,-38.472 58.061,-63.136 70.452,-73.757l0.236,-0.118c4.249,-3.54 8.379,-7.08 12.628,-10.267c11.801,-3.776 23.366,-8.378 34.931,-13.571c-11.211,13.335 -21.36,27.615 -30.211,42.484c-0.59,0.944 -1.062,1.888 -1.652,2.714l-0.472,0.472c-46.968,47.322 -111.402,112.11 -128.513,211.238c-1.534,8.851 -2.715,17.938 -3.423,27.025c-0.236,2.596 -0.354,5.192 -0.59,7.788l16.522,0.944c0.118,-2.95 0.354,-5.782 0.59,-8.732c0.708,-8.143 1.77,-16.168 3.068,-24.192c12.509,-72.577 50.98,-124.973 89.924,-167.221c-7.671,19.944 -12.981,40.36 -16.05,61.129l-1.77,11.565l0.236,0c-4.248,40.006 0.59,79.539 14.162,114.942c0.472,1.299 0.944,2.597 1.534,3.777c2.242,5.664 4.72,11.093 7.434,16.521c12.155,24.31 28.677,46.378 49.329,65.732c9.794,9.205 20.297,17.583 31.626,25.372c4.721,3.304 9.559,6.373 14.516,9.323c12.391,7.435 25.608,14.161 39.533,19.944c42.484,17.937 89.334,26.906 133.824,26.906c36.701,-0 71.868,-6.137 101.488,-18.646l0.118,0l1.653,-0.708c12.863,-5.546 24.31,-12.155 34.223,-19.825c46.968,-36.112 78.712,-88.39 94.29,-155.538c10.503,-44.962 13.335,-95.824 8.614,-151.997c9.795,25.018 20.298,47.912 31.745,68.682c4.721,8.615 9.677,16.993 14.751,24.9c21.95,34.341 46.496,61.601 73.285,81.191l9.087,6.609l0.118,-0.236c23.484,15.459 48.384,25.136 74.464,29.148c42.484,6.373 96.768,-14.987 148.693,-58.769c59.831,-50.39 124.501,-139.606 127.333,-239.325l-0,-1.652c0.59,-29.148 -4.248,-57.235 -14.515,-83.551c-0.472,-2.36 -1.416,-4.72 -2.361,-6.963Zm-13.689,-446.904c28.205,66.557 30.329,129.339 6.019,176.779c-2.478,4.838 -5.311,9.559 -8.379,14.161c-27.378,-26.906 -61.955,-45.316 -103.023,-54.639c-23.602,-5.428 -49.21,-7.788 -76.825,-7.08c19.944,-8.497 37.764,-18.056 53.105,-28.677c33.161,-22.776 55.347,-50.154 65.968,-81.309c14.515,-42.365 7.198,-90.514 -20.416,-139.252c34.813,32.925 64.552,75.291 83.551,120.017Zm-674.664,-330.193l1.77,0c63.962,0 118.364,17.466 153.295,49.446c0.944,0.826 1.77,1.652 2.715,2.479c-21.714,18.173 -38.826,42.719 -50.863,73.048c-5.428,13.689 -9.913,28.676 -13.217,44.844c-3.54,-16.876 -8.261,-32.453 -14.043,-46.614c-13.807,-33.987 -33.987,-60.422 -60.067,-78.949c-32.335,-22.894 -73.403,-32.807 -119.781,-29.621c32.217,-9.322 66.44,-14.515 100.191,-14.633Zm-548.394,647.876c-5.546,30.683 -6.608,63.726 -3.186,97.359c-17.229,-43.9 -22.068,-96.179 -13.335,-149.873c5.664,-34.459 16.875,-67.856 32.453,-96.651c16.403,-30.21 36.819,-54.52 60.657,-72.34c20.534,-15.223 44.962,-26.08 72.812,-32.099c21.36,25.962 52.633,47.676 93.582,65.26c-25.726,-0.59 -49.918,1.416 -72.222,6.136c-43.9,9.205 -80.601,28.441 -109.277,57.353c-31.037,31.391 -52.397,74.583 -61.484,124.855Zm525.028,639.143c-40.478,-1.18 -81.427,-9.912 -118.364,-25.49c-31.155,-13.099 -58.297,-30.446 -80.719,-51.57c-24.428,-22.894 -42.602,-49.801 -54.167,-80.011c-13.217,-34.459 -17.466,-73.284 -12.509,-112.582c31.863,-7.435 63.961,-24.31 95.352,-50.154c13.689,-11.329 27.378,-24.31 40.95,-39.062c-45.552,107.39 -30.683,181.972 -6.019,228.586c20.888,39.534 55.937,72.34 101.371,94.762c30.092,14.87 64.079,25.019 99.837,29.975c-20.298,4.366 -42.484,6.255 -65.732,5.546Zm675.49,-293.373c-21.478,38.471 -50.626,73.756 -84.495,102.315c-42.484,35.757 -87.328,56.055 -122.967,56.055c-4.366,-0 -8.496,-0.354 -12.627,-0.944c-25.018,-3.777 -48.974,-13.571 -71.514,-29.031c11.211,-36.937 12.037,-78.241 2.478,-122.73c-4.956,-22.776 -12.627,-46.614 -23.012,-71.043c21.36,23.13 42.956,42.248 64.788,56.881c40.477,27.143 81.309,39.416 121.314,36.465c37.528,-2.832 72.931,-18.763 105.266,-47.44c19.471,-17.347 37.291,-39.179 52.75,-64.197c-5.782,27.85 -16.639,56.173 -31.981,83.669Zm37.056,-129.929l-0,1.77c-17.938,39.061 -41.776,72.34 -68.8,96.414c-29.503,26.199 -61.602,40.714 -95.471,43.31c-77.768,5.783 -159.077,-52.75 -234.958,-169.463l-0.118,-0.118l-13.807,8.969c36.465,56.173 60.303,109.514 70.924,158.252c8.497,39.297 8.261,75.762 -0.472,108.569c-0.354,-0.354 -0.826,-0.59 -1.18,-0.944c-0.708,-0.59 -1.534,-1.298 -2.242,-1.888c-1.063,-0.944 -2.125,-1.77 -3.069,-2.714c-0.826,-0.708 -1.534,-1.416 -2.242,-2.006c-1.062,-0.944 -2.124,-1.889 -3.068,-2.951c-0.708,-0.708 -1.534,-1.416 -2.242,-2.124c-1.062,-1.062 -2.125,-2.124 -3.187,-3.068c-0.708,-0.708 -1.416,-1.416 -2.124,-2.124c-1.18,-1.18 -2.242,-2.36 -3.422,-3.541c-0.59,-0.59 -1.18,-1.298 -1.77,-1.888c-1.534,-1.652 -3.069,-3.422 -4.603,-5.074c-0.118,-0.236 -0.354,-0.354 -0.472,-0.59c-1.652,-1.888 -3.304,-3.895 -4.956,-5.901c-0.59,-0.59 -1.062,-1.298 -1.652,-2.006c-1.062,-1.416 -2.242,-2.714 -3.305,-4.13c-0.59,-0.826 -1.298,-1.652 -1.888,-2.478c-0.944,-1.299 -2.006,-2.597 -2.95,-3.895c-0.708,-0.944 -1.298,-1.77 -2.006,-2.714c-0.944,-1.298 -1.888,-2.596 -2.832,-3.894c-0.708,-0.944 -1.299,-1.889 -2.007,-2.833c-0.944,-1.298 -1.888,-2.596 -2.714,-4.012c-0.708,-0.944 -1.298,-1.888 -2.006,-2.95c-0.944,-1.416 -1.77,-2.714 -2.714,-4.131c-0.59,-0.944 -1.298,-2.006 -1.888,-2.95c-0.944,-1.416 -1.889,-2.95 -2.833,-4.484c-0.59,-0.944 -1.18,-1.888 -1.77,-2.832c-0.944,-1.653 -2.006,-3.423 -2.95,-5.075c-0.472,-0.826 -0.944,-1.652 -1.416,-2.478c-1.416,-2.596 -2.95,-5.075 -4.367,-7.789c-0.826,-1.534 -1.652,-3.068 -2.478,-4.602c-10.739,-20.062 -20.77,-42.13 -29.974,-66.204c-0,-0.118 -0.118,-0.118 -0.118,-0.236c-0.708,-1.77 -1.298,-3.422 -2.007,-5.192c0,-0.118 -0.118,-0.236 -0.118,-0.472c-0.708,-1.771 -1.298,-3.541 -2.006,-5.429c0,-0.118 -0.118,-0.236 -0.118,-0.236c-0.59,-1.77 -1.298,-3.54 -1.888,-5.31c0,-0.118 -0.118,-0.354 -0.118,-0.472c-0.59,-1.771 -1.298,-3.541 -1.888,-5.311c-0.118,-0.236 -0.118,-0.354 -0.118,-0.472c-0.59,-1.77 -1.18,-3.54 -1.77,-5.31c-0.118,-0.236 -0.118,-0.354 -0.236,-0.59c-0.59,-1.653 -1.18,-3.423 -1.652,-5.075c-0.118,-0.236 -0.236,-0.59 -0.236,-0.826c-0.59,-1.77 -1.062,-3.422 -1.653,-5.192c-0.118,-0.236 -0.236,-0.59 -0.236,-0.826c-0.59,-1.771 -1.062,-3.423 -1.652,-5.193c-0.118,-0.236 -0.236,-0.59 -0.236,-0.944c-0.472,-1.652 -1.062,-3.304 -1.534,-4.956c-0.118,-0.354 -0.236,-0.827 -0.354,-1.181c-0.472,-1.652 -1.062,-3.422 -1.534,-5.074c-0.118,-0.354 -0.236,-0.826 -0.354,-1.18c-0.472,-1.652 -0.944,-3.304 -1.416,-4.957c-0.118,-0.472 -0.236,-0.944 -0.354,-1.416c-0.472,-1.652 -0.944,-3.186 -1.416,-4.838c-0.118,-0.472 -0.236,-1.062 -0.472,-1.534c-0.472,-1.652 -0.944,-3.304 -1.417,-4.957c-0.118,-0.472 -0.236,-0.944 -0.354,-1.416c-0.472,-1.652 -0.826,-3.186 -1.298,-4.838c-0.118,-0.59 -0.354,-1.18 -0.472,-1.652c-0.472,-1.534 -0.826,-3.187 -1.298,-4.839c-0.118,-0.59 -0.354,-1.18 -0.472,-1.77c-0.472,-1.534 -0.826,-3.186 -1.18,-4.72c-0.118,-0.59 -0.354,-1.18 -0.472,-1.888c-0.354,-1.535 -0.826,-3.187 -1.18,-4.721c-0.118,-0.59 -0.354,-1.298 -0.472,-1.888c-0.354,-1.652 -0.708,-3.186 -1.18,-4.838c-0.118,-0.709 -0.354,-1.417 -0.472,-2.243l-16.05,3.777l0,0.118c23.72,100.426 28.087,187.754 12.863,259.504c-0.472,2.36 -1.062,4.603 -1.534,6.963c-14.633,63.253 -44.372,112.463 -88.271,146.096c-1.062,0.826 -2.124,1.653 -3.305,2.479c-0.354,0.236 -0.708,0.472 -1.18,0.826c-0.708,0.59 -1.534,1.062 -2.242,1.652c-0.472,0.354 -0.944,0.59 -1.416,0.944c-0.708,0.472 -1.416,0.944 -2.124,1.416c-0.472,0.354 -1.062,0.59 -1.534,0.944c-0.708,0.472 -1.416,0.826 -2.125,1.298c-0.59,0.354 -1.18,0.59 -1.652,0.944c-0.708,0.354 -1.416,0.826 -2.124,1.18c-0.59,0.354 -1.18,0.59 -1.77,0.944c-0.708,0.355 -1.416,0.709 -2.124,1.063c-0.59,0.354 -1.18,0.59 -1.888,0.944c-0.708,0.354 -1.416,0.708 -2.243,1.062c-0.59,0.236 -1.298,0.59 -1.888,0.826c-0.472,0.236 -0.944,0.472 -1.416,0.708c-48.502,-1.298 -94.88,-12.155 -134.177,-31.627c-42.248,-20.888 -74.819,-51.216 -94.173,-87.681c-29.148,-55.111 -43.191,-152.706 55.347,-304.585c0,-0.118 0.118,-0.118 0.118,-0.236l-13.807,-8.969l-0.118,0.118c-32.925,50.745 -67.148,90.75 -101.607,119.073c-27.26,22.422 -54.757,37.527 -82.017,45.08c0,-0.118 0,-0.236 0.118,-0.354c0.118,-0.59 0.236,-1.063 0.354,-1.653c0.236,-1.416 0.59,-2.95 0.944,-4.366c0.118,-0.708 0.354,-1.416 0.472,-2.124c0.236,-1.298 0.59,-2.596 0.944,-3.776c0.236,-0.827 0.354,-1.535 0.59,-2.361c0.354,-1.18 0.59,-2.36 0.944,-3.658c0.237,-0.826 0.473,-1.652 0.709,-2.36c0.354,-1.18 0.708,-2.36 1.062,-3.54c0.236,-0.827 0.472,-1.535 0.708,-2.361c0.354,-1.298 0.826,-2.478 1.18,-3.776c0.236,-0.708 0.472,-1.416 0.708,-2.124c0.472,-1.416 0.944,-2.832 1.416,-4.367c0.118,-0.472 0.354,-1.062 0.472,-1.534c0.708,-2.006 1.416,-3.894 2.124,-5.9c0.118,-0.354 0.354,-0.826 0.472,-1.18c0.59,-1.534 1.18,-3.069 1.77,-4.603c0.236,-0.708 0.59,-1.416 0.826,-2.124c0.473,-1.18 1.063,-2.478 1.535,-3.776c0.354,-0.708 0.708,-1.534 0.944,-2.242c0.472,-1.181 1.062,-2.361 1.534,-3.541c0.354,-0.826 0.708,-1.534 1.062,-2.36c0.472,-1.18 1.062,-2.36 1.652,-3.422c0.354,-0.826 0.708,-1.534 1.062,-2.36c0.59,-1.181 1.18,-2.361 1.77,-3.541c0.354,-0.708 0.708,-1.416 1.062,-2.242c0.708,-1.298 1.299,-2.596 2.007,-3.776c0.354,-0.59 0.59,-1.18 0.944,-1.77c1.062,-1.889 2.006,-3.777 3.068,-5.665c18.528,-32.571 42.838,-61.601 72.222,-86.501l-9.913,-13.218c-49.092,32.807 -103.731,51.689 -157.897,54.521c-53.341,2.832 -101.135,-10.031 -138.308,-37.291c-1.888,-1.416 -3.777,-2.832 -5.665,-4.366c-0.59,-0.472 -1.18,-0.944 -1.77,-1.417c-1.298,-1.062 -2.478,-2.006 -3.776,-3.068c-0.708,-0.59 -1.416,-1.18 -2.006,-1.888c-1.063,-0.944 -2.243,-1.888 -3.305,-2.95c-0.708,-0.708 -1.416,-1.416 -2.124,-2.124c-1.062,-0.944 -2.006,-2.007 -2.95,-2.951c-0.708,-0.708 -1.416,-1.534 -2.124,-2.242c-0.944,-0.944 -1.889,-2.006 -2.715,-2.95c-0.708,-0.826 -1.416,-1.652 -2.124,-2.478c-0.826,-0.944 -1.77,-2.006 -2.596,-3.069c-0.708,-0.826 -1.416,-1.77 -2.124,-2.596c-0.826,-1.062 -1.652,-2.006 -2.478,-3.068c-0.708,-0.944 -1.417,-1.77 -2.007,-2.714c-0.59,-0.826 -1.298,-1.652 -1.888,-2.479c-10.857,-47.912 -12.509,-95.942 -4.72,-139.252c8.497,-46.968 28.204,-87.209 57.117,-116.24c26.316,-26.552 60.303,-44.253 100.899,-52.868c45.315,-9.441 99.01,-7.435 159.431,6.136l0.236,0l3.659,-16.167c-78.713,-17.702 -135.476,-44.844 -169.109,-80.955c0.236,-0 0.354,-0.118 0.59,-0.118c2.36,-0.354 4.602,-0.59 6.963,-0.826c0.354,-0 0.708,-0.118 0.944,-0.118c2.36,-0.236 4.838,-0.472 7.198,-0.708l0.708,-0c2.479,-0.236 4.957,-0.354 7.435,-0.472l0.354,-0c2.478,-0.118 5.075,-0.236 7.553,-0.236l0.354,-0c2.478,-0 5.074,-0.118 7.552,-0.118l0.709,-0c2.478,-0 4.838,-0 7.316,0.118l1.062,-0c2.36,0.118 4.721,0.118 7.199,0.236l1.18,-0c2.36,0.118 4.72,0.236 7.081,0.472c0.472,-0 0.826,-0 1.298,0.118c2.36,0.118 4.72,0.354 6.962,0.59c0.472,-0 0.826,0.118 1.18,0.118c2.361,0.236 4.721,0.472 7.081,0.708c0.354,-0 0.708,0.118 1.18,0.118c2.36,0.236 4.721,0.59 7.081,0.944c0.354,-0 0.708,0.118 0.944,0.118c2.478,0.354 4.838,0.708 7.316,1.062c0.236,0 0.472,0.118 0.708,0.118c2.479,0.354 5.075,0.826 7.553,1.298l0.236,0c2.478,0.472 4.957,0.944 7.435,1.416c0.236,0 0.472,0.118 0.59,0.118c2.36,0.472 4.838,0.944 7.198,1.416c0.237,0 0.591,0.118 0.945,0.236c2.36,0.473 4.602,1.063 6.962,1.535c0.354,0.118 0.708,0.118 1.062,0.236c2.242,0.472 4.485,1.062 6.727,1.652c0.354,0.118 0.708,0.236 1.18,0.236c2.242,0.59 4.484,1.18 6.609,1.77c0.354,0.118 0.826,0.236 1.18,0.354c2.242,0.59 4.366,1.18 6.608,1.77c0.354,0.118 0.708,0.236 1.062,0.354c2.242,0.59 4.367,1.298 6.609,1.888c0.354,0.118 0.59,0.236 0.944,0.236c2.242,0.708 4.484,1.416 6.609,2.125c0.236,0.118 0.472,0.118 0.708,0.236c2.242,0.708 4.484,1.416 6.726,2.242c0.118,-0 0.236,0.118 0.354,0.118c2.242,0.708 4.485,1.534 6.727,2.36c0.118,-0 0.236,0.118 0.236,0.118c2.242,0.826 4.366,1.534 6.608,2.36c0.236,0.118 0.354,0.118 0.59,0.236c2.125,0.826 4.131,1.534 6.255,2.36c0.236,0.118 0.472,0.236 0.826,0.236c2.006,0.826 4.012,1.535 5.901,2.361c0.236,0.118 0.59,0.236 0.826,0.354c1.888,0.826 3.894,1.534 5.782,2.36c0.236,0.118 0.59,0.236 0.944,0.354c1.888,0.826 3.777,1.534 5.547,2.36c0.236,0.118 0.59,0.236 0.826,0.354c1.888,0.826 3.658,1.652 5.428,2.478c0.236,0.118 0.472,0.236 0.708,0.354c1.77,0.826 3.659,1.653 5.429,2.597c0.236,0.118 0.354,0.118 0.59,0.236c1.77,0.826 3.658,1.77 5.428,2.596c0.118,-0 0.236,0.118 0.236,0.118c1.888,0.944 3.659,1.77 5.429,2.714c1.888,0.944 3.776,2.006 5.782,3.068c4.839,2.597 9.677,5.311 14.397,8.261l8.615,-14.043c-8.733,-5.547 -17.229,-11.329 -25.372,-17.466c-44.372,-32.925 -80.719,-73.874 -103.967,-117.656c-26.906,-50.626 -35.167,-102.669 -23.248,-146.451c0.354,-1.298 0.708,-2.596 1.18,-3.894c0.118,-0.472 0.354,-0.944 0.472,-1.416c0.236,-0.826 0.472,-1.652 0.826,-2.478c0.236,-0.59 0.472,-1.18 0.59,-1.77c0.236,-0.708 0.472,-1.416 0.708,-2.007c0.236,-0.708 0.472,-1.298 0.708,-2.006c0.236,-0.59 0.472,-1.18 0.708,-1.888c0.237,-0.708 0.591,-1.416 0.827,-2.006c0.236,-0.59 0.472,-1.18 0.708,-1.77c0.236,-0.708 0.59,-1.416 0.944,-2.124c0.236,-0.59 0.472,-1.18 0.708,-1.653c0.354,-0.708 0.708,-1.416 1.062,-2.124c0.236,-0.59 0.472,-1.062 0.708,-1.652c0.354,-0.708 0.708,-1.416 1.062,-2.124c0.236,-0.59 0.59,-1.062 0.826,-1.534c0.354,-0.708 0.826,-1.416 1.18,-2.124c0.236,-0.472 0.59,-1.062 0.826,-1.534c0.354,-0.709 0.826,-1.417 1.298,-2.125c0.236,-0.472 0.59,-0.944 0.826,-1.534c0.472,-0.708 0.827,-1.416 1.299,-2.124c0.354,-0.472 0.59,-0.944 0.944,-1.416c0.472,-0.708 0.944,-1.416 1.416,-2.124c0.354,-0.472 0.59,-0.944 0.944,-1.416c0.472,-0.708 0.944,-1.417 1.416,-2.125c0.354,-0.472 0.59,-0.944 0.944,-1.416c0.472,-0.708 1.062,-1.416 1.534,-2.124c0.354,-0.472 0.708,-0.944 1.062,-1.416c0.472,-0.708 1.062,-1.416 1.534,-2.006c0.354,-0.472 0.708,-0.944 1.062,-1.416c0.473,-0.708 1.063,-1.416 1.653,-2.006c0.354,-0.473 0.708,-0.945 1.062,-1.417c0.59,-0.708 1.062,-1.298 1.652,-2.006c0.354,-0.472 0.708,-0.944 1.18,-1.416c0.59,-0.59 1.18,-1.298 1.652,-1.888c0.354,-0.472 0.826,-0.944 1.18,-1.416c0.59,-0.59 1.18,-1.298 1.77,-1.888c0.472,-0.472 0.826,-0.944 1.298,-1.416c0.591,-0.591 1.181,-1.299 1.771,-1.889c0.472,-0.472 0.826,-0.944 1.298,-1.416c0.59,-0.59 1.18,-1.18 1.888,-1.77c0.472,-0.472 0.944,-0.944 1.416,-1.298c0.59,-0.59 1.298,-1.18 1.888,-1.77c0.472,-0.472 0.944,-0.944 1.416,-1.416c0.59,-0.59 1.298,-1.18 1.888,-1.77c0.473,-0.472 0.945,-0.945 1.535,-1.417c0.59,-0.59 1.298,-1.18 1.888,-1.652c0.472,-0.472 1.062,-0.944 1.534,-1.416c0.59,-0.59 1.298,-1.062 2.006,-1.652c0.59,-0.472 1.062,-0.944 1.652,-1.416c0.708,-0.59 1.298,-1.062 2.006,-1.652c0.59,-0.472 1.18,-0.944 1.771,-1.298c0.708,-0.59 1.298,-1.062 2.006,-1.535c0.59,-0.472 1.18,-0.944 1.77,-1.416c0.708,-0.472 1.416,-1.062 2.124,-1.534c0.59,-0.472 1.18,-0.944 1.888,-1.416c0.708,-0.472 1.416,-0.944 2.124,-1.416c0.59,-0.472 1.299,-0.944 1.889,-1.298c0.708,-0.472 1.416,-0.944 2.124,-1.416c0.708,-0.472 1.298,-0.944 2.006,-1.298c0.708,-0.472 1.416,-0.944 2.124,-1.416c0.708,-0.473 1.416,-0.945 2.124,-1.299c0.708,-0.472 1.416,-0.944 2.124,-1.298c0.591,-0.354 1.181,-0.708 1.771,-1.062c74.464,-26.198 140.786,-22.776 186.81,9.795c23.484,16.521 41.657,40.714 54.284,71.632c13.926,34.341 21.006,77.297 21.006,127.923l16.522,0c-0,-49.682 6.844,-92.166 20.416,-126.271c11.092,-27.968 26.788,-50.508 46.732,-67.029l0.118,0.118c0.354,0.354 0.59,0.826 0.944,1.18c0.472,0.59 0.944,1.18 1.534,1.888c0.354,0.472 0.708,0.944 1.062,1.298c0.472,0.59 0.944,1.18 1.416,1.77c0.354,0.472 0.708,0.944 1.062,1.416c0.472,0.59 0.944,1.18 1.298,1.77c0.354,0.472 0.708,0.945 1.062,1.417c0.472,0.59 0.826,1.18 1.298,1.888c0.354,0.472 0.708,1.062 1.062,1.534c0.473,0.59 0.827,1.298 1.181,1.888c0.354,0.472 0.708,1.062 1.062,1.534c0.354,0.59 0.826,1.298 1.18,2.006c0.354,0.59 0.708,1.062 0.944,1.652c0.354,0.709 0.826,1.299 1.18,2.007c0.354,0.59 0.59,1.062 0.944,1.652c0.354,0.708 0.708,1.298 1.18,2.006c0.354,0.59 0.59,1.062 0.944,1.652c0.354,0.708 0.708,1.416 1.062,2.124c0.354,0.59 0.59,1.18 0.944,1.77c0.354,0.708 0.708,1.417 1.063,2.243c0.236,0.59 0.59,1.062 0.826,1.652c0.354,0.708 0.708,1.534 1.062,2.36c0.236,0.59 0.472,1.062 0.826,1.652c0.354,0.826 0.708,1.652 1.062,2.478c0.236,0.472 0.472,1.062 0.708,1.534c0.354,0.945 0.826,1.889 1.18,2.833c0.236,0.472 0.354,0.944 0.59,1.298c0.472,1.298 1.062,2.596 1.534,3.776c0,0.118 0.118,0.236 0.118,0.354c0.59,1.416 1.062,2.832 1.652,4.367c0.118,0.354 0.236,0.826 0.472,1.18c0.354,1.062 0.826,2.124 1.18,3.186c0.236,0.59 0.355,1.062 0.591,1.652c0.354,0.944 0.708,1.888 0.944,2.832c0.236,0.59 0.354,1.18 0.59,1.77c0.236,0.945 0.59,1.771 0.826,2.715c0.236,0.59 0.354,1.298 0.59,1.888c0.236,0.944 0.59,1.77 0.826,2.596c0.236,0.708 0.354,1.298 0.59,2.006c0.236,0.826 0.472,1.77 0.826,2.596c0.236,0.709 0.354,1.417 0.59,2.125c0.236,0.944 0.472,1.77 0.708,2.714c0.236,0.708 0.354,1.416 0.59,2.124c0.236,0.944 0.472,1.77 0.708,2.714c0.236,0.708 0.354,1.416 0.472,2.125c0.236,0.944 0.472,1.77 0.708,2.714c0.118,0.708 0.354,1.416 0.472,2.242c0.236,0.944 0.354,1.888 0.59,2.832c0.118,0.708 0.354,1.416 0.472,2.242c0.236,0.944 0.354,1.889 0.59,2.833c0.118,0.708 0.237,1.534 0.473,2.242c0.236,0.944 0.354,1.888 0.59,2.95c0.118,0.708 0.236,1.416 0.354,2.242c0.118,0.944 0.354,2.006 0.472,3.069c0.118,0.708 0.236,1.416 0.354,2.124c0.236,1.062 0.354,2.124 0.472,3.186c0.118,0.708 0.236,1.416 0.354,2.124c0.236,1.18 0.354,2.36 0.59,3.658c0.118,0.591 0.118,1.181 0.236,1.771c0.236,1.77 0.472,3.54 0.708,5.428c5.782,46.85 4.248,100.073 -4.366,145.979c-1.417,7.434 -3.069,14.869 -4.839,22.304l16.049,4.012c0.473,-1.888 0.945,-3.776 1.535,-5.664c13.335,-49.329 34.695,-93.819 62.073,-130.402c5.31,-7.08 10.857,-13.807 16.521,-20.179c3.423,-3.895 6.963,-7.553 10.385,-11.093c34.105,-34.223 72.223,-54.521 111.284,-58.888c8.379,-0.944 16.993,-1.18 25.726,-0.59l0.118,0c1.18,0.118 2.36,0.236 3.659,0.236l0.236,0c1.18,0.118 2.36,0.236 3.54,0.354l0.354,0c1.18,0.118 2.242,0.236 3.422,0.354c0.118,0 0.354,0 0.472,0.118c1.062,0.118 2.242,0.355 3.304,0.473c0.237,-0 0.355,0.118 0.591,0.118c1.062,0.118 2.124,0.354 3.186,0.59c0.236,-0 0.472,0.118 0.708,0.118c1.062,0.236 2.006,0.354 3.068,0.59c0.236,-0 0.59,0.118 0.826,0.236c0.944,0.236 2.006,0.354 2.95,0.59c0.354,0.118 0.591,0.118 0.945,0.236c0.944,0.236 1.888,0.472 2.832,0.708c0.354,0.118 0.708,0.236 1.062,0.236c0.944,0.236 1.77,0.472 2.714,0.708c0.354,0.118 0.708,0.236 1.18,0.354c0.944,0.236 1.77,0.472 2.596,0.708c0.472,0.118 0.827,0.236 1.299,0.354c0.826,0.236 1.652,0.472 2.596,0.826c0.472,0.118 0.944,0.236 1.298,0.472c0.826,0.236 1.652,0.59 2.478,0.826c0.472,0.118 0.944,0.354 1.416,0.472c0.826,0.236 1.534,0.59 2.36,0.826c0.472,0.236 1.063,0.354 1.535,0.59c0.708,0.236 1.534,0.59 2.242,0.826c0.472,0.236 1.062,0.472 1.652,0.59c0.708,0.236 1.416,0.591 2.242,0.827c0.59,0.236 1.062,0.472 1.652,0.708c0.708,0.236 1.416,0.59 2.124,0.944c0.59,0.236 1.181,0.472 1.771,0.826c0.708,0.354 1.416,0.59 2.124,0.944c0.59,0.236 1.18,0.59 1.77,0.826c0.708,0.354 1.298,0.59 2.006,0.944c0.59,0.236 1.18,0.59 1.77,0.944c0.708,0.354 1.298,0.59 2.006,0.944c0.59,0.354 1.299,0.59 1.889,0.944c0.59,0.354 1.298,0.708 1.888,1.062c0.59,0.354 1.298,0.708 1.888,0.944c0.59,0.354 1.298,0.708 1.888,1.063c0.59,0.354 1.298,0.708 1.888,1.062c0.59,0.354 1.298,0.708 1.888,1.062c0.59,0.354 1.299,0.708 1.889,1.18c0.59,0.354 1.18,0.708 1.888,1.062c0.708,0.354 1.298,0.826 2.006,1.18c0.59,0.354 1.18,0.708 1.77,1.062c0.708,0.354 1.298,0.826 2.006,1.18c0.472,0.236 0.944,0.59 1.298,0.826c48.503,59.005 65.85,118.837 48.739,168.637c-9.441,27.732 -29.503,52.278 -59.714,73.048c-33.751,23.248 -80.129,41.54 -137.836,54.521l-0.236,-0l3.659,16.167c62.427,-14.043 117.538,-15.813 163.798,-5.192c38.825,8.851 71.278,26.316 96.65,51.806c-1.18,1.416 -2.478,2.833 -3.658,4.249c-0.118,0.118 -0.236,0.236 -0.354,0.472c-1.416,1.534 -2.95,3.186 -4.484,4.72c-0.472,0.472 -1.063,0.944 -1.535,1.534c-1.062,1.062 -2.124,2.124 -3.186,3.069c-0.59,0.59 -1.298,1.18 -2.006,1.77c-0.944,0.944 -2.006,1.77 -2.95,2.714c-0.708,0.59 -1.416,1.298 -2.242,1.888c-0.945,0.826 -2.007,1.652 -2.951,2.478c-0.826,0.59 -1.534,1.298 -2.36,1.888c-0.944,0.827 -2.006,1.535 -2.95,2.361c-0.826,0.59 -1.652,1.298 -2.478,1.888c-1.062,0.708 -2.007,1.534 -3.069,2.242c-0.826,0.59 -1.77,1.18 -2.596,1.77c-1.062,0.708 -2.124,1.416 -3.186,2.124c-0.944,0.59 -1.77,1.18 -2.714,1.771c-1.062,0.708 -2.243,1.416 -3.305,2.124c-0.944,0.59 -1.888,1.18 -2.832,1.652c-1.18,0.708 -2.242,1.298 -3.422,2.006c-0.944,0.59 -1.888,1.062 -2.832,1.652c-1.181,0.708 -2.361,1.298 -3.659,1.888c-0.944,0.472 -1.888,1.062 -2.832,1.534c-1.298,0.591 -2.478,1.299 -3.776,1.889c-0.944,0.472 -1.889,0.944 -2.833,1.416c-1.298,0.59 -2.714,1.298 -4.13,1.888c-0.944,0.472 -1.888,0.826 -2.832,1.298c-1.534,0.708 -3.068,1.298 -4.721,2.006c-0.826,0.354 -1.534,0.708 -2.36,0.944c-2.36,0.944 -4.838,1.888 -7.198,2.833c-40.006,15.105 -87.092,22.657 -135.83,21.831l-0.826,16.522c22.776,2.006 44.844,6.136 65.731,12.155c3.187,0.944 6.373,1.888 9.559,2.95c4.721,1.534 9.441,3.186 14.043,4.839c70.925,26.434 126.271,75.644 150.345,137.245c0.591,1.535 1.181,3.069 1.653,4.485c0.118,0.354 0.236,0.708 0.354,1.062c0.472,1.18 0.826,2.36 1.18,3.54c0.118,0.472 0.354,1.062 0.472,1.534c0.354,0.944 0.708,2.007 0.944,3.069c0.236,0.59 0.354,1.18 0.472,1.77c0.236,0.944 0.59,1.888 0.826,2.832c0.118,0.59 0.354,1.298 0.472,1.888c0.236,0.944 0.472,1.888 0.708,2.832c0.118,0.59 0.354,1.299 0.472,2.007c0.236,0.944 0.472,1.77 0.708,2.714c0.118,0.708 0.236,1.298 0.472,2.006c0.236,0.944 0.354,1.77 0.59,2.714c0.118,0.708 0.236,1.416 0.354,2.124c0.118,0.945 0.354,1.771 0.472,2.715c0.118,0.708 0.236,1.416 0.354,2.124c0.118,0.944 0.236,1.77 0.472,2.714c0.118,0.708 0.236,1.416 0.354,2.124c0.118,0.944 0.236,1.77 0.354,2.715c0.118,0.708 0.118,1.416 0.236,2.124c0.119,0.944 0.237,1.77 0.355,2.714c0.118,0.708 0.118,1.534 0.236,2.242c0.118,0.826 0.118,1.77 0.236,2.596c-0,0.708 0.118,1.534 0.118,2.243c0.118,0.826 0.118,1.77 0.118,2.596c-0,0.826 0.118,1.534 0.118,2.36c-0,0.826 0.118,1.77 0.118,2.596c-0,0.826 -0,1.534 0.118,2.36l-0,2.597c-1.18,0.59 -1.18,1.416 -1.18,2.242Z" style="fill-rule:nonzero;"/><path id="star_2_" d="M1202.27,507.502c-58.533,-63.017 -71.278,-97.24 -68.091,-183.034l0.708,-19.943l-14.634,13.571c-63.017,58.533 -97.24,71.16 -183.152,68.092l-19.943,-0.708l13.571,14.633c58.533,63.017 71.278,97.24 68.092,183.034l-0.708,19.944l14.633,-13.572c63.017,-58.533 97.24,-71.278 183.152,-68.092l19.944,0.709l-13.572,-14.634Zm-186.338,56.999c0.472,-70.806 -13.335,-108.097 -59.949,-161.32c70.806,0.472 108.097,-13.335 161.32,-59.949c-0.472,70.806 13.335,108.097 59.949,161.32c-70.806,-0.59 -108.097,13.335 -161.32,59.949Z" style="fill-rule:nonzero;"/><g id="circles_2_"><path d="M1912.1,1536.67c-25.254,0 -45.67,20.534 -45.67,45.67c-0,25.254 20.534,45.67 45.67,45.67c25.136,0 45.67,-20.534 45.67,-45.67c-0,-25.136 -20.416,-45.67 -45.67,-45.67Zm-0,74.819c-16.168,-0 -29.149,-13.099 -29.149,-29.149c0,-16.049 13.099,-29.148 29.149,-29.148c16.049,-0 29.148,13.099 29.148,29.148c0,16.168 -13.099,29.149 -29.148,29.149Z" style="fill-rule:nonzero;"/><path d="M1820.53,1512.12c-17.23,0 -31.155,13.925 -31.155,31.155c0,17.229 13.925,31.155 31.155,31.155c17.229,-0 31.155,-14.044 31.155,-31.155c0.118,-17.112 -13.926,-31.155 -31.155,-31.155Zm-0,45.906c-8.143,0 -14.633,-6.608 -14.633,-14.633c-0,-8.143 6.608,-14.633 14.633,-14.633c8.025,-0 14.633,6.608 14.633,14.633c0.118,8.025 -6.49,14.633 -14.633,14.633Z" style="fill-rule:nonzero;"/></g></g></g></g></svg>