<?xml version="1.0" encoding="UTF-8" standalone="no"?><!DOCTYPE svg PUBLIC "-//W3C//DTD SVG 1.1//EN" "http://www.w3.org/Graphics/SVG/1.1/DTD/svg11.dtd"><svg width="100%" height="100%" viewBox="0 0 3267 1914" version="1.1" xmlns="http://www.w3.org/2000/svg" xmlns:xlink="http://www.w3.org/1999/xlink" xml:space="preserve" xmlns:serif="http://www.serif.com/" style="fill-rule:evenodd;clip-rule:evenodd;stroke-linejoin:round;stroke-miterlimit:2;"><rect id="Artboard1" x="0" y="0" width="3266.13" height="1913.18" style="fill:none;"/><clipPath id="_clip1"><rect id="Student-cap.svg" serif:id="Student cap.svg" x="625.201" y="133.764" width="2015.73" height="1645.65"/></clipPath><g clip-path="url(#_clip1)"><g id="background_1_"><g id="background"><path d="M1405.81,1373.46c-12.105,-10.038 -27.014,-1.624 -42.662,7.233c-17.124,9.596 -38.233,21.553 -65.69,21.553l-0.591,-0c-41.185,-0.295 -72.48,-15.205 -91.671,-27.753l-11.367,17.272c21.405,14.024 56.686,30.705 102.743,31l0.886,-0c32.771,-0 57.719,-14.024 75.876,-24.21c6.938,-3.985 16.238,-9.3 19.485,-9.152c4.281,4.428 0.886,33.067 -17.271,55.947c-33.805,42.515 -100.528,30.853 -103.333,30.41l-3.691,20.371c1.181,0.295 11.662,2.067 26.719,2.067c27.458,-0 69.824,-6.2 96.543,-39.857c19.043,-23.767 33.805,-68.643 14.024,-84.881Zm-0,0c-12.105,-10.038 -27.014,-1.624 -42.662,7.233c-17.124,9.596 -38.233,21.553 -65.69,21.553l-0.591,-0c-41.185,-0.295 -72.48,-15.205 -91.671,-27.753l-11.367,17.272c21.405,14.024 56.686,30.705 102.743,31l0.886,-0c32.771,-0 57.719,-14.024 75.876,-24.21c6.938,-3.985 16.238,-9.3 19.485,-9.152c4.281,4.428 0.886,33.067 -17.271,55.947c-33.805,42.515 -100.528,30.853 -103.333,30.41l-3.691,20.371c1.181,0.295 11.662,2.067 26.719,2.067c27.458,-0 69.824,-6.2 96.543,-39.857c19.043,-23.767 33.805,-68.643 14.024,-84.881Zm-0,0c-12.105,-10.038 -27.014,-1.624 -42.662,7.233c-17.124,9.596 -38.233,21.553 -65.69,21.553l-0.591,-0c-41.185,-0.295 -72.48,-15.205 -91.671,-27.753l-11.367,17.272c21.405,14.024 56.686,30.705 102.743,31l0.886,-0c32.771,-0 57.719,-14.024 75.876,-24.21c6.938,-3.985 16.238,-9.3 19.485,-9.152c4.281,4.428 0.886,33.067 -17.271,55.947c-33.805,42.515 -100.528,30.853 -103.333,30.41l-3.691,20.371c1.181,0.295 11.662,2.067 26.719,2.067c27.458,-0 69.824,-6.2 96.543,-39.857c19.043,-23.767 33.805,-68.643 14.024,-84.881Zm-0,0c-12.105,-10.038 -27.014,-1.624 -42.662,7.233c-17.124,9.596 -38.233,21.553 -65.69,21.553l-0.591,-0c-41.185,-0.295 -72.48,-15.205 -91.671,-27.753l-11.367,17.272c21.405,14.024 56.686,30.705 102.743,31l0.886,-0c32.771,-0 57.719,-14.024 75.876,-24.21c6.938,-3.985 16.238,-9.3 19.485,-9.152c4.281,4.428 0.886,33.067 -17.271,55.947c-33.805,42.515 -100.528,30.853 -103.333,30.41l-3.691,20.371c1.181,0.295 11.662,2.067 26.719,2.067c27.458,-0 69.824,-6.2 96.543,-39.857c19.043,-23.767 33.805,-68.643 14.024,-84.881Zm-0,0c-12.105,-10.038 -27.014,-1.624 -42.662,7.233c-17.124,9.596 -38.233,21.553 -65.69,21.553l-0.591,-0c-41.185,-0.295 -72.48,-15.205 -91.671,-27.753l-11.367,17.272c21.405,14.024 56.686,30.705 102.743,31l0.886,-0c32.771,-0 57.719,-14.024 75.876,-24.21c6.938,-3.985 16.238,-9.3 19.485,-9.152c4.281,4.428 0.886,33.067 -17.271,55.947c-33.805,42.515 -100.528,30.853 -103.333,30.41l-3.691,20.371c1.181,0.295 11.662,2.067 26.719,2.067c27.458,-0 69.824,-6.2 96.543,-39.857c19.043,-23.767 33.805,-68.643 14.024,-84.881Zm-0,0c-12.105,-10.038 -27.014,-1.624 -42.662,7.233c-17.124,9.596 -38.233,21.553 -65.69,21.553l-0.591,-0c-41.185,-0.295 -72.48,-15.205 -91.671,-27.753l-11.367,17.272c21.405,14.024 56.686,30.705 102.743,31l0.886,-0c32.771,-0 57.719,-14.024 75.876,-24.21c6.938,-3.985 16.238,-9.3 19.485,-9.152c4.281,4.428 0.886,33.067 -17.271,55.947c-33.805,42.515 -100.528,30.853 -103.333,30.41l-3.691,20.371c1.181,0.295 11.662,2.067 26.719,2.067c27.458,-0 69.824,-6.2 96.543,-39.857c19.043,-23.767 33.805,-68.643 14.024,-84.881Zm1157.92,-720.231c-22.29,-10.038 -44.876,-20.372 -67.461,-31c-5.758,-126.952 -110.567,-228.071 -238.847,-228.071c-47.976,0 -92.705,14.172 -130.052,38.381c-161.79,-107.466 -283.28,-180.095 -364.766,-226.742c-24.062,-13.729 -36.167,-20.372 -54.471,-27.162c-101.857,-38.233 -182.752,-3.543 -372.885,35.133c-37.938,7.676 -94.033,18.453 -163.118,28.786c-53.143,-66.281 -134.629,-108.795 -226.152,-108.795c-160.019,-0 -289.628,129.609 -289.628,289.48c0,47.238 11.367,91.819 31.295,131.233c-9.005,9.005 -17.862,17.862 -26.128,26.719c-60.524,63.328 -43.105,167.104 34.838,207.109c51.371,26.276 102.742,52.7 154.114,78.976c43.695,22.438 71.152,67.314 71.152,116.471l-0,82.962c-27.457,38.971 -43.695,86.504 -43.695,137.728c-0,51.371 16.238,98.757 43.695,137.728l-0,148.209c-0,39.562 18.009,77.057 48.861,102.005c86.062,69.233 289.185,192.642 636.384,181.57c188.952,-6.052 334.357,-42.661 441.232,-84.88c46.648,55.061 116.324,90.047 194.119,90.047c140.385,0 254.347,-113.814 254.347,-254.347c-0,-125.476 -90.933,-229.694 -210.357,-250.509l0,-148.652c0,-47.533 25.686,-91.228 67.314,-114.404c73.367,-40.89 146.733,-81.633 220.1,-122.523c38.823,-21.7 64.066,-61.557 67.019,-105.843c-0,-0.59 0.147,-1.033 0.147,-1.624c3.543,-54.619 -27.162,-105.547 -77.057,-127.985Zm-1203.53,944.907c-93.295,-19.781 -165.186,-52.995 -208.881,-77.5c-37.495,-20.962 -61.409,-39.267 -69.971,-46.057l-1.033,-115.29c8.562,2.214 17.419,3.395 26.276,3.395c16.238,-0 32.033,-3.69 47.09,-11.219c16.681,10.333 39.414,16.681 64.657,16.681c52.848,-0 94.328,-27.605 94.328,-62.738c0,-32.181 -34.69,-58.014 -81.19,-62.147c3.395,-14.91 5.167,-30.558 5.167,-46.353c-0,-91.523 -58.309,-165.923 -129.905,-165.923c-9.89,-0 -19.633,1.476 -29.08,4.133l-0.296,-40.447l45.319,-19.486l-8.119,-19.043l-37.495,16.091l-0.738,-92.557c80.305,50.928 156.623,108.204 231.761,164.595c23.914,18.009 48.567,36.461 73.219,54.618c-0.443,0.443 -0.738,1.034 -1.181,1.477c-23.914,31.147 -37.2,72.48 -37.2,116.323c0,43.843 13.138,85.176 37.2,116.324c24.505,32.033 57.571,49.599 92.705,49.599c11.071,0 21.847,-1.771 32.328,-5.166l16.533,34.69l18.6,-8.857l-16.238,-33.952c15.057,-8.267 28.786,-20.076 40.743,-35.429l39.119,22.291l10.186,-18.01l-37.643,-21.552c5.462,-9.152 10.186,-19.043 13.876,-29.376l42.367,6.347l3.1,-20.371l-39.415,-5.905c1.772,-6.938 3.1,-14.023 4.134,-21.257c0.295,0.148 0.59,0.295 0.738,0.443l5.462,3.1l5.314,-3.395c122.671,-78.09 260.252,-132.857 393.404,-185.852c3.1,-1.181 6.347,-2.509 9.447,-3.838l-6.495,114.257c-21.848,4.724 -38.233,24.209 -38.233,47.533c-0,5.462 0.886,10.776 2.657,15.795l-93.147,93.147l14.614,14.615l89.604,-89.605c6.496,6.791 15.057,11.662 24.505,13.729l0,127.542l20.667,0l-0,-127.542c9.595,-2.067 18.009,-6.938 24.504,-13.729l60.672,60.671l-0,114.553c-143.486,89.456 -286.971,147.766 -426.323,173.156c-112.633,20.519 -222.904,19.633 -327.713,-2.509Zm-362.699,-401.375c-0,-80.01 49.009,-145.257 109.237,-145.257c8.267,-0 16.239,1.181 23.915,3.543c-1.476,-0.148 -3.1,-0.148 -4.724,-0.148c-43.695,0 -79.862,31.738 -86.947,73.367c5.019,-2.067 10.628,-3.248 16.385,-3.248c24.357,-0 44.138,19.781 44.138,44.138c0,19.486 -12.547,35.871 -29.966,41.776c15.352,12.695 34.985,20.371 56.39,20.371c42.809,0 78.533,-30.557 86.504,-71.004c2.215,11.662 3.543,23.914 3.543,36.462c0,15.795 -1.919,31.295 -5.609,46.057c-49.01,2.657 -86.21,29.228 -86.21,62.59c0,11.514 4.429,22.143 12.105,31.295c-9.595,3.543 -19.338,5.314 -29.524,5.314c-60.376,0 -109.237,-65.247 -109.237,-145.256Zm1161.91,-637.713c13.433,0 24.357,10.924 24.357,24.357c-0,13.434 -10.924,24.357 -24.357,24.357c-13.433,0 -24.357,-10.923 -24.357,-24.357c-0,-13.433 10.924,-24.357 24.357,-24.357Zm126.804,-71.004c26.719,-0 48.419,21.7 48.419,48.419c0,26.718 -21.7,48.418 -48.419,48.418c-26.719,0 -48.419,-21.7 -48.419,-48.418c0,-26.719 21.7,-48.419 48.419,-48.419Zm-257.151,682.736l6.938,-122.671c25.981,-10.334 52.109,-20.962 78.238,-31.738l-0,267.042l-49.453,-49.452c1.624,-5.02 2.657,-10.186 2.657,-15.796c0,-23.176 -16.385,-42.661 -38.38,-47.385Zm-556.375,-99.348c1.329,0 2.657,0 4.133,0.148c-33.952,8.267 -60.228,36.019 -66.133,70.857c5.019,-2.067 10.629,-3.1 16.386,-3.1c24.357,-0 44.138,19.781 44.138,44.138c-0,19.486 -12.548,35.871 -29.967,41.776c15.353,12.695 34.986,20.371 56.391,20.371c37.495,0 69.528,-23.471 82.371,-56.39c1.328,9.005 2.066,18.157 2.066,27.605c0,80.009 -49.009,145.256 -109.237,145.256c-60.229,0 -109.238,-65.099 -109.238,-145.256c-0.148,-80.305 48.862,-145.405 109.09,-145.405Zm128.281,118.538c0.147,0.148 0.295,0.148 0.295,0.148l5.462,3.1l5.314,-3.395c122.671,-78.091 260.252,-132.857 393.404,-185.852c4.281,-1.772 8.562,-3.396 12.695,-5.019l-1.919,34.69c-6.2,2.51 -12.253,4.871 -18.453,7.381c-132.118,52.552 -268.665,106.876 -391.632,184.228c-1.328,-0.738 -2.509,-1.476 -3.69,-2.214c-0,-2.215 0.147,-4.429 0.147,-6.643c0,-8.71 -0.59,-17.567 -1.623,-26.424Zm436.36,-164.595l1.919,-34.69c142.748,-56.981 288.004,-117.947 415.694,-210.061c-0.147,2.657 -0.147,5.314 -0.147,7.971c0.147,7.086 0.738,14.319 1.771,21.405c-127.099,95.066 -274.275,157.361 -419.237,215.375Zm3.248,-57.571c1.919,-38.233 -17.271,-73.957 -50.338,-93.295l-276.637,-162.38l-10.481,17.862l276.785,162.232c26.423,15.5 41.923,44.286 40.152,74.991l-0.591,9.152c-7.233,2.952 -14.466,5.757 -21.7,8.71c-132.118,52.552 -268.665,106.875 -391.632,184.228c-3.543,-2.067 -7.085,-4.134 -10.481,-6.2c-6.2,-23.324 -16.385,-44.729 -30.261,-62.738c-24.505,-32.034 -57.572,-49.6 -92.705,-49.6c-12.548,-0 -24.8,2.214 -36.462,6.495c-38.971,-28.048 -78.09,-57.424 -116.028,-85.766c-148.357,-111.452 -301.585,-226.447 -481.975,-290.514c41.333,-34.985 86.062,-67.314 133.152,-96.395c14.172,14.614 28.786,31.443 44.729,51.076l15.647,19.338l2.657,-24.8c3.691,-34.838 8.267,-64.066 14.91,-89.752c59.638,-30.852 124.738,-58.309 193.823,-81.633c78.386,-26.571 160.314,-45.024 239.733,-62.885c58.457,-13.138 118.98,-26.867 177.88,-43.696c63.181,38.677 125.328,81.043 185.557,122.081c68.938,46.943 140.237,95.657 213.604,139.057c110.271,65.247 238.699,135.366 379.675,152.933c-122.376,87.39 -261.58,146.585 -399.013,201.499Zm-1023.88,-363.88c-74.695,-87.98 -129.461,-117.799 -243.866,-132.561c87.981,-74.695 117.8,-129.462 132.562,-243.866c74.695,87.98 129.461,117.799 243.866,132.561c-87.981,74.695 -117.8,129.462 -132.562,243.866Zm-188.952,95.214c178.914,62.738 331.995,177.585 480.204,288.742c35.133,26.276 71.152,53.438 107.466,79.714c-7.086,4.429 -13.876,9.743 -20.224,15.796c-25.095,-18.453 -50.338,-37.348 -74.695,-55.8c-151.309,-113.519 -307.785,-230.876 -492.751,-294.204l0,-34.248Zm316.937,606.122c0,-22.881 33.805,-42.071 73.662,-42.071c39.857,0 73.662,19.338 73.662,42.071c-0,22.881 -33.657,42.072 -73.662,42.072c-40.004,0.147 -73.662,-19.191 -73.662,-42.072Zm1149.06,131.824c8.709,65.542 27.014,100.085 76.171,144.223c-65.543,8.71 -100.085,27.014 -144.223,76.171c-8.71,-65.542 -27.015,-100.085 -76.172,-144.223c65.395,-8.71 99.938,-27.014 144.224,-76.171Zm-887.926,-63.624c-12.105,-10.038 -27.014,-1.624 -42.662,7.233c-17.124,9.596 -38.233,21.553 -65.69,21.553l-0.591,-0c-41.185,-0.295 -72.48,-15.205 -91.671,-27.753l-11.367,17.272c21.405,14.024 56.686,30.705 102.743,31l0.886,-0c32.771,-0 57.719,-14.024 75.876,-24.21c6.938,-3.985 16.238,-9.3 19.485,-9.152c4.281,4.428 0.886,33.067 -17.271,55.947c-33.805,42.515 -100.528,30.853 -103.333,30.41l-3.691,20.371c1.181,0.295 11.662,2.067 26.719,2.067c27.458,-0 69.824,-6.2 96.543,-39.857c19.043,-23.767 33.805,-68.643 14.024,-84.881Zm-0,0c-12.105,-10.038 -27.014,-1.624 -42.662,7.233c-17.124,9.596 -38.233,21.553 -65.69,21.553l-0.591,-0c-41.185,-0.295 -72.48,-15.205 -91.671,-27.753l-11.367,17.272c21.405,14.024 56.686,30.705 102.743,31l0.886,-0c32.771,-0 57.719,-14.024 75.876,-24.21c6.938,-3.985 16.238,-9.3 19.485,-9.152c4.281,4.428 0.886,33.067 -17.271,55.947c-33.805,42.515 -100.528,30.853 -103.333,30.41l-3.691,20.371c1.181,0.295 11.662,2.067 26.719,2.067c27.458,-0 69.824,-6.2 96.543,-39.857c19.043,-23.767 33.805,-68.643 14.024,-84.881Zm-0,0c-12.105,-10.038 -27.014,-1.624 -42.662,7.233c-17.124,9.596 -38.233,21.553 -65.69,21.553l-0.591,-0c-41.185,-0.295 -72.48,-15.205 -91.671,-27.753l-11.367,17.272c21.405,14.024 56.686,30.705 102.743,31l0.886,-0c32.771,-0 57.719,-14.024 75.876,-24.21c6.938,-3.985 16.238,-9.3 19.485,-9.152c4.281,4.428 0.886,33.067 -17.271,55.947c-33.805,42.515 -100.528,30.853 -103.333,30.41l-3.691,20.371c1.181,0.295 11.662,2.067 26.719,2.067c27.458,-0 69.824,-6.2 96.543,-39.857c19.043,-23.767 33.805,-68.643 14.024,-84.881Zm-0,0c-12.105,-10.038 -27.014,-1.624 -42.662,7.233c-17.124,9.596 -38.233,21.553 -65.69,21.553l-0.591,-0c-41.185,-0.295 -72.48,-15.205 -91.671,-27.753l-11.367,17.272c21.405,14.024 56.686,30.705 102.743,31l0.886,-0c32.771,-0 57.719,-14.024 75.876,-24.21c6.938,-3.985 16.238,-9.3 19.485,-9.152c4.281,4.428 0.886,33.067 -17.271,55.947c-33.805,42.515 -100.528,30.853 -103.333,30.41l-3.691,20.371c1.181,0.295 11.662,2.067 26.719,2.067c27.458,-0 69.824,-6.2 96.543,-39.857c19.043,-23.767 33.805,-68.643 14.024,-84.881Zm-0,0c-12.105,-10.038 -27.014,-1.624 -42.662,7.233c-17.124,9.596 -38.233,21.553 -65.69,21.553l-0.591,-0c-41.185,-0.295 -72.48,-15.205 -91.671,-27.753l-11.367,17.272c21.405,14.024 56.686,30.705 102.743,31l0.886,-0c32.771,-0 57.719,-14.024 75.876,-24.21c6.938,-3.985 16.238,-9.3 19.485,-9.152c4.281,4.428 0.886,33.067 -17.271,55.947c-33.805,42.515 -100.528,30.853 -103.333,30.41l-3.691,20.371c1.181,0.295 11.662,2.067 26.719,2.067c27.458,-0 69.824,-6.2 96.543,-39.857c19.043,-23.767 33.805,-68.643 14.024,-84.881Zm-0,0c-12.105,-10.038 -27.014,-1.624 -42.662,7.233c-17.124,9.596 -38.233,21.553 -65.69,21.553l-0.591,-0c-41.185,-0.295 -72.48,-15.205 -91.671,-27.753l-11.367,17.272c21.405,14.024 56.686,30.705 102.743,31l0.886,-0c32.771,-0 57.719,-14.024 75.876,-24.21c6.938,-3.985 16.238,-9.3 19.485,-9.152c4.281,4.428 0.886,33.067 -17.271,55.947c-33.805,42.515 -100.528,30.853 -103.333,30.41l-3.691,20.371c1.181,0.295 11.662,2.067 26.719,2.067c27.458,-0 69.824,-6.2 96.543,-39.857c19.043,-23.767 33.805,-68.643 14.024,-84.881Zm-0,0c-12.105,-10.038 -27.014,-1.624 -42.662,7.233c-17.124,9.596 -38.233,21.553 -65.69,21.553l-0.591,-0c-41.185,-0.295 -72.48,-15.205 -91.671,-27.753l-11.367,17.272c21.405,14.024 56.686,30.705 102.743,31l0.886,-0c32.771,-0 57.719,-14.024 75.876,-24.21c6.938,-3.985 16.238,-9.3 19.485,-9.152c4.281,4.428 0.886,33.067 -17.271,55.947c-33.805,42.515 -100.528,30.853 -103.333,30.41l-3.691,20.371c1.181,0.295 11.662,2.067 26.719,2.067c27.458,-0 69.824,-6.2 96.543,-39.857c19.043,-23.767 33.805,-68.643 14.024,-84.881Z" style="fill:#ffcd00;fill-rule:nonzero;"/><path d="M1215.82,1196.77c-0,15.795 -1.919,31.295 -5.61,46.057c-49.009,2.657 -86.209,29.228 -86.209,62.59c-0,11.514 4.428,22.143 12.105,31.295c-9.596,3.543 -19.338,5.314 -29.524,5.314c-60.229,0 -109.238,-65.099 -109.238,-145.256c0,-80.01 49.009,-145.257 109.238,-145.257c8.266,-0 16.238,1.181 23.914,3.543c-1.476,-0.148 -3.1,-0.148 -4.724,-0.148c-43.695,0 -79.861,31.738 -86.947,73.367c5.019,-2.067 10.628,-3.248 16.386,-3.248c24.357,-0 44.138,19.781 44.138,44.138c-0,19.486 -12.548,35.871 -29.967,41.776c15.352,12.695 34.986,20.371 56.39,20.371c42.81,0 78.533,-30.557 86.505,-71.004c2.362,11.662 3.543,23.914 3.543,36.462Z" style="fill:#fff;fill-rule:nonzero;"/><path d="M2064.78,1233.97c1.624,-5.02 2.657,-10.186 2.657,-15.796c0,-23.323 -16.385,-42.809 -38.38,-47.533l6.938,-122.671c25.981,-10.333 52.109,-20.962 78.238,-31.738l-0,267.042l-49.453,-49.304Z" style="fill:#fff;fill-rule:nonzero;"/><path d="M2114.23,1312.65l-60.672,-60.671c-6.495,6.79 -15.057,11.662 -24.504,13.729l-0,127.542l-20.667,0l0,-127.542c-9.448,-2.067 -18.009,-6.939 -24.505,-13.729l-89.604,89.605l-14.614,-14.615l93.147,-93.147c-1.624,-5.019 -2.657,-10.186 -2.657,-15.795c-0,-23.176 16.385,-42.662 38.233,-47.533l6.495,-114.257c-3.1,1.328 -6.347,2.509 -9.447,3.838c-133.152,52.995 -270.881,107.761 -393.404,185.852l-5.314,3.395l-5.462,-3.1c-0.295,-0.148 -0.591,-0.295 -0.738,-0.443c-1.034,7.233 -2.362,14.319 -4.134,21.257l39.415,5.905l-3.1,20.371l-42.367,-6.347c-3.838,10.333 -8.414,20.223 -13.876,29.376l37.643,21.552l-10.186,18.01l-39.119,-22.291c-11.957,15.205 -25.686,27.162 -40.743,35.429l16.238,33.952l-18.6,8.857l-16.68,-34.395c-10.481,3.395 -21.258,5.166 -32.329,5.166c-35.133,0 -68.052,-17.566 -92.704,-49.599c-23.915,-31.148 -37.2,-72.481 -37.2,-116.324c-0,-43.843 13.138,-85.176 37.2,-116.323c0.442,-0.443 0.738,-1.034 1.18,-1.477c-24.504,-18.157 -49.304,-36.609 -73.218,-54.618c-74.991,-56.391 -151.457,-113.667 -231.762,-164.595l0.739,92.557l37.347,-16.091l8.119,19.043l-45.319,19.486l0.295,40.447c9.448,-2.657 19.191,-4.133 29.081,-4.133c71.595,-0 129.905,74.4 129.905,165.923c-0,15.795 -1.772,31.443 -5.167,46.353c46.5,4.133 81.19,29.966 81.19,62.147c0,35.133 -41.481,62.738 -94.328,62.738c-25.243,-0 -47.829,-6.2 -64.657,-16.681c-14.91,7.381 -30.705,11.219 -47.09,11.219c-9.005,-0 -17.715,-1.181 -26.276,-3.395l1.033,115.29c8.562,6.79 32.476,25.095 69.971,46.057c43.843,24.505 115.585,57.719 208.88,77.5c104.957,22.142 215.228,23.028 327.714,2.509c139.499,-25.39 282.837,-83.7 426.47,-173.452l0.148,-114.552Zm-722.298,145.7c-26.719,33.657 -69.086,39.857 -96.543,39.857c-14.909,-0 -25.538,-1.772 -26.719,-2.067l3.691,-20.371c2.804,0.443 69.528,12.105 103.333,-30.41c18.157,-22.88 21.552,-51.519 17.271,-55.947c-3.248,-0.148 -12.695,5.167 -19.486,9.152c-18.157,10.334 -42.957,24.21 -75.876,24.21l-0.885,-0c-46.205,-0.295 -81.338,-17.124 -102.743,-31l11.367,-17.272c19.043,12.4 50.485,27.458 91.671,27.753l0.738,-0c27.457,-0 48.567,-11.957 65.69,-21.553c15.648,-8.857 30.41,-17.271 42.662,-7.233c19.486,16.238 4.724,61.114 -14.171,84.881Z" style="fill:#fff;fill-rule:nonzero;"/><path d="M2456.7,810.005c-127.1,95.066 -274.423,157.361 -419.237,215.375l1.919,-34.69c142.747,-56.981 288.004,-117.947 415.694,-210.061c-0.148,2.657 -0.148,5.314 -0.148,7.971c0,7.086 0.591,14.319 1.772,21.405Z" style="fill:#fff;fill-rule:nonzero;"/><path d="M1307.94,988.033c35.133,26.276 71.152,53.438 107.466,79.714c-7.086,4.429 -13.876,9.743 -20.224,15.795c-25.095,-18.452 -50.338,-37.347 -74.695,-55.8c-151.309,-113.518 -307.785,-230.875 -492.751,-294.204l0,-34.395c178.914,62.886 331.995,177.733 480.204,288.89Z" style="fill:#fff;fill-rule:nonzero;"/><path d="M2018.13,999.104l-1.919,34.691c-6.2,2.509 -12.253,4.871 -18.453,7.381c-132.118,52.552 -268.665,106.875 -391.632,184.228c-1.328,-0.738 -2.509,-1.477 -3.69,-2.215c-0,-2.214 0.147,-4.428 0.147,-6.642c0,-9.005 -0.59,-17.862 -1.623,-26.572c0.147,0.148 0.295,0.148 0.295,0.148l5.462,3.1l5.314,-3.395c122.671,-78.091 260.252,-132.857 393.404,-185.852c4.281,-1.476 8.414,-3.248 12.695,-4.872Z" style="fill:#fff;fill-rule:nonzero;"/><path d="M2040.57,967.809c1.919,-38.233 -17.271,-73.957 -50.338,-93.295l-276.637,-162.38l-10.481,17.862l276.785,162.232c26.423,15.5 41.923,44.286 40.152,74.991l-0.591,9.152c-7.233,2.952 -14.466,5.757 -21.7,8.71c-132.118,52.552 -268.665,106.875 -391.632,184.228c-3.543,-2.067 -7.085,-4.134 -10.481,-6.2c-6.2,-23.324 -16.385,-44.729 -30.261,-62.738c-24.505,-32.034 -57.572,-49.6 -92.705,-49.6c-12.548,-0 -24.8,2.214 -36.462,6.495c-38.971,-28.048 -78.09,-57.424 -116.028,-85.766c-148.357,-111.452 -301.585,-226.447 -481.975,-290.514c41.333,-34.985 86.062,-67.314 133.152,-96.395c14.172,14.614 28.786,31.443 44.729,51.076l15.647,19.338l2.657,-24.8c3.691,-34.838 8.267,-64.066 14.91,-89.752c59.638,-30.852 124.738,-58.309 193.823,-81.633c78.386,-26.571 160.314,-45.024 239.733,-62.885c58.457,-13.138 118.98,-26.867 177.88,-43.696c63.181,38.677 125.328,81.043 185.557,122.081c68.938,46.943 140.237,95.657 213.604,139.057c110.271,65.247 238.699,135.366 379.675,152.933c-122.376,87.39 -261.58,146.585 -399.013,201.499Z" style="fill:#fff;fill-rule:nonzero;"/><ellipse cx="1218.33" cy="1305.27" rx="73.662" ry="42.071" style="fill:#ff4500;"/><path d="M2334.62,536.468c0,26.718 -21.7,48.418 -48.419,48.418c-26.719,0 -48.419,-21.7 -48.419,-48.418c0,-26.719 21.7,-48.419 48.419,-48.419c26.719,-0 48.419,21.7 48.419,48.419Z" style="fill:#1fa2c3;fill-rule:nonzero;"/><path d="M2183.76,583.41c-0,13.434 -10.924,24.357 -24.357,24.357c-13.433,0 -24.357,-10.923 -24.357,-24.357c-0,-13.433 10.924,-24.357 24.357,-24.357c13.433,0 24.357,10.924 24.357,24.357Z" style="fill:#1fa2c3;fill-rule:nonzero;"/><path d="M2369.91,1581.31c-65.543,8.71 -100.085,27.014 -144.223,76.171c-8.71,-65.542 -27.015,-100.085 -76.172,-144.223c65.543,-8.71 100.086,-27.014 144.371,-76.171c8.562,65.542 26.719,100.085 76.024,144.223Z" style="fill:#ff4500;fill-rule:nonzero;"/><path d="M1149.25,360.063c-87.981,74.695 -117.8,129.462 -132.562,243.866c-74.695,-87.98 -129.461,-117.799 -243.866,-132.561c87.981,-74.695 117.8,-129.462 132.562,-243.866c74.695,87.98 129.461,117.652 243.866,132.561Z" style="fill:#ff4500;fill-rule:nonzero;"/></g></g><g id="general"><g id="general_3_"><g id="main_2_"><path d="M2478.11,812.367l1.328,6.347l-5.167,3.838c-104.071,78.829 -220.985,135.514 -339.227,185.114l-0,430.899l-4.872,3.1c-147.766,93 -295.532,153.376 -439.46,179.357c-55.062,10.038 -109.533,14.909 -163.119,14.909c-58.9,0 -116.619,-6.052 -173.009,-18.009c-52.847,-11.219 -133.004,-34.248 -214.49,-80.01c-48.861,-27.457 -74.99,-49.895 -76.023,-50.928l-3.543,-3.1l-1.181,-132.709l-0,-0.443l20.667,-0.148l0.147,8.415l1.033,115.29c8.562,6.79 32.477,25.095 69.972,46.057c43.842,24.504 115.585,57.719 208.88,77.499c104.957,22.143 215.228,23.029 327.713,2.51c139.5,-25.39 282.838,-83.7 426.471,-173.452l-0,-410.823c-26.129,10.777 -52.257,21.258 -78.238,31.738c-7.086,2.805 -14.172,5.61 -21.257,8.415c-3.1,1.328 -6.348,2.509 -9.448,3.838c-133.152,52.995 -270.88,107.761 -393.404,185.852l-5.314,3.395l-5.462,-3.1c-0.295,-0.148 -0.59,-0.295 -0.738,-0.443c-1.033,-0.59 -2.067,-1.181 -3.1,-1.771c-3.543,-2.067 -7.086,-4.134 -10.776,-6.348l10.481,-17.862c1.771,1.033 3.543,2.067 5.314,3.1c1.181,0.738 2.51,1.476 3.691,2.214c122.966,-77.352 259.513,-131.675 391.632,-184.228c6.052,-2.509 12.252,-4.871 18.452,-7.381c7.086,-2.804 14.172,-5.609 21.257,-8.414c144.814,-58.014 292.138,-120.309 419.237,-215.375c-1.033,-7.086 -1.624,-14.172 -1.771,-21.405c-0,-2.657 -0,-5.314 0.147,-7.972c-127.542,92.115 -272.946,153.081 -415.694,210.062c-7.085,2.805 -14.171,5.609 -21.257,8.414c-4.281,1.771 -8.562,3.395 -12.695,5.019c-133.152,52.995 -270.88,107.762 -393.404,185.852l-5.314,3.395l-5.462,-3.1c-0.147,-0.147 -0.295,-0.147 -0.295,-0.147c-6.643,-3.839 -13.286,-7.677 -19.486,-11.515l10.629,-17.714c1.181,0.738 2.362,1.476 3.69,2.214c3.396,2.067 6.938,4.134 10.481,6.2c122.967,-77.352 259.514,-131.675 391.632,-184.228c7.234,-2.952 14.467,-5.757 21.7,-8.709c7.086,-2.805 14.172,-5.61 21.258,-8.414c137.285,-54.915 276.637,-114.11 398.717,-201.5c-141.123,-17.419 -269.404,-87.685 -379.675,-152.933c-73.366,-43.4 -144.666,-92.114 -213.604,-139.057c-60.228,-41.038 -122.376,-83.404 -185.556,-122.08c-58.9,16.828 -119.276,30.409 -177.881,43.695c-79.271,17.862 -161.347,36.462 -239.733,62.886c-68.937,23.323 -134.185,50.78 -193.823,81.633c-1.328,0.738 -2.657,1.328 -3.985,2.066l-9.596,-18.304c7.234,-3.691 14.467,-7.529 21.848,-11.219c55.652,-27.753 115.733,-52.405 178.766,-73.81c79.419,-26.866 161.938,-45.466 241.799,-63.476c59.638,-13.433 121.343,-27.457 180.981,-44.581l4.281,-1.181l3.838,2.362c64.952,39.562 128.723,82.962 190.28,125.033c68.643,46.795 139.795,95.214 212.571,138.319c115.29,68.2 250.509,141.861 397.685,152.785l0.59,0l11.81,0.738l-2.362,11.515c-1.772,9.004 -2.657,18.304 -2.51,27.604c0.443,8.267 1.329,16.386 2.953,24.21Z" style="fill-rule:nonzero;"/><path d="M1440.94,1060.66l-12.105,16.829c-4.576,-3.248 -9.004,-6.495 -13.581,-9.743c-36.166,-26.276 -72.333,-53.29 -107.466,-79.714c-148.061,-111.157 -301.142,-226.004 -480.056,-288.89l0,34.248c184.966,63.328 341.295,180.685 492.751,294.204c24.505,18.304 49.748,37.2 74.695,55.8c2.362,1.771 4.724,3.542 7.234,5.314l-12.253,16.681c-2.952,-2.215 -5.905,-4.429 -8.857,-6.496c-24.505,-18.157 -49.305,-36.609 -73.219,-54.618c-74.99,-56.391 -151.456,-113.667 -231.761,-164.595l0.738,92.557l0.148,22.438l0.295,40.447l0.148,17.272l-20.667,0.147l-0,-9.152l-0.295,-39.857l-0.148,-22.438l-1.033,-114.405c-76.024,-46.795 -155.738,-87.39 -241.357,-116.028l-7.085,-2.362l-0,-67.757l3.395,-3.1c0.148,-0.147 0.295,-0.295 0.443,-0.295l0.147,-0.148c44.729,-39.118 93.591,-75.285 145.109,-107.466c3.839,-2.362 7.529,-4.724 11.367,-7.086l10.776,17.715c-2.362,1.328 -4.576,2.804 -6.938,4.281c-47.09,29.08 -91.819,61.409 -133.152,96.395c180.39,64.066 333.618,179.061 482.123,290.513c37.79,28.343 76.909,57.719 116.028,85.766c1.476,1.329 2.952,2.362 4.576,3.543Z" style="fill-rule:nonzero;"/></g><g id="stars_2_"><path d="M1175.52,342.349c-134.333,-14.171 -184.671,-41.628 -269.552,-146.585l-15.647,-19.338l-2.658,24.8c-14.171,134.333 -41.628,184.671 -146.585,269.699l-19.338,15.647l24.8,2.658c100.233,10.628 153.671,28.49 209.766,80.599c5.019,4.724 10.038,9.596 15.205,14.91c14.171,14.614 28.785,31.443 44.728,51.076l15.648,19.338l2.657,-24.8c3.69,-34.838 8.267,-64.067 14.909,-89.752c2.51,-9.595 5.167,-18.748 8.267,-27.457c20.519,-57.571 55.948,-97.871 123.409,-152.49l19.338,-15.648l-24.947,-2.657Zm-158.838,261.58c-74.695,-87.98 -129.461,-117.799 -243.866,-132.561c87.981,-74.695 117.8,-129.462 132.562,-243.866c74.695,87.98 129.461,117.799 243.866,132.561c-87.981,74.695 -117.8,129.462 -132.562,243.866Z" style="fill-rule:nonzero;"/><path d="M2401.2,1581.02c-64.952,-53.881 -81.781,-85.619 -89.604,-169.614l-2.362,-24.8l-15.943,19.191c-53.881,64.952 -85.619,81.78 -169.614,89.604l-24.8,2.362l19.191,15.943c64.952,53.881 81.78,85.619 89.604,169.614l2.362,24.8l15.943,-19.191c53.881,-64.952 85.619,-81.781 169.614,-89.604l24.8,-2.362l-19.191,-15.943Zm-175.666,76.466c-8.709,-65.542 -27.014,-100.085 -76.171,-144.223c65.542,-8.71 100.085,-27.014 144.371,-76.171c8.709,65.542 27.014,100.085 76.171,144.223c-65.543,8.71 -100.085,27.014 -144.371,76.171Z" style="fill-rule:nonzero;"/></g><g id="circles_2_"><path d="M2159.4,538.387c-24.8,-0 -45.024,20.223 -45.024,45.023c0,24.8 20.224,45.024 45.024,45.024c24.8,-0 45.024,-20.224 45.024,-45.024c-0,-24.8 -20.224,-45.023 -45.024,-45.023Zm-0,69.38c-13.433,0 -24.357,-10.923 -24.357,-24.357c-0,-13.433 10.924,-24.357 24.357,-24.357c13.433,0 24.357,10.924 24.357,24.357c-0,13.434 -10.924,24.357 -24.357,24.357Z" style="fill-rule:nonzero;"/><path d="M2286.2,467.382c-38.085,0 -69.085,31 -69.085,69.086c-0,38.085 31,69.085 69.085,69.085c38.086,0 69.086,-31 69.086,-69.085c-0,-38.086 -31,-69.086 -69.086,-69.086Zm0,117.652c-26.719,0 -48.419,-21.7 -48.419,-48.419c0,-26.719 21.7,-48.419 48.419,-48.419c26.719,0 48.419,21.7 48.419,48.419c0,26.571 -21.7,48.419 -48.419,48.419Z" style="fill-rule:nonzero;"/></g><path id="tassel_2_" d="M2064.78,1233.97c1.624,-5.02 2.657,-10.186 2.657,-15.796c0,-23.323 -16.385,-42.809 -38.38,-47.533l6.938,-122.671l1.328,-22.733l1.919,-34.691l1.329,-22.29l-0,-0.59c1.919,-38.234 -17.271,-73.957 -50.338,-93.295l-276.637,-162.233l-10.481,17.862l276.785,162.232c26.423,15.5 41.923,44.286 40.152,74.991l-0.591,9.152l-1.328,22.733l-1.919,34.691l-1.329,22.733l-6.495,114.257c-21.848,4.724 -38.233,24.209 -38.233,47.533c-0,5.462 0.886,10.776 2.657,15.795l-93.147,93.147l14.614,14.615l89.604,-89.605c6.496,6.791 15.057,11.662 24.505,13.729l0,127.542l20.667,0l-0,-127.542c9.595,-2.067 18.009,-6.938 24.504,-13.729l89.752,89.752l14.615,-14.614l-93.148,-93.442Zm-45.909,12.252c-15.352,-0 -27.9,-12.548 -27.9,-27.9c0,-15.352 12.548,-27.9 27.9,-27.9c15.5,0 27.9,12.548 27.9,27.9c-0,15.352 -12.548,27.9 -27.9,27.9Z" style="fill-rule:nonzero;"/><g id="face_2_"><g id="eyes_2_"><path d="M1236.49,1196.77c0,15.795 -1.771,31.442 -5.166,46.352c-0.886,4.281 -2.067,8.562 -3.248,12.695l-19.781,-5.905c0.738,-2.362 1.329,-4.723 1.919,-7.233c3.691,-14.762 5.61,-30.262 5.61,-46.057c-0,-12.548 -1.181,-24.8 -3.543,-36.462c-7.972,40.448 -43.695,71.005 -86.505,71.005c-21.404,-0 -41.038,-7.676 -56.39,-20.372c17.419,-5.904 29.967,-22.29 29.967,-41.776c-0,-24.357 -19.781,-44.138 -44.138,-44.138c-5.758,0 -11.367,1.181 -16.386,3.248c7.086,-41.628 43.252,-73.366 86.947,-73.366c1.624,-0 3.1,-0 4.724,0.147c-7.676,-2.362 -15.648,-3.543 -23.914,-3.543c-60.229,0 -109.238,65.1 -109.238,145.257c0,80.009 49.009,145.257 109.238,145.257c10.038,-0 19.928,-1.772 29.524,-5.315c4.428,-1.623 8.857,-3.69 13.138,-6.2l10.185,18.01c-1.919,1.033 -3.838,2.067 -5.757,3.1c-14.909,7.381 -30.704,11.219 -47.09,11.219c-9.005,-0 -17.714,-1.181 -26.276,-3.395c-7.086,-1.772 -14.024,-4.429 -20.814,-7.676c-7.086,-3.543 -13.877,-7.824 -20.372,-12.843l-20.371,31.59l-17.272,-11.219l22.291,-34.395c-3.395,-3.543 -6.643,-7.381 -9.743,-11.514c-7.824,-10.186 -14.467,-21.405 -19.929,-33.51l-40.299,18.6l-8.71,-18.747l41.629,-19.191c-4.577,-14.171 -7.529,-29.081 -8.858,-44.581l-44.58,6.643l-3.1,-20.371l46.795,-7.086c0.295,-43.104 13.433,-83.7 37.052,-114.404c12.548,-16.238 27.162,-28.786 43.105,-37.2c6.642,-3.543 13.581,-6.348 20.519,-8.267c9.447,-2.657 19.19,-4.133 29.08,-4.133c71.448,-0.148 129.757,74.252 129.757,165.776Z" style="fill-rule:nonzero;"/><path d="M1632.7,1293.6l3.1,-20.371l-39.415,-5.905c1.772,-6.938 3.1,-14.023 4.134,-21.257c1.033,-7.528 1.771,-15.057 1.919,-22.733c-0,-2.214 0.147,-4.429 0.147,-6.643c0,-9.005 -0.59,-17.862 -1.623,-26.571c-1.181,-9.153 -2.953,-18.305 -5.167,-27.014c-6.2,-23.324 -16.386,-44.729 -30.262,-62.738c-24.505,-32.034 -57.571,-49.6 -92.704,-49.6c-12.548,-0 -24.8,2.214 -36.462,6.495c-7.233,2.657 -14.172,6.052 -20.962,10.333c-7.086,4.429 -13.876,9.743 -20.224,15.796c-4.871,4.576 -9.595,9.742 -14.024,15.352c-0.442,0.443 -0.738,1.033 -1.18,1.476c-23.915,31.148 -37.2,72.481 -37.2,116.324c-0,43.842 13.138,85.175 37.2,116.323c24.504,32.033 57.571,49.6 92.704,49.6c11.071,-0 21.848,-1.772 32.329,-5.167l16.533,34.691l18.6,-8.858l-16.238,-33.952c15.057,-8.266 28.785,-20.076 40.742,-35.428l39.119,22.29l10.186,-18.009l-37.643,-21.553c5.462,-9.152 10.186,-19.042 13.876,-29.376l42.515,6.495Zm-160.019,68.2c-60.228,0 -109.238,-65.1 -109.238,-145.256c0,-80.01 49.01,-145.257 109.238,-145.257c1.329,-0 2.657,-0 4.133,0.147c-33.952,8.267 -60.228,36.019 -66.133,70.857c5.019,-2.066 10.629,-3.1 16.386,-3.1c24.357,0 44.138,19.781 44.138,44.138c-0,19.486 -12.548,35.872 -29.967,41.776c15.353,12.696 34.986,20.372 56.391,20.372c37.495,-0 69.528,-23.472 82.371,-56.391c1.328,9.005 2.066,18.158 2.066,27.605c-0.147,80.009 -49.157,145.109 -109.385,145.109Z" style="fill-rule:nonzero;"/><path d="M1581.92,1216.55c-0,80.009 -49.01,145.256 -109.238,145.256c-60.228,0 -109.238,-65.1 -109.238,-145.256c0,-80.01 49.01,-145.257 109.238,-145.257c1.329,-0 2.657,-0 4.133,0.147c-33.952,8.267 -60.228,36.019 -66.133,70.857c5.019,-2.066 10.629,-3.1 16.386,-3.1c24.357,0 44.138,19.781 44.138,44.138c-0,19.486 -12.548,35.872 -29.967,41.776c15.353,12.696 34.986,20.372 56.391,20.372c37.495,-0 69.528,-23.472 82.371,-56.391c1.181,8.858 1.919,18.01 1.919,27.458Z" style="fill:#fff;fill-rule:nonzero;"/></g><path id="nose_2_" d="M1231.32,1243.12c-4.281,-0.443 -8.562,-0.591 -12.991,-0.591c-2.805,0 -5.462,0 -8.119,0.148c-49.009,2.657 -86.209,29.229 -86.209,62.59c-0,11.515 4.428,22.143 12.105,31.295c4.723,5.61 10.628,10.481 17.566,14.91c16.681,10.333 39.414,16.681 64.657,16.681c52.848,-0 94.328,-27.605 94.328,-62.738c-0.147,-32.329 -34.838,-58.162 -81.337,-62.295Zm-12.991,104.366c-39.857,0 -73.662,-19.338 -73.662,-42.071c0,-22.881 33.805,-42.071 73.662,-42.071c39.857,-0 73.662,19.338 73.662,42.071c-0.148,22.733 -33.805,42.071 -73.662,42.071Z" style="fill-rule:nonzero;"/><path d="M1391.93,1458.35c-26.719,33.657 -69.086,39.857 -96.543,39.857c-14.909,-0 -25.538,-1.772 -26.719,-2.067l3.691,-20.371c2.804,0.443 69.528,12.105 103.333,-30.41c18.157,-22.88 21.552,-51.519 17.271,-55.947c-3.248,-0.148 -12.695,5.167 -19.486,9.152c-18.157,10.334 -42.957,24.21 -75.876,24.21l-0.885,-0c-46.205,-0.295 -81.338,-17.124 -102.743,-31l11.367,-17.272c19.043,12.4 50.485,27.458 91.671,27.753l0.738,-0c27.457,-0 48.567,-11.957 65.69,-21.553c15.648,-8.857 30.41,-17.271 42.662,-7.233c19.486,16.238 4.724,61.114 -14.171,84.881Z" style="fill-rule:nonzero;"/><path d="M1122.53,975.042l-45.319,19.486l-20.519,8.857l-69.824,29.967l-8.119,-18.895l77.648,-33.362l20.666,-8.857l37.348,-16.091l8.119,18.895Z" style="fill-rule:nonzero;"/></g></g></g></g></svg>