<?xml version="1.0" encoding="UTF-8" standalone="no"?><!DOCTYPE svg PUBLIC "-//W3C//DTD SVG 1.1//EN" "http://www.w3.org/Graphics/SVG/1.1/DTD/svg11.dtd"><svg width="100%" height="100%" viewBox="0 0 120 120" version="1.1" xmlns="http://www.w3.org/2000/svg" xmlns:xlink="http://www.w3.org/1999/xlink" xml:space="preserve" xmlns:serif="http://www.serif.com/" style="fill-rule:evenodd;clip-rule:evenodd;stroke-linejoin:round;stroke-miterlimit:2;"><rect id="bagussuprapta" x="0" y="0" width="120" height="120" style="fill:none;"/><clipPath id="_clip1"><rect id="bagussuprapta1" serif:id="bagussuprapta" x="0" y="0" width="120" height="120"/></clipPath><g clip-path="url(#_clip1)"><path d="M-32.77,187.044c11.031,-32.178 37.821,-54.624 97.619,-54.117c57.201,0.486 82.661,20.408 93.436,48.464c8.945,-17.269 14.036,-37.562 14.036,-59.244l-0,-30.767c-0,-63.678 -43.904,-115.377 -97.982,-115.377l-26.128,0c-54.078,0 -97.982,51.699 -97.982,115.377l-0,30.767c-0,24.063 6.27,46.417 17.001,64.897Z" style="fill:#9bd8eb;fill-rule:nonzero;"/><path d="M86.94,36.313c-0.431,-2.37 -0.862,-6.896 -2.888,-8.577c-1.035,-0.862 -2.198,-1.035 -3.319,-0.302c-0.388,0.216 -0.646,0.518 -0.862,0.819c-0.561,0.043 -1.078,0.388 -1.078,1.121c0.043,4.612 0.172,9.224 0.431,13.836c0.129,2.457 -0.129,5.948 1.509,8.06c3.405,4.397 6.638,-0.086 6.94,-3.792c0.215,-3.707 -0.043,-7.501 -0.733,-11.165Z" style="fill-rule:nonzero;"/><path d="M2.587,122.756c9.528,16.461 32.177,5.755 50.354,5.755l14.118,-0c19.27,-0 47.996,12.227 57.204,-5.949c-7.592,-28.774 -31.425,-50.293 -62.331,-50.556c-32.31,-0.274 -53.657,26.286 -59.345,50.75Z" style="fill-rule:nonzero;"/><path d="M36.636,46.092c0.948,17.198 -3.491,50.561 29.957,48.233c17.328,-1.207 18.233,-17.716 17.889,-33.836c-0.302,-15.043 -1.208,-29.699 -2.328,-32.673c-2.328,-6.25 -47.457,-16.336 -45.518,18.276Z" style="fill:#fff;fill-rule:nonzero;"/><path d="M44.912,68.038c-0.834,0.326 -1.683,0.614 -2.543,0.862l-1.681,-15.517c1.293,0.215 1.767,-1.811 0.431,-2.285c-0.259,-0.086 -0.517,-0.129 -0.776,-0.216c-0.345,-0.862 -1.552,-1.034 -2.026,-0.431c-7.328,-1.034 -15.345,3.449 -14.655,11.94c0.732,8.793 9.353,10.56 16.638,9.354c0.043,0.301 0.043,0.56 0.086,0.862c0.172,1.465 2.5,1.508 2.327,-0c-0.042,-0.432 -0.086,-0.906 -0.129,-1.337c1.035,-0.258 2.026,-0.603 2.931,-0.948c1.38,-0.603 0.819,-2.888 -0.603,-2.284Zm32.888,-15.821c0.776,-0.301 1.681,-0.56 2.586,-0.775c0.345,5.215 0.734,10.388 1.078,15.603c-1.25,-0.301 -1.853,1.724 -0.517,2.242l0.776,0.258c0.302,0.905 1.508,1.078 2.026,0.517c7.284,1.337 15.474,-2.844 15.086,-11.336c-0.388,-8.793 -8.923,-10.948 -16.293,-10c-0,-0.302 -0.043,-0.56 -0.043,-0.862c-0.086,-1.465 -2.414,-1.595 -2.328,-0.086c0.043,0.431 0.043,0.905 0.086,1.336c-0.998,0.21 -1.978,0.498 -2.931,0.862c-1.422,0.474 -0.905,2.759 0.474,2.241Z" style="fill:#fff;fill-rule:nonzero;"/><path d="M38.141,62.517c-0.948,-2.586 -3.103,-4.569 -5.862,-5.129c-1.466,-0.302 -2.112,1.94 -0.603,2.241c1.896,0.388 3.534,1.681 4.224,3.535c0.517,1.379 2.759,0.775 2.241,-0.647Zm53.584,-8.061c-0.345,-0.603 -1.035,-0.647 -1.595,-0.431c-2.241,0.948 -3.879,3.017 -4.397,5.388c-0.302,1.466 1.94,2.069 2.242,0.604c0.388,-1.854 1.594,-3.233 3.319,-3.966c0.603,-0.259 0.733,-1.078 0.431,-1.595Zm-58.193,-1.335c-2.069,-9.612 -10.13,-26.854 15.172,-33.448c25.302,-6.595 38.923,-4.268 41.25,6.594c2.328,10.906 -14.008,9.742 -31.897,11.294c-17.887,1.551 -18.663,4.267 -19.051,11.681c-0.431,7.37 -4.31,9.31 -5.474,3.879Z" style="fill-rule:nonzero;"/><path d="M56.289,53.25c-1.94,-0 -1.94,3.06 0,3.06c1.983,-0 1.983,-3.06 0,-3.06Zm20.131,-1.381c-1.94,-0 -1.94,3.06 -0,3.06c1.939,-0.043 1.939,-3.06 -0,-3.06Zm-7.155,11.294c0.215,3.621 -4.741,4.742 -5.819,1.164c-0.431,-1.422 -2.673,-0.819 -2.242,0.604c0.776,2.543 3.32,4.396 6.035,3.922c2.672,-0.474 4.526,-3.061 4.396,-5.733c-0.129,-1.465 -2.5,-1.465 -2.37,0.043Z" style="fill-rule:nonzero;"/></g></svg>