<?xml version="1.0" encoding="UTF-8" standalone="no"?><!DOCTYPE svg PUBLIC "-//W3C//DTD SVG 1.1//EN" "http://www.w3.org/Graphics/SVG/1.1/DTD/svg11.dtd"><svg width="100%" height="100%" viewBox="0 0 120 120" version="1.1" xmlns="http://www.w3.org/2000/svg" xmlns:xlink="http://www.w3.org/1999/xlink" xml:space="preserve" xmlns:serif="http://www.serif.com/" style="fill-rule:evenodd;clip-rule:evenodd;stroke-linejoin:round;stroke-miterlimit:2;"><rect id="jovanacariya" x="0" y="0" width="120" height="120" style="fill:none;"/><clipPath id="_clip1"><rect x="0" y="0" width="120" height="120"/></clipPath><g clip-path="url(#_clip1)"><path d="M126.296,3.655c-0,-5.519 -4.481,-10 -10,-10l-112.592,0c-5.519,0 -10,4.481 -10,10l0,112.592c0,5.519 4.481,10 10,10l112.592,-0c5.519,-0 10,-4.481 10,-10l-0,-112.592Z" style="fill:#f8a2a2;"/><path d="M59.917,16.709c-12.597,17.586 -39.483,47.092 -27.519,61.804c11.963,14.711 33.099,17.754 50.727,0.803c17.628,-16.952 24.138,-30.564 8.497,-45.866c-15.641,-15.303 -31.705,-16.741 -31.705,-16.741Z" style="fill:#fff;fill-rule:nonzero;"/><path d="M49.265,35.056c2.409,-0.338 2.959,3.382 0.549,3.72c-2.409,0.338 -2.959,-3.382 -0.549,-3.72Z" style="fill-rule:nonzero;"/><path d="M45.04,94.365c-0.803,-0.169 -1.649,-0.254 -2.452,-0.169l-0.296,-1.015l-4.861,-16.275l17.332,2.748l18.473,2.959c1.522,5.665 2.917,10.442 4.143,14.331c0.254,0.803 0.508,1.606 0.718,2.325c-8.031,-3.044 -16.57,-4.735 -25.279,-4.82c-2.451,-0.041 -4.861,0.085 -7.271,0.297c-0.084,-0.169 -0.253,-0.338 -0.507,-0.381Z" style="fill:#fff;fill-rule:nonzero;"/><path d="M90.016,26.94c14.5,13.612 27.435,34.283 13.781,49.84c-13.654,15.556 -43.372,22.193 -41.512,4.565c1.902,-17.628 12.09,-34.03 12.09,-34.03c-0,0 -25.448,-22.447 -19.319,-29.971c6.13,-7.567 24.899,0.127 34.96,9.596Z" style="fill-rule:nonzero;"/><path d="M72.348,49.767c16.57,9.892 14.668,22.786 8.708,28.027c-6.003,5.242 -20.333,-4.565 -20.333,-4.565l11.625,-23.462Z" style="fill:#fff;fill-rule:nonzero;"/><path d="M66.554,64.816c3.847,-0.718 7.609,-0.169 11.075,1.649c1.1,0.592 0.169,2.283 -0.93,1.733c-2.959,-1.564 -6.256,-2.113 -9.553,-1.522c-1.268,0.212 -1.818,-1.648 -0.592,-1.86Z" style="fill-rule:nonzero;"/><path d="M38.992,45.032c0.127,-0.465 0.719,-0.887 1.184,-0.676c0.803,0.338 1.606,0.634 2.452,0.972c0.507,0.212 0.845,0.634 0.676,1.184c-0.127,0.465 -0.718,0.888 -1.183,0.676c-0.804,-0.338 -1.607,-0.634 -2.452,-0.972c-0.508,-0.211 -0.846,-0.634 -0.677,-1.184Z" style="fill-rule:nonzero;"/><path d="M92.341,105.905c0,-1.268 1.987,-1.268 1.945,0c-0.085,6.511 -0.169,13.021 -0.254,19.489c-0,1.268 -1.987,1.268 -1.945,-0c0.128,-6.468 0.169,-12.978 0.254,-19.489Z" style="fill-rule:nonzero;"/><path d="M28.001,97.451c0.042,-1.268 1.987,-1.268 1.945,0l-0.888,26.336c-0.042,1.269 -1.987,1.269 -1.945,0l0.888,-26.336Z" style="fill-rule:nonzero;"/><path d="M12.783,105.61l0.972,18.516c0.085,1.268 -1.902,1.268 -1.944,-0l-0.973,-18.516c-0.084,-1.269 1.86,-1.269 1.945,-0Z" style="fill-rule:nonzero;"/><path d="M-4.677,120.068c6.848,-7.61 15.134,-13.824 24.307,-18.178c7.313,-3.509 15.134,-5.834 23.208,-6.849c0.338,-0.041 0.634,-0.084 0.972,-0.126c3.001,-0.338 6.003,-0.507 9.046,-0.465c8.709,0.127 17.248,1.776 25.28,4.819c12.132,4.608 23.081,12.259 31.62,22.236c0.803,0.972 2.198,-0.423 1.395,-1.395c-9.004,-10.527 -20.756,-18.558 -33.691,-23.166c-7.821,-2.79 -16.107,-4.354 -24.519,-4.439c-2.494,-0.042 -4.988,0.085 -7.482,0.296c-1.015,0.085 -2.072,0.212 -3.086,0.338c-8.624,1.142 -16.994,3.72 -24.772,7.609c-8.878,4.439 -16.909,10.527 -23.589,17.925c-0.93,0.972 0.465,2.366 1.311,1.395Z" style="fill-rule:nonzero;"/><path d="M68.371,95.506c0.043,-1.268 1.987,-1.268 1.945,0c-0.338,9.427 -0.635,18.854 -0.973,28.281c-0.042,1.268 -1.987,1.268 -1.944,0c0.338,-9.427 0.634,-18.854 0.972,-28.281Z" style="fill-rule:nonzero;"/><path d="M48.671,93.562c-0,-1.268 1.987,-1.268 1.945,0c-0.17,10.061 -0.296,20.164 -0.465,30.225c-0,1.269 -1.987,1.269 -1.945,0c0.169,-10.061 0.338,-20.164 0.465,-30.225Z" style="fill-rule:nonzero;"/></g></svg>