<?xml version="1.0" encoding="UTF-8" standalone="no"?><!DOCTYPE svg PUBLIC "-//W3C//DTD SVG 1.1//EN" "http://www.w3.org/Graphics/SVG/1.1/DTD/svg11.dtd"><svg width="100%" height="100%" viewBox="0 0 120 120" version="1.1" xmlns="http://www.w3.org/2000/svg" xmlns:xlink="http://www.w3.org/1999/xlink" xml:space="preserve" xmlns:serif="http://www.serif.com/" style="fill-rule:evenodd;clip-rule:evenodd;stroke-linejoin:round;stroke-miterlimit:2;"><rect id="ramamaheswara" x="0" y="0" width="120" height="120" style="fill:none;"/><clipPath id="_clip1"><rect x="0" y="0" width="120" height="120"/></clipPath><g clip-path="url(#_clip1)"><path d="M124.806,1.005c0,-5.519 -4.481,-10 -10,-10l-109.612,0c-5.519,0 -10,4.481 -10,10l-0,109.613c-0,5.519 4.481,10 10,10l109.612,-0c5.519,-0 10,-4.481 10,-10l0,-109.613Z" style="fill:#a4cf78;"/><path d="M85.473,128.782c10.9,-0.332 34.151,-4.808 34.151,-8.041c-0,-25.695 -7.254,-49.195 -58.977,-49.568c-51.723,-0.373 -61.131,24.245 -61.131,52.47c0,3.978 57.401,6.051 85.957,5.139Z" style="fill:#ff1a36;fill-rule:nonzero;"/><path d="M52.363,97.075c-1.74,5.927 -3.439,11.853 -5.18,17.78c-0.373,1.327 1.741,1.741 2.114,0.415c1.74,-5.927 3.439,-11.853 5.18,-17.78c0.373,-1.326 -1.741,-1.741 -2.114,-0.415Z" style="fill-rule:nonzero;"/><path d="M55.885,109.053c-0.083,-3.937 -0.166,-7.916 -0.207,-11.853c-0.042,-1.409 -2.197,-1.244 -2.156,0.166c0.083,3.937 0.166,7.916 0.208,11.853c-0,1.409 2.196,1.243 2.155,-0.166Z" style="fill-rule:nonzero;"/><path d="M59.86,105.697c-1.451,-0 -2.652,-0.498 -3.606,-1.534c-1.616,-1.699 -2.238,-4.517 -2.403,-7.045c-1.658,2.942 -4.145,6.05 -7.212,5.636c-2.279,-0.29 -3.813,-1.782 -3.979,-3.813c-0.124,-1.451 0.456,-6.466 12.392,-10.03c0.415,-0.124 0.871,0 1.161,0.373c1.45,1.783 8.579,10.9 6.921,14.713c-0.331,0.746 -1.078,1.617 -2.859,1.741c-0.166,-0.041 -0.291,-0.041 -0.415,-0.041Zm-3.896,-13.18c-0.207,2.528 -0.207,7.999 1.824,10.154c0.621,0.622 1.367,0.912 2.321,0.87c0.829,-0.041 0.953,-0.331 0.995,-0.455c0.663,-1.492 -1.949,-6.3 -5.14,-10.569Zm-2.031,-0.995c-7.418,2.57 -9.283,5.72 -9.159,7.253c0.083,0.954 0.87,1.658 2.114,1.824c3.067,0.373 6.175,-6.59 7.045,-9.077Z" style="fill-rule:nonzero;"/><path d="M89.034,41.83c-0.538,-10.029 -1.367,-18.194 -2.362,-20.391c-2.86,-6.382 -58.354,-16.826 -55.95,18.816c0.082,1.492 0.165,3.109 0.248,4.849c-6.714,-1.077 -14.091,2.777 -13.759,10.61c0.248,6.259 4.973,8.87 10.278,9.408c1.699,-0.041 3.398,-0.207 5.056,-0.414c2.57,14.63 9.864,28.141 32.659,26.815c18.401,-1.078 23.458,-15.045 24.245,-29.509c6.59,0.829 13.594,-3.026 13.304,-10.651c-0.332,-7.709 -7.253,-9.947 -13.719,-9.533Z" style="fill:#fff;fill-rule:nonzero;"/><path d="M96.161,48.751c-0.332,-0.58 -0.954,-0.621 -1.492,-0.373c-2.073,0.871 -3.606,2.777 -4.104,4.974c-0.29,1.367 1.782,1.948 2.073,0.58c0.373,-1.699 1.492,-3.025 3.108,-3.689c0.539,-0.248 0.663,-1.036 0.415,-1.492Z" style="fill-rule:nonzero;"/><path d="M30.18,58.077c0.581,-0.249 0.705,-0.87 0.539,-1.45c-0.663,-2.156 -2.404,-3.855 -4.559,-4.56c-1.326,-0.455 -2.113,1.575 -0.787,2.031c1.658,0.539 2.859,1.782 3.357,3.44c0.207,0.58 0.953,0.746 1.45,0.539Z" style="fill-rule:nonzero;"/><path d="M47.298,44.773c-2.486,-0 -2.486,3.895 0,3.895c2.487,0 2.487,-3.895 0,-3.895Z" style="fill-rule:nonzero;"/><path d="M73.615,43.944c-2.486,-0 -2.486,3.895 0,3.895c2.487,0 2.487,-3.895 0,-3.895Z" style="fill-rule:nonzero;"/><path d="M69.306,59.485c-0.124,-1.367 -2.321,-1.409 -2.155,0c0.414,4.352 0.787,13.055 -5.637,13.263c-6.382,0.207 -6.59,-8.455 -6.424,-12.766c0.042,-1.409 -2.113,-1.409 -2.155,0c-0.166,5.679 0.87,15.087 8.62,14.921c7.792,-0.125 8.29,-9.822 7.751,-15.418Z" style="fill-rule:nonzero;"/><path d="M89.736,18.869c-14.464,-12.309 -45.714,-3.771 -54.707,2.694c-6.59,5.139 -10.32,14.008 -7.129,20.971c4.02,8.704 11.19,-4.061 13.221,-9.449c11.315,7.999 25.945,7.128 36.14,-2.363c3.357,4.974 10.154,8.994 15.459,4.021c5.056,-4.767 1.451,-12.102 -2.984,-15.874Z" style="fill-rule:nonzero;"/></g></svg>