<?xml version="1.0" encoding="UTF-8" standalone="no"?><!DOCTYPE svg PUBLIC "-//W3C//DTD SVG 1.1//EN" "http://www.w3.org/Graphics/SVG/1.1/DTD/svg11.dtd"><svg width="100%" height="100%" viewBox="0 0 120 120" version="1.1" xmlns="http://www.w3.org/2000/svg" xmlns:xlink="http://www.w3.org/1999/xlink" xml:space="preserve" xmlns:serif="http://www.serif.com/" style="fill-rule:evenodd;clip-rule:evenodd;stroke-linejoin:round;stroke-miterlimit:2;"><rect id="rizkyfirmansyah" x="0" y="0" width="120" height="120" style="fill:none;"/><clipPath id="_clip1"><rect x="0" y="0" width="120" height="120"/></clipPath><g clip-path="url(#_clip1)"><path d="M124.62,3.655c0,-5.519 -4.481,-10 -10,-10l-108.623,0c-5.519,0 -10,4.481 -10,10l0,108.623c0,5.519 4.481,10 10,10l108.623,-0c5.519,-0 10,-4.481 10,-10l0,-108.623Z" style="fill:#e39ee4;"/><path d="M57.3,75.307c-22.856,-1.679 -39.39,4.714 -46.461,23.212c-4.964,12.963 -7.535,33.891 -5.643,34.998c1.893,1.107 93.78,0.321 95.351,-2.535c1.536,-2.858 -12.071,-53.39 -43.247,-55.675Z" style="fill:#fdd05b;fill-rule:nonzero;"/><path d="M66.767,124.982c-4.857,-8.928 -10.356,-17.392 -16.499,-25.463c-0.893,-1.143 -2.857,0 -1.964,1.143c6.142,8.071 11.642,16.571 16.499,25.463c0.714,1.285 2.678,0.143 1.964,-1.143Z" style="fill:#fff;fill-rule:nonzero;"/><path d="M24.622,129.731l-7.25,-9.141c-0.928,-1.143 -2.535,0.464 -1.607,1.606c2.429,3.036 4.821,6.107 7.25,9.143c0.892,1.178 2.499,-0.465 1.607,-1.608Z" style="fill-rule:nonzero;"/><path d="M71.44,23.81c9.928,14.856 31.248,40.033 20.963,51.854c-10.285,11.821 -27.82,13.713 -41.926,-0.75c-14.106,-14.463 -19.07,-25.927 -5.714,-38.14c13.356,-12.214 26.677,-12.964 26.677,-12.964Z" style="fill:#fff;fill-rule:nonzero;"/><path d="M73.977,33.131c5.428,-5.285 7.535,-12.999 -0.821,-16.356c-9.893,-4 -21.356,0.25 -29.677,5.785c-7.464,4.964 -15.606,11.321 -19.141,19.821c-0.036,0.071 -0.108,0.107 -0.143,0.142c-9.107,15.071 0.357,35.069 18.499,35.855c7.178,0.322 14.784,-3.214 16.106,-10.856c1.499,-8.75 -2.572,-19.07 -6.536,-27.07c7.928,0.786 15.892,-1.643 21.713,-7.321Z" style="fill-rule:nonzero;"/><path d="M71.657,40.38c-2.643,0 -2.643,4.107 -0,4.107c2.607,0 2.643,-4.107 -0,-4.107Z" style="fill-rule:nonzero;"/><path d="M55.691,45.13c-16.141,7.857 -16.748,15.463 -11.963,21.82c5.143,6.785 13.678,3.071 19.106,-1.643c-3.286,-5.142 -2.679,-14.713 -7.143,-20.177Z" style="fill:#fff;fill-rule:nonzero;"/><path d="M86.617,46.487c-1.928,1.036 -3.357,2.857 -3.75,5c-0.286,1.428 1.893,2.107 2.178,0.678c0.322,-1.607 1.215,-2.892 2.679,-3.678c1.321,-0.679 0.214,-2.678 -1.107,-2Z" style="fill-rule:nonzero;"/><path d="M56.193,59.594c-2.821,-1.929 -6.321,-2.108 -9.392,-0.679c-1.321,0.607 -0.178,2.607 1.143,1.964c2.357,-1.107 4.964,-0.786 7.107,0.679c1.214,0.857 2.357,-1.143 1.142,-1.964Z" style="fill-rule:nonzero;"/><path d="M36.588,33.595c-5.714,-17.034 -30.819,-10.213 -29.676,6.964c0.678,10.071 10.499,5.928 16.463,3.643c4.071,-1.536 13.535,-4.357 13.142,-9.75c0.143,-0.25 0.214,-0.535 0.071,-0.857Z" style="fill-rule:nonzero;"/><path d="M105.01,105.484c34.033,-1.429 41.461,3.999 51.747,14.284c10.284,10.285 1.999,12.857 -0.572,11.714c1.464,0 -0.036,6.856 -7.143,3.142c0.858,2.858 -4.57,8.035 -9.427,2.571c-5.036,-5.642 -11.143,-12.284 -11.143,-12.284c0,-0 3.143,14.856 0,16.285c-3.07,1.392 -6.285,-0.287 -9.07,-13.678c-0.179,-0.929 -0.929,-1.643 -1.857,-1.893c-3.536,-0.928 -12.249,-3.178 -13.357,-3.607c-1.464,-0.536 0.822,-16.534 0.822,-16.534Z" style="fill:#fff;fill-rule:nonzero;"/><path d="M81.764,82.735c-14.214,-8.107 -17.749,-11.464 -20.106,-6.321c-2.357,5.142 10.963,14.713 12.642,17.535c1.678,2.821 -2.321,40.354 0.678,40.997c3,0.642 31.106,3.071 34.355,1.035c1.607,-1 1.822,-12.784 3.321,-25.355c1.536,-12.785 4.393,-26.391 2.179,-29.677c-3.071,-4.535 -8.142,-3 -8.142,-3c-0,0 -0.821,-8.106 -9.464,-5.785c-0,0 3.464,-13.642 -2.928,-14.785c-4.143,-0.749 -4.965,3.929 -7.464,11.214c-2.536,7.321 -5.071,14.142 -5.071,14.142Z" style="fill:#fff;fill-rule:nonzero;"/><path d="M74.3,94.913c-0.322,-0 -0.643,-0.179 -0.822,-0.465c-0.429,-0.714 -1.964,-2.143 -3.571,-3.678c-4.678,-4.428 -11.071,-10.464 -9.107,-14.749c0.715,-1.572 1.607,-2.5 2.75,-2.857c2.5,-0.785 5.643,1.071 12.571,5.143c1.535,0.892 3.25,1.928 5.178,3.035c0.822,-2.214 2.75,-7.5 4.642,-12.999c0.322,-1 0.643,-1.929 0.929,-2.821c1.857,-5.714 3.214,-9.821 7.607,-9.035c0.535,0.107 0.892,0.607 0.786,1.107c-0.108,0.535 -0.607,0.893 -1.108,0.785c-2.642,-0.464 -3.535,1.893 -5.428,7.75c-0.286,0.892 -0.607,1.857 -0.928,2.857c-2.465,7.213 -5.036,14.07 -5.036,14.142c-0.107,0.25 -0.321,0.464 -0.571,0.571c-0.25,0.107 -0.572,0.072 -0.821,-0.071c-2.357,-1.322 -4.393,-2.536 -6.215,-3.607c-5.82,-3.429 -9.356,-5.5 -10.999,-4.964c-0.357,0.107 -0.928,0.428 -1.571,1.821c-1.393,3.036 4.928,8.964 8.678,12.535c1.893,1.786 3.357,3.179 3.928,4.107c0.286,0.464 0.107,1.036 -0.321,1.321c-0.25,0.036 -0.429,0.072 -0.571,0.072Z" style="fill-rule:nonzero;"/><path d="M97.011,71.164c-0.75,2.857 -1.5,5.75 -2.25,8.607c-0.358,1.428 1.785,2.214 2.142,0.785c0.75,-2.857 1.501,-5.75 2.25,-8.606c0.357,-1.393 -1.785,-2.215 -2.142,-0.786Z" style="fill-rule:nonzero;"/><path d="M105.153,77.878l-0.536,6.071c-0.142,1.464 2.143,1.678 2.286,0.178l0.536,-6.071c0.106,-1.464 -2.179,-1.643 -2.286,-0.178Z" style="fill-rule:nonzero;"/><path d="M95.586,64.522c-2,-0.214 -2.357,-2.5 -0.822,-3.572c1.214,-0.821 -0.285,-2.571 -1.464,-1.749c-3.285,2.249 -1.749,7.213 2.071,7.606c1.465,0.143 1.679,-2.143 0.215,-2.285Z" style="fill-rule:nonzero;"/><path d="M67.189,78.628c-0.892,-1.214 -2.571,-1.75 -4.035,-1.321c-0.607,0.178 -1.036,0.678 -0.928,1.321c0.107,0.571 0.75,1.107 1.321,0.928c1.393,-0.393 2.678,0.893 1.786,2.215c-0.822,1.214 1.035,2.535 1.856,1.321c0.929,-1.357 0.964,-3.143 0,-4.464Z" style="fill-rule:nonzero;"/><path d="M112.404,106.305c-0.785,5.535 -1.607,11.035 -2.392,16.57c-0.214,1.429 1.999,2.072 2.214,0.607c0.785,-5.535 1.607,-11.035 2.392,-16.57c0.179,-1.428 -2,-2.072 -2.214,-0.607Z" style="fill-rule:nonzero;"/></g></svg>